<svg width="734" height="145" viewBox="0 0 734 145" fill="none" xmlns="http://www.w3.org/2000/svg">
<path d="M92.032 83.2C92.032 89.7707 90.9653 95.872 88.832 101.504C86.6987 107.051 83.712 111.915 79.872 116.096C76.032 120.277 71.4667 123.52 66.176 125.824C60.8853 128.128 55.1253 129.28 48.896 129.28C42.5813 129.28 36.7787 128.128 31.488 125.824C26.2827 123.52 21.76 120.277 17.92 116.096C14.08 111.915 11.0933 107.051 8.96 101.504C6.82667 95.872 5.76 89.7707 5.76 83.2C5.76 76.544 6.82667 70.4427 8.96 64.896C11.0933 59.264 14.08 54.4 17.92 50.304C21.76 46.1227 26.2827 42.88 31.488 40.576C36.7787 38.272 42.5813 37.12 48.896 37.12C55.1253 37.12 60.8853 38.272 66.176 40.576C71.4667 42.88 76.032 46.1227 79.872 50.304C83.712 54.4 86.6987 59.264 88.832 64.896C90.9653 70.4427 92.032 76.544 92.032 83.2ZM81.024 83.2C81.024 76.2027 79.616 70.016 76.8 64.64C74.0693 59.264 70.3147 55.04 65.536 51.968C60.7573 48.896 55.2107 47.36 48.896 47.36C42.5813 47.36 36.992 48.896 32.128 51.968C27.3493 55.04 23.5947 59.264 20.864 64.64C18.1333 70.016 16.768 76.2027 16.768 83.2C16.768 90.112 18.1333 96.2987 20.864 101.76C23.5947 107.136 27.3493 111.36 32.128 114.432C36.992 117.504 42.5813 119.04 48.896 119.04C55.2107 119.04 60.7573 117.504 65.536 114.432C70.3147 111.36 74.0693 107.136 76.8 101.76C79.616 96.2987 81.024 90.112 81.024 83.2ZM140.118 60.16C145.921 60.16 150.486 61.3547 153.814 63.744C157.142 66.1333 159.489 69.3333 160.854 73.344C162.305 77.3547 163.03 81.8347 163.03 86.784V122.752C163.03 124.203 162.518 125.44 161.494 126.464C160.555 127.488 159.361 128 157.91 128C156.459 128 155.222 127.488 154.198 126.464C153.259 125.44 152.79 124.203 152.79 122.752V87.04C152.79 83.7973 152.278 80.896 151.254 78.336C150.315 75.6907 148.694 73.6 146.39 72.064C144.171 70.4427 141.099 69.632 137.174 69.632C133.59 69.632 130.305 70.4427 127.318 72.064C124.331 73.6 121.942 75.6907 120.15 78.336C118.358 80.896 117.462 83.7973 117.462 87.04V122.752C117.462 124.203 116.95 125.44 115.926 126.464C114.987 127.488 113.793 128 112.342 128C110.891 128 109.654 127.488 108.63 126.464C107.691 125.44 107.222 124.203 107.222 122.752V66.944C107.222 65.4933 107.691 64.2987 108.63 63.36C109.654 62.336 110.891 61.824 112.342 61.824C113.878 61.824 115.115 62.336 116.054 63.36C116.993 64.2987 117.462 65.4933 117.462 66.944V76.032L114.902 78.848C115.329 76.6293 116.31 74.4107 117.846 72.192C119.382 69.888 121.302 67.84 123.606 66.048C125.91 64.256 128.47 62.848 131.286 61.824C134.102 60.7147 137.046 60.16 140.118 60.16ZM236.5 33.28C237.951 33.28 239.145 33.792 240.084 34.816C241.108 35.7547 241.62 36.9493 241.62 38.4V122.752C241.62 124.203 241.108 125.44 240.084 126.464C239.145 127.488 237.951 128 236.5 128C234.964 128 233.727 127.488 232.788 126.464C231.849 125.44 231.38 124.203 231.38 122.752V110.592L233.812 109.696C233.812 111.744 233.172 113.92 231.892 116.224C230.612 118.443 228.863 120.533 226.644 122.496C224.425 124.459 221.78 126.08 218.708 127.36C215.721 128.64 212.479 129.28 208.98 129.28C203.263 129.28 198.057 127.787 193.364 124.8C188.756 121.813 185.087 117.717 182.356 112.512C179.711 107.307 178.388 101.376 178.388 94.72C178.388 87.9787 179.711 82.0053 182.356 76.8C185.087 71.5947 188.756 67.5413 193.364 64.64C197.972 61.6533 203.092 60.16 208.724 60.16C212.308 60.16 215.679 60.7573 218.836 61.952C221.993 63.1467 224.724 64.768 227.028 66.816C229.417 68.864 231.295 71.1253 232.66 73.6C234.025 76.0747 234.708 78.5493 234.708 81.024L231.38 80.256V38.4C231.38 36.9493 231.849 35.7547 232.788 34.816C233.727 33.792 234.964 33.28 236.5 33.28ZM210.132 119.808C214.399 119.808 218.153 118.741 221.396 116.608C224.724 114.389 227.284 111.403 229.076 107.648C230.953 103.808 231.892 99.4987 231.892 94.72C231.892 89.856 230.953 85.5467 229.076 81.792C227.284 78.0373 224.724 75.0933 221.396 72.96C218.153 70.7413 214.399 69.632 210.132 69.632C205.951 69.632 202.196 70.7413 198.868 72.96C195.625 75.0933 193.065 78.0373 191.188 81.792C189.311 85.5467 188.372 89.856 188.372 94.72C188.372 99.4133 189.311 103.68 191.188 107.52C193.065 111.275 195.625 114.261 198.868 116.48C202.196 118.699 205.951 119.808 210.132 119.808ZM291.189 129.28C284.362 129.28 278.389 127.829 273.269 124.928C268.149 122.027 264.138 118.059 261.237 113.024C258.421 107.904 257.013 102.016 257.013 95.36C257.013 87.936 258.464 81.6213 261.365 76.416C264.352 71.1253 268.192 67.1147 272.885 64.384C277.664 61.568 282.698 60.16 287.989 60.16C291.914 60.16 295.712 60.8853 299.381 62.336C303.05 63.7867 306.293 65.92 309.109 68.736C311.925 71.4667 314.186 74.7947 315.893 78.72C317.6 82.56 318.496 86.8693 318.581 91.648C318.581 93.0133 318.069 94.1653 317.045 95.104C316.021 96.0427 314.826 96.512 313.461 96.512H262.901L260.597 87.68H309.877L307.829 89.472V86.656C307.488 83.1573 306.293 80.1707 304.245 77.696C302.282 75.136 299.85 73.1733 296.949 71.808C294.133 70.4427 291.146 69.76 287.989 69.76C285.429 69.76 282.869 70.2293 280.309 71.168C277.834 72.0213 275.573 73.472 273.525 75.52C271.562 77.4827 269.941 80.0427 268.661 83.2C267.466 86.3573 266.869 90.1547 266.869 94.592C266.869 99.5413 267.85 103.893 269.813 107.648C271.861 111.403 274.677 114.389 278.261 116.608C281.845 118.741 286.026 119.808 290.805 119.808C293.792 119.808 296.394 119.424 298.613 118.656C300.832 117.888 302.752 116.949 304.373 115.84C305.994 114.645 307.36 113.451 308.469 112.256C309.578 111.488 310.645 111.104 311.669 111.104C312.949 111.104 313.973 111.531 314.741 112.384C315.594 113.237 316.021 114.261 316.021 115.456C316.021 116.907 315.338 118.187 313.973 119.296C311.584 121.941 308.341 124.288 304.245 126.336C300.149 128.299 295.797 129.28 291.189 129.28ZM376.134 38.4H421.702C423.153 38.4 424.39 38.8693 425.414 39.808C426.438 40.7467 426.95 41.9413 426.95 43.392C426.95 44.8427 426.438 46.0373 425.414 46.976C424.39 47.8293 423.153 48.256 421.702 48.256H380.486L381.638 46.08V78.464L380.358 77.056H415.942C417.393 77.056 418.63 77.5253 419.654 78.464C420.678 79.4027 421.19 80.5973 421.19 82.048C421.19 83.4987 420.678 84.6933 419.654 85.632C418.63 86.4853 417.393 86.912 415.942 86.912H380.742L381.638 85.76V118.912L380.87 118.016H421.702C423.153 118.016 424.39 118.528 425.414 119.552C426.438 120.576 426.95 121.728 426.95 123.008C426.95 124.459 426.438 125.653 425.414 126.592C424.39 127.531 423.153 128 421.702 128H376.134C374.683 128 373.446 127.488 372.422 126.464C371.483 125.44 371.014 124.203 371.014 122.752V43.52C371.014 42.0693 371.483 40.8747 372.422 39.936C373.446 38.912 374.683 38.4 376.134 38.4ZM438.51 117.504C437.742 116.395 437.401 115.243 437.486 114.048C437.571 112.768 438.297 111.659 439.662 110.72C440.515 110.123 441.497 109.867 442.606 109.952C443.801 110.037 444.867 110.592 445.806 111.616C448.195 114.432 450.926 116.693 453.998 118.4C457.07 120.021 460.825 120.832 465.262 120.832C467.31 120.747 469.358 120.405 471.406 119.808C473.454 119.211 475.161 118.187 476.526 116.736C477.977 115.2 478.702 113.195 478.702 110.72C478.702 108.331 477.977 106.453 476.526 105.088C475.075 103.637 473.198 102.485 470.894 101.632C468.59 100.693 466.073 99.8827 463.342 99.2C460.526 98.432 457.753 97.5787 455.022 96.64C452.291 95.616 449.817 94.3787 447.598 92.928C445.465 91.392 443.715 89.5147 442.35 87.296C441.07 84.992 440.43 82.2187 440.43 78.976C440.43 75.136 441.454 71.808 443.502 68.992C445.635 66.176 448.451 64 451.95 62.464C455.534 60.928 459.417 60.16 463.598 60.16C465.987 60.16 468.462 60.4587 471.022 61.056C473.667 61.568 476.227 62.5067 478.702 63.872C481.177 65.152 483.353 66.944 485.23 69.248C485.998 70.1013 486.425 71.168 486.51 72.448C486.595 73.728 486.041 74.88 484.846 75.904C483.907 76.5867 482.841 76.8853 481.646 76.8C480.537 76.7147 479.598 76.288 478.83 75.52C477.038 73.3867 474.777 71.7653 472.046 70.656C469.401 69.4613 466.457 68.864 463.214 68.864C461.166 68.864 459.161 69.1627 457.198 69.76C455.235 70.3573 453.571 71.3813 452.206 72.832C450.926 74.1973 450.286 76.1173 450.286 78.592C450.371 80.896 451.139 82.7733 452.59 84.224C454.041 85.6747 456.003 86.8693 458.478 87.808C460.953 88.6613 463.683 89.5147 466.67 90.368C469.401 91.0507 472.003 91.8613 474.478 92.8C477.038 93.6533 479.342 94.8053 481.39 96.256C483.438 97.7067 485.059 99.584 486.254 101.888C487.449 104.107 488.046 106.923 488.046 110.336C488.046 114.261 486.937 117.675 484.718 120.576C482.499 123.392 479.555 125.568 475.886 127.104C472.302 128.555 468.419 129.28 464.238 129.28C459.545 129.28 454.894 128.384 450.286 126.592C445.763 124.8 441.838 121.771 438.51 117.504ZM500.287 62.208H530.367C531.732 62.208 532.842 62.6773 533.695 63.616C534.634 64.5547 535.103 65.664 535.103 66.944C535.103 68.3093 534.634 69.4613 533.695 70.4C532.842 71.2533 531.732 71.68 530.367 71.68H500.287C499.007 71.68 497.898 71.2107 496.959 70.272C496.02 69.3333 495.551 68.1813 495.551 66.816C495.551 65.536 496.02 64.4693 496.959 63.616C497.898 62.6773 499.007 62.208 500.287 62.208ZM513.727 44.8C515.178 44.8 516.372 45.312 517.311 46.336C518.25 47.2747 518.719 48.4693 518.719 49.92V111.744C518.719 113.792 519.018 115.328 519.615 116.352C520.212 117.376 520.98 118.101 521.919 118.528C522.943 118.869 523.924 119.04 524.863 119.04C525.716 119.04 526.442 118.912 527.039 118.656C527.722 118.315 528.49 118.144 529.343 118.144C530.196 118.144 530.964 118.571 531.647 119.424C532.415 120.192 532.799 121.216 532.799 122.496C532.799 124.032 531.903 125.355 530.111 126.464C528.319 127.488 526.314 128 524.095 128C522.9 128 521.407 127.915 519.615 127.744C517.908 127.573 516.202 127.019 514.495 126.08C512.788 125.141 511.338 123.605 510.143 121.472C509.034 119.253 508.479 116.181 508.479 112.256V49.92C508.479 48.4693 508.991 47.2747 510.015 46.336C511.039 45.312 512.276 44.8 513.727 44.8ZM611.57 94.72C611.57 101.376 610.077 107.307 607.09 112.512C604.189 117.717 600.221 121.813 595.186 124.8C590.237 127.787 584.647 129.28 578.418 129.28C572.189 129.28 566.557 127.787 561.522 124.8C556.487 121.813 552.477 117.717 549.49 112.512C546.589 107.307 545.138 101.376 545.138 94.72C545.138 88.064 546.589 82.1333 549.49 76.928C552.477 71.7227 556.487 67.6267 561.522 64.64C566.557 61.6533 572.189 60.16 578.418 60.16C584.647 60.16 590.237 61.6533 595.186 64.64C600.221 67.6267 604.189 71.7227 607.09 76.928C610.077 82.1333 611.57 88.064 611.57 94.72ZM601.33 94.72C601.33 89.7707 600.306 85.4187 598.258 81.664C596.295 77.9093 593.565 74.9653 590.066 72.832C586.653 70.6987 582.77 69.632 578.418 69.632C574.066 69.632 570.141 70.6987 566.642 72.832C563.229 74.9653 560.498 77.9093 558.45 81.664C556.402 85.4187 555.378 89.7707 555.378 94.72C555.378 99.584 556.402 103.893 558.45 107.648C560.498 111.403 563.229 114.389 566.642 116.608C570.141 118.741 574.066 119.808 578.418 119.808C582.77 119.808 586.653 118.741 590.066 116.608C593.565 114.389 596.295 111.403 598.258 107.648C600.306 103.893 601.33 99.584 601.33 94.72ZM676.508 61.824C678.044 61.824 679.281 62.336 680.22 63.36C681.159 64.2987 681.628 65.4933 681.628 66.944V101.888C681.628 110.507 679.196 117.205 674.332 121.984C669.553 126.677 662.855 129.024 654.236 129.024C645.703 129.024 639.004 126.677 634.14 121.984C629.361 117.205 626.972 110.507 626.972 101.888V66.944C626.972 65.4933 627.441 64.2987 628.38 63.36C629.404 62.336 630.641 61.824 632.092 61.824C633.628 61.824 634.865 62.336 635.804 63.36C636.743 64.2987 637.212 65.4933 637.212 66.944V101.888C637.212 107.691 638.705 112.085 641.692 115.072C644.679 118.059 648.86 119.552 654.236 119.552C659.783 119.552 664.007 118.059 666.908 115.072C669.895 112.085 671.388 107.691 671.388 101.888V66.944C671.388 65.4933 671.857 64.2987 672.796 63.36C673.82 62.336 675.057 61.824 676.508 61.824Z" fill="#FFC007" fill-opacity="0.2"/>
<path d="M54.173 104.55C54.173 107.9 53.6147 111.027 52.498 113.93C51.3813 116.833 49.7957 119.402 47.741 121.635C45.731 123.824 43.319 125.543 40.505 126.794C37.7357 128.045 34.6983 128.67 31.393 128.67C28.0877 128.67 25.0503 128.045 22.281 126.794C19.5117 125.543 17.0997 123.824 15.045 121.635C13.035 119.402 11.4717 116.833 10.355 113.93C9.23833 111.027 8.68 107.9 8.68 104.55C8.68 101.2 9.23833 98.0733 10.355 95.17C11.4717 92.2667 13.035 89.7207 15.045 87.532C17.0997 85.2987 19.5117 83.5567 22.281 82.306C25.0503 81.0553 28.0877 80.43 31.393 80.43C34.6983 80.43 37.7357 81.0553 40.505 82.306C43.319 83.5567 45.731 85.2987 47.741 87.532C49.7957 89.7207 51.3813 92.2667 52.498 95.17C53.6147 98.0733 54.173 101.2 54.173 104.55ZM45.463 104.55C45.463 101.557 44.86 98.855 43.654 96.443C42.448 93.9863 40.7953 92.0433 38.696 90.614C36.5967 89.1847 34.1623 88.47 31.393 88.47C28.6237 88.47 26.1893 89.1847 24.09 90.614C21.9907 92.0433 20.338 93.964 19.132 96.376C17.9707 98.788 17.39 101.513 17.39 104.55C17.39 107.543 17.9707 110.267 19.132 112.724C20.338 115.136 21.9907 117.057 24.09 118.486C26.1893 119.915 28.6237 120.63 31.393 120.63C34.1623 120.63 36.5967 119.915 38.696 118.486C40.7953 117.057 42.448 115.136 43.654 112.724C44.86 110.267 45.463 107.543 45.463 104.55ZM80.3559 91.485C83.6612 91.485 86.1625 92.1773 87.8599 93.562C89.6019 94.9467 90.7855 96.8003 91.4109 99.123C92.0809 101.401 92.4159 103.947 92.4159 106.761V123.913C92.4159 125.074 92.0362 126.057 91.2769 126.861C90.5175 127.62 89.5572 128 88.3959 128C87.2345 128 86.2742 127.62 85.5149 126.861C84.7555 126.057 84.3759 125.074 84.3759 123.913V106.761C84.3759 105.287 84.1749 103.969 83.7729 102.808C83.4155 101.602 82.7455 100.642 81.7629 99.927C80.7802 99.2123 79.3732 98.855 77.5419 98.855C75.7552 98.855 74.2365 99.2123 72.9859 99.927C71.7799 100.642 70.8419 101.602 70.1719 102.808C69.5465 103.969 69.2339 105.287 69.2339 106.761V123.913C69.2339 125.074 68.8542 126.057 68.0949 126.861C67.3355 127.62 66.3752 128 65.2139 128C64.0525 128 63.0922 127.62 62.3329 126.861C61.5735 126.057 61.1939 125.074 61.1939 123.913V96.242C61.1939 95.0807 61.5735 94.1203 62.3329 93.361C63.0922 92.557 64.0525 92.155 65.2139 92.155C66.3752 92.155 67.3355 92.557 68.0949 93.361C68.8542 94.1203 69.2339 95.0807 69.2339 96.242V99.123L68.2289 98.922C68.6309 98.1627 69.2115 97.3587 69.9709 96.51C70.7302 95.6167 71.6235 94.7903 72.6509 94.031C73.6782 93.2717 74.8395 92.6687 76.1349 92.222C77.4302 91.7307 78.8372 91.485 80.3559 91.485ZM130.452 78.42C131.613 78.42 132.574 78.7997 133.333 79.559C134.092 80.3183 134.472 81.301 134.472 82.507V123.913C134.472 125.074 134.092 126.057 133.333 126.861C132.574 127.62 131.613 128 130.452 128C129.291 128 128.33 127.62 127.571 126.861C126.812 126.057 126.432 125.074 126.432 123.913V120.63L127.906 121.233C127.906 121.814 127.593 122.528 126.968 123.377C126.343 124.181 125.494 124.985 124.422 125.789C123.35 126.593 122.077 127.285 120.603 127.866C119.174 128.402 117.61 128.67 115.913 128.67C112.831 128.67 110.039 127.888 107.538 126.325C105.037 124.717 103.049 122.528 101.575 119.759C100.146 116.945 99.431 113.729 99.431 110.111C99.431 106.448 100.146 103.232 101.575 100.463C103.049 97.649 105.014 95.4603 107.471 93.897C109.928 92.289 112.652 91.485 115.645 91.485C117.566 91.485 119.33 91.7753 120.938 92.356C122.546 92.9367 123.931 93.6737 125.092 94.567C126.298 95.4603 127.214 96.376 127.839 97.314C128.509 98.2073 128.844 98.9667 128.844 99.592L126.432 100.463V82.507C126.432 81.3457 126.812 80.3853 127.571 79.626C128.33 78.822 129.291 78.42 130.452 78.42ZM116.918 121.3C118.883 121.3 120.603 120.809 122.077 119.826C123.551 118.843 124.69 117.503 125.494 115.806C126.343 114.109 126.767 112.21 126.767 110.111C126.767 107.967 126.343 106.046 125.494 104.349C124.69 102.652 123.551 101.312 122.077 100.329C120.603 99.3463 118.883 98.855 116.918 98.855C114.997 98.855 113.3 99.3463 111.826 100.329C110.352 101.312 109.191 102.652 108.342 104.349C107.538 106.046 107.136 107.967 107.136 110.111C107.136 112.21 107.538 114.109 108.342 115.806C109.191 117.503 110.352 118.843 111.826 119.826C113.3 120.809 114.997 121.3 116.918 121.3ZM160.061 128.67C156.265 128.67 152.959 127.888 150.145 126.325C147.376 124.717 145.232 122.551 143.713 119.826C142.239 117.101 141.502 114.019 141.502 110.58C141.502 106.56 142.306 103.143 143.914 100.329C145.567 97.4703 147.711 95.2817 150.346 93.763C152.982 92.2443 155.773 91.485 158.721 91.485C160.999 91.485 163.143 91.954 165.153 92.892C167.208 93.83 169.017 95.1253 170.58 96.778C172.144 98.386 173.372 100.262 174.265 102.406C175.203 104.55 175.672 106.828 175.672 109.24C175.628 110.312 175.203 111.183 174.399 111.853C173.595 112.523 172.657 112.858 171.585 112.858H145.991L143.981 106.158H168.57L167.096 107.498V105.689C167.007 104.394 166.538 103.232 165.689 102.205C164.885 101.178 163.858 100.374 162.607 99.793C161.401 99.1677 160.106 98.855 158.721 98.855C157.381 98.855 156.131 99.0337 154.969 99.391C153.808 99.7483 152.803 100.351 151.954 101.2C151.106 102.049 150.436 103.188 149.944 104.617C149.453 106.046 149.207 107.855 149.207 110.044C149.207 112.456 149.699 114.511 150.681 116.208C151.709 117.861 153.004 119.134 154.567 120.027C156.175 120.876 157.873 121.3 159.659 121.3C161.312 121.3 162.63 121.166 163.612 120.898C164.595 120.63 165.377 120.317 165.957 119.96C166.583 119.558 167.141 119.223 167.632 118.955C168.436 118.553 169.196 118.352 169.91 118.352C170.893 118.352 171.697 118.687 172.322 119.357C172.992 120.027 173.327 120.809 173.327 121.702C173.327 122.908 172.702 124.002 171.451 124.985C170.29 125.968 168.66 126.839 166.56 127.598C164.461 128.313 162.295 128.67 160.061 128.67ZM206.232 81.1H228.677C229.838 81.1 230.799 81.4797 231.558 82.239C232.362 82.9537 232.764 83.8917 232.764 85.053C232.764 86.1697 232.362 87.0853 231.558 87.8C230.799 88.47 229.838 88.805 228.677 88.805H209.917L210.52 87.666V100.731L209.984 100.195H225.662C226.823 100.195 227.784 100.575 228.543 101.334C229.347 102.049 229.749 102.987 229.749 104.148C229.749 105.265 229.347 106.18 228.543 106.895C227.784 107.565 226.823 107.9 225.662 107.9H210.185L210.52 107.364V120.898L209.984 120.295H228.677C229.838 120.295 230.799 120.697 231.558 121.501C232.362 122.26 232.764 123.154 232.764 124.181C232.764 125.298 232.362 126.213 231.558 126.928C230.799 127.643 229.838 128 228.677 128H206.232C205.071 128 204.088 127.62 203.284 126.861C202.525 126.057 202.145 125.074 202.145 123.913V85.187C202.145 84.0257 202.525 83.0653 203.284 82.306C204.088 81.502 205.071 81.1 206.232 81.1ZM237.74 122.439C237.293 121.814 237.092 121.01 237.137 120.027C237.182 119.044 237.762 118.196 238.879 117.481C239.594 117.034 240.353 116.856 241.157 116.945C241.961 116.99 242.743 117.392 243.502 118.151C244.797 119.446 246.16 120.451 247.589 121.166C249.018 121.881 250.805 122.238 252.949 122.238C253.619 122.193 254.356 122.104 255.16 121.97C255.964 121.791 256.656 121.434 257.237 120.898C257.862 120.317 258.175 119.446 258.175 118.285C258.175 117.302 257.84 116.521 257.17 115.94C256.5 115.359 255.607 114.868 254.49 114.466C253.418 114.064 252.212 113.684 250.872 113.327C249.487 112.925 248.058 112.478 246.584 111.987C245.155 111.496 243.837 110.87 242.631 110.111C241.425 109.307 240.442 108.257 239.683 106.962C238.924 105.667 238.544 104.036 238.544 102.071C238.544 99.8377 239.169 97.9393 240.42 96.376C241.671 94.8127 243.279 93.6067 245.244 92.758C247.254 91.9093 249.353 91.485 251.542 91.485C252.927 91.485 254.378 91.6637 255.897 92.021C257.416 92.3337 258.867 92.8697 260.252 93.629C261.637 94.3437 262.798 95.304 263.736 96.51C264.227 97.18 264.518 97.984 264.607 98.922C264.696 99.86 264.272 100.709 263.334 101.468C262.664 102.004 261.882 102.25 260.989 102.205C260.096 102.116 259.359 101.803 258.778 101.267C258.019 100.284 256.991 99.5027 255.696 98.922C254.445 98.3413 252.994 98.051 251.341 98.051C250.671 98.051 249.934 98.1403 249.13 98.319C248.371 98.453 247.701 98.788 247.12 99.324C246.539 99.8153 246.249 100.619 246.249 101.736C246.249 102.763 246.584 103.59 247.254 104.215C247.924 104.796 248.817 105.287 249.934 105.689C251.095 106.046 252.324 106.404 253.619 106.761C254.959 107.118 256.321 107.543 257.706 108.034C259.091 108.525 260.364 109.173 261.525 109.977C262.686 110.781 263.624 111.831 264.339 113.126C265.054 114.377 265.411 115.985 265.411 117.95C265.411 120.228 264.741 122.171 263.401 123.779C262.061 125.387 260.386 126.615 258.376 127.464C256.366 128.268 254.311 128.67 252.212 128.67C249.577 128.67 246.941 128.223 244.306 127.33C241.671 126.392 239.482 124.762 237.74 122.439ZM272.541 92.825H288.42C289.492 92.825 290.386 93.1823 291.1 93.897C291.815 94.6117 292.172 95.505 292.172 96.577C292.172 97.6043 291.815 98.4753 291.1 99.19C290.386 99.86 289.492 100.195 288.42 100.195H272.541C271.469 100.195 270.576 99.8377 269.861 99.123C269.147 98.4083 268.789 97.515 268.789 96.443C268.789 95.4157 269.147 94.567 269.861 93.897C270.576 93.1823 271.469 92.825 272.541 92.825ZM279.71 84.45C280.872 84.45 281.81 84.852 282.524 85.656C283.284 86.4153 283.663 87.3757 283.663 88.537V118.352C283.663 118.977 283.775 119.491 283.998 119.893C284.266 120.295 284.601 120.585 285.003 120.764C285.45 120.943 285.919 121.032 286.41 121.032C286.946 121.032 287.438 120.943 287.884 120.764C288.331 120.541 288.845 120.429 289.425 120.429C290.051 120.429 290.609 120.719 291.1 121.3C291.636 121.881 291.904 122.685 291.904 123.712C291.904 124.963 291.212 125.99 289.827 126.794C288.487 127.598 287.036 128 285.472 128C284.534 128 283.485 127.933 282.323 127.799C281.207 127.62 280.135 127.241 279.107 126.66C278.125 126.035 277.298 125.097 276.628 123.846C275.958 122.595 275.623 120.876 275.623 118.687V88.537C275.623 87.3757 276.003 86.4153 276.762 85.656C277.566 84.852 278.549 84.45 279.71 84.45ZM334 110.111C334 113.774 333.174 117.012 331.521 119.826C329.913 122.595 327.724 124.762 324.955 126.325C322.23 127.888 319.171 128.67 315.776 128.67C312.381 128.67 309.299 127.888 306.53 126.325C303.805 124.762 301.617 122.595 299.964 119.826C298.356 117.012 297.552 113.774 297.552 110.111C297.552 106.448 298.356 103.232 299.964 100.463C301.617 97.649 303.805 95.4603 306.53 93.897C309.299 92.289 312.381 91.485 315.776 91.485C319.171 91.485 322.23 92.289 324.955 93.897C327.724 95.4603 329.913 97.649 331.521 100.463C333.174 103.232 334 106.448 334 110.111ZM325.96 110.111C325.96 107.833 325.491 105.868 324.553 104.215C323.66 102.518 322.431 101.2 320.868 100.262C319.349 99.324 317.652 98.855 315.776 98.855C313.9 98.855 312.18 99.324 310.617 100.262C309.098 101.2 307.87 102.518 306.932 104.215C306.039 105.868 305.592 107.833 305.592 110.111C305.592 112.344 306.039 114.31 306.932 116.007C307.87 117.66 309.098 118.955 310.617 119.893C312.18 120.831 313.9 121.3 315.776 121.3C317.652 121.3 319.349 120.831 320.868 119.893C322.431 118.955 323.66 117.66 324.553 116.007C325.491 114.31 325.96 112.344 325.96 110.111ZM367.636 92.155C368.797 92.155 369.757 92.557 370.517 93.361C371.276 94.1203 371.656 95.0807 371.656 96.242V113.26C371.656 117.995 370.338 121.747 367.703 124.516C365.067 127.285 361.271 128.67 356.313 128.67C351.355 128.67 347.558 127.285 344.923 124.516C342.332 121.747 341.037 117.995 341.037 113.26V96.242C341.037 95.0807 341.416 94.1203 342.176 93.361C342.935 92.557 343.895 92.155 345.057 92.155C346.218 92.155 347.178 92.557 347.938 93.361C348.697 94.1203 349.077 95.0807 349.077 96.242V113.26C349.077 115.985 349.68 118.017 350.886 119.357C352.092 120.652 353.901 121.3 356.313 121.3C358.769 121.3 360.601 120.652 361.807 119.357C363.013 118.017 363.616 115.985 363.616 113.26V96.242C363.616 95.0807 363.995 94.1203 364.755 93.361C365.514 92.557 366.474 92.155 367.636 92.155Z" fill="#FFC007"/>
</svg>
