<svg width="894" height="145" viewBox="0 0 894 145" fill="none" xmlns="http://www.w3.org/2000/svg">
    <path
        d="M92.032 83.2C92.032 89.7707 90.9653 95.872 88.832 101.504C86.6987 107.051 83.712 111.915 79.872 116.096C76.032 120.277 71.4667 123.52 66.176 125.824C60.8853 128.128 55.1253 129.28 48.896 129.28C42.5813 129.28 36.7787 128.128 31.488 125.824C26.2827 123.52 21.76 120.277 17.92 116.096C14.08 111.915 11.0933 107.051 8.96 101.504C6.82667 95.872 5.76 89.7707 5.76 83.2C5.76 76.544 6.82667 70.4427 8.96 64.896C11.0933 59.264 14.08 54.4 17.92 50.304C21.76 46.1227 26.2827 42.88 31.488 40.576C36.7787 38.272 42.5813 37.12 48.896 37.12C55.1253 37.12 60.8853 38.272 66.176 40.576C71.4667 42.88 76.032 46.1227 79.872 50.304C83.712 54.4 86.6987 59.264 88.832 64.896C90.9653 70.4427 92.032 76.544 92.032 83.2ZM81.024 83.2C81.024 76.2027 79.616 70.016 76.8 64.64C74.0693 59.264 70.3147 55.04 65.536 51.968C60.7573 48.896 55.2107 47.36 48.896 47.36C42.5813 47.36 36.992 48.896 32.128 51.968C27.3493 55.04 23.5947 59.264 20.864 64.64C18.1333 70.016 16.768 76.2027 16.768 83.2C16.768 90.112 18.1333 96.2987 20.864 101.76C23.5947 107.136 27.3493 111.36 32.128 114.432C36.992 117.504 42.5813 119.04 48.896 119.04C55.2107 119.04 60.7573 117.504 65.536 114.432C70.3147 111.36 74.0693 107.136 76.8 101.76C79.616 96.2987 81.024 90.112 81.024 83.2ZM140.118 60.16C145.921 60.16 150.486 61.3547 153.814 63.744C157.142 66.1333 159.489 69.3333 160.854 73.344C162.305 77.3547 163.03 81.8347 163.03 86.784V122.752C163.03 124.203 162.518 125.44 161.494 126.464C160.555 127.488 159.361 128 157.91 128C156.459 128 155.222 127.488 154.198 126.464C153.259 125.44 152.79 124.203 152.79 122.752V87.04C152.79 83.7973 152.278 80.896 151.254 78.336C150.315 75.6907 148.694 73.6 146.39 72.064C144.171 70.4427 141.099 69.632 137.174 69.632C133.59 69.632 130.305 70.4427 127.318 72.064C124.331 73.6 121.942 75.6907 120.15 78.336C118.358 80.896 117.462 83.7973 117.462 87.04V122.752C117.462 124.203 116.95 125.44 115.926 126.464C114.987 127.488 113.793 128 112.342 128C110.891 128 109.654 127.488 108.63 126.464C107.691 125.44 107.222 124.203 107.222 122.752V66.944C107.222 65.4933 107.691 64.2987 108.63 63.36C109.654 62.336 110.891 61.824 112.342 61.824C113.878 61.824 115.115 62.336 116.054 63.36C116.993 64.2987 117.462 65.4933 117.462 66.944V76.032L114.902 78.848C115.329 76.6293 116.31 74.4107 117.846 72.192C119.382 69.888 121.302 67.84 123.606 66.048C125.91 64.256 128.47 62.848 131.286 61.824C134.102 60.7147 137.046 60.16 140.118 60.16ZM236.5 33.28C237.951 33.28 239.145 33.792 240.084 34.816C241.108 35.7547 241.62 36.9493 241.62 38.4V122.752C241.62 124.203 241.108 125.44 240.084 126.464C239.145 127.488 237.951 128 236.5 128C234.964 128 233.727 127.488 232.788 126.464C231.849 125.44 231.38 124.203 231.38 122.752V110.592L233.812 109.696C233.812 111.744 233.172 113.92 231.892 116.224C230.612 118.443 228.863 120.533 226.644 122.496C224.425 124.459 221.78 126.08 218.708 127.36C215.721 128.64 212.479 129.28 208.98 129.28C203.263 129.28 198.057 127.787 193.364 124.8C188.756 121.813 185.087 117.717 182.356 112.512C179.711 107.307 178.388 101.376 178.388 94.72C178.388 87.9787 179.711 82.0053 182.356 76.8C185.087 71.5947 188.756 67.5413 193.364 64.64C197.972 61.6533 203.092 60.16 208.724 60.16C212.308 60.16 215.679 60.7573 218.836 61.952C221.993 63.1467 224.724 64.768 227.028 66.816C229.417 68.864 231.295 71.1253 232.66 73.6C234.025 76.0747 234.708 78.5493 234.708 81.024L231.38 80.256V38.4C231.38 36.9493 231.849 35.7547 232.788 34.816C233.727 33.792 234.964 33.28 236.5 33.28ZM210.132 119.808C214.399 119.808 218.153 118.741 221.396 116.608C224.724 114.389 227.284 111.403 229.076 107.648C230.953 103.808 231.892 99.4987 231.892 94.72C231.892 89.856 230.953 85.5467 229.076 81.792C227.284 78.0373 224.724 75.0933 221.396 72.96C218.153 70.7413 214.399 69.632 210.132 69.632C205.951 69.632 202.196 70.7413 198.868 72.96C195.625 75.0933 193.065 78.0373 191.188 81.792C189.311 85.5467 188.372 89.856 188.372 94.72C188.372 99.4133 189.311 103.68 191.188 107.52C193.065 111.275 195.625 114.261 198.868 116.48C202.196 118.699 205.951 119.808 210.132 119.808ZM291.189 129.28C284.362 129.28 278.389 127.829 273.269 124.928C268.149 122.027 264.138 118.059 261.237 113.024C258.421 107.904 257.013 102.016 257.013 95.36C257.013 87.936 258.464 81.6213 261.365 76.416C264.352 71.1253 268.192 67.1147 272.885 64.384C277.664 61.568 282.698 60.16 287.989 60.16C291.914 60.16 295.712 60.8853 299.381 62.336C303.05 63.7867 306.293 65.92 309.109 68.736C311.925 71.4667 314.186 74.7947 315.893 78.72C317.6 82.56 318.496 86.8693 318.581 91.648C318.581 93.0133 318.069 94.1653 317.045 95.104C316.021 96.0427 314.826 96.512 313.461 96.512H262.901L260.597 87.68H309.877L307.829 89.472V86.656C307.488 83.1573 306.293 80.1707 304.245 77.696C302.282 75.136 299.85 73.1733 296.949 71.808C294.133 70.4427 291.146 69.76 287.989 69.76C285.429 69.76 282.869 70.2293 280.309 71.168C277.834 72.0213 275.573 73.472 273.525 75.52C271.562 77.4827 269.941 80.0427 268.661 83.2C267.466 86.3573 266.869 90.1547 266.869 94.592C266.869 99.5413 267.85 103.893 269.813 107.648C271.861 111.403 274.677 114.389 278.261 116.608C281.845 118.741 286.026 119.808 290.805 119.808C293.792 119.808 296.394 119.424 298.613 118.656C300.832 117.888 302.752 116.949 304.373 115.84C305.994 114.645 307.36 113.451 308.469 112.256C309.578 111.488 310.645 111.104 311.669 111.104C312.949 111.104 313.973 111.531 314.741 112.384C315.594 113.237 316.021 114.261 316.021 115.456C316.021 116.907 315.338 118.187 313.973 119.296C311.584 121.941 308.341 124.288 304.245 126.336C300.149 128.299 295.797 129.28 291.189 129.28ZM376.134 38.4H421.702C423.153 38.4 424.39 38.8693 425.414 39.808C426.438 40.7467 426.95 41.9413 426.95 43.392C426.95 44.8427 426.438 46.0373 425.414 46.976C424.39 47.8293 423.153 48.256 421.702 48.256H380.486L381.638 46.08V78.464L380.358 77.056H415.942C417.393 77.056 418.63 77.5253 419.654 78.464C420.678 79.4027 421.19 80.5973 421.19 82.048C421.19 83.4987 420.678 84.6933 419.654 85.632C418.63 86.4853 417.393 86.912 415.942 86.912H380.742L381.638 85.76V118.912L380.87 118.016H421.702C423.153 118.016 424.39 118.528 425.414 119.552C426.438 120.576 426.95 121.728 426.95 123.008C426.95 124.459 426.438 125.653 425.414 126.592C424.39 127.531 423.153 128 421.702 128H376.134C374.683 128 373.446 127.488 372.422 126.464C371.483 125.44 371.014 124.203 371.014 122.752V43.52C371.014 42.0693 371.483 40.8747 372.422 39.936C373.446 38.912 374.683 38.4 376.134 38.4ZM438.51 117.504C437.742 116.395 437.401 115.243 437.486 114.048C437.571 112.768 438.297 111.659 439.662 110.72C440.515 110.123 441.497 109.867 442.606 109.952C443.801 110.037 444.867 110.592 445.806 111.616C448.195 114.432 450.926 116.693 453.998 118.4C457.07 120.021 460.825 120.832 465.262 120.832C467.31 120.747 469.358 120.405 471.406 119.808C473.454 119.211 475.161 118.187 476.526 116.736C477.977 115.2 478.702 113.195 478.702 110.72C478.702 108.331 477.977 106.453 476.526 105.088C475.075 103.637 473.198 102.485 470.894 101.632C468.59 100.693 466.073 99.8827 463.342 99.2C460.526 98.432 457.753 97.5787 455.022 96.64C452.291 95.616 449.817 94.3787 447.598 92.928C445.465 91.392 443.715 89.5147 442.35 87.296C441.07 84.992 440.43 82.2187 440.43 78.976C440.43 75.136 441.454 71.808 443.502 68.992C445.635 66.176 448.451 64 451.95 62.464C455.534 60.928 459.417 60.16 463.598 60.16C465.987 60.16 468.462 60.4587 471.022 61.056C473.667 61.568 476.227 62.5067 478.702 63.872C481.177 65.152 483.353 66.944 485.23 69.248C485.998 70.1013 486.425 71.168 486.51 72.448C486.595 73.728 486.041 74.88 484.846 75.904C483.907 76.5867 482.841 76.8853 481.646 76.8C480.537 76.7147 479.598 76.288 478.83 75.52C477.038 73.3867 474.777 71.7653 472.046 70.656C469.401 69.4613 466.457 68.864 463.214 68.864C461.166 68.864 459.161 69.1627 457.198 69.76C455.235 70.3573 453.571 71.3813 452.206 72.832C450.926 74.1973 450.286 76.1173 450.286 78.592C450.371 80.896 451.139 82.7733 452.59 84.224C454.041 85.6747 456.003 86.8693 458.478 87.808C460.953 88.6613 463.683 89.5147 466.67 90.368C469.401 91.0507 472.003 91.8613 474.478 92.8C477.038 93.6533 479.342 94.8053 481.39 96.256C483.438 97.7067 485.059 99.584 486.254 101.888C487.449 104.107 488.046 106.923 488.046 110.336C488.046 114.261 486.937 117.675 484.718 120.576C482.499 123.392 479.555 125.568 475.886 127.104C472.302 128.555 468.419 129.28 464.238 129.28C459.545 129.28 454.894 128.384 450.286 126.592C445.763 124.8 441.838 121.771 438.51 117.504ZM500.287 62.208H530.367C531.732 62.208 532.842 62.6773 533.695 63.616C534.634 64.5547 535.103 65.664 535.103 66.944C535.103 68.3093 534.634 69.4613 533.695 70.4C532.842 71.2533 531.732 71.68 530.367 71.68H500.287C499.007 71.68 497.898 71.2107 496.959 70.272C496.02 69.3333 495.551 68.1813 495.551 66.816C495.551 65.536 496.02 64.4693 496.959 63.616C497.898 62.6773 499.007 62.208 500.287 62.208ZM513.727 44.8C515.178 44.8 516.372 45.312 517.311 46.336C518.25 47.2747 518.719 48.4693 518.719 49.92V111.744C518.719 113.792 519.018 115.328 519.615 116.352C520.212 117.376 520.98 118.101 521.919 118.528C522.943 118.869 523.924 119.04 524.863 119.04C525.716 119.04 526.442 118.912 527.039 118.656C527.722 118.315 528.49 118.144 529.343 118.144C530.196 118.144 530.964 118.571 531.647 119.424C532.415 120.192 532.799 121.216 532.799 122.496C532.799 124.032 531.903 125.355 530.111 126.464C528.319 127.488 526.314 128 524.095 128C522.9 128 521.407 127.915 519.615 127.744C517.908 127.573 516.202 127.019 514.495 126.08C512.788 125.141 511.338 123.605 510.143 121.472C509.034 119.253 508.479 116.181 508.479 112.256V49.92C508.479 48.4693 508.991 47.2747 510.015 46.336C511.039 45.312 512.276 44.8 513.727 44.8ZM603.875 61.184C605.326 61.184 606.52 61.696 607.459 62.72C608.483 63.6587 608.995 64.8533 608.995 66.304V122.752C608.995 124.203 608.483 125.44 607.459 126.464C606.52 127.488 605.326 128 603.875 128C602.339 128 601.102 127.488 600.163 126.464C599.224 125.44 598.755 124.203 598.755 122.752V110.592L601.187 110.336C601.187 112.213 600.547 114.261 599.267 116.48C597.987 118.699 596.238 120.789 594.019 122.752C591.8 124.629 589.155 126.208 586.083 127.488C583.096 128.683 579.854 129.28 576.355 129.28C570.552 129.28 565.347 127.787 560.739 124.8C556.131 121.728 552.462 117.589 549.731 112.384C547.086 107.179 545.763 101.248 545.763 94.592C545.763 87.8507 547.086 81.92 549.731 76.8C552.462 71.5947 556.131 67.5413 560.739 64.64C565.347 61.6533 570.467 60.16 576.099 60.16C579.768 60.16 583.182 60.7573 586.339 61.952C589.496 63.1467 592.227 64.768 594.531 66.816C596.92 68.864 598.755 71.1253 600.035 73.6C601.4 76.0747 602.083 78.5493 602.083 81.024L598.755 80.256V66.304C598.755 64.8533 599.224 63.6587 600.163 62.72C601.102 61.696 602.339 61.184 603.875 61.184ZM577.507 119.808C581.774 119.808 585.528 118.699 588.771 116.48C592.099 114.261 594.659 111.275 596.451 107.52C598.328 103.68 599.267 99.3707 599.267 94.592C599.267 89.8987 598.328 85.6747 596.451 81.92C594.659 78.08 592.099 75.0933 588.771 72.96C585.528 70.7413 581.774 69.632 577.507 69.632C573.326 69.632 569.571 70.6987 566.243 72.832C563 74.9653 560.44 77.9093 558.563 81.664C556.686 85.4187 555.747 89.728 555.747 94.592C555.747 99.3707 556.643 103.68 558.435 107.52C560.312 111.275 562.872 114.261 566.115 116.48C569.443 118.699 573.24 119.808 577.507 119.808ZM659.588 60.8C665.391 60.8 670.084 62.2933 673.668 65.28C677.337 68.1813 679.769 72.32 680.964 77.696H679.044L679.94 75.392C680.964 73.0027 682.713 70.6987 685.188 68.48C687.663 66.2613 690.521 64.4267 693.764 62.976C697.007 61.5253 700.377 60.8 703.876 60.8C709.508 60.8 713.945 62.0373 717.188 64.512C720.431 66.9013 722.735 70.144 724.1 74.24C725.551 78.2507 726.276 82.7733 726.276 87.808V122.752C726.276 124.203 725.764 125.44 724.74 126.464C723.801 127.488 722.607 128 721.156 128C719.62 128 718.383 127.488 717.444 126.464C716.505 125.44 716.036 124.203 716.036 122.752V88.064C716.036 84.736 715.524 81.7493 714.5 79.104C713.561 76.3733 711.983 74.24 709.764 72.704C707.631 71.0827 704.687 70.272 700.932 70.272C697.433 70.272 694.233 71.0827 691.332 72.704C688.431 74.24 686.127 76.3733 684.42 79.104C682.713 81.7493 681.86 84.736 681.86 88.064V122.752C681.86 124.203 681.391 125.44 680.452 126.464C679.513 127.488 678.276 128 676.74 128C675.289 128 674.052 127.488 673.028 126.464C672.089 125.44 671.62 124.203 671.62 122.752V87.68C671.62 84.4373 671.151 81.536 670.212 78.976C669.359 76.3307 667.865 74.24 665.732 72.704C663.599 71.0827 660.655 70.272 656.9 70.272C653.487 70.272 650.372 71.0827 647.556 72.704C644.74 74.24 642.479 76.3307 640.772 78.976C639.065 81.536 638.212 84.4373 638.212 87.68V122.752C638.212 124.203 637.7 125.44 636.676 126.464C635.737 127.488 634.543 128 633.092 128C631.641 128 630.404 127.488 629.38 126.464C628.441 125.44 627.972 124.203 627.972 122.752V66.944C627.972 65.4933 628.441 64.2987 629.38 63.36C630.404 62.336 631.641 61.824 633.092 61.824C634.628 61.824 635.865 62.336 636.804 63.36C637.743 64.2987 638.212 65.4933 638.212 66.944V76.672L635.396 79.744C635.737 77.5253 636.591 75.3067 637.956 73.088C639.407 70.8693 641.241 68.8213 643.46 66.944C645.679 65.0667 648.153 63.5733 650.884 62.464C653.615 61.3547 656.516 60.8 659.588 60.8ZM808.07 94.72C808.07 101.376 806.577 107.307 803.59 112.512C800.689 117.717 796.721 121.813 791.686 124.8C786.737 127.787 781.147 129.28 774.918 129.28C768.689 129.28 763.057 127.787 758.022 124.8C752.987 121.813 748.977 117.717 745.99 112.512C743.089 107.307 741.638 101.376 741.638 94.72C741.638 88.064 743.089 82.1333 745.99 76.928C748.977 71.7227 752.987 67.6267 758.022 64.64C763.057 61.6533 768.689 60.16 774.918 60.16C781.147 60.16 786.737 61.6533 791.686 64.64C796.721 67.6267 800.689 71.7227 803.59 76.928C806.577 82.1333 808.07 88.064 808.07 94.72ZM797.83 94.72C797.83 89.7707 796.806 85.4187 794.758 81.664C792.795 77.9093 790.065 74.9653 786.566 72.832C783.153 70.6987 779.27 69.632 774.918 69.632C770.566 69.632 766.641 70.6987 763.142 72.832C759.729 74.9653 756.998 77.9093 754.95 81.664C752.902 85.4187 751.878 89.7707 751.878 94.72C751.878 99.584 752.902 103.893 754.95 107.648C756.998 111.403 759.729 114.389 763.142 116.608C766.641 118.741 770.566 119.808 774.918 119.808C779.27 119.808 783.153 118.741 786.566 116.608C790.065 114.389 792.795 111.403 794.758 107.648C796.806 103.893 797.83 99.584 797.83 94.72ZM819.76 117.504C818.992 116.395 818.651 115.243 818.736 114.048C818.821 112.768 819.547 111.659 820.912 110.72C821.765 110.123 822.747 109.867 823.856 109.952C825.051 110.037 826.117 110.592 827.056 111.616C829.445 114.432 832.176 116.693 835.248 118.4C838.32 120.021 842.075 120.832 846.512 120.832C848.56 120.747 850.608 120.405 852.656 119.808C854.704 119.211 856.411 118.187 857.776 116.736C859.227 115.2 859.952 113.195 859.952 110.72C859.952 108.331 859.227 106.453 857.776 105.088C856.325 103.637 854.448 102.485 852.144 101.632C849.84 100.693 847.323 99.8827 844.592 99.2C841.776 98.432 839.003 97.5787 836.272 96.64C833.541 95.616 831.067 94.3787 828.848 92.928C826.715 91.392 824.965 89.5147 823.6 87.296C822.32 84.992 821.68 82.2187 821.68 78.976C821.68 75.136 822.704 71.808 824.752 68.992C826.885 66.176 829.701 64 833.2 62.464C836.784 60.928 840.667 60.16 844.848 60.16C847.237 60.16 849.712 60.4587 852.272 61.056C854.917 61.568 857.477 62.5067 859.952 63.872C862.427 65.152 864.603 66.944 866.48 69.248C867.248 70.1013 867.675 71.168 867.76 72.448C867.845 73.728 867.291 74.88 866.096 75.904C865.157 76.5867 864.091 76.8853 862.896 76.8C861.787 76.7147 860.848 76.288 860.08 75.52C858.288 73.3867 856.027 71.7653 853.296 70.656C850.651 69.4613 847.707 68.864 844.464 68.864C842.416 68.864 840.411 69.1627 838.448 69.76C836.485 70.3573 834.821 71.3813 833.456 72.832C832.176 74.1973 831.536 76.1173 831.536 78.592C831.621 80.896 832.389 82.7733 833.84 84.224C835.291 85.6747 837.253 86.8693 839.728 87.808C842.203 88.6613 844.933 89.5147 847.92 90.368C850.651 91.0507 853.253 91.8613 855.728 92.8C858.288 93.6533 860.592 94.8053 862.64 96.256C864.688 97.7067 866.309 99.584 867.504 101.888C868.699 104.107 869.296 106.923 869.296 110.336C869.296 114.261 868.187 117.675 865.968 120.576C863.749 123.392 860.805 125.568 857.136 127.104C853.552 128.555 849.669 129.28 845.488 129.28C840.795 129.28 836.144 128.384 831.536 126.592C827.013 124.8 823.088 121.771 819.76 117.504Z"
        fill="#541084" fill-opacity="0.2" />
    <path
        d="M55.4809 104.55C55.4809 107.9 54.9225 111.027 53.8059 113.93C52.6892 116.833 51.1035 119.402 49.0489 121.635C47.0389 123.824 44.6269 125.543 41.8129 126.794C39.0435 128.045 36.0062 128.67 32.7009 128.67C29.3955 128.67 26.3582 128.045 23.5889 126.794C20.8195 125.543 18.4075 123.824 16.3529 121.635C14.3429 119.402 12.7795 116.833 11.6629 113.93C10.5462 111.027 9.98786 107.9 9.98786 104.55C9.98786 101.2 10.5462 98.0733 11.6629 95.17C12.7795 92.2667 14.3429 89.7207 16.3529 87.532C18.4075 85.2987 20.8195 83.5567 23.5889 82.306C26.3582 81.0553 29.3955 80.43 32.7009 80.43C36.0062 80.43 39.0435 81.0553 41.8129 82.306C44.6269 83.5567 47.0389 85.2987 49.0489 87.532C51.1035 89.7207 52.6892 92.2667 53.8059 95.17C54.9225 98.0733 55.4809 101.2 55.4809 104.55ZM46.7709 104.55C46.7709 101.557 46.1679 98.855 44.9619 96.443C43.7559 93.9863 42.1032 92.0433 40.0039 90.614C37.9045 89.1847 35.4702 88.47 32.7009 88.47C29.9315 88.47 27.4972 89.1847 25.3979 90.614C23.2985 92.0433 21.6459 93.964 20.4399 96.376C19.2785 98.788 18.6979 101.513 18.6979 104.55C18.6979 107.543 19.2785 110.267 20.4399 112.724C21.6459 115.136 23.2985 117.057 25.3979 118.486C27.4972 119.915 29.9315 120.63 32.7009 120.63C35.4702 120.63 37.9045 119.915 40.0039 118.486C42.1032 117.057 43.7559 115.136 44.9619 112.724C46.1679 110.267 46.7709 107.543 46.7709 104.55ZM81.6637 91.485C84.9691 91.485 87.4704 92.1773 89.1677 93.562C90.9097 94.9467 92.0934 96.8003 92.7187 99.123C93.3887 101.401 93.7237 103.947 93.7237 106.761V123.913C93.7237 125.074 93.3441 126.057 92.5847 126.861C91.8254 127.62 90.8651 128 89.7037 128C88.5424 128 87.5821 127.62 86.8227 126.861C86.0634 126.057 85.6837 125.074 85.6837 123.913V106.761C85.6837 105.287 85.4827 103.969 85.0807 102.808C84.7234 101.602 84.0534 100.642 83.0707 99.927C82.0881 99.2123 80.6811 98.855 78.8497 98.855C77.0631 98.855 75.5444 99.2123 74.2937 99.927C73.0877 100.642 72.1497 101.602 71.4797 102.808C70.8544 103.969 70.5417 105.287 70.5417 106.761V123.913C70.5417 125.074 70.1621 126.057 69.4027 126.861C68.6434 127.62 67.6831 128 66.5217 128C65.3604 128 64.4001 127.62 63.6407 126.861C62.8814 126.057 62.5017 125.074 62.5017 123.913V96.242C62.5017 95.0807 62.8814 94.1203 63.6407 93.361C64.4001 92.557 65.3604 92.155 66.5217 92.155C67.6831 92.155 68.6434 92.557 69.4027 93.361C70.1621 94.1203 70.5417 95.0807 70.5417 96.242V99.123L69.5367 98.922C69.9387 98.1627 70.5194 97.3587 71.2787 96.51C72.0381 95.6167 72.9314 94.7903 73.9587 94.031C74.9861 93.2717 76.1474 92.6687 77.4427 92.222C78.7381 91.7307 80.1451 91.485 81.6637 91.485ZM131.76 78.42C132.921 78.42 133.882 78.7997 134.641 79.559C135.4 80.3183 135.78 81.301 135.78 82.507V123.913C135.78 125.074 135.4 126.057 134.641 126.861C133.882 127.62 132.921 128 131.76 128C130.599 128 129.638 127.62 128.879 126.861C128.12 126.057 127.74 125.074 127.74 123.913V120.63L129.214 121.233C129.214 121.814 128.901 122.528 128.276 123.377C127.651 124.181 126.802 124.985 125.73 125.789C124.658 126.593 123.385 127.285 121.911 127.866C120.482 128.402 118.918 128.67 117.221 128.67C114.139 128.67 111.347 127.888 108.846 126.325C106.345 124.717 104.357 122.528 102.883 119.759C101.454 116.945 100.739 113.729 100.739 110.111C100.739 106.448 101.454 103.232 102.883 100.463C104.357 97.649 106.322 95.4603 108.779 93.897C111.236 92.289 113.96 91.485 116.953 91.485C118.874 91.485 120.638 91.7753 122.246 92.356C123.854 92.9367 125.239 93.6737 126.4 94.567C127.606 95.4603 128.522 96.376 129.147 97.314C129.817 98.2073 130.152 98.9667 130.152 99.592L127.74 100.463V82.507C127.74 81.3457 128.12 80.3853 128.879 79.626C129.638 78.822 130.599 78.42 131.76 78.42ZM118.226 121.3C120.191 121.3 121.911 120.809 123.385 119.826C124.859 118.843 125.998 117.503 126.802 115.806C127.651 114.109 128.075 112.21 128.075 110.111C128.075 107.967 127.651 106.046 126.802 104.349C125.998 102.652 124.859 101.312 123.385 100.329C121.911 99.3463 120.191 98.855 118.226 98.855C116.305 98.855 114.608 99.3463 113.134 100.329C111.66 101.312 110.499 102.652 109.65 104.349C108.846 106.046 108.444 107.967 108.444 110.111C108.444 112.21 108.846 114.109 109.65 115.806C110.499 117.503 111.66 118.843 113.134 119.826C114.608 120.809 116.305 121.3 118.226 121.3ZM161.369 128.67C157.572 128.67 154.267 127.888 151.453 126.325C148.684 124.717 146.54 122.551 145.021 119.826C143.547 117.101 142.81 114.019 142.81 110.58C142.81 106.56 143.614 103.143 145.222 100.329C146.875 97.4703 149.019 95.2817 151.654 93.763C154.289 92.2443 157.081 91.485 160.029 91.485C162.307 91.485 164.451 91.954 166.461 92.892C168.516 93.83 170.325 95.1253 171.888 96.778C173.451 98.386 174.68 100.262 175.573 102.406C176.511 104.55 176.98 106.828 176.98 109.24C176.935 110.312 176.511 111.183 175.707 111.853C174.903 112.523 173.965 112.858 172.893 112.858H147.299L145.289 106.158H169.878L168.404 107.498V105.689C168.315 104.394 167.846 103.232 166.997 102.205C166.193 101.178 165.166 100.374 163.915 99.793C162.709 99.1677 161.414 98.855 160.029 98.855C158.689 98.855 157.438 99.0337 156.277 99.391C155.116 99.7483 154.111 100.351 153.262 101.2C152.413 102.049 151.743 103.188 151.252 104.617C150.761 106.046 150.515 107.855 150.515 110.044C150.515 112.456 151.006 114.511 151.989 116.208C153.016 117.861 154.312 119.134 155.875 120.027C157.483 120.876 159.18 121.3 160.967 121.3C162.62 121.3 163.937 121.166 164.92 120.898C165.903 120.63 166.684 120.317 167.265 119.96C167.89 119.558 168.449 119.223 168.94 118.955C169.744 118.553 170.503 118.352 171.218 118.352C172.201 118.352 173.005 118.687 173.63 119.357C174.3 120.027 174.635 120.809 174.635 121.702C174.635 122.908 174.01 124.002 172.759 124.985C171.598 125.968 169.967 126.839 167.868 127.598C165.769 128.313 163.602 128.67 161.369 128.67ZM207.54 81.1H229.985C231.146 81.1 232.107 81.4797 232.866 82.239C233.67 82.9537 234.072 83.8917 234.072 85.053C234.072 86.1697 233.67 87.0853 232.866 87.8C232.107 88.47 231.146 88.805 229.985 88.805H211.225L211.828 87.666V100.731L211.292 100.195H226.97C228.131 100.195 229.092 100.575 229.851 101.334C230.655 102.049 231.057 102.987 231.057 104.148C231.057 105.265 230.655 106.18 229.851 106.895C229.092 107.565 228.131 107.9 226.97 107.9H211.493L211.828 107.364V120.898L211.292 120.295H229.985C231.146 120.295 232.107 120.697 232.866 121.501C233.67 122.26 234.072 123.154 234.072 124.181C234.072 125.298 233.67 126.213 232.866 126.928C232.107 127.643 231.146 128 229.985 128H207.54C206.379 128 205.396 127.62 204.592 126.861C203.833 126.057 203.453 125.074 203.453 123.913V85.187C203.453 84.0257 203.833 83.0653 204.592 82.306C205.396 81.502 206.379 81.1 207.54 81.1ZM239.048 122.439C238.601 121.814 238.4 121.01 238.445 120.027C238.489 119.044 239.07 118.196 240.187 117.481C240.901 117.034 241.661 116.856 242.465 116.945C243.269 116.99 244.05 117.392 244.81 118.151C246.105 119.446 247.467 120.451 248.897 121.166C250.326 121.881 252.113 122.238 254.257 122.238C254.927 122.193 255.664 122.104 256.468 121.97C257.272 121.791 257.964 121.434 258.545 120.898C259.17 120.317 259.483 119.446 259.483 118.285C259.483 117.302 259.148 116.521 258.478 115.94C257.808 115.359 256.914 114.868 255.798 114.466C254.726 114.064 253.52 113.684 252.18 113.327C250.795 112.925 249.366 112.478 247.892 111.987C246.462 111.496 245.145 110.87 243.939 110.111C242.733 109.307 241.75 108.257 240.991 106.962C240.231 105.667 239.852 104.036 239.852 102.071C239.852 99.8377 240.477 97.9393 241.728 96.376C242.978 94.8127 244.586 93.6067 246.552 92.758C248.562 91.9093 250.661 91.485 252.85 91.485C254.234 91.485 255.686 91.6637 257.205 92.021C258.723 92.3337 260.175 92.8697 261.56 93.629C262.944 94.3437 264.106 95.304 265.044 96.51C265.535 97.18 265.825 97.984 265.915 98.922C266.004 99.86 265.58 100.709 264.642 101.468C263.972 102.004 263.19 102.25 262.297 102.205C261.403 102.116 260.666 101.803 260.086 101.267C259.326 100.284 258.299 99.5027 257.004 98.922C255.753 98.3413 254.301 98.051 252.649 98.051C251.979 98.051 251.242 98.1403 250.438 98.319C249.678 98.453 249.008 98.788 248.428 99.324C247.847 99.8153 247.557 100.619 247.557 101.736C247.557 102.763 247.892 103.59 248.562 104.215C249.232 104.796 250.125 105.287 251.242 105.689C252.403 106.046 253.631 106.404 254.927 106.761C256.267 107.118 257.629 107.543 259.014 108.034C260.398 108.525 261.671 109.173 262.833 109.977C263.994 110.781 264.932 111.831 265.647 113.126C266.361 114.377 266.719 115.985 266.719 117.95C266.719 120.228 266.049 122.171 264.709 123.779C263.369 125.387 261.694 126.615 259.684 127.464C257.674 128.268 255.619 128.67 253.52 128.67C250.884 128.67 248.249 128.223 245.614 127.33C242.978 126.392 240.79 124.762 239.048 122.439ZM273.849 92.825H289.728C290.8 92.825 291.693 93.1823 292.408 93.897C293.123 94.6117 293.48 95.505 293.48 96.577C293.48 97.6043 293.123 98.4753 292.408 99.19C291.693 99.86 290.8 100.195 289.728 100.195H273.849C272.777 100.195 271.884 99.8377 271.169 99.123C270.454 98.4083 270.097 97.515 270.097 96.443C270.097 95.4157 270.454 94.567 271.169 93.897C271.884 93.1823 272.777 92.825 273.849 92.825ZM281.018 84.45C282.179 84.45 283.117 84.852 283.832 85.656C284.591 86.4153 284.971 87.3757 284.971 88.537V118.352C284.971 118.977 285.083 119.491 285.306 119.893C285.574 120.295 285.909 120.585 286.311 120.764C286.758 120.943 287.227 121.032 287.718 121.032C288.254 121.032 288.745 120.943 289.192 120.764C289.639 120.541 290.152 120.429 290.733 120.429C291.358 120.429 291.917 120.719 292.408 121.3C292.944 121.881 293.212 122.685 293.212 123.712C293.212 124.963 292.52 125.99 291.135 126.794C289.795 127.598 288.343 128 286.78 128C285.842 128 284.792 127.933 283.631 127.799C282.514 127.62 281.442 127.241 280.415 126.66C279.432 126.035 278.606 125.097 277.936 123.846C277.266 122.595 276.931 120.876 276.931 118.687V88.537C276.931 87.3757 277.311 86.4153 278.07 85.656C278.874 84.852 279.857 84.45 281.018 84.45ZM330.208 91.485C331.369 91.485 332.33 91.8647 333.089 92.624C333.848 93.3833 334.228 94.366 334.228 95.572V123.913C334.228 125.074 333.848 126.057 333.089 126.861C332.33 127.62 331.369 128 330.208 128C329.047 128 328.086 127.62 327.327 126.861C326.568 126.057 326.188 125.074 326.188 123.913V120.63L327.662 121.233C327.662 121.814 327.349 122.528 326.724 123.377C326.099 124.181 325.25 124.985 324.178 125.789C323.106 126.593 321.833 127.285 320.359 127.866C318.93 128.402 317.366 128.67 315.669 128.67C312.587 128.67 309.795 127.888 307.294 126.325C304.793 124.717 302.805 122.528 301.331 119.759C299.902 116.945 299.187 113.729 299.187 110.111C299.187 106.448 299.902 103.232 301.331 100.463C302.805 97.649 304.77 95.4603 307.227 93.897C309.684 92.289 312.408 91.485 315.401 91.485C317.322 91.485 319.086 91.7753 320.694 92.356C322.302 92.9367 323.687 93.6737 324.848 94.567C326.054 95.4603 326.97 96.376 327.595 97.314C328.265 98.2073 328.6 98.9667 328.6 99.592L326.188 100.463V95.572C326.188 94.4107 326.568 93.4503 327.327 92.691C328.086 91.887 329.047 91.485 330.208 91.485ZM316.674 121.3C318.639 121.3 320.359 120.809 321.833 119.826C323.307 118.843 324.446 117.503 325.25 115.806C326.099 114.109 326.523 112.21 326.523 110.111C326.523 107.967 326.099 106.046 325.25 104.349C324.446 102.652 323.307 101.312 321.833 100.329C320.359 99.3463 318.639 98.855 316.674 98.855C314.753 98.855 313.056 99.3463 311.582 100.329C310.108 101.312 308.947 102.652 308.098 104.349C307.294 106.046 306.892 107.967 306.892 110.111C306.892 112.21 307.294 114.109 308.098 115.806C308.947 117.503 310.108 118.843 311.582 119.826C313.056 120.809 314.753 121.3 316.674 121.3ZM361.76 91.485C365.334 91.485 367.969 92.356 369.666 94.098C371.364 95.7953 372.48 98.0063 373.016 100.731L371.877 100.128L372.413 99.056C372.949 98.0287 373.776 96.9343 374.892 95.773C376.009 94.567 377.349 93.562 378.912 92.758C380.52 91.9093 382.307 91.485 384.272 91.485C387.488 91.485 389.923 92.1773 391.575 93.562C393.273 94.9467 394.434 96.8003 395.059 99.123C395.685 101.401 395.997 103.947 395.997 106.761V123.913C395.997 125.074 395.618 126.057 394.858 126.861C394.099 127.62 393.139 128 391.977 128C390.816 128 389.856 127.62 389.096 126.861C388.337 126.057 387.957 125.074 387.957 123.913V106.761C387.957 105.287 387.779 103.969 387.421 102.808C387.064 101.602 386.416 100.642 385.478 99.927C384.54 99.2123 383.2 98.855 381.458 98.855C379.761 98.855 378.309 99.2123 377.103 99.927C375.897 100.642 374.982 101.602 374.356 102.808C373.776 103.969 373.485 105.287 373.485 106.761V123.913C373.485 125.074 373.106 126.057 372.346 126.861C371.587 127.62 370.627 128 369.465 128C368.304 128 367.344 127.62 366.584 126.861C365.825 126.057 365.445 125.074 365.445 123.913V106.761C365.445 105.287 365.267 103.969 364.909 102.808C364.552 101.602 363.904 100.642 362.966 99.927C362.028 99.2123 360.688 98.855 358.946 98.855C357.249 98.855 355.797 99.2123 354.591 99.927C353.385 100.642 352.47 101.602 351.844 102.808C351.264 103.969 350.973 105.287 350.973 106.761V123.913C350.973 125.074 350.594 126.057 349.834 126.861C349.075 127.62 348.115 128 346.953 128C345.792 128 344.832 127.62 344.072 126.861C343.313 126.057 342.933 125.074 342.933 123.913V96.242C342.933 95.0807 343.313 94.1203 344.072 93.361C344.832 92.557 345.792 92.155 346.953 92.155C348.115 92.155 349.075 92.557 349.834 93.361C350.594 94.1203 350.973 95.0807 350.973 96.242V99.123L349.968 98.922C350.37 98.1627 350.929 97.3587 351.643 96.51C352.358 95.6167 353.229 94.7903 354.256 94.031C355.284 93.2717 356.423 92.6687 357.673 92.222C358.924 91.7307 360.286 91.485 361.76 91.485ZM439.472 110.111C439.472 113.774 438.646 117.012 436.993 119.826C435.385 122.595 433.196 124.762 430.427 126.325C427.702 127.888 424.643 128.67 421.248 128.67C417.853 128.67 414.771 127.888 412.002 126.325C409.277 124.762 407.089 122.595 405.436 119.826C403.828 117.012 403.024 113.774 403.024 110.111C403.024 106.448 403.828 103.232 405.436 100.463C407.089 97.649 409.277 95.4603 412.002 93.897C414.771 92.289 417.853 91.485 421.248 91.485C424.643 91.485 427.702 92.289 430.427 93.897C433.196 95.4603 435.385 97.649 436.993 100.463C438.646 103.232 439.472 106.448 439.472 110.111ZM431.432 110.111C431.432 107.833 430.963 105.868 430.025 104.215C429.132 102.518 427.903 101.2 426.34 100.262C424.821 99.324 423.124 98.855 421.248 98.855C419.372 98.855 417.652 99.324 416.089 100.262C414.57 101.2 413.342 102.518 412.404 104.215C411.511 105.868 411.064 107.833 411.064 110.111C411.064 112.344 411.511 114.31 412.404 116.007C413.342 117.66 414.57 118.955 416.089 119.893C417.652 120.831 419.372 121.3 421.248 121.3C423.124 121.3 424.821 120.831 426.34 119.893C427.903 118.955 429.132 117.66 430.025 116.007C430.963 114.31 431.432 112.344 431.432 110.111ZM444.432 122.439C443.985 121.814 443.784 121.01 443.829 120.027C443.873 119.044 444.454 118.196 445.571 117.481C446.285 117.034 447.045 116.856 447.849 116.945C448.653 116.99 449.434 117.392 450.194 118.151C451.489 119.446 452.851 120.451 454.281 121.166C455.71 121.881 457.497 122.238 459.641 122.238C460.311 122.193 461.048 122.104 461.852 121.97C462.656 121.791 463.348 121.434 463.929 120.898C464.554 120.317 464.867 119.446 464.867 118.285C464.867 117.302 464.532 116.521 463.862 115.94C463.192 115.359 462.298 114.868 461.182 114.466C460.11 114.064 458.904 113.684 457.564 113.327C456.179 112.925 454.75 112.478 453.276 111.987C451.846 111.496 450.529 110.87 449.323 110.111C448.117 109.307 447.134 108.257 446.375 106.962C445.615 105.667 445.236 104.036 445.236 102.071C445.236 99.8377 445.861 97.9393 447.112 96.376C448.362 94.8127 449.97 93.6067 451.936 92.758C453.946 91.9093 456.045 91.485 458.234 91.485C459.618 91.485 461.07 91.6637 462.589 92.021C464.107 92.3337 465.559 92.8697 466.944 93.629C468.328 94.3437 469.49 95.304 470.428 96.51C470.919 97.18 471.209 97.984 471.299 98.922C471.388 99.86 470.964 100.709 470.026 101.468C469.356 102.004 468.574 102.25 467.681 102.205C466.787 102.116 466.05 101.803 465.47 101.267C464.71 100.284 463.683 99.5027 462.388 98.922C461.137 98.3413 459.685 98.051 458.033 98.051C457.363 98.051 456.626 98.1403 455.822 98.319C455.062 98.453 454.392 98.788 453.812 99.324C453.231 99.8153 452.941 100.619 452.941 101.736C452.941 102.763 453.276 103.59 453.946 104.215C454.616 104.796 455.509 105.287 456.626 105.689C457.787 106.046 459.015 106.404 460.311 106.761C461.651 107.118 463.013 107.543 464.398 108.034C465.782 108.525 467.055 109.173 468.217 109.977C469.378 110.781 470.316 111.831 471.031 113.126C471.745 114.377 472.103 115.985 472.103 117.95C472.103 120.228 471.433 122.171 470.093 123.779C468.753 125.387 467.078 126.615 465.068 127.464C463.058 128.268 461.003 128.67 458.904 128.67C456.268 128.67 453.633 128.223 450.998 127.33C448.362 126.392 446.174 124.762 444.432 122.439Z"
        fill="#541084" />
</svg>