<svg width="680" height="154" viewBox="0 0 680 154" fill="none" xmlns="http://www.w3.org/2000/svg">
    <path
        d="M46.336 38.4C51.0293 38.4 55.2533 39.552 59.008 41.856C62.7627 44.16 65.7067 47.3173 67.84 51.328C70.0587 55.3387 71.168 59.904 71.168 65.024C71.168 70.0587 70.0587 74.624 67.84 78.72C65.7067 82.816 62.7627 86.0587 59.008 88.448C55.2533 90.8373 51.0293 92.032 46.336 92.032H20.352L21.248 90.496V122.752C21.248 124.203 20.7787 125.44 19.84 126.464C18.9013 127.488 17.7067 128 16.256 128C14.72 128 13.4827 127.488 12.544 126.464C11.6907 125.44 11.264 124.203 11.264 122.752V43.52C11.264 42.0693 11.7333 40.8747 12.672 39.936C13.696 38.912 14.9333 38.4 16.384 38.4H46.336ZM46.336 82.176C49.152 82.176 51.6267 81.408 53.76 79.872C55.8933 78.336 57.6 76.2453 58.88 73.6C60.16 70.9547 60.8 68.096 60.8 65.024C60.8 61.7813 60.16 58.9227 58.88 56.448C57.6 53.9733 55.8933 52.0107 53.76 50.56C51.6267 49.024 49.152 48.256 46.336 48.256H20.352L21.248 46.848V83.456L20.352 82.176H46.336ZM91.217 128C89.7663 128 88.529 127.488 87.505 126.464C86.5663 125.44 86.097 124.203 86.097 122.752V66.944C86.097 65.4933 86.5663 64.2987 87.505 63.36C88.529 62.336 89.7663 61.824 91.217 61.824C92.753 61.824 93.9903 62.336 94.929 63.36C95.8677 64.2987 96.337 65.4933 96.337 66.944V83.84L94.801 81.152C95.313 78.5067 96.209 75.9467 97.489 73.472C98.8543 70.912 100.561 68.6507 102.609 66.688C104.657 64.64 107.004 63.0613 109.649 61.952C112.294 60.7573 115.196 60.16 118.353 60.16C120.23 60.16 121.937 60.6293 123.473 61.568C125.094 62.4213 125.905 63.6587 125.905 65.28C125.905 67.072 125.436 68.3947 124.497 69.248C123.558 70.1013 122.492 70.528 121.297 70.528C120.188 70.528 119.121 70.3147 118.097 69.888C117.073 69.376 115.793 69.12 114.257 69.12C112.124 69.12 109.99 69.7173 107.857 70.912C105.809 72.0213 103.889 73.6427 102.097 75.776C100.39 77.9093 98.9823 80.3413 97.873 83.072C96.849 85.7173 96.337 88.576 96.337 91.648V122.752C96.337 124.203 95.825 125.44 94.801 126.464C93.8623 127.488 92.6677 128 91.217 128ZM197.445 94.72C197.445 101.376 195.952 107.307 192.965 112.512C190.064 117.717 186.096 121.813 181.061 124.8C176.112 127.787 170.522 129.28 164.293 129.28C158.064 129.28 152.432 127.787 147.397 124.8C142.362 121.813 138.352 117.717 135.365 112.512C132.464 107.307 131.013 101.376 131.013 94.72C131.013 88.064 132.464 82.1333 135.365 76.928C138.352 71.7227 142.362 67.6267 147.397 64.64C152.432 61.6533 158.064 60.16 164.293 60.16C170.522 60.16 176.112 61.6533 181.061 64.64C186.096 67.6267 190.064 71.7227 192.965 76.928C195.952 82.1333 197.445 88.064 197.445 94.72ZM187.205 94.72C187.205 89.7707 186.181 85.4187 184.133 81.664C182.17 77.9093 179.44 74.9653 175.941 72.832C172.528 70.6987 168.645 69.632 164.293 69.632C159.941 69.632 156.016 70.6987 152.517 72.832C149.104 74.9653 146.373 77.9093 144.325 81.664C142.277 85.4187 141.253 89.7707 141.253 94.72C141.253 99.584 142.277 103.893 144.325 107.648C146.373 111.403 149.104 114.389 152.517 116.608C156.016 118.741 159.941 119.808 164.293 119.808C168.645 119.808 172.528 118.741 175.941 116.608C179.44 114.389 182.17 111.403 184.133 107.648C186.181 103.893 187.205 99.584 187.205 94.72ZM240.623 60.16C244.292 60.16 247.706 60.8 250.863 62.08C254.02 63.2747 256.751 64.8533 259.055 66.816C261.444 68.7787 263.279 70.8267 264.559 72.96C265.924 75.0933 266.607 77.0987 266.607 78.976L264.175 77.44V66.304C264.175 64.8533 264.644 63.6587 265.583 62.72C266.522 61.696 267.759 61.184 269.295 61.184C270.746 61.184 271.94 61.696 272.879 62.72C273.903 63.6587 274.415 64.8533 274.415 66.304V122.368C274.415 129.365 272.922 135.168 269.935 139.776C267.034 144.384 263.108 147.84 258.159 150.144C253.21 152.448 247.663 153.6 241.519 153.6C238.959 153.6 236.143 153.259 233.071 152.576C229.999 151.893 227.268 151.04 224.879 150.016C222.49 149.077 220.954 148.096 220.271 147.072C218.991 146.219 218.18 145.237 217.839 144.128C217.583 143.104 217.796 142.123 218.479 141.184C219.247 139.989 220.228 139.392 221.423 139.392C222.703 139.392 224.282 139.776 226.159 140.544C226.927 140.8 228.122 141.227 229.743 141.824C231.45 142.421 233.327 142.933 235.375 143.36C237.508 143.872 239.599 144.128 241.647 144.128C248.9 144.128 254.447 142.208 258.287 138.368C262.212 134.613 264.175 129.621 264.175 123.392V111.488L265.583 112.128C265.071 114.517 264.004 116.736 262.383 118.784C260.847 120.832 258.927 122.667 256.623 124.288C254.404 125.824 251.93 127.061 249.199 128C246.468 128.853 243.695 129.28 240.879 129.28C234.906 129.28 229.53 127.787 224.751 124.8C219.972 121.813 216.175 117.717 213.359 112.512C210.628 107.307 209.263 101.376 209.263 94.72C209.263 87.9787 210.628 82.0053 213.359 76.8C216.175 71.5947 219.93 67.5413 224.623 64.64C229.402 61.6533 234.735 60.16 240.623 60.16ZM241.903 69.632C237.551 69.632 233.626 70.7413 230.127 72.96C226.714 75.0933 224.026 78.0373 222.063 81.792C220.186 85.5467 219.247 89.856 219.247 94.72C219.247 99.4133 220.186 103.68 222.063 107.52C224.026 111.275 226.714 114.261 230.127 116.48C233.626 118.699 237.551 119.808 241.903 119.808C246.34 119.808 250.266 118.741 253.679 116.608C257.092 114.389 259.78 111.403 261.743 107.648C263.706 103.893 264.687 99.584 264.687 94.72C264.687 89.7707 263.706 85.4187 261.743 81.664C259.78 77.9093 257.092 74.9653 253.679 72.832C250.266 70.6987 246.34 69.632 241.903 69.632ZM298.467 128C297.016 128 295.779 127.488 294.755 126.464C293.816 125.44 293.347 124.203 293.347 122.752V66.944C293.347 65.4933 293.816 64.2987 294.755 63.36C295.779 62.336 297.016 61.824 298.467 61.824C300.003 61.824 301.24 62.336 302.179 63.36C303.118 64.2987 303.587 65.4933 303.587 66.944V83.84L302.051 81.152C302.563 78.5067 303.459 75.9467 304.739 73.472C306.104 70.912 307.811 68.6507 309.859 66.688C311.907 64.64 314.254 63.0613 316.899 61.952C319.544 60.7573 322.446 60.16 325.603 60.16C327.48 60.16 329.187 60.6293 330.723 61.568C332.344 62.4213 333.155 63.6587 333.155 65.28C333.155 67.072 332.686 68.3947 331.747 69.248C330.808 70.1013 329.742 70.528 328.547 70.528C327.438 70.528 326.371 70.3147 325.347 69.888C324.323 69.376 323.043 69.12 321.507 69.12C319.374 69.12 317.24 69.7173 315.107 70.912C313.059 72.0213 311.139 73.6427 309.347 75.776C307.64 77.9093 306.232 80.3413 305.123 83.072C304.099 85.7173 303.587 88.576 303.587 91.648V122.752C303.587 124.203 303.075 125.44 302.051 126.464C301.112 127.488 299.918 128 298.467 128ZM397.75 61.184C399.201 61.184 400.395 61.696 401.334 62.72C402.358 63.6587 402.87 64.8533 402.87 66.304V122.752C402.87 124.203 402.358 125.44 401.334 126.464C400.395 127.488 399.201 128 397.75 128C396.214 128 394.977 127.488 394.038 126.464C393.099 125.44 392.63 124.203 392.63 122.752V110.592L395.062 110.336C395.062 112.213 394.422 114.261 393.142 116.48C391.862 118.699 390.113 120.789 387.894 122.752C385.675 124.629 383.03 126.208 379.958 127.488C376.971 128.683 373.729 129.28 370.23 129.28C364.427 129.28 359.222 127.787 354.614 124.8C350.006 121.728 346.337 117.589 343.606 112.384C340.961 107.179 339.638 101.248 339.638 94.592C339.638 87.8507 340.961 81.92 343.606 76.8C346.337 71.5947 350.006 67.5413 354.614 64.64C359.222 61.6533 364.342 60.16 369.974 60.16C373.643 60.16 377.057 60.7573 380.214 61.952C383.371 63.1467 386.102 64.768 388.406 66.816C390.795 68.864 392.63 71.1253 393.91 73.6C395.275 76.0747 395.958 78.5493 395.958 81.024L392.63 80.256V66.304C392.63 64.8533 393.099 63.6587 394.038 62.72C394.977 61.696 396.214 61.184 397.75 61.184ZM371.382 119.808C375.649 119.808 379.403 118.699 382.646 116.48C385.974 114.261 388.534 111.275 390.326 107.52C392.203 103.68 393.142 99.3707 393.142 94.592C393.142 89.8987 392.203 85.6747 390.326 81.92C388.534 78.08 385.974 75.0933 382.646 72.96C379.403 70.7413 375.649 69.632 371.382 69.632C367.201 69.632 363.446 70.6987 360.118 72.832C356.875 74.9653 354.315 77.9093 352.438 81.664C350.561 85.4187 349.622 89.728 349.622 94.592C349.622 99.3707 350.518 103.68 352.31 107.52C354.187 111.275 356.747 114.261 359.99 116.48C363.318 118.699 367.115 119.808 371.382 119.808ZM453.463 60.8C459.266 60.8 463.959 62.2933 467.543 65.28C471.212 68.1813 473.644 72.32 474.839 77.696H472.919L473.815 75.392C474.839 73.0027 476.588 70.6987 479.063 68.48C481.538 66.2613 484.396 64.4267 487.639 62.976C490.882 61.5253 494.252 60.8 497.751 60.8C503.383 60.8 507.82 62.0373 511.063 64.512C514.306 66.9013 516.61 70.144 517.975 74.24C519.426 78.2507 520.151 82.7733 520.151 87.808V122.752C520.151 124.203 519.639 125.44 518.615 126.464C517.676 127.488 516.482 128 515.031 128C513.495 128 512.258 127.488 511.319 126.464C510.38 125.44 509.911 124.203 509.911 122.752V88.064C509.911 84.736 509.399 81.7493 508.375 79.104C507.436 76.3733 505.858 74.24 503.639 72.704C501.506 71.0827 498.562 70.272 494.807 70.272C491.308 70.272 488.108 71.0827 485.207 72.704C482.306 74.24 480.002 76.3733 478.295 79.104C476.588 81.7493 475.735 84.736 475.735 88.064V122.752C475.735 124.203 475.266 125.44 474.327 126.464C473.388 127.488 472.151 128 470.615 128C469.164 128 467.927 127.488 466.903 126.464C465.964 125.44 465.495 124.203 465.495 122.752V87.68C465.495 84.4373 465.026 81.536 464.087 78.976C463.234 76.3307 461.74 74.24 459.607 72.704C457.474 71.0827 454.53 70.272 450.775 70.272C447.362 70.272 444.247 71.0827 441.431 72.704C438.615 74.24 436.354 76.3307 434.647 78.976C432.94 81.536 432.087 84.4373 432.087 87.68V122.752C432.087 124.203 431.575 125.44 430.551 126.464C429.612 127.488 428.418 128 426.967 128C425.516 128 424.279 127.488 423.255 126.464C422.316 125.44 421.847 124.203 421.847 122.752V66.944C421.847 65.4933 422.316 64.2987 423.255 63.36C424.279 62.336 425.516 61.824 426.967 61.824C428.503 61.824 429.74 62.336 430.679 63.36C431.618 64.2987 432.087 65.4933 432.087 66.944V76.672L429.271 79.744C429.612 77.5253 430.466 75.3067 431.831 73.088C433.282 70.8693 435.116 68.8213 437.335 66.944C439.554 65.0667 442.028 63.5733 444.759 62.464C447.49 61.3547 450.391 60.8 453.463 60.8ZM593.625 61.184C595.076 61.184 596.27 61.696 597.209 62.72C598.233 63.6587 598.745 64.8533 598.745 66.304V122.752C598.745 124.203 598.233 125.44 597.209 126.464C596.27 127.488 595.076 128 593.625 128C592.089 128 590.852 127.488 589.913 126.464C588.974 125.44 588.505 124.203 588.505 122.752V110.592L590.937 110.336C590.937 112.213 590.297 114.261 589.017 116.48C587.737 118.699 585.988 120.789 583.769 122.752C581.55 124.629 578.905 126.208 575.833 127.488C572.846 128.683 569.604 129.28 566.105 129.28C560.302 129.28 555.097 127.787 550.489 124.8C545.881 121.728 542.212 117.589 539.481 112.384C536.836 107.179 535.513 101.248 535.513 94.592C535.513 87.8507 536.836 81.92 539.481 76.8C542.212 71.5947 545.881 67.5413 550.489 64.64C555.097 61.6533 560.217 60.16 565.849 60.16C569.518 60.16 572.932 60.7573 576.089 61.952C579.246 63.1467 581.977 64.768 584.281 66.816C586.67 68.864 588.505 71.1253 589.785 73.6C591.15 76.0747 591.833 78.5493 591.833 81.024L588.505 80.256V66.304C588.505 64.8533 588.974 63.6587 589.913 62.72C590.852 61.696 592.089 61.184 593.625 61.184ZM567.257 119.808C571.524 119.808 575.278 118.699 578.521 116.48C581.849 114.261 584.409 111.275 586.201 107.52C588.078 103.68 589.017 99.3707 589.017 94.592C589.017 89.8987 588.078 85.6747 586.201 81.92C584.409 78.08 581.849 75.0933 578.521 72.96C575.278 70.7413 571.524 69.632 567.257 69.632C563.076 69.632 559.321 70.6987 555.993 72.832C552.75 74.9653 550.19 77.9093 548.313 81.664C546.436 85.4187 545.497 89.728 545.497 94.592C545.497 99.3707 546.393 103.68 548.185 107.52C550.062 111.275 552.622 114.261 555.865 116.48C559.193 118.699 562.99 119.808 567.257 119.808ZM614.01 117.504C613.242 116.395 612.901 115.243 612.986 114.048C613.071 112.768 613.797 111.659 615.162 110.72C616.015 110.123 616.997 109.867 618.106 109.952C619.301 110.037 620.367 110.592 621.306 111.616C623.695 114.432 626.426 116.693 629.498 118.4C632.57 120.021 636.325 120.832 640.762 120.832C642.81 120.747 644.858 120.405 646.906 119.808C648.954 119.211 650.661 118.187 652.026 116.736C653.477 115.2 654.202 113.195 654.202 110.72C654.202 108.331 653.477 106.453 652.026 105.088C650.575 103.637 648.698 102.485 646.394 101.632C644.09 100.693 641.573 99.8827 638.842 99.2C636.026 98.432 633.253 97.5787 630.522 96.64C627.791 95.616 625.317 94.3787 623.098 92.928C620.965 91.392 619.215 89.5147 617.85 87.296C616.57 84.992 615.93 82.2187 615.93 78.976C615.93 75.136 616.954 71.808 619.002 68.992C621.135 66.176 623.951 64 627.45 62.464C631.034 60.928 634.917 60.16 639.098 60.16C641.487 60.16 643.962 60.4587 646.522 61.056C649.167 61.568 651.727 62.5067 654.202 63.872C656.677 65.152 658.853 66.944 660.73 69.248C661.498 70.1013 661.925 71.168 662.01 72.448C662.095 73.728 661.541 74.88 660.346 75.904C659.407 76.5867 658.341 76.8853 657.146 76.8C656.037 76.7147 655.098 76.288 654.33 75.52C652.538 73.3867 650.277 71.7653 647.546 70.656C644.901 69.4613 641.957 68.864 638.714 68.864C636.666 68.864 634.661 69.1627 632.698 69.76C630.735 70.3573 629.071 71.3813 627.706 72.832C626.426 74.1973 625.786 76.1173 625.786 78.592C625.871 80.896 626.639 82.7733 628.09 84.224C629.541 85.6747 631.503 86.8693 633.978 87.808C636.453 88.6613 639.183 89.5147 642.17 90.368C644.901 91.0507 647.503 91.8613 649.978 92.8C652.538 93.6533 654.842 94.8053 656.89 96.256C658.938 97.7067 660.559 99.584 661.754 101.888C662.949 104.107 663.546 106.923 663.546 110.336C663.546 114.261 662.437 117.675 660.218 120.576C657.999 123.392 655.055 125.568 651.386 127.104C647.802 128.555 643.919 129.28 639.738 129.28C635.045 129.28 630.394 128.384 625.786 126.592C621.263 124.8 617.338 121.771 614.01 117.504Z"
        fill="#DC143C" fill-opacity="0.2" />
    <path
        d="M30.388 81.1C32.7107 81.1 34.877 81.77 36.887 83.11C38.9417 84.45 40.5943 86.259 41.845 88.537C43.0957 90.815 43.721 93.361 43.721 96.175C43.721 98.9443 43.0957 101.468 41.845 103.746C40.5943 106.024 38.9417 107.855 36.887 109.24C34.877 110.58 32.7107 111.25 30.388 111.25H18.06L18.73 110.044V123.913C18.73 125.074 18.3727 126.057 17.658 126.861C16.9433 127.62 16.0053 128 14.844 128C13.7273 128 12.8117 127.62 12.097 126.861C11.3823 126.057 11.025 125.074 11.025 123.913V85.187C11.025 84.0257 11.4047 83.0653 12.164 82.306C12.968 81.502 13.9507 81.1 15.112 81.1H30.388ZM30.388 103.612C31.2367 103.612 32.063 103.255 32.867 102.54C33.671 101.825 34.341 100.91 34.877 99.793C35.413 98.6317 35.681 97.4257 35.681 96.175C35.681 94.8797 35.413 93.6737 34.877 92.557C34.341 91.4403 33.671 90.547 32.867 89.877C32.063 89.1623 31.2367 88.805 30.388 88.805H17.926L18.73 87.599V104.684L17.993 103.612H30.388ZM54.7451 128C53.5838 128 52.6235 127.62 51.8641 126.861C51.1048 126.057 50.7251 125.074 50.7251 123.913V96.242C50.7251 95.0807 51.1048 94.1203 51.8641 93.361C52.6235 92.557 53.5838 92.155 54.7451 92.155C55.9065 92.155 56.8668 92.557 57.6261 93.361C58.3855 94.1203 58.7651 95.0807 58.7651 96.242V102.54L58.2961 98.051C58.7875 96.979 59.4128 96.041 60.1721 95.237C60.9761 94.3883 61.8695 93.696 62.8521 93.16C63.8348 92.5793 64.8845 92.155 66.0011 91.887C67.1178 91.619 68.2345 91.485 69.3511 91.485C70.6911 91.485 71.8078 91.8647 72.7011 92.624C73.6391 93.3833 74.1081 94.2767 74.1081 95.304C74.1081 96.778 73.7285 97.85 72.9691 98.52C72.2098 99.1453 71.3835 99.458 70.4901 99.458C69.6415 99.458 68.8598 99.3017 68.1451 98.989C67.4751 98.6763 66.6935 98.52 65.8001 98.52C64.9961 98.52 64.1698 98.721 63.3211 99.123C62.5171 99.4803 61.7578 100.061 61.0431 100.865C60.3731 101.669 59.8148 102.674 59.3681 103.88C58.9661 105.041 58.7651 106.426 58.7651 108.034V123.913C58.7651 125.074 58.3855 126.057 57.6261 126.861C56.8668 127.62 55.9065 128 54.7451 128ZM113.044 110.111C113.044 113.774 112.218 117.012 110.565 119.826C108.957 122.595 106.768 124.762 103.999 126.325C101.274 127.888 98.2147 128.67 94.82 128.67C91.4253 128.67 88.3433 127.888 85.574 126.325C82.8493 124.762 80.6607 122.595 79.008 119.826C77.4 117.012 76.596 113.774 76.596 110.111C76.596 106.448 77.4 103.232 79.008 100.463C80.6607 97.649 82.8493 95.4603 85.574 93.897C88.3433 92.289 91.4253 91.485 94.82 91.485C98.2147 91.485 101.274 92.289 103.999 93.897C106.768 95.4603 108.957 97.649 110.565 100.463C112.218 103.232 113.044 106.448 113.044 110.111ZM105.004 110.111C105.004 107.833 104.535 105.868 103.597 104.215C102.704 102.518 101.475 101.2 99.912 100.262C98.3933 99.324 96.696 98.855 94.82 98.855C92.944 98.855 91.2243 99.324 89.661 100.262C88.1423 101.2 86.914 102.518 85.976 104.215C85.0827 105.868 84.636 107.833 84.636 110.111C84.636 112.344 85.0827 114.31 85.976 116.007C86.914 117.66 88.1423 118.955 89.661 119.893C91.2243 120.831 92.944 121.3 94.82 121.3C96.696 121.3 98.3933 120.831 99.912 119.893C101.475 118.955 102.704 117.66 103.597 116.007C104.535 114.31 105.004 112.344 105.004 110.111ZM134.955 91.485C136.831 91.485 138.55 91.7753 140.114 92.356C141.677 92.9367 143.017 93.6737 144.134 94.567C145.295 95.4603 146.188 96.376 146.814 97.314C147.484 98.2073 147.819 98.9667 147.819 99.592L146.077 100.463V95.572C146.077 94.4107 146.456 93.4503 147.216 92.691C147.975 91.887 148.935 91.485 150.097 91.485C151.258 91.485 152.218 91.8647 152.978 92.624C153.737 93.3833 154.117 94.366 154.117 95.572V125.387C154.117 129.273 153.268 132.377 151.571 134.7C149.918 137.067 147.729 138.765 145.005 139.792C142.28 140.864 139.354 141.4 136.228 141.4C135.334 141.4 134.173 141.288 132.744 141.065C131.314 140.842 129.952 140.574 128.657 140.261C127.361 139.948 126.379 139.658 125.709 139.39C124.369 138.809 123.431 138.072 122.895 137.179C122.403 136.33 122.314 135.415 122.627 134.432C123.029 133.137 123.676 132.243 124.57 131.752C125.463 131.305 126.401 131.261 127.384 131.618C127.83 131.752 128.567 132.02 129.595 132.422C130.622 132.824 131.739 133.181 132.945 133.494C134.195 133.851 135.29 134.03 136.228 134.03C139.578 134.03 142.057 133.36 143.665 132.02C145.273 130.68 146.077 128.826 146.077 126.459V120.63L146.881 121.233C146.881 121.814 146.568 122.528 145.943 123.377C145.362 124.181 144.536 124.985 143.464 125.789C142.436 126.593 141.208 127.285 139.779 127.866C138.349 128.402 136.831 128.67 135.223 128.67C132.051 128.67 129.193 127.888 126.647 126.325C124.101 124.717 122.091 122.528 120.617 119.759C119.143 116.945 118.406 113.729 118.406 110.111C118.406 106.448 119.143 103.232 120.617 100.463C122.091 97.649 124.078 95.4603 126.58 93.897C129.081 92.289 131.873 91.485 134.955 91.485ZM136.228 98.855C134.218 98.855 132.453 99.3463 130.935 100.329C129.416 101.312 128.232 102.652 127.384 104.349C126.535 106.046 126.111 107.967 126.111 110.111C126.111 112.21 126.535 114.109 127.384 115.806C128.232 117.503 129.416 118.843 130.935 119.826C132.453 120.809 134.218 121.3 136.228 121.3C138.282 121.3 140.069 120.809 141.588 119.826C143.106 118.843 144.29 117.503 145.139 115.806C145.987 114.109 146.412 112.21 146.412 110.111C146.412 107.967 145.987 106.046 145.139 104.349C144.29 102.652 143.106 101.312 141.588 100.329C140.069 99.3463 138.282 98.855 136.228 98.855ZM166.826 128C165.665 128 164.705 127.62 163.945 126.861C163.186 126.057 162.806 125.074 162.806 123.913V96.242C162.806 95.0807 163.186 94.1203 163.945 93.361C164.705 92.557 165.665 92.155 166.826 92.155C167.988 92.155 168.948 92.557 169.707 93.361C170.467 94.1203 170.846 95.0807 170.846 96.242V102.54L170.377 98.051C170.869 96.979 171.494 96.041 172.253 95.237C173.057 94.3883 173.951 93.696 174.933 93.16C175.916 92.5793 176.966 92.155 178.082 91.887C179.199 91.619 180.316 91.485 181.432 91.485C182.772 91.485 183.889 91.8647 184.782 92.624C185.72 93.3833 186.189 94.2767 186.189 95.304C186.189 96.778 185.81 97.85 185.05 98.52C184.291 99.1453 183.465 99.458 182.571 99.458C181.723 99.458 180.941 99.3017 180.226 98.989C179.556 98.6763 178.775 98.52 177.881 98.52C177.077 98.52 176.251 98.721 175.402 99.123C174.598 99.4803 173.839 100.061 173.124 100.865C172.454 101.669 171.896 102.674 171.449 103.88C171.047 105.041 170.846 106.426 170.846 108.034V123.913C170.846 125.074 170.467 126.057 169.707 126.861C168.948 127.62 167.988 128 166.826 128ZM220.418 91.485C221.579 91.485 222.539 91.8647 223.299 92.624C224.058 93.3833 224.438 94.366 224.438 95.572V123.913C224.438 125.074 224.058 126.057 223.299 126.861C222.539 127.62 221.579 128 220.418 128C219.256 128 218.296 127.62 217.537 126.861C216.777 126.057 216.398 125.074 216.398 123.913V120.63L217.872 121.233C217.872 121.814 217.559 122.528 216.934 123.377C216.308 124.181 215.46 124.985 214.388 125.789C213.316 126.593 212.043 127.285 210.569 127.866C209.139 128.402 207.576 128.67 205.879 128.67C202.797 128.67 200.005 127.888 197.504 126.325C195.002 124.717 193.015 122.528 191.541 119.759C190.111 116.945 189.397 113.729 189.397 110.111C189.397 106.448 190.111 103.232 191.541 100.463C193.015 97.649 194.98 95.4603 197.437 93.897C199.893 92.289 202.618 91.485 205.611 91.485C207.531 91.485 209.296 91.7753 210.904 92.356C212.512 92.9367 213.896 93.6737 215.058 94.567C216.264 95.4603 217.179 96.376 217.805 97.314C218.475 98.2073 218.81 98.9667 218.81 99.592L216.398 100.463V95.572C216.398 94.4107 216.777 93.4503 217.537 92.691C218.296 91.887 219.256 91.485 220.418 91.485ZM206.884 121.3C208.849 121.3 210.569 120.809 212.043 119.826C213.517 118.843 214.656 117.503 215.46 115.806C216.308 114.109 216.733 112.21 216.733 110.111C216.733 107.967 216.308 106.046 215.46 104.349C214.656 102.652 213.517 101.312 212.043 100.329C210.569 99.3463 208.849 98.855 206.884 98.855C204.963 98.855 203.266 99.3463 201.792 100.329C200.318 101.312 199.156 102.652 198.308 104.349C197.504 106.046 197.102 107.967 197.102 110.111C197.102 112.21 197.504 114.109 198.308 115.806C199.156 117.503 200.318 118.843 201.792 119.826C203.266 120.809 204.963 121.3 206.884 121.3ZM251.97 91.485C255.543 91.485 258.179 92.356 259.876 94.098C261.573 95.7953 262.69 98.0063 263.226 100.731L262.087 100.128L262.623 99.056C263.159 98.0287 263.985 96.9343 265.102 95.773C266.219 94.567 267.559 93.562 269.122 92.758C270.73 91.9093 272.517 91.485 274.482 91.485C277.698 91.485 280.132 92.1773 281.785 93.562C283.482 94.9467 284.644 96.8003 285.269 99.123C285.894 101.401 286.207 103.947 286.207 106.761V123.913C286.207 125.074 285.827 126.057 285.068 126.861C284.309 127.62 283.348 128 282.187 128C281.026 128 280.065 127.62 279.306 126.861C278.547 126.057 278.167 125.074 278.167 123.913V106.761C278.167 105.287 277.988 103.969 277.631 102.808C277.274 101.602 276.626 100.642 275.688 99.927C274.75 99.2123 273.41 98.855 271.668 98.855C269.971 98.855 268.519 99.2123 267.313 99.927C266.107 100.642 265.191 101.602 264.566 102.808C263.985 103.969 263.695 105.287 263.695 106.761V123.913C263.695 125.074 263.315 126.057 262.556 126.861C261.797 127.62 260.836 128 259.675 128C258.514 128 257.553 127.62 256.794 126.861C256.035 126.057 255.655 125.074 255.655 123.913V106.761C255.655 105.287 255.476 103.969 255.119 102.808C254.762 101.602 254.114 100.642 253.176 99.927C252.238 99.2123 250.898 98.855 249.156 98.855C247.459 98.855 246.007 99.2123 244.801 99.927C243.595 100.642 242.679 101.602 242.054 102.808C241.473 103.969 241.183 105.287 241.183 106.761V123.913C241.183 125.074 240.803 126.057 240.044 126.861C239.285 127.62 238.324 128 237.163 128C236.002 128 235.041 127.62 234.282 126.861C233.523 126.057 233.143 125.074 233.143 123.913V96.242C233.143 95.0807 233.523 94.1203 234.282 93.361C235.041 92.557 236.002 92.155 237.163 92.155C238.324 92.155 239.285 92.557 240.044 93.361C240.803 94.1203 241.183 95.0807 241.183 96.242V99.123L240.178 98.922C240.58 98.1627 241.138 97.3587 241.853 96.51C242.568 95.6167 243.439 94.7903 244.466 94.031C245.493 93.2717 246.632 92.6687 247.883 92.222C249.134 91.7307 250.496 91.485 251.97 91.485ZM324.255 91.485C325.416 91.485 326.376 91.8647 327.136 92.624C327.895 93.3833 328.275 94.366 328.275 95.572V123.913C328.275 125.074 327.895 126.057 327.136 126.861C326.376 127.62 325.416 128 324.255 128C323.093 128 322.133 127.62 321.374 126.861C320.614 126.057 320.235 125.074 320.235 123.913V120.63L321.709 121.233C321.709 121.814 321.396 122.528 320.771 123.377C320.145 124.181 319.297 124.985 318.225 125.789C317.153 126.593 315.88 127.285 314.406 127.866C312.976 128.402 311.413 128.67 309.716 128.67C306.634 128.67 303.842 127.888 301.341 126.325C298.839 124.717 296.852 122.528 295.378 119.759C293.948 116.945 293.234 113.729 293.234 110.111C293.234 106.448 293.948 103.232 295.378 100.463C296.852 97.649 298.817 95.4603 301.274 93.897C303.73 92.289 306.455 91.485 309.448 91.485C311.368 91.485 313.133 91.7753 314.741 92.356C316.349 92.9367 317.733 93.6737 318.895 94.567C320.101 95.4603 321.016 96.376 321.642 97.314C322.312 98.2073 322.647 98.9667 322.647 99.592L320.235 100.463V95.572C320.235 94.4107 320.614 93.4503 321.374 92.691C322.133 91.887 323.093 91.485 324.255 91.485ZM310.721 121.3C312.686 121.3 314.406 120.809 315.88 119.826C317.354 118.843 318.493 117.503 319.297 115.806C320.145 114.109 320.57 112.21 320.57 110.111C320.57 107.967 320.145 106.046 319.297 104.349C318.493 102.652 317.354 101.312 315.88 100.329C314.406 99.3463 312.686 98.855 310.721 98.855C308.8 98.855 307.103 99.3463 305.629 100.329C304.155 101.312 302.993 102.652 302.145 104.349C301.341 106.046 300.939 107.967 300.939 110.111C300.939 112.21 301.341 114.109 302.145 115.806C302.993 117.503 304.155 118.843 305.629 119.826C307.103 120.809 308.8 121.3 310.721 121.3ZM334.903 122.439C334.456 121.814 334.255 121.01 334.3 120.027C334.345 119.044 334.925 118.196 336.042 117.481C336.757 117.034 337.516 116.856 338.32 116.945C339.124 116.99 339.906 117.392 340.665 118.151C341.96 119.446 343.323 120.451 344.752 121.166C346.181 121.881 347.968 122.238 350.112 122.238C350.782 122.193 351.519 122.104 352.323 121.97C353.127 121.791 353.819 121.434 354.4 120.898C355.025 120.317 355.338 119.446 355.338 118.285C355.338 117.302 355.003 116.521 354.333 115.94C353.663 115.359 352.77 114.868 351.653 114.466C350.581 114.064 349.375 113.684 348.035 113.327C346.65 112.925 345.221 112.478 343.747 111.987C342.318 111.496 341 110.87 339.794 110.111C338.588 109.307 337.605 108.257 336.846 106.962C336.087 105.667 335.707 104.036 335.707 102.071C335.707 99.8377 336.332 97.9393 337.583 96.376C338.834 94.8127 340.442 93.6067 342.407 92.758C344.417 91.9093 346.516 91.485 348.705 91.485C350.09 91.485 351.541 91.6637 353.06 92.021C354.579 92.3337 356.03 92.8697 357.415 93.629C358.8 94.3437 359.961 95.304 360.899 96.51C361.39 97.18 361.681 97.984 361.77 98.922C361.859 99.86 361.435 100.709 360.497 101.468C359.827 102.004 359.045 102.25 358.152 102.205C357.259 102.116 356.522 101.803 355.941 101.267C355.182 100.284 354.154 99.5027 352.859 98.922C351.608 98.3413 350.157 98.051 348.504 98.051C347.834 98.051 347.097 98.1403 346.293 98.319C345.534 98.453 344.864 98.788 344.283 99.324C343.702 99.8153 343.412 100.619 343.412 101.736C343.412 102.763 343.747 103.59 344.417 104.215C345.087 104.796 345.98 105.287 347.097 105.689C348.258 106.046 349.487 106.404 350.782 106.761C352.122 107.118 353.484 107.543 354.869 108.034C356.254 108.525 357.527 109.173 358.688 109.977C359.849 110.781 360.787 111.831 361.502 113.126C362.217 114.377 362.574 115.985 362.574 117.95C362.574 120.228 361.904 122.171 360.564 123.779C359.224 125.387 357.549 126.615 355.539 127.464C353.529 128.268 351.474 128.67 349.375 128.67C346.74 128.67 344.104 128.223 341.469 127.33C338.834 126.392 336.645 124.762 334.903 122.439Z"
        fill="#DC143C" />
</svg>