<svg width="708" height="147" viewBox="0 0 708 147" fill="none" xmlns="http://www.w3.org/2000/svg">
<path d="M46.336 38.4C51.0293 38.4 55.2533 39.552 59.008 41.856C62.7627 44.16 65.7067 47.3173 67.84 51.328C70.0587 55.3387 71.168 59.904 71.168 65.024C71.168 70.0587 70.0587 74.624 67.84 78.72C65.7067 82.816 62.7627 86.0587 59.008 88.448C55.2533 90.8373 51.0293 92.032 46.336 92.032H20.352L21.248 90.496V122.752C21.248 124.203 20.7787 125.44 19.84 126.464C18.9013 127.488 17.7067 128 16.256 128C14.72 128 13.4827 127.488 12.544 126.464C11.6907 125.44 11.264 124.203 11.264 122.752V43.52C11.264 42.0693 11.7333 40.8747 12.672 39.936C13.696 38.912 14.9333 38.4 16.384 38.4H46.336ZM46.336 82.176C49.152 82.176 51.6267 81.408 53.76 79.872C55.8933 78.336 57.6 76.2453 58.88 73.6C60.16 70.9547 60.8 68.096 60.8 65.024C60.8 61.7813 60.16 58.9227 58.88 56.448C57.6 53.9733 55.8933 52.0107 53.76 50.56C51.6267 49.024 49.152 48.256 46.336 48.256H20.352L21.248 46.848V83.456L20.352 82.176H46.336ZM91.217 128C89.7663 128 88.529 127.488 87.505 126.464C86.5663 125.44 86.097 124.203 86.097 122.752V66.944C86.097 65.4933 86.5663 64.2987 87.505 63.36C88.529 62.336 89.7663 61.824 91.217 61.824C92.753 61.824 93.9903 62.336 94.929 63.36C95.8677 64.2987 96.337 65.4933 96.337 66.944V83.84L94.801 81.152C95.313 78.5067 96.209 75.9467 97.489 73.472C98.8543 70.912 100.561 68.6507 102.609 66.688C104.657 64.64 107.004 63.0613 109.649 61.952C112.294 60.7573 115.196 60.16 118.353 60.16C120.23 60.16 121.937 60.6293 123.473 61.568C125.094 62.4213 125.905 63.6587 125.905 65.28C125.905 67.072 125.436 68.3947 124.497 69.248C123.558 70.1013 122.492 70.528 121.297 70.528C120.188 70.528 119.121 70.3147 118.097 69.888C117.073 69.376 115.793 69.12 114.257 69.12C112.124 69.12 109.99 69.7173 107.857 70.912C105.809 72.0213 103.889 73.6427 102.097 75.776C100.39 77.9093 98.9823 80.3413 97.873 83.072C96.849 85.7173 96.337 88.576 96.337 91.648V122.752C96.337 124.203 95.825 125.44 94.801 126.464C93.8623 127.488 92.6677 128 91.217 128ZM197.445 94.72C197.445 101.376 195.952 107.307 192.965 112.512C190.064 117.717 186.096 121.813 181.061 124.8C176.112 127.787 170.522 129.28 164.293 129.28C158.064 129.28 152.432 127.787 147.397 124.8C142.362 121.813 138.352 117.717 135.365 112.512C132.464 107.307 131.013 101.376 131.013 94.72C131.013 88.064 132.464 82.1333 135.365 76.928C138.352 71.7227 142.362 67.6267 147.397 64.64C152.432 61.6533 158.064 60.16 164.293 60.16C170.522 60.16 176.112 61.6533 181.061 64.64C186.096 67.6267 190.064 71.7227 192.965 76.928C195.952 82.1333 197.445 88.064 197.445 94.72ZM187.205 94.72C187.205 89.7707 186.181 85.4187 184.133 81.664C182.17 77.9093 179.44 74.9653 175.941 72.832C172.528 70.6987 168.645 69.632 164.293 69.632C159.941 69.632 156.016 70.6987 152.517 72.832C149.104 74.9653 146.373 77.9093 144.325 81.664C142.277 85.4187 141.253 89.7707 141.253 94.72C141.253 99.584 142.277 103.893 144.325 107.648C146.373 111.403 149.104 114.389 152.517 116.608C156.016 118.741 159.941 119.808 164.293 119.808C168.645 119.808 172.528 118.741 175.941 116.608C179.44 114.389 182.17 111.403 184.133 107.648C186.181 103.893 187.205 99.584 187.205 94.72ZM244.463 60.8C250.266 60.8 254.959 62.2933 258.543 65.28C262.212 68.1813 264.644 72.32 265.839 77.696H263.919L264.815 75.392C265.839 73.0027 267.588 70.6987 270.063 68.48C272.538 66.2613 275.396 64.4267 278.639 62.976C281.882 61.5253 285.252 60.8 288.751 60.8C294.383 60.8 298.82 62.0373 302.063 64.512C305.306 66.9013 307.61 70.144 308.975 74.24C310.426 78.2507 311.151 82.7733 311.151 87.808V122.752C311.151 124.203 310.639 125.44 309.615 126.464C308.676 127.488 307.482 128 306.031 128C304.495 128 303.258 127.488 302.319 126.464C301.38 125.44 300.911 124.203 300.911 122.752V88.064C300.911 84.736 300.399 81.7493 299.375 79.104C298.436 76.3733 296.858 74.24 294.639 72.704C292.506 71.0827 289.562 70.272 285.807 70.272C282.308 70.272 279.108 71.0827 276.207 72.704C273.306 74.24 271.002 76.3733 269.295 79.104C267.588 81.7493 266.735 84.736 266.735 88.064V122.752C266.735 124.203 266.266 125.44 265.327 126.464C264.388 127.488 263.151 128 261.615 128C260.164 128 258.927 127.488 257.903 126.464C256.964 125.44 256.495 124.203 256.495 122.752V87.68C256.495 84.4373 256.026 81.536 255.087 78.976C254.234 76.3307 252.74 74.24 250.607 72.704C248.474 71.0827 245.53 70.272 241.775 70.272C238.362 70.272 235.247 71.0827 232.431 72.704C229.615 74.24 227.354 76.3307 225.647 78.976C223.94 81.536 223.087 84.4373 223.087 87.68V122.752C223.087 124.203 222.575 125.44 221.551 126.464C220.612 127.488 219.418 128 217.967 128C216.516 128 215.279 127.488 214.255 126.464C213.316 125.44 212.847 124.203 212.847 122.752V66.944C212.847 65.4933 213.316 64.2987 214.255 63.36C215.279 62.336 216.516 61.824 217.967 61.824C219.503 61.824 220.74 62.336 221.679 63.36C222.618 64.2987 223.087 65.4933 223.087 66.944V76.672L220.271 79.744C220.612 77.5253 221.466 75.3067 222.831 73.088C224.282 70.8693 226.116 68.8213 228.335 66.944C230.554 65.0667 233.028 63.5733 235.759 62.464C238.49 61.3547 241.391 60.8 244.463 60.8ZM392.945 94.72C392.945 101.376 391.452 107.307 388.465 112.512C385.564 117.717 381.596 121.813 376.561 124.8C371.612 127.787 366.022 129.28 359.793 129.28C353.564 129.28 347.932 127.787 342.897 124.8C337.862 121.813 333.852 117.717 330.865 112.512C327.964 107.307 326.513 101.376 326.513 94.72C326.513 88.064 327.964 82.1333 330.865 76.928C333.852 71.7227 337.862 67.6267 342.897 64.64C347.932 61.6533 353.564 60.16 359.793 60.16C366.022 60.16 371.612 61.6533 376.561 64.64C381.596 67.6267 385.564 71.7227 388.465 76.928C391.452 82.1333 392.945 88.064 392.945 94.72ZM382.705 94.72C382.705 89.7707 381.681 85.4187 379.633 81.664C377.67 77.9093 374.94 74.9653 371.441 72.832C368.028 70.6987 364.145 69.632 359.793 69.632C355.441 69.632 351.516 70.6987 348.017 72.832C344.604 74.9653 341.873 77.9093 339.825 81.664C337.777 85.4187 336.753 89.7707 336.753 94.72C336.753 99.584 337.777 103.893 339.825 107.648C341.873 111.403 344.604 114.389 348.017 116.608C351.516 118.741 355.441 119.808 359.793 119.808C364.145 119.808 368.028 118.741 371.441 116.608C374.94 114.389 377.67 111.403 379.633 107.648C381.681 103.893 382.705 99.584 382.705 94.72ZM437.787 60.16C442.139 60.16 446.064 60.6293 449.563 61.568C453.062 62.5067 455.835 63.7867 457.883 65.408C459.931 67.0293 460.955 68.864 460.955 70.912C460.955 72.0213 460.571 73.088 459.803 74.112C459.035 75.136 458.011 75.648 456.731 75.648C455.536 75.648 454.555 75.4347 453.787 75.008C453.104 74.5813 452.422 74.0267 451.739 73.344C451.142 72.6613 450.288 72.064 449.179 71.552C448.155 70.9547 446.662 70.4853 444.699 70.144C442.736 69.8027 440.774 69.632 438.811 69.632C434.118 69.632 429.979 70.7413 426.395 72.96C422.896 75.1787 420.123 78.1653 418.075 81.92C416.027 85.6747 415.003 89.9413 415.003 94.72C415.003 99.4987 415.984 103.765 417.947 107.52C419.91 111.275 422.64 114.261 426.139 116.48C429.638 118.699 433.691 119.808 438.299 119.808C441.286 119.808 443.675 119.552 445.467 119.04C447.259 118.528 448.752 117.931 449.947 117.248C451.483 116.395 452.635 115.541 453.403 114.688C454.256 113.835 455.366 113.408 456.731 113.408C458.182 113.408 459.291 113.877 460.059 114.816C460.912 115.755 461.339 116.907 461.339 118.272C461.339 119.808 460.272 121.429 458.139 123.136C456.006 124.843 453.104 126.293 449.435 127.488C445.851 128.683 441.755 129.28 437.147 129.28C430.662 129.28 424.987 127.787 420.123 124.8C415.259 121.728 411.462 117.589 408.731 112.384C406.086 107.093 404.763 101.205 404.763 94.72C404.763 88.2347 406.128 82.3893 408.859 77.184C411.675 71.9787 415.558 67.84 420.507 64.768C425.456 61.696 431.216 60.16 437.787 60.16ZM429.723 146.688C429.126 146.688 428.315 146.475 427.291 146.048C426.267 145.707 425.328 145.152 424.475 144.384C423.707 143.701 423.323 142.891 423.323 141.952C423.323 140.928 423.707 139.989 424.475 139.136L435.227 125.44H441.499L433.691 143.616C432.923 145.664 431.6 146.688 429.723 146.688ZM537.57 94.72C537.57 101.376 536.077 107.307 533.09 112.512C530.189 117.717 526.221 121.813 521.186 124.8C516.237 127.787 510.647 129.28 504.418 129.28C498.189 129.28 492.557 127.787 487.522 124.8C482.487 121.813 478.477 117.717 475.49 112.512C472.589 107.307 471.138 101.376 471.138 94.72C471.138 88.064 472.589 82.1333 475.49 76.928C478.477 71.7227 482.487 67.6267 487.522 64.64C492.557 61.6533 498.189 60.16 504.418 60.16C510.647 60.16 516.237 61.6533 521.186 64.64C526.221 67.6267 530.189 71.7227 533.09 76.928C536.077 82.1333 537.57 88.064 537.57 94.72ZM527.33 94.72C527.33 89.7707 526.306 85.4187 524.258 81.664C522.295 77.9093 519.565 74.9653 516.066 72.832C512.653 70.6987 508.77 69.632 504.418 69.632C500.066 69.632 496.141 70.6987 492.642 72.832C489.229 74.9653 486.498 77.9093 484.45 81.664C482.402 85.4187 481.378 89.7707 481.378 94.72C481.378 99.584 482.402 103.893 484.45 107.648C486.498 111.403 489.229 114.389 492.642 116.608C496.141 118.741 500.066 119.808 504.418 119.808C508.77 119.808 512.653 118.741 516.066 116.608C519.565 114.389 522.295 111.403 524.258 107.648C526.306 103.893 527.33 99.584 527.33 94.72ZM487.778 52.608C486.242 52.608 485.09 52.0533 484.322 50.944C483.554 49.7493 483.255 48.0853 483.426 45.952C483.853 43.2213 485.175 40.96 487.394 39.168C489.698 37.376 492.685 36.48 496.354 36.48C498.146 36.48 499.853 36.864 501.474 37.632C503.181 38.4 504.759 39.296 506.21 40.32C507.746 41.2587 509.197 42.1547 510.562 43.008C511.927 43.776 513.165 44.16 514.274 44.16C515.383 44.16 516.237 43.8187 516.834 43.136C517.517 42.368 517.858 41.344 517.858 40.064C517.602 38.6987 517.815 37.632 518.498 36.864C519.266 36.096 520.205 35.712 521.314 35.712C522.935 35.712 524.087 36.3093 524.77 37.504C525.538 38.6133 525.837 40.1493 525.666 42.112C525.495 43.904 524.898 45.568 523.874 47.104C522.935 48.5547 521.613 49.7493 519.906 50.688C518.199 51.6267 516.066 52.096 513.506 52.096C511.97 52.096 510.391 51.712 508.77 50.944C507.149 50.176 505.485 49.3227 503.778 48.384C502.157 47.36 500.621 46.464 499.17 45.696C497.719 44.928 496.439 44.544 495.33 44.544C494.221 44.544 493.282 44.8853 492.514 45.568C491.831 46.1653 491.405 47.1467 491.234 48.512C491.405 49.792 491.106 50.816 490.338 51.584C489.655 52.2667 488.802 52.608 487.778 52.608ZM583.564 129.28C576.737 129.28 570.764 127.829 565.644 124.928C560.524 122.027 556.513 118.059 553.612 113.024C550.796 107.904 549.388 102.016 549.388 95.36C549.388 87.936 550.839 81.6213 553.74 76.416C556.727 71.1253 560.567 67.1147 565.26 64.384C570.039 61.568 575.073 60.16 580.364 60.16C584.289 60.16 588.087 60.8853 591.756 62.336C595.425 63.7867 598.668 65.92 601.484 68.736C604.3 71.4667 606.561 74.7947 608.268 78.72C609.975 82.56 610.871 86.8693 610.956 91.648C610.956 93.0133 610.444 94.1653 609.42 95.104C608.396 96.0427 607.201 96.512 605.836 96.512H555.276L552.972 87.68H602.252L600.204 89.472V86.656C599.863 83.1573 598.668 80.1707 596.62 77.696C594.657 75.136 592.225 73.1733 589.324 71.808C586.508 70.4427 583.521 69.76 580.364 69.76C577.804 69.76 575.244 70.2293 572.684 71.168C570.209 72.0213 567.948 73.472 565.9 75.52C563.937 77.4827 562.316 80.0427 561.036 83.2C559.841 86.3573 559.244 90.1547 559.244 94.592C559.244 99.5413 560.225 103.893 562.188 107.648C564.236 111.403 567.052 114.389 570.636 116.608C574.22 118.741 578.401 119.808 583.18 119.808C586.167 119.808 588.769 119.424 590.988 118.656C593.207 117.888 595.127 116.949 596.748 115.84C598.369 114.645 599.735 113.451 600.844 112.256C601.953 111.488 603.02 111.104 604.044 111.104C605.324 111.104 606.348 111.531 607.116 112.384C607.969 113.237 608.396 114.261 608.396 115.456C608.396 116.907 607.713 118.187 606.348 119.296C603.959 121.941 600.716 124.288 596.62 126.336C592.524 128.299 588.172 129.28 583.564 129.28ZM622.635 117.504C621.867 116.395 621.526 115.243 621.611 114.048C621.696 112.768 622.422 111.659 623.787 110.72C624.64 110.123 625.622 109.867 626.731 109.952C627.926 110.037 628.992 110.592 629.931 111.616C632.32 114.432 635.051 116.693 638.123 118.4C641.195 120.021 644.95 120.832 649.387 120.832C651.435 120.747 653.483 120.405 655.531 119.808C657.579 119.211 659.286 118.187 660.651 116.736C662.102 115.2 662.827 113.195 662.827 110.72C662.827 108.331 662.102 106.453 660.651 105.088C659.2 103.637 657.323 102.485 655.019 101.632C652.715 100.693 650.198 99.8827 647.467 99.2C644.651 98.432 641.878 97.5787 639.147 96.64C636.416 95.616 633.942 94.3787 631.723 92.928C629.59 91.392 627.84 89.5147 626.475 87.296C625.195 84.992 624.555 82.2187 624.555 78.976C624.555 75.136 625.579 71.808 627.627 68.992C629.76 66.176 632.576 64 636.075 62.464C639.659 60.928 643.542 60.16 647.723 60.16C650.112 60.16 652.587 60.4587 655.147 61.056C657.792 61.568 660.352 62.5067 662.827 63.872C665.302 65.152 667.478 66.944 669.355 69.248C670.123 70.1013 670.55 71.168 670.635 72.448C670.72 73.728 670.166 74.88 668.971 75.904C668.032 76.5867 666.966 76.8853 665.771 76.8C664.662 76.7147 663.723 76.288 662.955 75.52C661.163 73.3867 658.902 71.7653 656.171 70.656C653.526 69.4613 650.582 68.864 647.339 68.864C645.291 68.864 643.286 69.1627 641.323 69.76C639.36 70.3573 637.696 71.3813 636.331 72.832C635.051 74.1973 634.411 76.1173 634.411 78.592C634.496 80.896 635.264 82.7733 636.715 84.224C638.166 85.6747 640.128 86.8693 642.603 87.808C645.078 88.6613 647.808 89.5147 650.795 90.368C653.526 91.0507 656.128 91.8613 658.603 92.8C661.163 93.6533 663.467 94.8053 665.515 96.256C667.563 97.7067 669.184 99.584 670.379 101.888C671.574 104.107 672.171 106.923 672.171 110.336C672.171 114.261 671.062 117.675 668.843 120.576C666.624 123.392 663.68 125.568 660.011 127.104C656.427 128.555 652.544 129.28 648.363 129.28C643.67 129.28 639.019 128.384 634.411 126.592C629.888 124.8 625.963 121.771 622.635 117.504Z" fill="white" fill-opacity="0.2"/>
<path d="M30.388 81.1C32.7107 81.1 34.877 81.77 36.887 83.11C38.9417 84.45 40.5943 86.259 41.845 88.537C43.0957 90.815 43.721 93.361 43.721 96.175C43.721 98.9443 43.0957 101.468 41.845 103.746C40.5943 106.024 38.9417 107.855 36.887 109.24C34.877 110.58 32.7107 111.25 30.388 111.25H18.06L18.73 110.044V123.913C18.73 125.074 18.3727 126.057 17.658 126.861C16.9433 127.62 16.0053 128 14.844 128C13.7273 128 12.8117 127.62 12.097 126.861C11.3823 126.057 11.025 125.074 11.025 123.913V85.187C11.025 84.0257 11.4047 83.0653 12.164 82.306C12.968 81.502 13.9507 81.1 15.112 81.1H30.388ZM30.388 103.612C31.2367 103.612 32.063 103.255 32.867 102.54C33.671 101.825 34.341 100.91 34.877 99.793C35.413 98.6317 35.681 97.4257 35.681 96.175C35.681 94.8797 35.413 93.6737 34.877 92.557C34.341 91.4403 33.671 90.547 32.867 89.877C32.063 89.1623 31.2367 88.805 30.388 88.805H17.926L18.73 87.599V104.684L17.993 103.612H30.388ZM54.7451 128C53.5838 128 52.6235 127.62 51.8641 126.861C51.1048 126.057 50.7251 125.074 50.7251 123.913V96.242C50.7251 95.0807 51.1048 94.1203 51.8641 93.361C52.6235 92.557 53.5838 92.155 54.7451 92.155C55.9065 92.155 56.8668 92.557 57.6261 93.361C58.3855 94.1203 58.7651 95.0807 58.7651 96.242V102.54L58.2961 98.051C58.7875 96.979 59.4128 96.041 60.1721 95.237C60.9761 94.3883 61.8695 93.696 62.8521 93.16C63.8348 92.5793 64.8845 92.155 66.0011 91.887C67.1178 91.619 68.2345 91.485 69.3511 91.485C70.6911 91.485 71.8078 91.8647 72.7011 92.624C73.6391 93.3833 74.1081 94.2767 74.1081 95.304C74.1081 96.778 73.7285 97.85 72.9691 98.52C72.2098 99.1453 71.3835 99.458 70.4901 99.458C69.6415 99.458 68.8598 99.3017 68.1451 98.989C67.4751 98.6763 66.6935 98.52 65.8001 98.52C64.9961 98.52 64.1698 98.721 63.3211 99.123C62.5171 99.4803 61.7578 100.061 61.0431 100.865C60.3731 101.669 59.8148 102.674 59.3681 103.88C58.9661 105.041 58.7651 106.426 58.7651 108.034V123.913C58.7651 125.074 58.3855 126.057 57.6261 126.861C56.8668 127.62 55.9065 128 54.7451 128ZM113.044 110.111C113.044 113.774 112.218 117.012 110.565 119.826C108.957 122.595 106.768 124.762 103.999 126.325C101.274 127.888 98.2147 128.67 94.82 128.67C91.4253 128.67 88.3433 127.888 85.574 126.325C82.8493 124.762 80.6607 122.595 79.008 119.826C77.4 117.012 76.596 113.774 76.596 110.111C76.596 106.448 77.4 103.232 79.008 100.463C80.6607 97.649 82.8493 95.4603 85.574 93.897C88.3433 92.289 91.4253 91.485 94.82 91.485C98.2147 91.485 101.274 92.289 103.999 93.897C106.768 95.4603 108.957 97.649 110.565 100.463C112.218 103.232 113.044 106.448 113.044 110.111ZM105.004 110.111C105.004 107.833 104.535 105.868 103.597 104.215C102.704 102.518 101.475 101.2 99.912 100.262C98.3933 99.324 96.696 98.855 94.82 98.855C92.944 98.855 91.2243 99.324 89.661 100.262C88.1423 101.2 86.914 102.518 85.976 104.215C85.0827 105.868 84.636 107.833 84.636 110.111C84.636 112.344 85.0827 114.31 85.976 116.007C86.914 117.66 88.1423 118.955 89.661 119.893C91.2243 120.831 92.944 121.3 94.82 121.3C96.696 121.3 98.3933 120.831 99.912 119.893C101.475 118.955 102.704 117.66 103.597 116.007C104.535 114.31 105.004 112.344 105.004 110.111ZM138.908 91.485C142.481 91.485 145.116 92.356 146.814 94.098C148.511 95.7953 149.628 98.0063 150.164 100.731L149.025 100.128L149.561 99.056C150.097 98.0287 150.923 96.9343 152.04 95.773C153.156 94.567 154.496 93.562 156.06 92.758C157.668 91.9093 159.454 91.485 161.42 91.485C164.636 91.485 167.07 92.1773 168.723 93.562C170.42 94.9467 171.581 96.8003 172.207 99.123C172.832 101.401 173.145 103.947 173.145 106.761V123.913C173.145 125.074 172.765 126.057 172.006 126.861C171.246 127.62 170.286 128 169.125 128C167.963 128 167.003 127.62 166.244 126.861C165.484 126.057 165.105 125.074 165.105 123.913V106.761C165.105 105.287 164.926 103.969 164.569 102.808C164.211 101.602 163.564 100.642 162.626 99.927C161.688 99.2123 160.348 98.855 158.606 98.855C156.908 98.855 155.457 99.2123 154.251 99.927C153.045 100.642 152.129 101.602 151.504 102.808C150.923 103.969 150.633 105.287 150.633 106.761V123.913C150.633 125.074 150.253 126.057 149.494 126.861C148.734 127.62 147.774 128 146.613 128C145.451 128 144.491 127.62 143.732 126.861C142.972 126.057 142.593 125.074 142.593 123.913V106.761C142.593 105.287 142.414 103.969 142.057 102.808C141.699 101.602 141.052 100.642 140.114 99.927C139.176 99.2123 137.836 98.855 136.094 98.855C134.396 98.855 132.945 99.2123 131.739 99.927C130.533 100.642 129.617 101.602 128.992 102.808C128.411 103.969 128.121 105.287 128.121 106.761V123.913C128.121 125.074 127.741 126.057 126.982 126.861C126.222 127.62 125.262 128 124.101 128C122.939 128 121.979 127.62 121.22 126.861C120.46 126.057 120.081 125.074 120.081 123.913V96.242C120.081 95.0807 120.46 94.1203 121.22 93.361C121.979 92.557 122.939 92.155 124.101 92.155C125.262 92.155 126.222 92.557 126.982 93.361C127.741 94.1203 128.121 95.0807 128.121 96.242V99.123L127.116 98.922C127.518 98.1627 128.076 97.3587 128.791 96.51C129.505 95.6167 130.376 94.7903 131.404 94.031C132.431 93.2717 133.57 92.6687 134.821 92.222C136.071 91.7307 137.434 91.485 138.908 91.485ZM216.619 110.111C216.619 113.774 215.793 117.012 214.14 119.826C212.532 122.595 210.344 124.762 207.574 126.325C204.85 127.888 201.79 128.67 198.395 128.67C195.001 128.67 191.919 127.888 189.149 126.325C186.425 124.762 184.236 122.595 182.583 119.826C180.975 117.012 180.171 113.774 180.171 110.111C180.171 106.448 180.975 103.232 182.583 100.463C184.236 97.649 186.425 95.4603 189.149 93.897C191.919 92.289 195.001 91.485 198.395 91.485C201.79 91.485 204.85 92.289 207.574 93.897C210.344 95.4603 212.532 97.649 214.14 100.463C215.793 103.232 216.619 106.448 216.619 110.111ZM208.579 110.111C208.579 107.833 208.11 105.868 207.172 104.215C206.279 102.518 205.051 101.2 203.487 100.262C201.969 99.324 200.271 98.855 198.395 98.855C196.519 98.855 194.8 99.324 193.236 100.262C191.718 101.2 190.489 102.518 189.551 104.215C188.658 105.868 188.211 107.833 188.211 110.111C188.211 112.344 188.658 114.31 189.551 116.007C190.489 117.66 191.718 118.955 193.236 119.893C194.8 120.831 196.519 121.3 198.395 121.3C200.271 121.3 201.969 120.831 203.487 119.893C205.051 118.955 206.279 117.66 207.172 116.007C208.11 114.31 208.579 112.344 208.579 110.111ZM239.602 91.485C242.148 91.485 244.359 91.753 246.235 92.289C248.155 92.825 249.629 93.5843 250.657 94.567C251.729 95.505 252.265 96.644 252.265 97.984C252.265 98.8773 251.997 99.726 251.461 100.53C250.925 101.289 250.143 101.669 249.116 101.669C248.401 101.669 247.798 101.58 247.307 101.401C246.86 101.178 246.458 100.91 246.101 100.597C245.743 100.284 245.319 99.994 244.828 99.726C244.381 99.458 243.689 99.257 242.751 99.123C241.857 98.9443 241.187 98.855 240.741 98.855C238.463 98.855 236.52 99.3463 234.912 100.329C233.348 101.312 232.142 102.652 231.294 104.349C230.445 106.002 230.021 107.922 230.021 110.111C230.021 112.255 230.445 114.176 231.294 115.873C232.187 117.526 233.393 118.843 234.912 119.826C236.475 120.809 238.262 121.3 240.272 121.3C241.388 121.3 242.349 121.233 243.153 121.099C243.957 120.965 244.627 120.764 245.163 120.496C245.788 120.139 246.346 119.759 246.838 119.357C247.329 118.955 248.066 118.754 249.049 118.754C250.21 118.754 251.103 119.134 251.729 119.893C252.354 120.608 252.667 121.501 252.667 122.573C252.667 123.69 252.041 124.717 250.791 125.655C249.54 126.548 247.887 127.285 245.833 127.866C243.823 128.402 241.634 128.67 239.267 128.67C235.738 128.67 232.678 127.866 230.088 126.258C227.497 124.605 225.487 122.372 224.058 119.558C222.673 116.744 221.981 113.595 221.981 110.111C221.981 106.448 222.718 103.232 224.192 100.463C225.71 97.649 227.787 95.4603 230.423 93.897C233.103 92.289 236.162 91.485 239.602 91.485ZM235.85 138.117C235.403 138.117 234.822 137.983 234.108 137.715C233.438 137.492 232.835 137.134 232.299 136.643C231.763 136.196 231.495 135.66 231.495 135.035C231.495 134.365 231.763 133.695 232.299 133.025L237.525 125.99H242.282L238.597 135.973C238.061 137.402 237.145 138.117 235.85 138.117ZM293.237 110.111C293.237 113.774 292.411 117.012 290.758 119.826C289.15 122.595 286.962 124.762 284.192 126.325C281.468 127.888 278.408 128.67 275.013 128.67C271.619 128.67 268.537 127.888 265.767 126.325C263.043 124.762 260.854 122.595 259.201 119.826C257.593 117.012 256.789 113.774 256.789 110.111C256.789 106.448 257.593 103.232 259.201 100.463C260.854 97.649 263.043 95.4603 265.767 93.897C268.537 92.289 271.619 91.485 275.013 91.485C278.408 91.485 281.468 92.289 284.192 93.897C286.962 95.4603 289.15 97.649 290.758 100.463C292.411 103.232 293.237 106.448 293.237 110.111ZM285.197 110.111C285.197 107.833 284.728 105.868 283.79 104.215C282.897 102.518 281.669 101.2 280.105 100.262C278.587 99.324 276.889 98.855 275.013 98.855C273.137 98.855 271.418 99.324 269.854 100.262C268.336 101.2 267.107 102.518 266.169 104.215C265.276 105.868 264.829 107.833 264.829 110.111C264.829 112.344 265.276 114.31 266.169 116.007C267.107 117.66 268.336 118.955 269.854 119.893C271.418 120.831 273.137 121.3 275.013 121.3C276.889 121.3 278.587 120.831 280.105 119.893C281.669 118.955 282.897 117.66 283.79 116.007C284.728 114.31 285.197 112.344 285.197 110.111ZM266.035 88.47C265.053 88.47 264.182 88.068 263.422 87.264C262.708 86.46 262.35 85.3433 262.35 83.914C262.35 82.4847 263.02 81.1447 264.36 79.894C265.7 78.6433 267.777 78.018 270.591 78.018C271.753 78.018 272.802 78.2413 273.74 78.688C274.678 79.1347 275.527 79.6483 276.286 80.229C277.09 80.765 277.827 81.2563 278.497 81.703C279.212 82.1497 279.86 82.373 280.44 82.373C280.932 82.373 281.311 82.2613 281.579 82.038C281.847 81.77 281.914 81.4127 281.78 80.966C281.468 79.9387 281.579 79.1347 282.115 78.554C282.651 77.9733 283.321 77.683 284.125 77.683C285.153 77.683 286.024 78.085 286.738 78.889C287.453 79.6483 287.81 80.7203 287.81 82.105C287.81 82.8643 287.565 83.713 287.073 84.651C286.582 85.589 285.778 86.4153 284.661 87.13C283.545 87.8 282.048 88.135 280.172 88.135C279.234 88.135 278.274 87.9117 277.291 87.465C276.353 87.0183 275.415 86.527 274.477 85.991C273.539 85.4103 272.668 84.8967 271.864 84.45C271.06 84.0033 270.346 83.78 269.72 83.78C269.274 83.78 268.894 83.914 268.581 84.182C268.313 84.4053 268.246 84.7403 268.38 85.187C268.693 86.1697 268.581 86.9737 268.045 87.599C267.509 88.1797 266.839 88.47 266.035 88.47ZM317.158 128.67C313.361 128.67 310.056 127.888 307.242 126.325C304.473 124.717 302.329 122.551 300.81 119.826C299.336 117.101 298.599 114.019 298.599 110.58C298.599 106.56 299.403 103.143 301.011 100.329C302.664 97.4703 304.808 95.2817 307.443 93.763C310.078 92.2443 312.87 91.485 315.818 91.485C318.096 91.485 320.24 91.954 322.25 92.892C324.305 93.83 326.114 95.1253 327.677 96.778C329.24 98.386 330.469 100.262 331.362 102.406C332.3 104.55 332.769 106.828 332.769 109.24C332.724 110.312 332.3 111.183 331.496 111.853C330.692 112.523 329.754 112.858 328.682 112.858H303.088L301.078 106.158H325.667L324.193 107.498V105.689C324.104 104.394 323.635 103.232 322.786 102.205C321.982 101.178 320.955 100.374 319.704 99.793C318.498 99.1677 317.203 98.855 315.818 98.855C314.478 98.855 313.227 99.0337 312.066 99.391C310.905 99.7483 309.9 100.351 309.051 101.2C308.202 102.049 307.532 103.188 307.041 104.617C306.55 106.046 306.304 107.855 306.304 110.044C306.304 112.456 306.795 114.511 307.778 116.208C308.805 117.861 310.101 119.134 311.664 120.027C313.272 120.876 314.969 121.3 316.756 121.3C318.409 121.3 319.726 121.166 320.709 120.898C321.692 120.63 322.473 120.317 323.054 119.96C323.679 119.558 324.238 119.223 324.729 118.955C325.533 118.553 326.292 118.352 327.007 118.352C327.99 118.352 328.794 118.687 329.419 119.357C330.089 120.027 330.424 120.809 330.424 121.702C330.424 122.908 329.799 124.002 328.548 124.985C327.387 125.968 325.756 126.839 323.657 127.598C321.558 128.313 319.391 128.67 317.158 128.67ZM337.716 122.439C337.27 121.814 337.069 121.01 337.113 120.027C337.158 119.044 337.739 118.196 338.855 117.481C339.57 117.034 340.329 116.856 341.133 116.945C341.937 116.99 342.719 117.392 343.478 118.151C344.774 119.446 346.136 120.451 347.565 121.166C348.995 121.881 350.781 122.238 352.925 122.238C353.595 122.193 354.332 122.104 355.136 121.97C355.94 121.791 356.633 121.434 357.213 120.898C357.839 120.317 358.151 119.446 358.151 118.285C358.151 117.302 357.816 116.521 357.146 115.94C356.476 115.359 355.583 114.868 354.466 114.466C353.394 114.064 352.188 113.684 350.848 113.327C349.464 112.925 348.034 112.478 346.56 111.987C345.131 111.496 343.813 110.87 342.607 110.111C341.401 109.307 340.419 108.257 339.659 106.962C338.9 105.667 338.52 104.036 338.52 102.071C338.52 99.8377 339.146 97.9393 340.396 96.376C341.647 94.8127 343.255 93.6067 345.22 92.758C347.23 91.9093 349.33 91.485 351.518 91.485C352.903 91.485 354.355 91.6637 355.873 92.021C357.392 92.3337 358.844 92.8697 360.228 93.629C361.613 94.3437 362.774 95.304 363.712 96.51C364.204 97.18 364.494 97.984 364.583 98.922C364.673 99.86 364.248 100.709 363.31 101.468C362.64 102.004 361.859 102.25 360.965 102.205C360.072 102.116 359.335 101.803 358.754 101.267C357.995 100.284 356.968 99.5027 355.672 98.922C354.422 98.3413 352.97 98.051 351.317 98.051C350.647 98.051 349.91 98.1403 349.106 98.319C348.347 98.453 347.677 98.788 347.096 99.324C346.516 99.8153 346.225 100.619 346.225 101.736C346.225 102.763 346.56 103.59 347.23 104.215C347.9 104.796 348.794 105.287 349.91 105.689C351.072 106.046 352.3 106.404 353.595 106.761C354.935 107.118 356.298 107.543 357.682 108.034C359.067 108.525 360.34 109.173 361.501 109.977C362.663 110.781 363.601 111.831 364.315 113.126C365.03 114.377 365.387 115.985 365.387 117.95C365.387 120.228 364.717 122.171 363.377 123.779C362.037 125.387 360.362 126.615 358.352 127.464C356.342 128.268 354.288 128.67 352.188 128.67C349.553 128.67 346.918 128.223 344.282 127.33C341.647 126.392 339.458 124.762 337.716 122.439Z" fill="white"/>
</svg>
