<svg width="420" height="154" viewBox="0 0 420 154" fill="none" xmlns="http://www.w3.org/2000/svg">
    <path
        d="M39.04 128C37.504 128 36.224 127.488 35.2 126.464C34.176 125.44 33.664 124.203 33.664 122.752V43.648H44.544V122.752C44.544 124.203 44.032 125.44 43.008 126.464C41.984 127.488 40.6613 128 39.04 128ZM9.344 48.128C7.89333 48.128 6.656 47.7013 5.632 46.848C4.69333 45.9093 4.224 44.7147 4.224 43.264C4.224 41.8133 4.69333 40.6613 5.632 39.808C6.656 38.8693 7.89333 38.4 9.344 38.4H68.864C70.3147 38.4 71.552 38.8693 72.576 39.808C73.6 40.6613 74.112 41.8133 74.112 43.264C74.112 44.8 73.6 45.9947 72.576 46.848C71.552 47.7013 70.3147 48.128 68.864 48.128H9.344ZM135.195 94.72C135.195 101.376 133.702 107.307 130.715 112.512C127.814 117.717 123.846 121.813 118.811 124.8C113.862 127.787 108.272 129.28 102.043 129.28C95.8137 129.28 90.1817 127.787 85.147 124.8C80.1123 121.813 76.1017 117.717 73.115 112.512C70.2137 107.307 68.763 101.376 68.763 94.72C68.763 88.064 70.2137 82.1333 73.115 76.928C76.1017 71.7227 80.1123 67.6267 85.147 64.64C90.1817 61.6533 95.8137 60.16 102.043 60.16C108.272 60.16 113.862 61.6533 118.811 64.64C123.846 67.6267 127.814 71.7227 130.715 76.928C133.702 82.1333 135.195 88.064 135.195 94.72ZM124.955 94.72C124.955 89.7707 123.931 85.4187 121.883 81.664C119.92 77.9093 117.19 74.9653 113.691 72.832C110.278 70.6987 106.395 69.632 102.043 69.632C97.691 69.632 93.7657 70.6987 90.267 72.832C86.8537 74.9653 84.123 77.9093 82.075 81.664C80.027 85.4187 79.003 89.7707 79.003 94.72C79.003 99.584 80.027 103.893 82.075 107.648C84.123 111.403 86.8537 114.389 90.267 116.608C93.7657 118.741 97.691 119.808 102.043 119.808C106.395 119.808 110.278 118.741 113.691 116.608C117.19 114.389 119.92 111.403 121.883 107.648C123.931 103.893 124.955 99.584 124.955 94.72ZM183.237 60.8C189.04 60.8 194.245 62.2507 198.853 65.152C203.461 68.0533 207.088 72.064 209.733 77.184C212.464 82.304 213.829 88.192 213.829 94.848C213.829 101.419 212.464 107.307 209.733 112.512C207.088 117.632 203.461 121.685 198.853 124.672C194.33 127.573 189.21 129.024 183.493 129.024C180.336 129.024 177.349 128.555 174.533 127.616C171.802 126.592 169.285 125.312 166.981 123.776C164.762 122.155 162.885 120.363 161.349 118.4C159.813 116.352 158.704 114.347 158.021 112.384L160.837 110.592V148.352C160.837 149.803 160.368 151.04 159.429 152.064C158.49 153.088 157.253 153.6 155.717 153.6C154.266 153.6 153.029 153.088 152.005 152.064C151.066 151.125 150.597 149.888 150.597 148.352V66.56C150.597 65.1093 151.066 63.9147 152.005 62.976C153.029 61.952 154.266 61.44 155.717 61.44C157.253 61.44 158.49 61.952 159.429 62.976C160.368 63.9147 160.837 65.1093 160.837 66.56V77.952L158.917 76.928C159.514 74.7947 160.538 72.7467 161.989 70.784C163.525 68.8213 165.36 67.1147 167.493 65.664C169.712 64.128 172.144 62.9333 174.789 62.08C177.52 61.2267 180.336 60.8 183.237 60.8ZM182.085 70.272C177.818 70.272 174.021 71.3387 170.693 73.472C167.45 75.6053 164.89 78.5067 163.013 82.176C161.221 85.8453 160.325 90.0693 160.325 94.848C160.325 99.5413 161.221 103.765 163.013 107.52C164.89 111.275 167.45 114.219 170.693 116.352C174.021 118.485 177.818 119.552 182.085 119.552C186.352 119.552 190.106 118.485 193.349 116.352C196.592 114.219 199.152 111.275 201.029 107.52C202.906 103.765 203.845 99.5413 203.845 94.848C203.845 90.0693 202.906 85.8453 201.029 82.176C199.152 78.5067 196.592 75.6053 193.349 73.472C190.106 71.3387 186.352 70.272 182.085 70.272ZM284.44 128C282.904 128 281.624 127.488 280.6 126.464C279.576 125.44 279.064 124.203 279.064 122.752V49.92L280.6 51.712L266.136 61.696C265.283 62.2933 264.301 62.592 263.192 62.592C261.741 62.592 260.504 62.08 259.48 61.056C258.456 59.9467 257.944 58.7093 257.944 57.344C257.944 55.4667 258.84 53.9733 260.632 52.864L280.984 39.424C281.667 38.9973 282.349 38.6987 283.032 38.528C283.715 38.3573 284.397 38.3147 285.08 38.4C286.616 38.4 287.811 38.912 288.664 39.936C289.603 40.8747 290.072 42.0693 290.072 43.52V122.752C290.072 124.203 289.517 125.44 288.408 126.464C287.384 127.488 286.061 128 284.44 128ZM341.653 129.28C334.57 129.28 328.64 127.275 323.861 123.264C319.168 119.253 315.584 113.749 313.109 106.752C310.72 99.7547 309.525 91.904 309.525 83.2C309.525 74.3253 310.72 66.432 313.109 59.52C315.584 52.608 319.168 47.1467 323.861 43.136C328.64 39.1253 334.57 37.12 341.653 37.12C348.736 37.12 354.624 39.1253 359.317 43.136C364.096 47.1467 367.68 52.608 370.069 59.52C372.458 66.432 373.653 74.3253 373.653 83.2C373.653 91.904 372.458 99.7547 370.069 106.752C367.68 113.749 364.096 119.253 359.317 123.264C354.624 127.275 348.736 129.28 341.653 129.28ZM341.653 118.912C346.176 118.912 349.973 117.461 353.045 114.56C356.202 111.659 358.592 107.563 360.213 102.272C361.834 96.896 362.645 90.5387 362.645 83.2C362.645 75.776 361.834 69.4187 360.213 64.128C358.592 58.752 356.202 54.656 353.045 51.84C349.973 48.9387 346.176 47.488 341.653 47.488C337.13 47.488 333.29 48.9387 330.133 51.84C327.061 54.656 324.672 58.752 322.965 64.128C321.344 69.4187 320.533 75.776 320.533 83.2C320.533 90.5387 321.344 96.896 322.965 102.272C324.672 107.563 327.061 111.659 330.133 114.56C333.29 117.461 337.13 118.912 341.653 118.912Z"
        fill="white" fill-opacity="0.2" />
    <path
        d="M26.904 128C25.6533 128 24.626 127.62 23.822 126.861C23.018 126.057 22.616 125.074 22.616 123.913V85.053H31.326V123.913C31.326 125.074 30.9017 126.057 30.053 126.861C29.249 127.62 28.1993 128 26.904 128ZM12.097 88.805C10.9357 88.805 9.953 88.4477 9.149 87.733C8.38967 87.0183 8.01 86.0803 8.01 84.919C8.01 83.7577 8.38967 82.842 9.149 82.172C9.953 81.4573 10.9357 81.1 12.097 81.1H41.845C43.0063 81.1 43.9667 81.4573 44.726 82.172C45.53 82.8867 45.932 83.8247 45.932 84.986C45.932 86.1473 45.53 87.0853 44.726 87.8C43.9667 88.47 43.0063 88.805 41.845 88.805H12.097ZM79.0206 110.111C79.0206 113.774 78.1942 117.012 76.5416 119.826C74.9336 122.595 72.7449 124.762 69.9756 126.325C67.2509 127.888 64.1912 128.67 60.7966 128.67C57.4019 128.67 54.3199 127.888 51.5506 126.325C48.8259 124.762 46.6372 122.595 44.9846 119.826C43.3766 117.012 42.5726 113.774 42.5726 110.111C42.5726 106.448 43.3766 103.232 44.9846 100.463C46.6372 97.649 48.8259 95.4603 51.5506 93.897C54.3199 92.289 57.4019 91.485 60.7966 91.485C64.1912 91.485 67.2509 92.289 69.9756 93.897C72.7449 95.4603 74.9336 97.649 76.5416 100.463C78.1942 103.232 79.0206 106.448 79.0206 110.111ZM70.9806 110.111C70.9806 107.833 70.5116 105.868 69.5736 104.215C68.6802 102.518 67.4519 101.2 65.8886 100.262C64.3699 99.324 62.6726 98.855 60.7966 98.855C58.9206 98.855 57.2009 99.324 55.6376 100.262C54.1189 101.2 52.8906 102.518 51.9526 104.215C51.0592 105.868 50.6126 107.833 50.6126 110.111C50.6126 112.344 51.0592 114.31 51.9526 116.007C52.8906 117.66 54.1189 118.955 55.6376 119.893C57.2009 120.831 58.9206 121.3 60.7966 121.3C62.6726 121.3 64.3699 120.831 65.8886 119.893C67.4519 118.955 68.6802 117.66 69.5736 116.007C70.5116 114.31 70.9806 112.344 70.9806 110.111ZM104.616 91.485C107.743 91.485 110.534 92.289 112.991 93.897C115.492 95.4603 117.458 97.6267 118.887 100.396C120.361 103.165 121.098 106.381 121.098 110.044C121.098 113.707 120.361 116.945 118.887 119.759C117.458 122.528 115.515 124.717 113.058 126.325C110.646 127.888 107.921 128.67 104.884 128.67C103.097 128.67 101.422 128.38 99.8592 127.799C98.2958 127.218 96.9111 126.481 95.7051 125.588C94.5438 124.695 93.6281 123.801 92.9581 122.908C92.3328 121.97 92.0201 121.188 92.0201 120.563L94.0971 119.692V137.313C94.0971 138.474 93.7175 139.435 92.9581 140.194C92.1988 140.998 91.2385 141.4 90.0771 141.4C88.9158 141.4 87.9555 141.02 87.1961 140.261C86.4368 139.502 86.0571 138.519 86.0571 137.313V96.242C86.0571 95.0807 86.4368 94.1203 87.1961 93.361C87.9555 92.557 88.9158 92.155 90.0771 92.155C91.2385 92.155 92.1988 92.557 92.9581 93.361C93.7175 94.1203 94.0971 95.0807 94.0971 96.242V99.525L92.9581 98.922C92.9581 98.3413 93.2708 97.649 93.8961 96.845C94.5215 95.9963 95.3701 95.17 96.4421 94.366C97.5141 93.5173 98.7425 92.825 100.127 92.289C101.556 91.753 103.053 91.485 104.616 91.485ZM103.611 98.855C101.646 98.855 99.9261 99.3463 98.4521 100.329C96.9781 101.312 95.8168 102.652 94.9681 104.349C94.1641 106.002 93.7621 107.9 93.7621 110.044C93.7621 112.143 94.1641 114.064 94.9681 115.806C95.8168 117.503 96.9781 118.843 98.4521 119.826C99.9261 120.809 101.646 121.3 103.611 121.3C105.576 121.3 107.274 120.809 108.703 119.826C110.177 118.843 111.316 117.503 112.12 115.806C112.969 114.064 113.393 112.143 113.393 110.044C113.393 107.9 112.969 106.002 112.12 104.349C111.316 102.652 110.177 101.312 108.703 100.329C107.274 99.3463 105.576 98.855 103.611 98.855ZM158.498 128C157.247 128 156.22 127.62 155.416 126.861C154.612 126.057 154.21 125.074 154.21 123.913V90.145L155.148 91.619L150.257 95.237C149.631 95.7283 148.85 95.974 147.912 95.974C146.84 95.974 145.902 95.572 145.098 94.768C144.294 93.964 143.892 93.0037 143.892 91.887C143.892 90.4577 144.584 89.2963 145.969 88.403L155.617 81.971C156.063 81.6583 156.555 81.435 157.091 81.301C157.671 81.167 158.207 81.1 158.699 81.1C159.994 81.1 161.021 81.502 161.781 82.306C162.54 83.0653 162.92 84.0257 162.92 85.187V123.913C162.92 125.074 162.495 126.057 161.647 126.861C160.843 127.62 159.793 128 158.498 128ZM189.162 128.67C185.32 128.67 182.06 127.665 179.38 125.655C176.744 123.6 174.734 120.764 173.35 117.146C171.965 113.483 171.273 109.285 171.273 104.55C171.273 99.7707 171.965 95.572 173.35 91.954C174.734 88.336 176.744 85.522 179.38 83.512C182.06 81.4573 185.32 80.43 189.162 80.43C193.003 80.43 196.241 81.4573 198.877 83.512C201.557 85.522 203.589 88.336 204.974 91.954C206.358 95.572 207.051 99.7707 207.051 104.55C207.051 109.285 206.358 113.483 204.974 117.146C203.589 120.764 201.557 123.6 198.877 125.655C196.241 127.665 193.003 128.67 189.162 128.67ZM189.162 120.63C191.038 120.63 192.646 120.049 193.986 118.888C195.37 117.682 196.442 115.895 197.202 113.528C197.961 111.116 198.341 108.123 198.341 104.55C198.341 100.932 197.961 97.9393 197.202 95.572C196.442 93.2047 195.37 91.4403 193.986 90.279C192.646 89.073 191.038 88.47 189.162 88.47C187.33 88.47 185.722 89.073 184.338 90.279C182.953 91.4403 181.881 93.2047 181.122 95.572C180.362 97.9393 179.983 100.932 179.983 104.55C179.983 108.123 180.362 111.116 181.122 113.528C181.881 115.895 182.953 117.682 184.338 118.888C185.722 120.049 187.33 120.63 189.162 120.63Z"
        fill="white" />
</svg>