<?xml version="1.0" encoding="UTF-8"?>
<svg id="Plano_de_Fundo_Agrupar_1_Imagem" data-name="Plano de Fundo + Agrupar 1 Imagem" xmlns="http://www.w3.org/2000/svg" xmlns:xlink="http://www.w3.org/1999/xlink" viewBox="0 0 1033.41 530.38">
  <defs>
    <style>
      .cls-1 {
        fill: url(#Gradiente_sem_nome_5-2);
      }

      .cls-1, .cls-2, .cls-3, .cls-4, .cls-5, .cls-6 {
        stroke-width: 0px;
      }

      .cls-2 {
        fill: url(#Gradiente_sem_nome_5-3);
      }

      .cls-3 {
        fill: url(#Gradiente_sem_nome_6);
      }

      .cls-4 {
        fill: #ef4945;
      }

      .cls-5 {
        fill: #dfb318;
      }

      .cls-6 {
        fill: url(#Gradiente_sem_nome_5);
      }
    </style>
    <linearGradient id="Gradiente_sem_nome_5" data-name="Gradiente sem nome 5" x1="231.5" y1="185.15" x2="231.5" y2="450.51" gradientUnits="userSpaceOnUse">
      <stop offset="0" stop-color="#ef4c5b"/>
      <stop offset="1" stop-color="#ef5082"/>
    </linearGradient>
    <linearGradient id="Gradiente_sem_nome_6" data-name="Gradiente sem nome 6" x1="449.89" y1="178.33" x2="449.89" y2="457.33" gradientUnits="userSpaceOnUse">
      <stop offset="0" stop-color="#ef4c5b"/>
      <stop offset=".21" stop-color="#ef4d66"/>
      <stop offset=".68" stop-color="#ef4f7a"/>
      <stop offset="1" stop-color="#ef5082"/>
    </linearGradient>
    <linearGradient id="Gradiente_sem_nome_5-2" data-name="Gradiente sem nome 5" x1="662.35" x2="662.35" xlink:href="#Gradiente_sem_nome_5"/>
    <linearGradient id="Gradiente_sem_nome_5-3" data-name="Gradiente sem nome 5" x1="878.31" y1="178.33" x2="878.31" xlink:href="#Gradiente_sem_nome_5"/>
  </defs>
  <g>
    <path class="cls-6" d="m213.8,185.15c7.2,0,10.61,4.17,9.48,11.37l-16.68,94.77c-1.14,7.2,2.27,11.37,9.48,11.37h36.39c7.58,0,12.13-4.17,13.27-11.37l16.68-94.77c1.14-7.2,6.07-11.37,13.27-11.37h42.46c7.58,0,10.99,3.79,9.48,11.37l-42.84,242.61c-1.14,7.2-5.69,11.37-13.27,11.37h-42.46c-7.2,0-10.61-4.17-9.48-11.37l10.61-59.89c1.52-7.58-1.9-11.37-9.48-11.37h-36.39c-7.2,0-11.75,3.79-13.27,11.37l-10.61,59.89c-1.14,7.2-5.69,11.37-13.27,11.37h-42.46c-7.2,0-10.61-4.17-9.48-11.37l42.84-242.61c1.52-7.58,5.69-11.37,13.27-11.37h42.46Z"/>
    <path class="cls-3" d="m474.61,178.33c-89.85,0-107.27,67.1-111.45,92.12l-16.69,94.77c-4.54,25.01-10.99,92.12,78.86,92.12s106.89-67.1,111.45-92.12l16.67-94.77c4.17-25.01,11-92.12-78.84-92.12Zm21.37,201.6c-9.56,1.28-19.11,2.69-28.68,4.05-.8.11-1.61.23-2.43.32-1.58.19-2.84-.46-3.72-1.73-.85-1.24-1.04-2.63-.28-4.02,1.02-1.84,2.09-3.65,3.11-5.48.31-.56.6-1.17.74-1.79.36-1.45-.25-2.8-1.48-3.6-.31-.2-.63-.39-.96-.57-10.92-6.26-21.85-12.55-32.82-18.76-.14-.08-.28-.15-.42-.26h-.05c-1.81-.99-3.03-2.36-3.09-4.53-.02-.6.08-1.21.17-1.81,2.5-16.42,4.98-32.86,7.59-49.27.59-3.69-1.53-5.87-4.59-6.33-2.67-.4-5.36-.79-8.02-1.24-3.24-.56-5.01-3.12-4.43-6.33.22-1.27.99-2.19,1.9-3.03,7.83-7.23,15.65-14.48,23.47-21.71,1.99-1.84,4.06-3.6,5.95-5.53,2.69-2.77,6.64-2.38,8.71,1.39,5.96,10.94,12.08,21.77,18.15,32.65.51.91,1.04,1.82,1.51,2.77.96,1.82.77,3.63-.36,5.27-1.1,1.62-2.69,2.47-4.7,2.19-2.69-.37-5.36-.82-8.03-1.17-.83-.12-1.7-.19-2.52-.08-1.9.26-3.24,1.61-3.65,3.48-.09.46-.17.93-.25,1.39-2.19,14.34-4.42,28.68-6.57,43.01,7.08,4.03,14.14,8.08,21.17,12.18,2.52,1.45,4.68.53,5.87-1.56,1.04-1.82,2.07-3.66,3.14-5.45,1.3-2.19,3.65-2.77,5.81-1.45.87.51,1.31,1.33,1.67,2.22,3.06,7.68,6.1,15.36,9.16,23.04.77,1.96,1.47,3.94,2.35,5.86,1.25,2.7-.12,5.47-3.45,5.9Z"/>
    <path class="cls-1" d="m753.61,430.04c3.41,9.86-4.55,20.47-16.3,20.47h-43.22c-3.79,0-6.82-1.9-7.96-5.31l-25.78-76.19c-.76-1.14-1.52-1.9-2.65-1.9h-15.16c-6.82,0-12.89,4.93-14.02,11.75l-10.61,59.89c-1.14,6.82-6.82,11.75-13.65,11.75h-42.46c-6.82,0-10.99-4.93-9.86-11.75l42.84-241.85c1.14-6.82,6.82-11.75,13.65-11.75h83.02c67.48,0,89.84,28.81,78.85,90.98-6.07,35.25-19.33,59.89-41.7,74.3-1.9,1.14-2.65,3.03-2.27,4.93l27.29,74.68Zm-90.6-179.68c-6.82,0-12.51,4.93-13.65,11.75l-4.93,28.05c-1.52,6.82,2.65,11.75,9.48,11.75h19.33c18.2,0,27.67-2.27,31.84-25.78,4.17-23.5-4.55-25.78-22.74-25.78h-19.33Z"/>
    <path class="cls-2" d="m955.28,437.62c-1.52,8.34-6.07,12.89-13.65,12.89h-42.46c-7.2,0-10.61-3.79-9.48-11.37l6.06-32.98c1.14-7.58-1.9-11.37-9.48-11.37h-32.6c-7.2,0-12.13,3.79-13.27,11.37l-6.07,32.98c-1.14,7.58-5.69,11.37-13.27,11.37h-42.46c-7.2,0-10.61-4.55-9.1-12.89l28.43-160.73c8.34-47.76,25.02-98.56,110.31-98.56s83.78,50.8,75.44,98.56l-28.43,160.73Zm-36.77-160.73c3.03-18.2,1.9-27.29-23.12-27.29s-29.19,9.1-32.22,27.29l-7.2,41.32c-1.52,7.2,1.9,11.37,9.1,11.37h32.6c7.58-.38,12.13-4.17,13.65-11.75l7.2-40.94Z"/>
  </g>
  <g>
    <path class="cls-4" d="m239.7,122.13c-.6,3.28-2.39,5.08-5.37,5.08h-16.72c-2.84,0-4.18-1.49-3.73-4.48l2.39-12.99c.45-2.99-.75-4.48-3.73-4.48h-12.84c-2.84,0-4.78,1.49-5.22,4.48l-2.39,12.99c-.45,2.99-2.24,4.48-5.23,4.48h-16.72c-2.84,0-4.18-1.79-3.58-5.08l11.2-63.3c3.28-18.81,9.85-38.81,43.44-38.81s32.99,20,29.71,38.81l-11.2,63.3Zm-14.48-63.3c1.19-7.17.75-10.75-9.11-10.75s-11.49,3.58-12.69,10.75l-2.84,16.27c-.6,2.84.75,4.48,3.58,4.48h12.84c2.99-.15,4.78-1.64,5.37-4.63l2.84-16.12Z"/>
    <path class="cls-4" d="m308.8,56.29c1.64-9.85,8.51-36.28,43.89-36.28,31.35,0,32.84,20.6,31.65,32.25-.45,2.69-2.09,4.33-4.78,4.93l-17.62,3.73c-2.99.6-4.48-.75-4.18-3.88.6-7.17-1.19-11.35-9.7-11.35-11.05,0-12.99,7.02-15.08,18.51l-3.73,21.5c-2.09,11.49-2.54,18.51,8.51,18.51s12.99-7.02,14.33-14.33h-8.66c-2.84,0-4.18-1.64-3.73-4.48l2.09-11.94c.6-2.99,2.54-4.48,5.37-4.48h29.86c2.99,0,4.18,1.49,3.58,4.48l-3.43,20.15c-1.79,9.85-8.51,36.28-43.89,36.28s-32.84-26.42-31.05-36.28l6.57-37.32Z"/>
    <path class="cls-4" d="m464.5,119.14c1.34,3.88-1.79,8.06-6.42,8.06h-17.02c-1.49,0-2.69-.75-3.13-2.09l-10.15-30.01c-.3-.45-.6-.75-1.05-.75h-5.97c-2.69,0-5.08,1.94-5.52,4.63l-4.18,23.59c-.45,2.69-2.69,4.63-5.37,4.63h-16.72c-2.69,0-4.33-1.94-3.88-4.63l16.87-95.24c.45-2.69,2.69-4.63,5.37-4.63h32.69c26.57,0,35.38,11.35,31.05,35.83-2.39,13.88-7.61,23.59-16.42,29.26-.75.45-1.04,1.19-.9,1.94l10.75,29.41Zm-35.68-70.76c-2.69,0-4.93,1.94-5.37,4.63l-1.94,11.05c-.6,2.69,1.04,4.63,3.73,4.63h7.61c7.17,0,10.9-.9,12.54-10.15,1.64-9.26-1.79-10.15-8.96-10.15h-7.61Z"/>
    <path class="cls-4" d="m546.15,122.13c-.6,3.28-2.39,5.08-5.37,5.08h-16.72c-2.84,0-4.18-1.49-3.73-4.48l2.39-12.99c.45-2.99-.75-4.48-3.73-4.48h-12.84c-2.84,0-4.78,1.49-5.22,4.48l-2.39,12.99c-.45,2.99-2.24,4.48-5.23,4.48h-16.72c-2.84,0-4.18-1.79-3.58-5.08l11.2-63.3c3.28-18.81,9.85-38.81,43.44-38.81s32.99,20,29.71,38.81l-11.2,63.3Zm-14.48-63.3c1.19-7.17.75-10.75-9.11-10.75s-11.49,3.58-12.69,10.75l-2.84,16.27c-.6,2.84.75,4.48,3.58,4.48h12.84c2.99-.15,4.78-1.64,5.37-4.63l2.84-16.12Z"/>
    <path class="cls-4" d="m604.21,22.7c2.54,0,4.03,1.05,4.63,3.43l11.64,49.71c.3,1.34,1.49,1.04,1.79-.45l8.51-48.22c.6-2.99,2.39-4.48,5.23-4.48h16.72c2.99,0,4.33,1.49,3.73,4.48l-16.87,95.54c-.45,2.84-2.24,4.48-5.22,4.48h-21.94c-2.54,0-4.03-1.04-4.63-3.43l-11.49-49.71c-.45-1.34-1.64-1.05-1.94.45l-8.51,48.22c-.45,2.84-2.24,4.48-5.23,4.48h-16.72c-2.84,0-4.18-1.64-3.73-4.48l16.87-95.54c.6-2.99,2.39-4.48,5.22-4.48h21.94Z"/>
    <path class="cls-4" d="m709.9,22.7c28.06,0,35.38,11.35,31.05,35.83l-5.82,32.69c-4.18,24.48-15.53,35.98-43.59,35.98h-33.29c-2.84,0-4.18-1.64-3.73-4.48l16.87-95.39c.45-2.99,2.24-4.48,5.22-4.63h33.29Zm-13.44,78.82c7.17,0,11.05-1.19,12.54-10.15,0-.15,5.82-32.69,5.82-32.84,1.64-9.26-1.79-10.15-8.96-10.15h-8.06c-2.84,0-4.78,1.49-5.23,4.48l-7.76,44.19c-.6,2.84.75,4.48,3.58,4.48h8.06Z"/>
    <path class="cls-4" d="m827.83,22.7c2.99,0,4.33,1.49,3.73,4.48l-2.99,16.72c-.45,2.84-2.24,4.48-5.23,4.48h-36.13c-2.84,0-4.78,1.49-5.23,4.48l-.89,4.78c-.45,2.84.89,4.48,3.73,4.48h23.14c2.98,0,4.18,1.49,3.73,4.48l-2.99,16.72c-.6,2.84-2.24,4.48-5.23,4.48h-23.14c-2.84,0-4.78,1.49-5.37,4.48l-.75,4.78c-.6,2.84.75,4.48,3.58,4.48h36.13c2.99,0,4.33,1.49,3.73,4.48l-2.98,16.72c-.45,2.99-2.24,4.48-5.23,4.48h-62.7c-2.84,0-4.18-1.64-3.73-4.48l16.87-95.54c.6-2.99,2.39-4.48,5.22-4.48h62.7Z"/>
  </g>
  <g>
    <path class="cls-5" d="m32.82,375.4c3.58.67,7.16,1.32,10.73,2,24.29,4.6,40.55,18.51,48.48,41.98.84,2.47,1.33,5.08,1.75,7.66.7,4.26-2.49,6.83-6.49,5.23-8-3.2-15.95-6.51-23.93-9.76-.81-.33-1.63-.62-2.88-1.1.19,1.29.32,2.15.45,3.01,3.21,21.28,6.48,42.55,9.61,63.84,2.14,14.56-2.49,26.69-14.53,35.19-12.18,8.59-25.42,9.23-38.33,1.72-12.99-7.56-19.02-19.46-17.44-34.4,1.56-14.72,9.89-24.73,23.81-29.9,4.83-1.79,9.89-2.2,15.3-1.76-.54-3.61-1.06-7-1.56-10.39-.18-1.26-.43-2.53-.45-3.79-.04-2.11,1.53-3.89,3.59-4.29,1.96-.37,4,.63,4.82,2.48.33.74.52,1.57.64,2.38.97,6.3,1.89,12.61,2.87,18.9.34,2.21.2,4.26-1.88,5.58-2.06,1.31-3.82.47-5.84-.55-1.92-.96-4.28-1.48-6.44-1.46-14.39.18-26,11.85-26.18,26.1-.19,14.42,11.14,26.46,25.57,26.97,16.58.58,30.01-13.85,27.19-31.67-3.78-23.92-7.27-47.89-10.88-71.84-.11-.74-.24-1.48-.33-2.23-.5-4.31,2.58-6.71,6.62-5.08,7.85,3.15,15.68,6.38,23.52,9.57.67.27,1.36.51,2.13.8-3.25-17.08-25.83-34.45-45.34-34.86.38,2.54.76,5.04,1.14,7.55.54,3.63,1.17,7.26,1.58,10.91.29,2.65-1.35,4.7-3.73,5.08-2.39.38-4.64-1.13-5.05-3.71-1.32-8.29-2.53-16.6-3.77-24.91-.34-2.25.94-3.65,2.58-4.86.89-.13,1.78-.27,2.67-.4Z"/>
    <path class="cls-5" d="m1009.84,64.49v-17.69c-4.37.94-8.63,1.85-12.88,2.76-12.41,2.67-24.81,5.37-37.23,7.96-1.5.31-1.79.9-1.79,2.28.04,20.26.07,40.51.02,60.77-.04,15.57-10.54,28.31-25.76,31.43-18.6,3.82-36.91-10.43-37.73-29.35-.93-21.52,17.71-37.28,38.82-32.8.31.07.63.1,1.29.21,0-.89,0-1.69,0-2.5,0-21.29-.01-42.58-.02-63.87,0-3.95.69-4.78,4.61-5.57,29.55-5.99,59.09-11.97,88.64-17.96,3.55-.72,5.52.81,5.53,4.44.03,30.26.19,60.51-.03,90.77-.14,19.01-15.54,32.87-34.48,31.62-16.84-1.11-30.4-16.94-28.95-33.8,1.52-17.64,15.64-30.27,33.19-29.6,2.24.09,4.46.57,6.78.88Zm15.67-55.84c-.4.04-.65.03-.89.08-26.84,5.41-53.68,10.85-80.52,16.21-1.59.32-1.84,1.03-1.83,2.46.05,22.45.04,44.91.05,67.36,0,.71,0,1.42-.02,2.13-.05,1.71-.81,3.02-2.42,3.63-1.57.6-2.95.19-4.29-.9-1.07-.87-2.35-1.85-3.63-2-3.35-.38-6.84-.88-10.13-.36-13.3,2.09-21.88,15.11-19.18,28.59,2.58,12.83,15.89,21.37,28.71,18.42,11.22-2.58,18.84-12.16,18.86-23.83.03-21.55,0-43.1,0-64.65,0-3.26.94-4.35,4.13-5.02,6.99-1.48,13.98-3,20.97-4.49,12.47-2.67,24.94-5.36,37.42-8.01,2.8-.59,4.89.94,4.9,3.69.06,9.87.03,19.74.02,29.62,0,1.66-.86,2.85-2.34,3.47-1.48.63-2.79.16-4.17-.69-1.76-1.09-3.65-2.2-5.63-2.63-5.15-1.12-10.12-.18-14.82,2.17-10.59,5.29-15.73,17.76-11.95,29.03,3.77,11.24,15.3,18.16,26.8,16.08,11.94-2.15,20.03-11.94,20.05-24.39.03-28,0-56.01-.02-84.01,0-.62-.05-1.25-.09-1.96Z"/>
    <path class="cls-5" d="m34.33,425.44c-.33-2.49,1.28-4.59,3.77-4.95,2.45-.35,4.67,1.27,5.05,3.7.38,2.44-1.47,4.88-3.91,5.15-2.42.27-4.59-1.45-4.92-3.9Z"/>
  </g>
</svg>