<?xml version="1.0" encoding="UTF-8"?>
<svg id="Camada_1" data-name="Camada 1" xmlns="http://www.w3.org/2000/svg" viewBox="0 0 901.9 339.79">
  <defs>
    <style>
      .cls-1 {
        fill: #ff003b;
      }

      .cls-1, .cls-2 {
        stroke-width: 0px;
      }

      .cls-2 {
        fill: #170c66;
      }
    </style>
  </defs>
  <rect class="cls-1" x="0" y="118.41" width="33.88" height="29.29" rx="14.65" ry="14.65"/>
  <path class="cls-1" d="m286.71,190.88v64.47h-78.18v-21.23h25.77c3.95,0,7.52-1.6,10.1-4.19,2.59-2.59,4.19-6.16,4.19-10.11,0-7.89-6.4-14.29-14.29-14.29h-25.77v-14.65h78.18Z"/>
  <rect class="cls-1" x="48.71" y="118.41" width="82.24" height="29.29" rx="14.65" ry="14.65"/>
  <rect class="cls-1" x="146.47" y="118.41" width="157.06" height="29.29" rx="14.65" ry="14.65"/>
  <rect class="cls-1" x="38" y="176.24" width="130" height="29.29" rx="14.65" ry="14.65"/>
  <rect class="cls-1" x="109.59" y="60.59" width="82.24" height="29.29" rx="14.65" ry="14.65"/>
  <rect class="cls-1" x="203.47" y="60.59" width="102.88" height="29.29" rx="14.65" ry="14.65"/>
  <path class="cls-1" d="m313.68,30.62v23.11c0,15.74-12.76,28.5-28.5,28.5h-29.65c-13.2,0-24.31-8.98-27.54-21.17h31.81c4.05,0,7.71-1.64,10.35-4.29,2.65-2.65,4.29-6.32,4.29-10.36,0-8.09-6.55-14.65-14.64-14.65h-32.77v-1.14c0-15.74,12.76-28.5,28.5-28.5h29.65c15.74,0,28.5,12.76,28.5,28.5Z"/>
  <rect class="cls-1" x="180.24" y="234.12" width="129.87" height="29.29" rx="14.65" ry="14.65"/>
  <path class="cls-1" d="m317.43,293.38v-23.11c0-15.74-12.76-28.5-28.5-28.5h-29.65c-13.2,0-24.31,8.98-27.54,21.17h31.81c4.05,0,7.71,1.64,10.35,4.29,2.65,2.65,4.29,6.32,4.29,10.36,0,8.09-6.55,14.65-14.64,14.65h-32.77v1.14c0,15.74,12.76,28.5,28.5,28.5h29.65c15.74,0,28.5-12.76,28.5-28.5Z"/>
  <rect class="cls-1" x="181.89" y="176.24" width="129.87" height="29.29" rx="14.65" ry="14.65"/>
  <g>
    <path class="cls-2" d="m285.57,153.44c-1.09-1.09-1.64-2.37-1.64-3.82V7.64c0-1.6.55-2.91,1.64-3.93,1.09-1.02,2.36-1.53,3.82-1.53h23.59c3.49,0,6.04,1.6,7.64,4.81l38.44,68.8L397.51,6.99c1.6-3.2,4.15-4.81,7.65-4.81h23.37c1.6,0,2.95.51,4.04,1.53,1.09,1.02,1.64,2.33,1.64,3.93v141.97c0,1.6-.55,2.91-1.64,3.93-1.09,1.02-2.44,1.53-4.04,1.53h-25.99c-1.6,0-2.95-.51-4.04-1.53-1.09-1.02-1.64-2.33-1.64-3.93v-81.91l-24.46,45.65c-1.89,3.35-4.44,5.02-7.64,5.02h-11.36c-1.89,0-3.42-.44-4.59-1.31-1.17-.87-2.18-2.11-3.06-3.71l-24.68-45.65v81.91c0,1.46-.51,2.73-1.53,3.82-1.02,1.09-2.33,1.64-3.93,1.64h-26.21c-1.46,0-2.73-.55-3.82-1.64Z"/>
    <path class="cls-2" d="m466.42,153.44c-1.09-1.09-1.64-2.37-1.64-3.82V7.64c0-1.6.55-2.91,1.64-3.93,1.09-1.02,2.36-1.53,3.82-1.53h102c1.6,0,2.91.51,3.93,1.53,1.02,1.02,1.53,2.33,1.53,3.93v20.53c0,1.46-.51,2.73-1.53,3.82-1.02,1.09-2.33,1.64-3.93,1.64h-69.68v29.49h64.87c1.6,0,2.91.55,3.93,1.64,1.02,1.09,1.53,2.44,1.53,4.04v19c0,1.46-.51,2.73-1.53,3.82-1.02,1.09-2.33,1.64-3.93,1.64h-64.87v30.36h71.42c1.6,0,2.91.51,3.93,1.53,1.02,1.02,1.53,2.33,1.53,3.93v20.53c0,1.46-.51,2.73-1.53,3.82-1.02,1.09-2.33,1.64-3.93,1.64h-103.75c-1.46,0-2.73-.55-3.82-1.64Z"/>
    <path class="cls-2" d="m617.02,141.86c-11.79-10.27-18.06-24.86-18.78-43.79-.15-4.22-.22-10.92-.22-20.09s.07-15.87.22-20.09c.73-18.49,7.1-32.76,19.11-42.81,12.01-10.05,28.29-15.07,48.82-15.07,13.83,0,25.88,2.26,36.15,6.77,10.27,4.52,18.13,10.27,23.59,17.26,5.46,6.99,8.33,14.2,8.63,21.62,0,1.31-.47,2.4-1.42,3.28-.95.87-2.08,1.31-3.39,1.31h-31.89c-1.46,0-2.62-.22-3.5-.66-.87-.44-1.6-1.24-2.18-2.4-1.89-4.22-4.88-7.9-8.96-11.03-4.08-3.13-9.76-4.7-17.04-4.7-17.33,0-26.43,9.17-27.3,27.52-.15,4.08-.22,10.41-.22,19s.07,14.78.22,19c.87,19.22,10.19,28.83,27.96,28.83,8.59,0,15.47-2.22,20.64-6.66,5.17-4.44,7.75-11.25,7.75-20.42v-4.15h-20.53c-1.6,0-2.92-.55-3.93-1.64-1.02-1.09-1.53-2.44-1.53-4.04v-16.16c0-1.6.51-2.95,1.53-4.04,1.02-1.09,2.33-1.64,3.93-1.64h55.04c1.6,0,2.91.55,3.93,1.64,1.02,1.09,1.53,2.44,1.53,4.04v24.9c0,12.38-2.84,23.04-8.52,32-5.68,8.96-13.73,15.8-24.14,20.53-10.41,4.73-22.53,7.1-36.37,7.1-20.97,0-37.35-5.13-49.14-15.4Z"/>
    <path class="cls-2" d="m744.91,153.66c-.95-.95-1.42-2-1.42-3.17,0-.87.07-1.53.22-1.97l51.33-140.23c.44-1.75,1.38-3.2,2.84-4.37,1.45-1.16,3.35-1.75,5.68-1.75h32.33c2.33,0,4.22.58,5.68,1.75,1.45,1.17,2.4,2.62,2.84,4.37l51.11,140.23.44,1.97c0,1.17-.47,2.22-1.42,3.17-.95.95-2.08,1.42-3.38,1.42h-26.87c-3.5,0-5.83-1.53-6.99-4.59l-8.52-22.28h-58.32l-8.3,22.28c-1.17,3.06-3.57,4.59-7.21,4.59h-26.87c-1.17,0-2.22-.47-3.17-1.42Z"/>
  </g>
  <g>
    <path class="cls-1" d="m805.06,59.8c0-2.67,0-5.34,0-8,.03-7.29,5.16-13.31,12.35-14.49,8.04-1.32,15.84,4.61,16.69,12.69.07.62.11,1.25.11,1.88,0,5.31.01,10.63,0,15.94-.01,7.09-4.73,12.92-11.64,14.42-8.22,1.79-16.5-4.19-17.39-12.56-.07-.69-.11-1.38-.11-2.08-.01-2.6,0-5.21,0-7.81Zm4.18,6.09c.29,0,.53,0,.76,0,1.84,0,3.69-.01,5.53,0,1.05.01,1.91.83,2.01,1.85.1,1.03-.57,1.98-1.6,2.22-.29.07-.6.08-.9.08-1.84,0-3.68,0-5.53,0,.45,3.6,4.25,8.43,10.36,8.32,4.8-.09,9.94-4.43,9.86-8.3-.1,0-.21-.02-.32-.02-1.84,0-3.69.01-5.53,0-1.25-.01-2.18-.95-2.16-2.12.02-1.15.94-2.02,2.17-2.03.89-.01,1.78,0,2.67,0,1.14,0,2.29,0,3.44,0v-3.76c-2,0-3.95,0-5.9,0-1.43,0-2.39-.85-2.38-2.1,0-1.22.96-2.06,2.35-2.06,1.76,0,3.51,0,5.27,0,.23,0,.46,0,.68,0v-4.17c-.24,0-.46,0-.67,0-1.8,0-3.6,0-5.4,0-1.28,0-2.21-.88-2.23-2.05-.01-1.2.93-2.1,2.24-2.11,1.73,0,3.47,0,5.21,0,.2,0,.41-.02.62-.03-.71-4.26-5-8.75-11-8.26-4.59.37-9.48,4.8-9.22,8.29,1.93,0,3.85,0,5.78,0,1.27,0,2.21.89,2.21,2.07,0,1.18-.92,2.08-2.18,2.09-1.26.01-2.52,0-3.77,0-.77,0-1.55,0-2.32,0v4.17c2.04,0,4.03,0,6.02,0,1.32,0,2.26.88,2.26,2.09,0,1.2-.95,2.07-2.27,2.08-1.78,0-3.56,0-5.34,0-.23,0-.46,0-.71,0v3.76Z"/>
    <path class="cls-1" d="m821.75,90.82c0,.11-.02.22-.02.32,0,1.41,0,2.81,0,4.31h.72c2.45,0,4.9,0,7.35,0,1.38,0,2.33.85,2.34,2.07,0,1.23-.95,2.09-2.32,2.09-6.79,0-13.58,0-20.36,0-1.36,0-2.32-.88-2.3-2.11.01-1.2.96-2.05,2.29-2.05,2.45,0,4.9,0,7.35,0,.23,0,.47,0,.73,0v-4.67c-2.76-.3-5.4-.96-7.85-2.22-7.13-3.64-11.39-9.41-12.68-17.33-.17-1.02-.21-2.07-.24-3.11-.04-1.27.84-2.22,2.02-2.24,1.22-.02,2.09.89,2.14,2.2.33,7.93,4.04,13.72,11.25,17.01,11.06,5.06,24.18-2.17,25.98-14.18.14-.94.2-1.9.24-2.85.06-1.28.91-2.18,2.1-2.18,1.19,0,2.06.94,2.07,2.2.05,10.59-7.76,20.18-18.16,22.28-.85.17-1.71.29-2.64.45Z"/>
  </g>
  <g>
    <path class="cls-2" d="m285.89,335.55c-1.21-1.21-1.82-2.63-1.82-4.24v-157.61c0-1.78.61-3.23,1.82-4.36,1.21-1.13,2.63-1.7,4.24-1.7h67.89c20.69,0,36.98,4.77,48.86,14.31,11.88,9.54,17.82,23.44,17.82,41.71s-5.9,31.73-17.7,40.86c-11.8,9.13-28.13,13.7-48.98,13.7h-28.85v53.1c0,1.78-.61,3.24-1.82,4.36-1.21,1.13-2.71,1.7-4.49,1.7h-32.73c-1.62,0-3.03-.61-4.24-1.82Zm70.93-90.81c7.11,0,12.69-1.82,16.73-5.46,4.04-3.64,6.06-9.01,6.06-16.12,0-6.63-1.9-11.92-5.7-15.88-3.8-3.96-9.5-5.94-17.09-5.94h-28.37v43.4h28.37Z"/>
    <path class="cls-2" d="m449.8,335.55c-1.21-1.21-1.82-2.63-1.82-4.24v-157.61c0-1.78.61-3.23,1.82-4.36,1.21-1.13,2.63-1.7,4.24-1.7h32.01c1.78,0,3.23.57,4.36,1.7,1.13,1.13,1.7,2.59,1.7,4.36v127.06h73.47c1.78,0,3.23.61,4.36,1.82,1.13,1.21,1.7,2.71,1.7,4.49v24.25c0,1.62-.57,3.03-1.7,4.24-1.13,1.21-2.59,1.82-4.36,1.82h-111.54c-1.62,0-3.03-.61-4.24-1.82Z"/>
    <path class="cls-2" d="m607.41,323.06c-12.85-11.15-19.28-27.96-19.28-50.44v-98.93c0-1.78.61-3.23,1.82-4.36,1.21-1.13,2.63-1.7,4.24-1.7h31.28c1.78,0,3.27.57,4.49,1.7,1.21,1.13,1.82,2.59,1.82,4.36v98.69c0,10.51,2.46,18.39,7.4,23.64,4.93,5.25,12.08,7.88,21.46,7.88s16.33-2.67,21.34-8c5.01-5.33,7.52-13.17,7.52-23.52v-98.69c0-1.78.61-3.23,1.82-4.36,1.21-1.13,2.63-1.7,4.24-1.7h31.52c1.78,0,3.23.57,4.37,1.7,1.13,1.13,1.7,2.59,1.7,4.36v98.93c0,22.47-6.43,39.28-19.28,50.44-12.85,11.15-30.51,16.73-52.98,16.73s-40.62-5.58-53.47-16.73Z"/>
    <path class="cls-2" d="m789.15,333.01c-11-4.52-19.28-10.46-24.85-17.82-5.58-7.35-8.53-15.4-8.85-24.13,0-1.29.52-2.46,1.58-3.52,1.05-1.05,2.3-1.58,3.76-1.58h30.55c1.94,0,3.52.36,4.73,1.09,1.21.73,2.46,1.82,3.76,3.27,2.1,4.21,5.49,7.68,10.18,10.43,4.69,2.75,10.91,4.12,18.67,4.12,9.21,0,16.25-1.46,21.1-4.36,4.85-2.91,7.27-6.87,7.27-11.88,0-3.55-1.25-6.46-3.76-8.73-2.51-2.26-6.43-4.28-11.76-6.06-5.33-1.78-13.26-3.8-23.76-6.06-19.4-4.04-33.91-9.98-43.52-17.82-9.62-7.84-14.43-19.03-14.43-33.58,0-9.86,2.75-18.67,8.24-26.43,5.49-7.76,13.34-13.82,23.52-18.19,10.18-4.36,22.07-6.55,35.64-6.55s26.27,2.42,36.61,7.27c10.34,4.85,18.22,10.95,23.64,18.31,5.41,7.36,8.28,14.59,8.61,21.7,0,1.46-.49,2.67-1.46,3.64-.97.97-2.18,1.45-3.64,1.45h-32.01c-1.94,0-3.52-.32-4.73-.97-1.21-.64-2.3-1.7-3.27-3.15-.97-3.72-3.6-6.87-7.88-9.46-4.29-2.58-9.58-3.88-15.88-3.88-7.27,0-12.85,1.3-16.73,3.88-3.88,2.59-5.82,6.39-5.82,11.4,0,3.39,1.09,6.22,3.27,8.49,2.18,2.27,5.74,4.33,10.67,6.18,4.93,1.86,12,3.76,21.22,5.7,15.03,2.75,27.04,6.18,36.01,10.3,8.97,4.12,15.56,9.46,19.76,16,4.2,6.55,6.3,14.75,6.3,24.61,0,10.83-3.11,20.25-9.33,28.25-6.23,8-14.88,14.15-25.95,18.43-11.08,4.28-23.73,6.43-37.95,6.43-15.36,0-28.53-2.27-39.52-6.79Z"/>
  </g>
</svg>