<?xml version="1.0" encoding="UTF-8"?>
<svg id="Camada_1" data-name="Camada 1" xmlns="http://www.w3.org/2000/svg" xmlns:xlink="http://www.w3.org/1999/xlink" viewBox="0 0 994.1 300.46">
  <defs>
    <style>
      .cls-1 {
        filter: url(#drop-shadow-1);
      }

      .cls-2 {
        fill: #193960;
      }

      .cls-2, .cls-3, .cls-4 {
        stroke-width: 0px;
      }

      .cls-3 {
        fill: #edefe2;
      }

      .cls-4 {
        fill: #707a81;
      }
    </style>
    <filter id="drop-shadow-1" filterUnits="userSpaceOnUse">
      <feOffset dx="3" dy="3"/>
      <feGaussianBlur result="blur" stdDeviation="0"/>
      <feFlood flood-color="#687178" flood-opacity="1"/>
      <feComposite in2="blur" operator="in"/>
      <feComposite in="SourceGraphic"/>
    </filter>
  </defs>
  <g>
    <path class="cls-2" d="m103.91,136.93l19.19,27.54c2.66,3.99.95,6.84-3.61,6.84h-25.64c-3.04,0-5.32-1.14-6.84-3.8l-16.72-26.78h-36.47v24.88c0,3.61-2.09,5.7-5.7,5.7H5.7C2.09,171.31,0,169.22,0,165.61V42.9c0-3.61,2.09-5.7,5.7-5.7h68.95c37.99,0,54.33,17.86,54.33,50.34v3.61c0,21.84-7.22,38.56-25.07,45.78Zm-70.09-28.11h37.99c14.25,0,23.17-1.9,23.17-18.05v-3.04c0-16.15-8.36-18.24-23.17-18.24h-37.99v39.32Z"/>
    <path class="cls-2" d="m143.61,165.61V42.9c0-3.61,2.09-5.7,5.7-5.7h102.01c3.61,0,5.7,2.09,5.7,5.7v20.9c0,3.61-2.09,5.7-5.7,5.7h-74.08v19.76h45.02c3.61,0,5.7,2.09,5.7,5.7v17.86c0,3.61-2.09,5.7-5.7,5.7h-45.02v20.52h74.08c3.61,0,5.7,2.09,5.7,5.7v20.9c0,3.61-2.09,5.7-5.7,5.7h-102.01c-3.61,0-5.7-2.09-5.7-5.7Z"/>
    <path class="cls-2" d="m271.08,165.61V42.9c0-3.61,2.09-5.7,5.7-5.7h81.11c30.2,0,44.83,17.86,44.83,50.34v34.19c0,32.29-14.63,49.58-44.83,49.58h-81.11c-3.61,0-5.7-2.09-5.7-5.7Zm82.63-26.21c8.55,0,15.58-1.9,15.58-18.05v-33.62c0-16.15-6.46-18.24-15.58-18.24h-48.82v69.9h48.82Z"/>
    <path class="cls-2" d="m519.93,166.94l-6.84-16.53h-65.15l-6.84,16.53c-1.14,2.85-3.42,4.37-6.65,4.37h-25.45c-4.37,0-6.08-2.66-4.37-6.65l56.04-123.09c1.33-3.04,3.42-4.37,6.65-4.37h26.4c3.23,0,5.32,1.33,6.65,4.37l56.04,123.09c1.71,3.99,0,6.65-4.37,6.65h-25.45c-3.23,0-5.51-1.52-6.65-4.37Zm-18.05-43.88l-21.28-51.29-21.28,51.29h42.55Z"/>
    <path class="cls-2" d="m686.9,88.87h-22.42c-3.61,0-5.7-1.14-5.7-3.23v-3.23c0-11.59-3.99-12.92-11.21-12.92h-42.36c-7.22,0-11.21,1.33-11.21,12.92v43.88c0,11.4,4.56,12.73,11.21,12.73h42.36c6.65,0,11.21-1.33,11.21-12.73v-2.85c0-3.61,2.09-5.7,5.7-5.7h22.42c3.61,0,5.7,1.33,5.7,3.61v3.8c0,27.16-14.63,46.16-45.02,46.16h-5.89l-6.84,29.63c-.76,3.23-2.85,4.94-6.27,4.94h-21.65c-4.18,0-5.89-2.66-4.37-6.65l11.21-27.92h-8.55c-30.39,0-45.02-19-45.02-46.16v-41.6c0-27.35,14.63-46.35,45.02-46.35h42.36c30.39,0,45.02,19,45.02,46.35v2.66c0,1.71-2.09,2.66-5.7,2.66Z"/>
    <path class="cls-2" d="m813.61,166.94l-6.84-16.53h-65.16l-6.84,16.53c-1.14,2.85-3.42,4.37-6.65,4.37h-25.45c-4.37,0-6.08-2.66-4.37-6.65l56.04-123.09c1.33-3.04,3.42-4.37,6.65-4.37h26.4c3.23,0,5.32,1.33,6.65,4.37l56.04,123.09c1.71,3.99,0,6.65-4.37,6.65h-25.45c-3.23,0-5.51-1.52-6.65-4.37Zm-64.96-142.28c-4.18,1.52-6.65,0-6.65-4.18v-11.21c0-3.04,1.33-5.32,4.37-6.65,10.83-4.37,19.38-2.47,27.54-.19,7.79,2.09,15.58,3.99,25.26.76,4.18-1.33,6.65,0,6.65,4.18v11.4c0,3.04-1.71,5.7-6.08,7.41-10.64,3.99-18.62.95-26.97-1.33-6.84-2.09-14.25-3.61-24.12-.19Zm46.92,98.4l-21.28-51.29-21.27,51.29h42.55Z"/>
    <path class="cls-2" d="m853.89,125.15v-41.6c0-27.35,14.63-46.35,45.02-46.35h49.96c30.39,0,45.02,19,45.02,46.35v41.6c0,27.16-14.63,46.16-45.02,46.16h-49.96c-30.39,0-45.02-19-45.02-46.16Zm94.98,13.87c6.65,0,11.21-1.33,11.21-12.73v-43.88c0-11.59-3.99-12.92-11.21-12.92h-49.96c-7.22,0-11.21,1.33-11.21,12.92v43.88c0,11.4,4.56,12.73,11.21,12.73h49.96Z"/>
  </g>
  <polygon class="cls-4" points="930.39 219.76 908.79 300.46 0 300.46 0 219.76 930.39 219.76"/>
  <polygon class="cls-4" points="962.25 219.76 940.64 300.46 923.83 300.46 945.44 219.76 962.25 219.76"/>
  <polygon class="cls-4" points="994.1 219.76 972.49 300.46 955.68 300.46 977.3 219.76 994.1 219.76"/>
  <g class="cls-1">
    <path class="cls-3" d="m258.18,291.14c-.63,0-1.12-.21-1.49-.64-.37-.43-.5-.95-.38-1.58l11.86-55.29c.11-.63.43-1.15.94-1.58s1.08-.64,1.71-.64h23.38c3.53,0,6.77.41,9.73,1.24,2.96.83,5.46,2.09,7.51,3.8,2.05,1.71,3.48,3.83,4.31,6.36.82,2.53.9,5.5.21,8.92-1.48,6.83-4.45,11.82-8.92,14.97-4.47,3.16-10.59,4.74-18.39,4.74h-9.56l-3.75,17.49c-.11.63-.43,1.15-.94,1.58-.51.43-1.08.64-1.71.64h-14.5Zm23.46-33.45h7.93c1.59,0,3.1-.5,4.52-1.49,1.42-.99,2.36-2.54,2.82-4.65.28-1.08.35-2.1.21-3.07-.14-.97-.57-1.75-1.28-2.35-.71-.6-1.86-.9-3.46-.9h-8.02l-2.73,12.46Z"/>
    <path class="cls-3" d="m393.92,291.14c-.63,0-1.12-.21-1.49-.64-.37-.43-.5-.95-.38-1.58l11.86-55.29c.11-.63.43-1.15.94-1.58s1.08-.64,1.71-.64h14.16c.57,0,1.04.21,1.41.64.37.43.5.95.38,1.58l-9.04,42.32h24.74c.62,0,1.09.21,1.41.64.31.43.41.95.3,1.58l-2.22,10.75c-.12.63-.44,1.15-.98,1.58s-1.12.64-1.75.64h-41.04Z"/>
    <path class="cls-3" d="m546.3,291.99c-3.64,0-7.04-.47-10.2-1.41-3.16-.94-5.86-2.36-8.11-4.27-2.25-1.91-3.81-4.34-4.69-7.29-.88-2.96-.9-6.46-.04-10.49l7.42-34.9c.11-.63.43-1.15.94-1.58s1.08-.64,1.71-.64h13.82c.62,0,1.12.21,1.49.64.37.43.5.95.38,1.58l-7.42,34.64c-.63,2.9-.44,5.09.55,6.57.99,1.48,2.89,2.22,5.67,2.22s4.96-.74,6.7-2.22c1.73-1.48,2.91-3.67,3.54-6.57l7.42-34.64c.11-.63.43-1.15.94-1.58s1.08-.64,1.71-.64h13.91c.62,0,1.11.21,1.45.64.34.43.46.95.34,1.58l-7.42,34.9c-1.71,8.08-4.98,14.01-9.81,17.79-4.83,3.78-11.6,5.67-20.31,5.67Z"/>
    <path class="cls-3" d="m683.32,291.99c-5.92,0-10.79-.83-14.63-2.47s-6.58-3.82-8.23-6.53c-1.65-2.7-2.22-5.59-1.71-8.66.11-.51.37-.94.77-1.28.4-.34.85-.51,1.37-.51h13.57c.85,0,1.48.13,1.88.38.4.26.8.61,1.2,1.07.34.63.81,1.21,1.41,1.75.6.54,1.39.97,2.39,1.28,1,.31,2.18.47,3.54.47,2.62,0,4.74-.35,6.36-1.07,1.62-.71,2.57-1.69,2.86-2.94.23-.97.01-1.76-.64-2.39-.65-.63-1.85-1.19-3.58-1.71-1.74-.51-4.08-1.05-7.04-1.62-4.27-.74-7.81-1.93-10.62-3.58-2.82-1.65-4.79-3.8-5.93-6.44-1.14-2.65-1.31-5.79-.51-9.43,1.14-5.52,4.07-9.85,8.79-13.01,4.72-3.16,10.83-4.74,18.34-4.74,3.75,0,7.14.54,10.15,1.62,3.01,1.08,5.56,2.49,7.64,4.22,2.08,1.74,3.61,3.6,4.61,5.59s1.32,3.9.98,5.72c-.06.51-.3.95-.72,1.32-.43.37-.87.55-1.32.55h-14.25c-.74,0-1.32-.11-1.75-.34-.43-.23-.81-.6-1.15-1.11-.12-.8-.67-1.51-1.66-2.13-1-.62-2.32-.94-3.97-.94-1.93,0-3.51.33-4.74.98-1.22.66-1.98,1.61-2.26,2.86-.17.85,0,1.59.51,2.22.51.63,1.51,1.18,2.99,1.66,1.48.48,3.58,1.01,6.31,1.58,5.29.8,9.43,2.02,12.41,3.67,2.99,1.65,4.98,3.77,5.97,6.36.99,2.59,1.12,5.67.38,9.26-1.31,6.03-4.45,10.59-9.43,13.69-4.98,3.1-11.73,4.65-20.26,4.65Z"/>
  </g>
</svg>