<?xml version="1.0" encoding="UTF-8"?>
<svg id="Camada_1" data-name="Camada 1" xmlns="http://www.w3.org/2000/svg" viewBox="0 0 815.17 1012.22">
  <defs>
    <style>
      .cls-1 {
        fill: #7d131d;
      }

      .cls-1, .cls-2 {
        stroke-width: 0px;
      }

      .cls-2 {
        fill: #b95667;
      }
    </style>
  </defs>
  <g>
    <g>
      <path class="cls-1" d="m2.04,81.24c-.96-.94-1.51-2.42-1.73-4.05-.51-3.86,1.22-8.73,5.49-10.6,5.33,7.86,13.34,9.06,20.35,8.12,8.53-1.13,17.03-5.23,16.04-12.72-.87-6.55-8.41-9.59-16.5-13.16-9.1-4.03-18.91-8.91-20.48-20.72C3.31,13.74,16.31,2.37,31.86.31c10.87-1.44,19.69,2.26,20.56,8.81.59,4.44-2.56,7.6-7.82,8.29-1.49-3.13-5.79-7.8-15.96-6.45-9.24,1.23-14.12,5.68-13.26,12.11.76,5.73,7.76,9.2,15.5,12.81,9.41,4.58,19.94,9.49,21.33,20.01,1.91,14.38-10.5,26.62-29.79,29.18-7.83,1.04-17.13.01-20.38-3.84Z"/>
      <path class="cls-1" d="m113.23,39.71c-1.39,9.23-12.72,35-33.42,37.75-12.16,1.61-19.26-7.08-20.55-16.78-1.89-14.26,6.68-35.75,25.5-38.24,9.82-1.3,13.83,2.92,14.51,8.07,1.68,12.63-13.95,22.2-26.49,25.41,0,.83.08,1.54.19,2.35,1.01,7.6,4.72,10.44,10.21,9.71,12.63-1.68,20.93-13.49,26.76-30.56,1.4-.19,3.55.72,3.28,2.3Zm-40.31,11.78c10.97-4.31,15.58-11.71,14.72-18.13-.48-3.62-1.55-5.39-4.35-5.01-5.38.71-9.45,13.98-10.37,23.15Z"/>
      <path class="cls-1" d="m107.79,66.01c-1.02-7.72,2.35-38.74,3.5-47.1,4.68-.62,11.66,0,12.42,5.73.54,4.09-3.54,17.25-4.46,24.62l.48.05c4.18-14.24,14.24-33.42,24.65-34.8,4.44-.59,9.4,2.68,9.99,7.12.29,2.22-.99,8.7-1.92,13.34l.48.05c4.07-9.7,12.36-23.41,19.84-24.41,4.56-.61,9.4,2.68,9.99,7.12.96,7.25-3.95,30.27-3.3,35.18.08.58.37,1.02.61.99,5.26-.7,12.47-18.07,16.39-27.99,1.12-.51,3.83,1.04,3.54,2.5-2,6.45-11.94,34.66-21.17,35.88-7.95,1.06-12.69-5.1-12.7-9.62.05-10.36,3.69-26.9,3.02-31.93-.16-1.17-.47-1.72-1.05-1.64-3.04.4-12.01,13.49-16.45,27.52-1.53,9.96-2.01,16.21-1.93,19.53-7.01.93-12.28-2.89-12.84-7.1-.05-.35-.11-.82-.04-1.19,1.11-10.5,4.85-28.01,4.15-33.27-.16-1.17-.47-1.72-1.17-1.63-2.57.34-16.42,20.62-19.26,37.77-.21,2.88.06,7.61.06,9.39-6.43.85-12.24-1.71-12.83-6.15Z"/>
    </g>
    <g>
      <path class="cls-1" d="m125.87,283.6c7.76-1.03,13.09-2.53,18.83-4.87,1.41,10.6-.62,29.03-21.83,31.85-22.24,2.95-42.25-14.92-60.29-29.89-7.36,5.98-16.59,9.83-26.93,11.21-20.69,2.75-33.67-5.79-35.45-19.24-1.44-10.86,4.88-22.75,24.27-25.33,10.6-1.41,20.13,1.01,29.13,5.34,1.49-8.62,2.42-21.38,3.29-34.65-2.03.53-4.36.84-6.43,1.12-17.84,2.37-23.29-2.96-24.28-10.46-.45-3.36.07-7.38.63-11.14,6.48,1.24,17.94,2.35,30.62.67l.78-.1c.59-11.39,1.25-22.27,2.07-30.01,3.22-31.22,14.9-66.19,44.9-70.17,19.4-2.58,29.18,7.71,31.55,25.55,4.98,37.5-21.26,67.82-51.49,83.94l-2.57,32.18c-.83,9.58-3.39,18.08-7.15,25.42,15.87,10.52,31.74,21.05,50.36,18.58Zm-77.9-13.87c-7.84-5.54-15.67-8.97-22.91-8.01-5.43.72-6.93,3.29-6.38,7.43,1.03,7.76,7.91,10,15.67,8.97,5.17-.69,10.1-3.18,13.62-8.39Zm38.85-82c20.58-13.52,30.81-37.51,27.28-64.15-1.17-8.79-4.2-11.81-8.34-11.26-7.24.96-13.42,13.89-16.61,45.36l-2.33,30.05Z"/>
      <path class="cls-1" d="m144.31,254.05c-.14-1.04-.31-2.33-.19-3.4.28-9.77,6.85-73.28,7.72-94.45,13.93-2.11,27.6-.24,29.32,12.69,1.37,10.34-11.14,58.85-8.63,77.73.34,2.59,1.1,4.33,2.39,4.16,12.67-1.68,28.12-37.94,36.25-61.92,3.91-.26,6.96.92,8.22,4.44-4.87,18.81-26.01,77.67-47.21,80.48-13.71,1.82-26.1-6.27-27.88-19.72Zm27.82-119.49c-4.4.58-9.03-.64-11.98-4.99-1.34-2.19-1.95-4.74-2.32-7.59-1.54-11.64,4.91-26.44,14.74-27.75,8.28-1.1,14.29,2.58,17.27,7.18,2.03,3.41-7.15,29.37-12.38,31.64-1.48.72-3.26,1.22-5.33,1.5Z"/>
      <path class="cls-1" d="m206.95,252.05c-2.27-17.07,5.2-85.69,7.75-104.19,10.34-1.37,25.79,0,27.47,12.67,1.2,9.05-7.83,38.15-9.88,54.47l1.07.12c9.24-31.49,31.5-73.92,54.52-76.98,9.83-1.3,20.79,5.92,22.09,15.75.65,4.91-2.18,19.24-4.24,29.51l1.07.12c8.99-21.46,27.34-51.79,43.89-53.99,10.09-1.34,20.79,5.92,22.09,15.75,2.13,16.03-8.74,66.95-7.3,77.81.17,1.29.83,2.26,1.34,2.19,11.64-1.54,27.59-39.98,36.26-61.92,2.48-1.12,8.46,2.3,7.84,5.54-4.42,14.27-26.4,76.67-46.83,79.38-17.58,2.33-28.08-11.27-28.09-21.27.12-22.91,8.15-59.51,6.68-70.63-.34-2.59-1.03-3.81-2.33-3.64-6.72.89-26.57,29.84-36.39,60.89-3.39,22.03-4.45,35.86-4.27,43.2-15.52,2.06-27.17-6.39-28.4-15.7-.1-.78-.24-1.81-.08-2.62,2.44-23.22,10.72-61.95,9.18-73.59-.34-2.59-1.03-3.81-2.58-3.6-5.69.76-36.32,45.61-42.59,83.55-.47,6.38.13,16.83.13,20.77-14.22,1.89-27.08-3.77-28.39-13.6Z"/>
      <path class="cls-1" d="m398.27,220.34c-.14-1.04-.31-2.33-.19-3.4.28-9.77,6.85-73.28,7.72-94.45,13.93-2.11,27.6-.24,29.32,12.69,1.37,10.34-11.13,58.85-8.63,77.73.34,2.59,1.1,4.33,2.39,4.16,12.67-1.68,28.12-37.94,36.25-61.92,3.91-.26,6.96.92,8.22,4.44-4.87,18.81-26.01,77.67-47.21,80.48-13.71,1.82-26.1-6.27-27.88-19.72Zm27.82-119.49c-4.4.58-9.03-.64-11.98-4.99-1.34-2.19-1.95-4.74-2.32-7.59-1.54-11.64,4.91-26.44,14.74-27.75,8.28-1.1,14.29,2.58,17.27,7.18,2.03,3.41-7.15,29.37-12.38,31.64-1.48.72-3.26,1.22-5.33,1.5Z"/>
      <path class="cls-1" d="m551.9,150.46c-2.81,22.48-32.09,77.42-61.83,81.37-18.62,2.47-27.25-12.96-28.52-22.53-1.24-9.31.48-18.22,6.44-84.28-9.12.68-16.24.58-18.48-.44-1.24-5.36-.94-13.03,5.27-13.86l14.74-1.96c1.53-16.26,3.23-35.17,5-57.51,13.45-1.79,25.01.1,26.87,14.07.14,1.03.31,2.33.22,3.65.1,4.72-1.48,18.62-3.19,35.42,10.83-1.7,21.62-3.66,28.76-5.4.53,2.03,1.07,4.07,1.31,5.88.69,5.17-.02,9.74-3.44,11.77-5.52,2.05-16.57,4.04-28.47,5.62-2.69,29.31-5.45,62.04-3.46,77.04.72,5.43,1.91,8.43,3.98,8.16,13.19-1.75,35.98-26.36,48.12-63.76,3-1.19,7.43,2.43,6.69,6.74Z"/>
      <path class="cls-1" d="m658.09,135.58c-3.08,20.41-28.14,77.42-73.92,83.5-26.9,3.57-42.61-15.66-45.46-37.12-4.19-31.55,14.77-79.07,56.41-84.6,21.72-2.88,30.59,6.46,32.11,17.84,3.71,27.93-30.85,49.1-58.59,56.2-.02,1.84.19,3.4.43,5.21,2.23,16.81,10.43,23.09,22.59,21.48,27.93-3.71,46.3-29.83,59.19-67.6,3.1-.41,7.84,1.59,7.25,5.09Zm-89.18,26.05c24.26-9.54,34.46-25.89,32.57-40.11-1.06-8.02-3.42-11.91-9.63-11.09-11.9,1.58-20.89,30.93-22.94,51.21Z"/>
      <path class="cls-1" d="m677.75,206.39c-1.52.46-3.33.71-4.88.91l-1.03.14c-.52.07-1.03.14-1.55.21-14.59,1.15-22.27-5.2-23.37-13.48-.75-5.69,1.75-12.6,9.53-19.42,7.58,9.52,14.97,11.7,22.73,10.67,11.9-1.58,17.69-9.45,16.35-19.54-1.24-9.31-8.54-16.76-16.24-25.21-5.81-6.07-11.91-12.37-16.11-20.23-4.09,14.75-9.72,31.82-15.71,44.19-3.36.45-7.53-3.21-7.98-6.57,8.23-15.3,14.14-38.19,17.93-55.28-.24-1.81-.41-3.1-.36-4.69,1.47-10.72,6.92-17.24,18.04-18.71,4.65-.62,8.13,1.81,8.65,5.69.41,3.1-.14,6.86-.92,10.91,3.86,5.28,8.79,10.68,13.46,16.11,11.13,12.47,22.58,25.42,24.44,39.39.72,5.43-.11,11.07-1.75,16.55,12.73-15.11,23.19-39.4,26.03-49.77,4.4-.58,6.72,3.06,7.03,5.38-1.39,13.34-21.4,70.74-74.28,82.76Z"/>
    </g>
  </g>
  <g>
    <g>
      <path class="cls-1" d="m597.34,811.22c-4.21.56-10.33-.77-10.19-5.07.13-4.42,1.6-21.98,2.36-39.57.75-16.75,1.11-40,1.44-43.85,4.06-.78,11.56.13,12.32,5.86.67,5.03-2.86,17.87-3.08,24.32l.5.17c5.33-18.08,15.75-33.74,23.46-34.76,6.9-.92,12.08,5.89,12.8,11.27,1.82,13.68-1.61,41.62-22.54,44.39-5.5.73-10.24-.07-14.56-2.11-.46,12.67-.48,28.62-.55,38.86-.57.19-1.25.4-1.96.5Zm26.69-75.88c-.46-3.51-1.52-5.15-3.27-4.92-4.33.57-13.01,13.98-19.91,32.86,4.99,2.67,9.59,3.25,13.21,2.77,7.25-.96,11.28-20.77,9.96-30.71Z"/>
      <path class="cls-1" d="m644.29,757.16c-1.83-13.8,1.73-41.63,22.66-44.41,5.5-.73,10.26.18,14.32,2.14l.02-2.5c.45-.18.92-.24,1.27-.29,4.21-.56,11.51,1.57,12.1,6.01.06.47,0,.95-.05,1.43-1.5,10.19-6.14,34.37-4.51,34.15,5.26-.7,12.7-17.27,16.17-27.84,1.12-.5,3.3.63,3.73,2.12-2.57,8.43-11.89,35.01-21.83,36.33-5.73.76-11.05-4.36-11.36-6.7-.59-4.44,3.19-17.2,4.32-23.89l-.5-.17c-5.35,17.96-15.73,33.85-23.56,34.89-6.43.85-12.08-5.89-12.8-11.27Zm35.98-33.69c-4.89-2.8-9.47-3.26-13.1-2.78-6.31.84-11.7,17.62-9.95,30.83.43,3.27,1.4,5.17,3.27,4.92,4.33-.57,13.13-14,19.77-32.96Z"/>
      <path class="cls-1" d="m755.21,722.57c.16,1.17-10.58,34.12-20.98,35.5-7.13.95-12.12-4.34-12.67-8.55-.84-6.31,2.94-21.8,4.11-34.45-3.89.28-8.54.18-12.03-.07-1.1,6.93-4.35,16.52-7.82,24.47-1.52.2-2.83-2.48-3.04-4.12,2.63-6.18,4.96-13.75,6.51-20.85-3.69-.94-6.17-3.46-6.7-7.44-.62-4.68,2.94-9.19,7.85-9.85,2.22-.29,4.68.33,7.14,1.79.18,4.02.22,6.16.07,8.56,2.18.3,9.36-.29,13.02-.54,3.3-.2,7.27,3.67,7.91,8.47.53,3.97-5.33,32.47-3.22,32.19,6.55-.87,14.41-21.42,16.62-28.02,1.75-.23,3.04,1.38,3.24,2.9Z"/>
      <path class="cls-1" d="m749.26,743.23c-1.83-13.79,1.73-41.63,22.66-44.41,5.49-.73,10.26.19,14.32,2.14l.03-2.5c.45-.18.92-.24,1.27-.29,4.21-.56,11.51,1.56,12.1,6.01.06.47,0,.95-.05,1.43-1.5,10.19-6.14,34.37-4.51,34.15,5.26-.7,12.7-17.27,16.17-27.84,1.12-.51,3.3.63,3.73,2.12-2.57,8.43-11.89,35.01-21.83,36.33-5.73.76-11.05-4.36-11.36-6.7-.59-4.44,3.19-17.2,4.32-23.89l-.5-.17c-5.35,17.96-15.73,33.85-23.56,34.89-6.43.85-12.08-5.89-12.8-11.27Zm35.98-33.69c-4.89-2.8-9.47-3.26-13.1-2.78-6.31.84-11.7,17.61-9.95,30.82.43,3.27,1.4,5.17,3.27,4.92,4.33-.57,13.13-14,19.78-32.96Z"/>
    </g>
    <g>
      <path class="cls-1" d="m390.31,921.44c.07.52-.09,1.33-.21,2.4-5.22,20.17-31,71.75-57.12,75.22-10.86,1.44-22.56-9.37-23.63-17.39-.93-6.98.1-28.96,1.58-55.48-13.09,6.47-27.9,11.86-40.04,15.58-6.83,33.8-18.86,68.03-36.19,70.33-10.6,1.41-16.25-9.42-17.61-17.66,15.55-5.75,27.22-24.93,34.97-47.8-1.52.46-2.55.6-3.59.74-12.41,1.65-19-4.32-19.99-11.82-.38-2.84.09-5.28.78-8,9.69,1.61,16.65,2.53,28.03,1.02,2.32-10.31,4.12-20.55,5.17-30.42,5.5-51.78,19.77-77.1,44.85-80.43,23.53-3.12,35.2,7.43,35.99,13.38,1.68,12.67-7.75,145.77-5.43,145.46,11.38-1.51,38.15-37.7,44.08-58.49.22-.29.74-.36,1.52-.46,2.59-.34,6.41.73,6.82,3.83Zm-78.67-9.82c1.76-28.39,3.98-59.22,5.2-81.75-2.1.02-3.95,0-5.76.24-21.46,2.85-30.01,31.62-34.17,71.64-.62,7.19-1.89,15.51-3.15,23.84,14.34-2.96,27.12-7.81,37.88-13.98Z"/>
      <path class="cls-1" d="m379.63,975.75c-2.27-17.07,5.2-85.69,7.75-104.19,10.34-1.37,25.79,0,27.47,12.67,1.2,9.05-7.83,38.15-9.87,54.47l1.07.12c9.24-31.49,31.5-73.92,54.52-76.98,9.83-1.3,20.79,5.92,22.09,15.75.65,4.91-2.18,19.24-4.24,29.51l1.07.12c8.99-21.46,27.34-51.79,43.89-53.99,10.09-1.34,20.79,5.93,22.09,15.75,2.13,16.03-8.74,66.95-7.3,77.81.17,1.29.83,2.26,1.34,2.19,11.64-1.54,27.59-39.98,36.25-61.92,2.48-1.12,8.46,2.3,7.84,5.54-4.42,14.27-26.4,76.67-46.83,79.38-17.58,2.33-28.08-11.27-28.09-21.27.12-22.91,8.15-59.5,6.68-70.63-.34-2.59-1.03-3.81-2.33-3.64-6.72.89-26.57,29.84-36.39,60.89-3.39,22.03-4.45,35.86-4.27,43.2-15.52,2.06-27.17-6.39-28.4-15.7-.1-.78-.24-1.81-.08-2.62,2.44-23.22,10.72-61.95,9.18-73.59-.34-2.59-1.03-3.81-2.58-3.6-5.69.75-36.32,45.61-42.59,83.55-.47,6.38.13,16.83.13,20.77-14.22,1.89-27.08-3.77-28.39-13.6Z"/>
      <path class="cls-1" d="m569.79,939.19c-4.05-30.52,3.83-92.09,50.12-98.24,12.16-1.61,22.69.41,31.68,4.74l.06-5.53c1-.4,2.03-.53,2.81-.64,9.31-1.24,25.46,3.46,26.77,13.29.14,1.03.02,2.1-.11,3.17-3.32,22.55-13.59,76.02-9.97,75.54,11.64-1.54,28.09-38.2,35.77-61.59,2.48-1.12,7.29,1.4,8.25,4.69-5.68,18.65-26.3,77.44-48.28,80.36-12.67,1.68-24.44-9.65-25.13-14.82-1.3-9.83,7.06-38.04,9.56-52.85l-1.1-.38c-11.83,39.73-34.8,74.89-52.12,77.19-14.22,1.89-26.73-13.03-28.31-24.93Zm79.58-74.51c-10.82-6.2-20.96-7.22-28.98-6.15-13.96,1.85-25.88,38.96-22,68.19.96,7.24,3.1,11.43,7.23,10.88,9.57-1.27,29.05-30.96,43.74-72.91Z"/>
      <path class="cls-1" d="m815.16,862.67c.34,2.59-23.4,75.48-46.42,78.53-15.78,2.09-26.8-9.6-28.04-18.91-1.85-13.96,6.49-48.23,9.09-76.21-8.6.62-18.89.4-26.6-.15-2.44,15.33-9.62,36.54-17.29,54.14-3.36.45-6.25-5.49-6.74-9.11,5.82-13.67,10.96-30.4,14.4-46.12-8.17-2.07-13.65-7.66-14.82-16.46-1.37-10.34,6.51-20.34,17.37-21.78,4.91-.65,10.36.73,15.79,3.96.39,8.9.49,13.62.14,18.93,4.83.68,20.7-.64,28.79-1.19,7.31-.44,16.08,8.13,17.49,18.73,1.17,8.79-11.78,71.83-7.12,71.21,14.48-1.92,31.87-47.39,36.77-61.99,3.88-.51,6.72,3.06,7.17,6.42Z"/>
    </g>
  </g>
  <g>
    <path class="cls-2" d="m380.54,787.38c-33.69,0-66.37-6.6-97.14-19.62-29.72-12.57-56.41-30.56-79.32-53.48-22.92-22.92-40.91-49.61-53.48-79.32-13.02-30.77-19.61-63.46-19.61-97.14s6.6-66.37,19.61-97.14c12.57-29.72,30.56-56.41,53.48-79.32,22.92-22.92,49.6-40.91,79.32-53.48,30.77-13.02,63.46-19.61,97.14-19.61s64.31,6.19,94.25,18.41l-5.88,14.41c-28.06-11.45-57.79-17.26-88.37-17.26-129.02,0-233.99,104.97-233.99,233.99s104.97,233.99,233.99,233.99,233.99-104.97,233.99-233.99c0-45.39-13.01-89.4-37.61-127.28l13.06-8.48c26.25,40.41,40.13,87.36,40.13,135.76,0,33.69-6.6,66.37-19.61,97.14-12.57,29.72-30.56,56.41-53.48,79.32-22.92,22.92-49.61,40.91-79.32,53.48-30.77,13.02-63.46,19.62-97.14,19.62Z"/>
    <path class="cls-2" d="m380.54,730.96c-4.3,0-7.78-3.49-7.78-7.78s3.49-7.78,7.78-7.78c.91,0,1.81,0,2.72-.02,82.41-1.24,152.54-58.2,170.55-138.52.94-4.2,5.1-6.83,9.3-5.89,4.19.94,6.83,5.1,5.89,9.3-9.33,41.64-32.73,79.58-65.88,106.83-16.54,13.6-35.06,24.28-55.03,31.73-20.65,7.71-42.38,11.79-64.59,12.12-.98.02-1.97.02-2.96.02Z"/>
    <path class="cls-2" d="m565.87,549.07s-.1,0-.15,0c-4.3-.08-7.72-3.63-7.64-7.93.02-1.1.03-2.21.03-3.32,0-20.29-3.39-40.18-10.08-59.13-1.43-4.05.7-8.5,4.75-9.93,4.05-1.43,8.5.7,9.93,4.75,7.28,20.62,10.97,42.25,10.97,64.31,0,1.2-.01,2.41-.03,3.61-.08,4.25-3.55,7.64-7.78,7.64Z"/>
    <path class="cls-2" d="m195.19,545.6c-4.3,0-7.78-3.49-7.78-7.78,0-3.38.09-6.8.26-10.17,5.32-102.6,90.05-182.97,192.88-182.97,19.41,0,38.57,2.87,56.95,8.54,4.11,1.27,6.41,5.62,5.15,9.73-1.27,4.11-5.62,6.41-9.73,5.15-16.89-5.21-34.51-7.84-52.36-7.84-94.54,0-172.43,73.89-177.33,168.21-.16,3.1-.24,6.25-.24,9.36,0,4.3-3.49,7.78-7.78,7.78Z"/>
    <path class="cls-2" d="m236.04,545.6c-4.3,0-7.78-3.49-7.78-7.78,0-1.08.01-2.15.03-3.23.4-19.3,4.37-38.05,11.8-55.72,1.67-3.96,6.23-5.83,10.19-4.16,3.96,1.67,5.83,6.23,4.16,10.19-6.66,15.86-10.23,32.69-10.59,50.01-.02.97-.03,1.93-.03,2.9,0,4.3-3.49,7.78-7.78,7.78Z"/>
    <path class="cls-2" d="m380.54,690.1c-1.11,0-2.21-.01-3.31-.04-4.3-.09-7.71-3.65-7.62-7.95.09-4.3,3.64-7.74,7.95-7.62.99.02,1.98.03,2.98.03,75.39,0,136.72-61.33,136.72-136.72,0-15.25-2.49-30.22-7.4-44.49-1.4-4.07.76-8.49,4.83-9.89,4.06-1.4,8.5.76,9.89,4.83,5.47,15.91,8.25,32.58,8.25,49.56,0,40.68-15.84,78.92-44.6,107.68-28.76,28.76-67,44.6-107.68,44.6Z"/>
    <path class="cls-2" d="m263.69,460.57c-1.59,0-3.2-.49-4.58-1.49-3.47-2.53-4.24-7.4-1.7-10.88,13.85-18.99,32.16-34.75,52.97-45.57,21.5-11.18,45.77-17.09,70.16-17.09,16.97,0,33.65,2.78,49.56,8.25,4.07,1.4,6.23,5.83,4.83,9.89s-5.83,6.23-9.89,4.83c-14.28-4.91-29.25-7.4-44.49-7.4-43.54,0-84.87,21.03-110.55,56.26-1.52,2.09-3.89,3.2-6.3,3.2Z"/>
    <path class="cls-2" d="m380.54,631.33c-51.56,0-93.51-41.95-93.51-93.51s41.95-93.51,93.51-93.51,93.51,41.95,93.51,93.51-41.95,93.51-93.51,93.51Zm0-171.46c-42.98,0-77.94,34.97-77.94,77.94s34.97,77.94,77.94,77.94,77.94-34.97,77.94-77.94-34.97-77.94-77.94-77.94Z"/>
    <path class="cls-2" d="m380.54,592.63c-30.22,0-54.81-24.59-54.81-54.81,0-19.85,10.78-38.2,28.13-47.89,3.75-2.1,8.5-.75,10.59,3s.75,8.5-3,10.59c-12.43,6.94-20.15,20.08-20.15,34.29,0,21.64,17.6,39.24,39.24,39.24s39.24-17.6,39.24-39.24-17.6-39.24-39.24-39.24c-4.3,0-7.78-3.49-7.78-7.78s3.49-7.78,7.78-7.78c30.22,0,54.81,24.59,54.81,54.81s-24.59,54.81-54.81,54.81Z"/>
    <g>
      <g>
        <path class="cls-2" d="m294.78,654.01v-21.07c-2.13.57-4.19,1.11-6.24,1.66-13.3,3.62-26.6,7.25-39.92,10.83-1.12.3-1.47.73-1.46,1.91.05,10.79.05,21.59.02,32.38-.03,9.9-9.99,18.06-19.63,16.13-7.98-1.6-12.55-9.3-10.38-17.51,2.15-8.14,10.07-13.56,18.4-12.56,2.38.28,4.5,1.26,6.66,2.8v-1.6c0-13.23,0-26.47,0-39.7,0-2.3.46-2.91,2.65-3.5,4.86-1.32,9.72-2.65,14.58-3.96,1.76-.48,3.07.13,3.5,1.58.42,1.42-.42,2.7-2.15,3.18-4.22,1.17-8.45,2.29-12.66,3.48-.37.1-.91.55-.91.85-.06,3.88-.04,7.77-.04,11.81,15.92-4.33,31.72-8.63,47.57-12.94v-12.43c-2.72.74-5.38,1.46-8.03,2.17-2.07.56-4.14,1.14-6.22,1.67-1.55.39-2.8-.34-3.16-1.78-.34-1.35.41-2.58,1.91-2.99,5.69-1.57,11.38-3.13,17.09-4.66,2.06-.55,3.43.53,3.43,2.67,0,17.62.05,35.23-.03,52.85-.04,8.56-7.07,15.92-15.59,16.59-9.17.73-16.15-6.85-14.75-15.99,1.5-9.76,11.4-16.55,20.47-13.97,1.67.48,3.23,1.37,4.89,2.1Zm.04,11.11c0-5.07-3.68-8.77-8.73-8.79-5.9-.02-11.37,5-11.85,10.88-.43,5.26,3.1,9.46,8.15,9.72,6.48.33,12.43-5.31,12.43-11.81Zm-64.46,26.05c5.8.03,11.23-4.86,11.83-10.63.58-5.66-3.37-10.11-8.87-10-5.86.12-11.18,5.11-11.67,10.97-.46,5.42,3.34,9.63,8.72,9.65Z"/>
        <path class="cls-2" d="m230.45,697.49c-1.06,0-2.12-.1-3.17-.31-4.12-.82-7.57-3.18-9.72-6.63-2.27-3.64-2.87-8.1-1.7-12.55,2.33-8.81,10.87-14.63,19.87-13.56,1.76.21,3.43.76,5.14,1.69v-38.84c0-2.89.89-4.06,3.65-4.81l1.52-.41c4.35-1.19,8.7-2.37,13.06-3.55,2.48-.67,4.5.31,5.15,2.5.29.97.19,1.97-.28,2.82-.54.97-1.54,1.7-2.81,2.05-1.64.45-3.28.9-4.92,1.35-2.55.7-5.11,1.39-7.66,2.11-.04,2.94-.04,5.85-.04,8.93v.67s44.86-12.2,44.86-12.2v-9.62l-7.99,2.16c-1.52.42-3.05.83-4.58,1.22-1.1.28-2.15.16-3.02-.34-.88-.5-1.51-1.36-1.78-2.42-.53-2.08.68-4.03,2.86-4.63,5.5-1.52,11.35-3.13,17.09-4.66,1.4-.37,2.7-.18,3.65.55.96.74,1.49,1.95,1.49,3.42,0,4.28,0,8.56,0,12.84.01,13.11.02,26.67-.03,40.01-.04,9.16-7.59,17.2-16.83,17.94-4.77.38-9.29-1.33-12.4-4.68-3.14-3.38-4.53-8.07-3.79-12.86.8-5.23,3.87-9.91,8.43-12.83,4.22-2.71,9.23-3.52,13.75-2.24,1.11.32,2.16.79,3.16,1.28v-17.18l-.27.07c-1.44.38-2.85.76-4.26,1.14l-10.08,2.74c-9.78,2.66-19.89,5.41-29.84,8.09-.29.08-.4.14-.44.16,0,.01-.02.14-.02.43.05,9.91.06,20.51.02,32.39-.01,5.13-2.47,10.08-6.74,13.57-3.35,2.74-7.36,4.2-11.35,4.2Zm3.14-30.48c-6.97,0-13.28,4.76-15.11,11.67-.98,3.72-.49,7.43,1.38,10.43,1.75,2.81,4.58,4.73,7.96,5.41,4.18.84,8.66-.37,12.27-3.33,3.64-2.97,5.73-7.16,5.74-11.48.03-11.87.03-22.46-.02-32.37,0-1.77.75-2.76,2.46-3.22,9.95-2.67,20.06-5.42,29.83-8.08l10.08-2.74c1.42-.38,2.83-.76,4.28-1.14l3.67-.98v24.9l-1.9-.83c-.54-.24-1.07-.49-1.6-.75-1.07-.51-2.08-1-3.11-1.29-3.77-1.07-7.98-.38-11.55,1.91-3.9,2.5-6.53,6.5-7.21,10.96-.61,3.97.52,7.84,3.1,10.61,2.55,2.74,6.27,4.14,10.21,3.83,7.87-.62,14.3-7.47,14.34-15.25.06-13.33.05-26.89.03-40,0-4.28,0-8.56,0-12.84,0-.61-.15-1.07-.43-1.28-.27-.21-.73-.24-1.3-.08-5.73,1.53-11.58,3.14-17.07,4.66-.76.21-1.12.72-.95,1.36.09.35.25.59.49.73.26.15.61.17,1.02.07,1.51-.38,3.02-.8,4.53-1.21l11.41-3.09v15.23l-50.28,13.67v-4.21c0-3.23,0-6.28.04-9.38.02-1.09,1.14-1.92,1.9-2.13,2.58-.73,5.17-1.44,7.75-2.14,1.64-.45,3.28-.89,4.91-1.35.57-.16.98-.43,1.16-.76.12-.22.14-.46.05-.74-.08-.26-.32-1.07-1.85-.66-4.35,1.18-8.7,2.36-13.05,3.55l-1.52.41c-1.59.43-1.65.52-1.65,2.2v43.93s-2.14-1.53-2.14-1.53c-2.1-1.51-4.02-2.32-6.03-2.56-.61-.07-1.22-.11-1.82-.11Zm-3.19,25.51h-.06c-2.96-.01-5.63-1.15-7.5-3.21-1.9-2.08-2.81-4.89-2.56-7.92.56-6.6,6.39-12.08,12.99-12.21,3-.05,5.7,1.06,7.63,3.15,2.01,2.18,2.94,5.14,2.61,8.34-.66,6.43-6.66,11.84-13.12,11.84Zm-.04-2.71h.04c5.05,0,9.91-4.39,10.43-9.41.25-2.41-.43-4.62-1.91-6.23-1.4-1.52-3.38-2.33-5.59-2.28-5.17.11-9.91,4.56-10.35,9.73-.19,2.26.47,4.34,1.86,5.86,1.36,1.49,3.32,2.32,5.52,2.33h0Zm52.56-11.52c-.2,0-.4,0-.61-.02-2.74-.14-5.22-1.32-6.96-3.31-1.83-2.09-2.71-4.89-2.47-7.87.53-6.58,6.55-12.12,13.16-12.12h.05c5.84.02,10.08,4.29,10.08,10.14h0s0,0,0,0c0,3.47-1.53,6.91-4.21,9.45-2.51,2.39-5.78,3.73-9.04,3.73Zm3.12-20.61c-5.16,0-10.04,4.49-10.46,9.63-.18,2.25.46,4.33,1.81,5.87,1.26,1.44,3.06,2.29,5.07,2.39,2.72.14,5.51-.94,7.64-2.97,2.14-2.03,3.36-4.76,3.36-7.49h0c0-4.29-3.1-7.42-7.38-7.43h-.03Z"/>
      </g>
      <g>
        <path class="cls-2" d="m270.23,616.94c1.33-.02,2.46,1.07,2.5,2.41.04,1.37-.99,2.47-2.36,2.52-1.41.05-2.58-1.06-2.58-2.44,0-1.31,1.13-2.46,2.44-2.49Z"/>
        <path class="cls-2" d="m270.28,623.23c-1.01,0-1.95-.38-2.68-1.08-.75-.72-1.16-1.68-1.16-2.72,0-2.05,1.72-3.81,3.77-3.85h0c2.07-.03,3.82,1.64,3.87,3.73.06,2.12-1.55,3.83-3.66,3.91-.05,0-.09,0-.14,0Zm-.02-4.93c-.58.01-1.12.56-1.12,1.13,0,.29.12.57.33.77.23.22.53.34.85.32.62-.02,1.07-.51,1.05-1.13-.02-.59-.53-1.1-1.1-1.1,0,0-.01,0-.02,0h0Z"/>
      </g>
    </g>
    <path class="cls-2" d="m462.69,329.56c0-1.54.11-3.08.34-4.61.39-2.63.74-5.27,1.38-7.83,4.36-17.51,14.1-30.49,30.82-36.35,16.64-5.83,32.1-2.65,45.4,9.58,3.32,3.05,5.94,6.92,8.87,10.43v.02c.76.9,2.11.86,2.81-.08,1.51-2.04,2.97-4.05,4.57-5.92,8.45-9.89,18.89-15.64,31.73-16.54,20.39-1.42,37.96,10.73,45.77,29.49,6.96,16.72,6.12,33.35-1.03,49.77-5,11.48-12.48,21.12-20.95,29.97-14.42,15.07-31.01,27.25-48.15,38.67-2.71,1.8-5.46,3.53-8.18,5.3-3.13,2.04-7.09,2.06-10.24.05-14.69-9.42-29.06-19.32-42.37-30.8-10.65-9.18-20.54-19.12-28.35-31.09-6.68-10.23-11.26-21.29-12.15-33.78,0-.08-.02-.16-.03-.24-.2-1.24-.22-2.5-.22-3.76v-2.28Zm162.67.32c-.06-9.31-3.24-19.54-11.15-27.89-10.74-11.35-29.17-12.76-41.34-3.18-7.29,5.73-11.98,13.39-15.26,22.1-1.27,3.39-3.81,5.43-6.77,5.38-2.97-.05-5.36-2.02-6.61-5.37-2.38-6.41-5.68-12.21-10.12-17.34-9.04-10.45-23.4-14.06-35.87-8.76-11.05,4.7-17.46,13.62-20.39,25.37-3.34,13.4-.39,25.78,6.23,37.42,5.98,10.5,13.99,19.19,22.71,27.24,13.31,12.3,28,22.62,43.05,32.42.8.52,1.35.53,2.15,0,11.88-7.74,23.53-15.81,34.48-24.93,10.44-8.69,20.25-18.03,28-29.47,6.27-9.24,10.56-19.26,10.89-32.99Z"/>
  </g>
</svg>