<?xml version="1.0" encoding="UTF-8"?>
<svg id="Camada_1" data-name="Camada 1" xmlns="http://www.w3.org/2000/svg" viewBox="0 0 1052.23 273.12">
  <defs>
    <style>
      .cls-1 {
        fill: #510900;
      }

      .cls-1, .cls-2 {
        stroke-width: 0px;
      }

      .cls-3 {
        fill: none;
        stroke: #a62c08;
        stroke-miterlimit: 10;
        stroke-width: 4px;
      }

      .cls-2 {
        fill: #a62c08;
      }
    </style>
  </defs>
  <g>
    <path class="cls-1" d="m238.05,1.71c13.23,0,20.54-.78,25.05-.78,3.27,0,4.36,1.71,4.36,3.58,0,5.13-2.49,10.74-4.67,21.32-.31,2.18-1.25,2.96-2.8,2.96-1.24,0-1.87-1.09-1.87-2.8,0-11.51-5.6-16.65-14.94-17.43-.47-.16-7.31-.31-7.78-.31-1.09,0-1.71.62-2.02,1.71-.93,4.36-13.69,72.97-14.47,77.33-.31,1.24-.47,2.65-.47,3.73,0,5.91,6.53,7.78,11.98,8.87,1.09.16,1.71.93,1.71,2.33,0,1.09-.93,2.18-2.33,2.18h-40.3c-1.25,0-2.18-.78-2.18-2.18,0-1.56.93-2.18,2.18-2.49,6.85-1.09,12.14-5.29,13.54-12.45l14.31-76.09c.16-.47.31-1.24.31-1.71,0-.78-.78-1.4-1.56-1.4-.62,0-7.62.16-8.09.31-9.49.78-16.65,6.69-22.41,17.27-.93,1.56-1.56,2.96-3.11,2.96-1.4,0-2.02-.62-2.02-1.87,0-3.42,3.42-9.18,6.69-20.85.93-3.11,2.96-4.98,6.38-4.98,8.4,0,14.78.78,22.41.78h22.09Z"/>
    <path class="cls-1" d="m321.45,1.71c10.74,0,18.98-.78,24.43-.78,2.96,0,4.2,1.24,4.2,3.27,0,5.13-3.11,12.29-5.13,20.85-.62,2.02-1.71,2.65-2.8,2.65s-1.87-.78-2.02-2.33c-.62-9.96-4.51-16.03-14.94-16.65-1.09-.31-21.94-.47-23.49-.47-.93,0-1.4.62-1.56,1.56l-6.38,32.99-.16,2.02c0,1.4.78,2.18,2.65,2.18.78,0,12.76,0,13.54-.16,7-.16,14-1.24,20.85-3.58,1.24-.31,2.02-.62,2.8-.62.62,0,1.09.47,1.09,1.25,0,2.33-1.56,6.53-2.33,10.27-.31,1.56-1.71,2.49-3.42,2.49-4.98,0-11.36-1.71-19.92-2.02-1.4-.31-11.67-.31-13.23-.31-2.49,0-4.36,1.87-4.82,4.2l-5.6,30.34c-.16.93-.31,1.87-.31,2.96,0,4.05,3.27,6.07,12.45,6.07.93,0,11.36-.16,12.45-.47,9.02-.47,17.43-3.58,23.96-16.65.62-1.24,1.4-2.02,2.65-2.02,1.4,0,2.02.93,2.02,2.18,0,2.8-2.65,9.8-4.51,19.92-.62,2.96-3.11,4.51-6.38,4.51-2.33,0-13.85-.93-23.81-.93h-45.74c-1.4,0-2.49-.93-2.49-2.18s.78-2.18,2.18-2.49c9.18-2.02,11.2-8.25,12.76-16.49l11.67-62.55c.47-2.02.62-3.73.62-5.45,0-4.67-1.87-7.94-7.47-8.87-1.25-.31-2.18-1.09-2.18-2.49s.93-2.18,2.33-2.18h46.06Z"/>
    <path class="cls-1" d="m402.66,56.79c-.31,0-.78.47-.78.62s0,.47.47.78c12.76,14.78,24.58,32.36,41.23,42.01,1.09.78,1.56,1.4,1.56,2.18,0,2.8-8.4,2.65-10.74,2.96-23.96,0-32.67-18.52-41.54-38.43-3.89-7.62-4.36-10.27-11.51-10.27-1.56,8.56-3.27,17.27-4.82,25.98-.47,2.49-.93,4.67-.93,6.54,0,7.78,4.2,9.96,12.76,10.74,1.24.16,2.33.93,2.33,2.33s-.93,2.18-2.49,2.18h-40.45c-1.4,0-2.49-.78-2.49-2.18,0-1.24,1.09-2.18,2.33-2.33,7.31-1.09,10.58-5.29,12.91-17.27,3.89-20.85,7.94-41.39,11.83-62.08.47-2.33.78-4.05.78-5.6,0-4.51-2.02-7.16-8.56-8.56-1.09-.31-1.87-1.09-1.87-2.33,0-1.4.93-2.33,2.49-2.33h12.45c7.62,0,17.27-.78,27.23-.78,17.27,0,33.45,6.22,33.45,25.05,0,19.76-17.43,30.65-35.63,30.81Zm-8.87-48.7c-2.33,0-3.11.78-3.58,2.96l-7,35.94c-.16.62-.31,1.09-.31,1.87,0,2.02,2.65,3.11,9.34,3.11,14.63,0,29.1-4.51,29.1-21.94,0-15.56-13.85-21.94-27.54-21.94Z"/>
    <path class="cls-1" d="m496.94,92.27c10.42,0,19.6-4.05,25.52-14.94.62-1.09,1.56-2.18,2.96-2.18,1.09,0,2.18.93,2.18,2.65,0,2.18-.93,4.2-2.8,9.96-1.4,4.2-2.8,6.22-6.07,9.02-5.45,4.51-15.56,9.34-28.94,9.34h-.78c-1.4,2.49-2.33,3.89-2.33,4.2,0,.16.16.31.62.31,7.16,0,12.45,4.2,12.45,11.67-.78,10.11-11.2,14-19.76,14-6.22,0-12.91-2.96-12.91-6.69,0-.93.47-2.02,1.4-2.02,1.87,0,4.2,2.65,9.18,2.65,5.45,0,8.25-3.11,8.25-6.69,0-6.54-11.2-6.38-11.2-8.25,0-1.24,3.27-5.91,5.91-10.11-16.65-3.42-29.87-16.49-29.87-39.05,0-34.7,26.76-66.13,60.99-66.13,10.58,0,25.52,1.09,25.52,15.25,0,5.45-1.87,10.74-2.49,16.18-.16,2.02-1.71,2.96-2.96,2.96-1.4,0-2.18-1.25-2.64-2.65-2.96-13.07-13.07-21.32-25.98-21.32-23.34,0-37.96,23.49-37.96,46.06,0,19.45,11.05,35.79,31.74,35.79Z"/>
    <path class="cls-1" d="m730.32,105.34c-11.2,0-16.65-.93-26.76-.93h-16.03c-1.24,0-2.33-.93-2.33-2.18,0-1.4,1.09-2.18,2.18-2.33,6.22-1.09,10.42-5.13,11.83-12.76l13.07-69.4c.31-1.4.47-2.8.47-4.05,0-3.73-2.02-6.69-8.25-7.47-1.09,0-1.71-1.09-1.71-2.33,0-1.4.93-2.18,2.18-2.18h15.56c9.02,0,15.71-.78,24.12-.78,28.94,0,46.21,18.67,46.21,44.97,0,34.7-25.52,59.44-60.53,59.44Zm32.67-84.02c-6.85-8.09-17.43-13.54-29.25-13.54-2.8,0-3.27.47-3.73,2.02l-14.94,78.57c-.31.93-.47,1.87-.47,2.96,0,2.02.93,3.11,2.65,3.89,4.2,1.71,9.65,2.65,15.09,2.65,13.23,0,23.34-4.67,30.34-12.6,7.31-8.25,11.05-20.07,11.05-33.14,0-12.29-4.04-23.18-10.74-30.81Z"/>
    <path class="cls-1" d="m847.16,6.69c1.87-3.11,8.56-5.45,12.92-5.45,3.42,0,3.58,1.4,3.89,4.05l11.05,75.31c1.87,12.45,2.96,18.52,11.2,19.14,1.24.16,2.18.93,2.18,2.49,0,1.4-.93,2.18-2.49,2.18h-36.41c-1.4,0-2.33-.78-2.33-2.02,0-1.4.78-2.33,2.18-2.49,5.45-.31,9.34-1.87,9.34-7.16,0-3.89-1.56-11.83-2.49-18.05-.47-3.27-.93-5.45-2.02-5.45h-25.98c-4.82,0-11.2.31-14.16,5.13l-1.4,2.33c-4.05,6.85-10.27,14.47-10.27,18.52,0,7,10.89,2.49,10.89,7.16,0,1.09-.78,2.02-1.87,2.02h-30.19c-1.4,0-2.64-.78-2.64-2.02,0-1.4,1.09-2.33,2.64-2.49,7-.31,10.27-4.67,14.16-10.89l51.81-82.31Zm-24.58,53.52c-.31.62-.62.93-.62,1.24s.31.47.78.47h28.01c1.87,0,3.27-.62,3.27-2.65,0-.78,0-1.56-.16-2.33l-3.11-21.94c-.62-4.82-1.56-10.74-1.56-15.87v-1.56c0-.31,0-.47-.16-.47-.47,0-5.29,9.34-7,11.98l-19.45,31.12Z"/>
    <path class="cls-1" d="m58.97,269.07l-10.11-83.24c0-.31-.16-.47-.31-.47s-.16.16-.31.47c-1.71,5.45-3.11,10.74-4.82,16.03l-17.12,51.81c-.78,2.49-1.87,4.98-1.87,7.31,0,3.89,3.11,5.13,7.94,5.76,1.71.16,2.65,1.09,2.65,2.49,0,1.25-.93,2.18-2.65,2.18H2.49c-1.4,0-2.49-.93-2.49-2.18,0-1.4,1.09-2.18,2.49-2.49,6.53-.93,11.2-4.2,13.69-11.36l29.25-84.02c.93-2.65,4.82-3.42,9.96-3.42,5.91,0,7.94,1.24,8.25,3.42l9.02,77.95c0,.62.16.78.47.78.16,0,.31,0,.78-.62l42.32-78.11c1.24-2.33,5.29-3.42,10.58-3.42s8.09.93,8.09,3.11c0,1.25-.16,2.65-.31,3.73l-7.31,79.04v3.27c0,5.91,3.42,8.87,9.34,9.65,1.09.31,2.02,1.09,2.02,2.49s-1.09,2.18-2.33,2.18h-36.88c-1.25,0-2.33-.93-2.33-2.18s1.09-2.18,2.33-2.49c8.09-1.24,9.49-6.85,10.27-13.85l7.62-67.06c0-.31,0-.47-.16-.47s-.31.16-.47.47l-45.43,83.4c-.62,1.4-3.89,3.11-6.85,3.11-2.8,0-5.29-1.4-5.45-3.27Z"/>
    <path class="cls-1" d="m171.46,251.33c-.31,2.33-.78,4.36-.78,6.22,0,4.82,1.87,8.09,8.09,9.18,1.09.31,1.87,1.25,1.87,2.49s-.93,2.18-2.33,2.18h-34.85c-1.4,0-2.49-.93-2.49-2.18s.78-2.18,2.18-2.49c9.65-1.71,11.2-8.25,12.76-16.65l11.67-61.3c.31-2.49.62-4.51.62-6.38,0-4.82-1.87-8.09-7.94-9.18-1.09-.16-1.87-.93-1.87-2.33s.93-2.18,2.18-2.18h34.85c1.24,0,2.18.78,2.18,2.18,0,1.25-.62,2.18-1.87,2.33-9.34,1.71-11.2,8.09-12.6,16.18l-11.67,61.93Z"/>
    <path class="cls-1" d="m268.23,181.94c0,5.76-2.18,10.89-3.27,17.12-.16,1.25-1.25,1.87-2.49,1.87-.78,0-1.71-.62-1.71-1.71-1.56-11.83-8.25-22.87-21.78-22.87-7.62,0-16.8,3.58-16.8,11.82s9.18,15.4,18.83,24.12c10.11,9.18,19.29,18.83,19.29,30.65,0,20.23-20.69,30.19-39.37,30.19-12.76,0-26.61-4.67-26.61-17.43,0-5.45,1.71-10.42,2.65-16.49.31-1.25,1.09-2.02,2.18-2.02,1.24,0,2.02.62,2.33,1.87,3.42,13.07,11.05,24.89,26.14,24.89,8.56,0,18.05-4.67,18.05-13.54s-9.18-16.49-18.98-25.05c-9.96-8.87-19.29-17.89-19.29-29.41,0-19.6,20.69-28.94,38.28-28.94,11.05,0,22.56,3.89,22.56,14.94Z"/>
    <path class="cls-1" d="m330.78,168.71c10.74,0,18.98-.78,24.43-.78,2.96,0,4.2,1.24,4.2,3.27,0,5.13-3.11,12.29-5.13,20.85-.62,2.02-1.71,2.64-2.8,2.64s-1.87-.78-2.02-2.33c-.62-9.96-4.51-16.03-14.94-16.65-1.09-.31-21.94-.47-23.49-.47-.93,0-1.4.62-1.56,1.56l-6.38,32.99-.16,2.02c0,1.4.78,2.18,2.65,2.18.78,0,12.76,0,13.54-.16,7-.16,14-1.25,20.85-3.58,1.25-.31,2.02-.62,2.8-.62.62,0,1.09.47,1.09,1.24,0,2.33-1.56,6.54-2.33,10.27-.31,1.56-1.71,2.49-3.42,2.49-4.98,0-11.36-1.71-19.92-2.02-1.4-.31-11.67-.31-13.23-.31-2.49,0-4.36,1.87-4.82,4.2l-5.6,30.34c-.16.93-.31,1.87-.31,2.96,0,4.05,3.27,6.07,12.45,6.07.93,0,11.36-.16,12.45-.47,9.02-.47,17.43-3.58,23.96-16.65.62-1.24,1.4-2.02,2.65-2.02,1.4,0,2.02.93,2.02,2.18,0,2.8-2.65,9.8-4.51,19.92-.62,2.96-3.11,4.51-6.38,4.51-2.33,0-13.85-.93-23.81-.93h-45.74c-1.4,0-2.49-.93-2.49-2.18s.78-2.18,2.18-2.49c9.18-2.02,11.2-8.25,12.76-16.49l11.67-62.55c.47-2.02.62-3.73.62-5.45,0-4.67-1.87-7.94-7.47-8.87-1.25-.31-2.18-1.09-2.18-2.49s.93-2.18,2.33-2.18h46.06Z"/>
    <path class="cls-1" d="m411.99,223.79c-.31,0-.78.47-.78.62s0,.47.47.78c12.76,14.78,24.58,32.36,41.23,42.01,1.09.78,1.56,1.4,1.56,2.18,0,2.8-8.4,2.64-10.74,2.96-23.96,0-32.67-18.52-41.54-38.43-3.89-7.62-4.36-10.27-11.51-10.27-1.56,8.56-3.27,17.27-4.82,25.98-.47,2.49-.93,4.67-.93,6.54,0,7.78,4.2,9.96,12.76,10.74,1.24.16,2.33.93,2.33,2.33s-.93,2.18-2.49,2.18h-40.45c-1.4,0-2.49-.78-2.49-2.18,0-1.24,1.09-2.18,2.33-2.33,7.31-1.09,10.58-5.29,12.91-17.27,3.89-20.85,7.94-41.39,11.83-62.08.47-2.33.78-4.04.78-5.6,0-4.51-2.02-7.16-8.56-8.56-1.09-.31-1.87-1.09-1.87-2.33,0-1.4.93-2.33,2.49-2.33h12.45c7.62,0,17.27-.78,27.23-.78,17.27,0,33.45,6.22,33.45,25.05,0,19.76-17.43,30.65-35.63,30.81Zm-8.87-48.7c-2.33,0-3.11.78-3.58,2.96l-7,35.94c-.16.62-.31,1.09-.31,1.87,0,2.02,2.65,3.11,9.34,3.11,14.63,0,29.1-4.51,29.1-21.94,0-15.56-13.85-21.94-27.54-21.94Z"/>
    <path class="cls-1" d="m481.07,251.33c-.31,2.33-.78,4.36-.78,6.22,0,4.82,1.87,8.09,8.09,9.18,1.09.31,1.87,1.25,1.87,2.49s-.93,2.18-2.33,2.18h-34.85c-1.4,0-2.49-.93-2.49-2.18s.78-2.18,2.18-2.49c9.65-1.71,11.2-8.25,12.76-16.65l11.67-61.3c.31-2.49.62-4.51.62-6.38,0-4.82-1.87-8.09-7.94-9.18-1.09-.16-1.87-.93-1.87-2.33s.93-2.18,2.18-2.18h34.85c1.24,0,2.18.78,2.18,2.18,0,1.25-.62,2.18-1.87,2.33-9.34,1.71-11.2,8.09-12.6,16.18l-11.67,61.93Z"/>
    <path class="cls-1" d="m554.98,259.27c10.42,0,19.61-4.04,25.52-14.94.62-1.09,1.56-2.18,2.96-2.18,1.09,0,2.18.93,2.18,2.65,0,2.18-.93,4.2-2.8,9.96-1.4,4.2-2.8,6.22-6.07,9.02-5.45,4.51-15.56,9.34-28.94,9.34-20.69,0-39.05-13.54-39.05-39.99,0-34.7,26.76-66.13,60.99-66.13,10.58,0,25.52,1.09,25.52,15.25,0,5.45-1.87,10.74-2.49,16.18-.16,2.02-1.71,2.96-2.96,2.96-1.4,0-2.18-1.24-2.65-2.64-2.96-13.07-13.07-21.32-25.98-21.32-23.34,0-37.97,23.49-37.97,46.06,0,19.45,11.05,35.79,31.74,35.79Z"/>
    <path class="cls-1" d="m641.79,273.12c-23.34,0-39.68-15.09-39.68-39.99,0-32.52,25.05-66.13,58.19-66.13,23.5,0,39.05,16.18,39.05,40.77,0,32.21-24.58,65.35-57.57,65.35Zm10.42-95.38c-22.72,0-34.54,24.9-34.54,45.43s10.89,39.05,32.05,39.05c22.72,0,34.08-24.27,34.08-44.5s-10.58-39.99-31.59-39.99Zm34.39-37.34c0,1.09-.62,2.18-2.02,2.96l-28.78,14.78c-1.71.93-2.96,1.4-4.51,1.4-1.24,0-1.87-.62-1.87-1.56,0-.78.31-1.56,1.71-2.96l13.54-13.54c3.27-3.27,6.69-4.82,13.54-4.82,6.22,0,8.4,1.71,8.4,3.73Z"/>
    <path class="cls-1" d="m757.39,223.79c-.31,0-.78.47-.78.62s0,.47.47.78c12.76,14.78,24.58,32.36,41.23,42.01,1.09.78,1.56,1.4,1.56,2.18,0,2.8-8.4,2.64-10.74,2.96-23.96,0-32.67-18.52-41.54-38.43-3.89-7.62-4.36-10.27-11.51-10.27-1.56,8.56-3.27,17.27-4.82,25.98-.47,2.49-.93,4.67-.93,6.54,0,7.78,4.2,9.96,12.76,10.74,1.25.16,2.33.93,2.33,2.33s-.93,2.18-2.49,2.18h-40.45c-1.4,0-2.49-.78-2.49-2.18,0-1.24,1.09-2.18,2.33-2.33,7.31-1.09,10.58-5.29,12.92-17.27,3.89-20.85,7.93-41.39,11.83-62.08.47-2.33.78-4.04.78-5.6,0-4.51-2.02-7.16-8.56-8.56-1.09-.31-1.87-1.09-1.87-2.33,0-1.4.93-2.33,2.49-2.33h12.45c7.62,0,17.27-.78,27.23-.78,17.27,0,33.45,6.22,33.45,25.05,0,19.76-17.43,30.65-35.63,30.81Zm-8.87-48.7c-2.33,0-3.11.78-3.58,2.96l-7,35.94c-.16.62-.31,1.09-.31,1.87,0,2.02,2.64,3.11,9.34,3.11,14.62,0,29.1-4.51,29.1-21.94,0-15.56-13.85-21.94-27.54-21.94Z"/>
    <path class="cls-1" d="m841.1,272.34c-11.2,0-16.65-.93-26.76-.93h-16.03c-1.24,0-2.33-.93-2.33-2.18,0-1.4,1.09-2.18,2.18-2.33,6.22-1.09,10.42-5.13,11.83-12.76l13.07-69.4c.31-1.4.47-2.8.47-4.04,0-3.73-2.02-6.69-8.25-7.47-1.09,0-1.71-1.09-1.71-2.33,0-1.4.93-2.18,2.18-2.18h15.56c9.02,0,15.71-.78,24.12-.78,28.94,0,46.21,18.67,46.21,44.97,0,34.7-25.52,59.44-60.53,59.44Zm32.67-84.02c-6.85-8.09-17.43-13.54-29.25-13.54-2.8,0-3.27.47-3.73,2.02l-14.94,78.58c-.31.93-.47,1.87-.47,2.96,0,2.02.93,3.11,2.65,3.89,4.2,1.71,9.65,2.64,15.09,2.64,13.23,0,23.34-4.67,30.34-12.6,7.31-8.25,11.05-20.07,11.05-33.14,0-12.29-4.04-23.18-10.74-30.81Z"/>
    <path class="cls-1" d="m933.05,251.33c-.31,2.33-.78,4.36-.78,6.22,0,4.82,1.87,8.09,8.09,9.18,1.09.31,1.87,1.25,1.87,2.49s-.93,2.18-2.33,2.18h-34.85c-1.4,0-2.49-.93-2.49-2.18s.78-2.18,2.18-2.49c9.65-1.71,11.2-8.25,12.76-16.65l11.67-61.3c.31-2.49.62-4.51.62-6.38,0-4.82-1.87-8.09-7.94-9.18-1.09-.16-1.87-.93-1.87-2.33s.93-2.18,2.18-2.18h34.85c1.25,0,2.18.78,2.18,2.18,0,1.25-.62,2.18-1.87,2.33-9.34,1.71-11.2,8.09-12.6,16.18l-11.67,61.93Z"/>
    <path class="cls-1" d="m1011,173.69c1.87-3.11,8.56-5.45,12.92-5.45,3.42,0,3.58,1.4,3.89,4.05l11.05,75.31c1.87,12.45,2.96,18.52,11.2,19.14,1.24.16,2.18.93,2.18,2.49,0,1.4-.93,2.18-2.49,2.18h-36.41c-1.4,0-2.33-.78-2.33-2.02,0-1.4.78-2.33,2.18-2.49,5.45-.31,9.34-1.87,9.34-7.16,0-3.89-1.56-11.83-2.49-18.05-.47-3.27-.93-5.45-2.02-5.45h-25.98c-4.82,0-11.2.31-14.16,5.13l-1.4,2.33c-4.05,6.85-10.27,14.47-10.27,18.52,0,7,10.89,2.49,10.89,7.16,0,1.09-.78,2.02-1.87,2.02h-30.19c-1.4,0-2.64-.78-2.64-2.02,0-1.4,1.09-2.33,2.64-2.49,7-.31,10.27-4.67,14.16-10.89l51.81-82.31Zm-24.58,53.52c-.31.62-.62.93-.62,1.24s.31.47.78.47h28.01c1.87,0,3.27-.62,3.27-2.64,0-.78,0-1.56-.16-2.33l-3.11-21.94c-.62-4.82-1.56-10.74-1.56-15.87v-1.56c0-.31,0-.47-.16-.47-.47,0-5.29,9.34-7,11.98l-19.45,31.12Z"/>
  </g>
  <g>
    <path class="cls-2" d="m644.26,47.77c-2.96-1.19-3.82-3.14-4.27-5.8-.04-.25-.12-.5-.23-.73-.4-.86-.19-1.46.52-2.21,2.44-2.6,3.01-5.69,1.63-8.97-1.4-3.35-4.19-5.54-7.67-5-3,.46-4.56-.7-6.18-2.59-.25-.29-.52-.57-.84-.79-.77-.55-.88-1.12-.64-2.06.88-3.3-.39-6.81-3.08-8.73-2.95-2.11-6.37-2.65-9.16-.44-2.36,1.87-4.31,1.6-6.66.77-.22-.08-.44-.13-.67-.16-1.16-.11-1.74-.64-2.13-1.87-1.05-3.34-3.51-5.29-6.96-5.69-3.46-.4-6.69.83-7.97,4.01-1.18,2.94-3.12,3.8-5.75,4.26-.38.07-.75.35-1.12.32-.56-.04-1.26-.1-1.63-.44-2.9-2.68-6.83-3.24-10.17-1.36-3.26,1.84-4.88,5.66-3.89,9.45.2.78.11,1.24-.48,1.78-1.15,1.06-2.19,2.24-3.36,3.28-.35.31-.98.43-1.48.43-.5,0-1.01-.04-1.51-.08.1.21.21.44.26.67.1.45.12.96-.03,1.4-.07.2-.15.36-.23.52.65.16,1.28.39,1.87.68,1.52.75,2.91,2.18,3.21,3.91.18,1.05.11,2.17-.52,3.07-.63.91-1.52,1.45-2.53,1.84-.12.05-.25.07-.37.11-.22.36-.61.65-1.02.77-.19.05-.38.13-.57.2-.63.29-1.24.61-1.9.8-.46.13-.93.04-1.34-.18-.35-.19-.59-.52-.74-.88-1.2-.09-2.38-.44-3.14-1.37-.46.58-.54,1.46.03,2,1.31,1.27.66,2.44.28,3.72-.28.94-.51,1.89-.69,2.85-.16.85-.55,1.24-1.45,1.51-3.53,1.06-5.57,3.54-6.06,7.22-.43,3.24,1.8,6.88,4.79,8.21,2.28,1.01,3.05,2.63,3.38,4.91.08.53.43,1.03.44,1.54,0,.55-.07,1.27-.41,1.64-2.73,3.01-3.27,6.92-1.32,10.3,1.51,2.62,5.56,4.96,9.54,3.8.43-.13,1.13.1,1.49.42,1.13,1,2.12,2.17,3.25,3.18.67.6.81,1.12.57,2.02-.87,3.34.37,6.8,3.07,8.73,2.95,2.11,6.34,2.64,9.16.44,2.26-1.77,4.13-1.68,6.42-.82.59.22,1.27.22,1.84.47.37.16.81.54.91.91.78,2.85,2.54,4.79,5.25,5.92.35.14.83.53.84.81.07,2.37.04,4.75.04,7.09-3.76.4-4.8,1.55-4.81,5.11,0,1.45,0,2.9,0,4.5-2.22,0-4.21-.05-6.21.01-2.43.08-3.88,1.6-3.92,4.02-.03,1.81-.02,3.62,0,5.44.02,2.78,1.48,4.23,4.26,4.25,1.9.01,3.79,0,5.87,0v1.75c0,3.43.08,6.86-.03,10.28-.07,2.31.67,4,2.82,4.96h8.23c1.68-.93,2.89-2.13,2.71-4.27-.1-1.15-.51-1.99-1.71-2.25-1.16-.24-1.97.23-2.51,1.29-.17.33-.54.75-.84.77-1.35.08-2.72.04-4.23.04,0-.67,0-1.2,0-1.72,0-3.67.03-7.35-.01-11.02-.03-2.76-1.55-4.22-4.31-4.25-1.9-.02-3.79,0-5.73,0v-4.89h3.47c5.96,0,6.59-.62,6.59-6.52v-2.89h4.86c0,1.65,0,3.21,0,4.77.01,3.23,1.41,4.62,4.65,4.64,1.79,0,3.59,0,5.45,0v4.81c-.54.03-1.02.07-1.49.07-1.62.01-3.24-.05-4.85.03-2.55.12-4.35,2.59-3.57,4.78.55,1.54,2.66,2.15,3.51.83.85-1.34,1.9-1.21,3.08-1.21,1.27,0,2.55.02,3.82,0,2.42-.04,3.92-1.51,3.99-3.94.05-1.71.01-3.43.01-5.14,0-3.23-1.41-4.63-4.65-4.65-1.79,0-3.59,0-5.53,0,0-1.68,0-3.13,0-4.59,0-3.4-.99-4.53-4.49-5.02,0-2.32-.03-4.66.04-7,.01-.33.51-.68.83-.97,1.3-1.15,3.33-2.04,3.79-3.45.99-3.03,3.1-3.85,5.75-4.28.24-.04.49-.09.7-.2.97-.52,1.64-.22,2.41.55,2.26,2.28,6.04,2.9,9.01,1.53,3.18-1.47,5.36-4.2,4.84-7.51-.48-3.06.66-4.66,2.6-6.31.28-.24.54-.49.76-.79.56-.75,1.13-.94,2.14-.72,3.5.78,6.55-.17,8.72-3.09,2.11-2.85,2.66-6.31.47-9.02-2-2.48-1.6-4.52-.76-6.99.1-.29.15-.58.19-.88.11-.91.58-1.32,1.51-1.6,3.48-1.05,5.53-3.47,5.95-7.06.41-3.48-.84-6.68-4.02-7.95Zm-10.02-18.46c2.2.02,3.96,1.85,3.93,4.07-.03,2.18-1.77,3.84-3.98,3.8-2.31-.04-4.03-1.77-3.97-3.99.06-2.09,1.93-3.91,4.01-3.89Zm-15.61-15.7c2.15.06,3.88,1.87,3.84,4.02-.05,2.12-1.87,3.92-3.99,3.91-2.21,0-3.99-1.83-3.95-4.07.03-2.25,1.82-3.93,4.11-3.87Zm-21.47-5.79c2.26.14,3.86,1.92,3.76,4.2-.09,2.15-1.89,3.8-4.07,3.72-2.21-.09-3.86-1.91-3.78-4.19.08-2.12,1.98-3.85,4.08-3.73Zm-21.48,5.79c2.03.09,3.69,1.77,3.75,3.8.07,2.29-1.75,4.16-3.99,4.13-2.12-.03-3.94-1.85-3.95-3.96-.02-2.25,1.89-4.08,4.19-3.98Zm-21.79,45.12c-2.09-.04-3.91-1.91-3.89-4,.02-2.13,1.82-3.93,3.94-3.95,2.19-.02,4,1.8,3.99,4.02,0,2.24-1.79,3.98-4.05,3.93Zm5.86,21.52c-2.16,0-3.91-1.74-3.94-3.91-.03-2.27,1.7-4.03,3.95-4.02,2.15,0,3.95,1.76,3.99,3.88.04,2.18-1.81,4.05-4,4.05Zm15.72,15.71c-2.32,0-4.2-2.02-3.96-4.37.22-2.13,2.17-3.73,4.3-3.55,2.06.17,3.64,1.86,3.62,3.93-.02,2.25-1.75,4-3.97,4Zm21.54,5.79c-2.53-.02-4.51-2.33-3.91-4.92.41-1.77,2.07-3.01,3.89-2.97,2.23.04,3.92,1.73,3.93,3.93,0,2.03-1.92,3.98-3.91,3.96Zm21.43-5.79c-2.23-.01-3.99-1.82-3.93-4.06.05-2.15,1.84-3.88,3.99-3.87,2.13.01,3.93,1.8,3.95,3.92.02,2.22-1.78,4.01-4.01,4Zm8.58-15.31c.17.35.02.94-.15,1.35-.14.34-.52.57-.78.86-1.34,1.54-2.42,2.46-4.93,1.37-5.25-2.29-10.95,1.85-11.04,7.63-.02.99-.3,1.39-1.21,1.6-1.37.3-2.72.7-4.05,1.06-3.74-7.16-12.58-6.45-15.71.02-1.55-.42-3.15-.81-4.71-1.32-.28-.09-.6-.65-.58-.98.4-6.23-6.92-11.25-13.16-7.16-.08.05-.18.07-.5.19-1.19-1.21-2.45-2.5-3.42-3.5.51-2.09,1.28-3.86,1.32-5.64.09-4.54-3.62-8.17-8.2-8.21-.99-.01-1.43-.3-1.6-1.2-.07-.38-.22-.75-.33-1.12-.5-1.73-.82-2.98,1.23-4.45,4.78-3.43,4.11-10.55-.96-13.58-.77-.46-1.1-.87-.74-1.72.11-.27.13-.57.19-.86.4-2,.86-3.33,3.61-3.59,5.54-.53,8.5-7.08,5.87-12.04-.2-.38-.43-.76-.75-1.31,1.27-1.27,2.55-2.54,3.85-3.83,2.16,1.32,4.3,2.03,6.68,1.58,4.03-.76,6.84-4.05,6.87-8.15,0-.89.22-1.38,1.11-1.53.38-.06.75-.21,1.12-.34,1.8-.6,3.08-.81,4.57,1.24,3.43,4.72,10.46,4.1,13.49-.9.54-.88,1.02-1.2,1.96-.78.22.1.48.1.72.14,2.09.33,3.31.98,3.56,3.64.52,5.41,7,8.4,11.95,5.89.39-.2.76-.44,1.34-.77,1.26,1.29,2.53,2.61,3.84,3.95-1.51,2.35-2.09,4.8-1.32,7.47.98,3.4,3.98,5.8,7.72,5.92,1.16.04,1.64.44,1.87,1.49.28,1.28.65,2.55.96,3.78-6.83,5.03-6.86,11.68.03,15.74-.41,1.52-.79,3.12-1.3,4.68-.1.3-.71.6-1.1.61-6.9.3-10.47,6.54-7.32,12.76Zm7.11-.4c-2.15-.04-3.85-1.83-3.81-4.02.04-2.22,1.73-3.91,3.91-3.9,2.1,0,3.89,1.81,3.91,3.95.02,2.21-1.8,4.01-4.01,3.97Zm5.79-21.6c-2.29-.02-3.88-1.62-3.88-3.89,0-2.18,1.77-4,3.87-3.97,2.21.02,3.97,1.82,3.98,4.06,0,2.19-1.7,3.82-3.97,3.8Z"/>
    <circle class="cls-3" cx="559.78" cy="33.25" r="6.39"/>
  </g>
</svg>