<?xml version="1.0" encoding="UTF-8"?>
<svg id="Camada_1" data-name="Camada 1" xmlns="http://www.w3.org/2000/svg" xmlns:xlink="http://www.w3.org/1999/xlink" viewBox="0 0 1026.71 185.65">
  <defs>
    <style>
      .cls-1 {
        fill: #ff208b;
      }

      .cls-1, .cls-2, .cls-3, .cls-4 {
        stroke-width: 0px;
      }

      .cls-2 {
        fill: url(#Gradiente_sem_nome_26);
      }

      .cls-3 {
        fill: #ffdf4e;
      }

      .cls-4 {
        fill: #fff;
      }
    </style>
    <linearGradient id="Gradiente_sem_nome_26" data-name="Gradiente sem nome 26" x1="606" y1="96.79" x2="606" y2="0" gradientUnits="userSpaceOnUse">
      <stop offset="0" stop-color="#ff449c"/>
      <stop offset=".36" stop-color="#ff409a"/>
      <stop offset=".66" stop-color="#ff3695"/>
      <stop offset=".93" stop-color="#ff258d"/>
      <stop offset="1" stop-color="#ff208b"/>
    </linearGradient>
  </defs>
  <rect class="cls-1" x="185.29" width="841.41" height="185.65"/>
  <rect class="cls-2" x="185.29" width="841.41" height="96.79"/>
  <g>
    <path class="cls-4" d="m221.12,48.49h17.61l13.48,82.75h-13l-2.36-16.43v.24h-14.78l-2.36,16.19h-12.06l13.48-82.75Zm14.19,55.32l-5.79-40.9h-.24l-5.67,40.9h11.7Z"/>
    <path class="cls-4" d="m255.88,111.62v-4.73h12.29v5.67c0,5.91,2.6,8.04,6.74,8.04s6.74-2.13,6.74-8.27c0-6.86-2.6-11.23-11.11-18.68-10.88-9.57-14.42-16.31-14.42-25.77,0-13,6.74-20.57,19.39-20.57s18.91,7.57,18.91,20.81v3.43h-12.29v-4.26c0-5.91-2.36-8.16-6.5-8.16s-6.5,2.25-6.5,7.92c0,6.03,2.72,10.4,11.23,17.85,10.88,9.57,14.3,16.19,14.3,26.48,0,13.48-6.86,21.04-19.62,21.04s-19.15-7.57-19.15-20.8Z"/>
    <path class="cls-4" d="m321.01,48.49h18.56l8.27,59.22h.24l8.27-59.22h18.56v82.75h-12.29v-62.65h-.24l-9.46,62.65h-10.88l-9.46-62.65h-.24v62.65h-11.35V48.49Z"/>
    <path class="cls-4" d="m384.6,48.49h35.46v11.82h-22.46v21.87h17.85v11.82h-17.85v25.42h22.46v11.82h-35.46V48.49Z"/>
    <path class="cls-4" d="m427.51,48.49h13v70.93h21.4v11.82h-34.4V48.49Z"/>
    <path class="cls-4" d="m468.17,48.49h13v33.69h13.95v-33.69h13v82.75h-13v-37.24h-13.95v37.24h-13V48.49Z"/>
    <path class="cls-4" d="m516.87,111.62v-43.5c0-13.24,6.97-20.81,19.74-20.81s19.74,7.57,19.74,20.81v43.5c0,13.24-6.97,20.8-19.74,20.8s-19.74-7.57-19.74-20.8Zm26.48.83v-45.16c0-5.91-2.6-8.16-6.74-8.16s-6.74,2.25-6.74,8.16v45.16c0,5.91,2.6,8.16,6.74,8.16s6.74-2.25,6.74-8.16Z"/>
    <path class="cls-4" d="m565.1,48.49h19.27c13.48,0,19.27,6.27,19.27,19.03v5.08c0,8.51-2.72,13.95-8.51,16.31v.24c6.5,2.01,8.63,8.16,8.63,17.49v14.54c0,4.02.12,6.97,1.42,10.05h-13.24c-.71-2.13-1.18-3.43-1.18-10.17v-15.13c0-7.68-2.25-10.17-8.16-10.17h-4.49v35.46h-13V48.49Zm17.73,35.46c4.85,0,7.8-2.13,7.8-8.75v-6.38c0-5.91-2.01-8.51-6.62-8.51h-5.91v23.64h4.73Z"/>
    <path class="cls-4" d="m612.74,48.49h35.46v11.82h-22.46v21.87h17.85v11.82h-17.85v25.42h22.46v11.82h-35.46V48.49Z"/>
    <path class="cls-4" d="m653.64,111.62v-4.73h12.29v5.67c0,5.91,2.6,8.04,6.74,8.04s6.74-2.13,6.74-8.27c0-6.86-2.6-11.23-11.11-18.68-10.88-9.57-14.42-16.31-14.42-25.77,0-13,6.74-20.57,19.39-20.57s18.91,7.57,18.91,20.81v3.43h-12.29v-4.26c0-5.91-2.36-8.16-6.5-8.16s-6.5,2.25-6.5,7.92c0,6.03,2.72,10.4,11.23,17.85,10.88,9.57,14.3,16.19,14.3,26.48,0,13.48-6.86,21.04-19.62,21.04s-19.15-7.57-19.15-20.8Z"/>
    <path class="cls-4" d="m718.77,48.49h19.86c13,0,19.39,7.21,19.39,20.45v41.85c0,13.24-6.38,20.45-19.39,20.45h-19.86V48.49Zm19.62,70.93c4.14,0,6.62-2.13,6.62-8.04v-43.03c0-5.91-2.48-8.04-6.62-8.04h-6.62v59.1h6.62Z"/>
    <path class="cls-4" d="m776.57,48.49h17.61l13.48,82.75h-13l-2.36-16.43v.24h-14.78l-2.36,16.19h-12.06l13.48-82.75Zm14.19,55.32l-5.79-40.9h-.24l-5.67,40.9h11.7Z"/>
    <path class="cls-4" d="m832.84,48.49h19.15c13,0,19.39,7.21,19.39,20.45v8.16c0,13.24-6.38,20.45-19.39,20.45h-6.15v33.69h-13V48.49Zm19.15,37.24c4.14,0,6.38-1.89,6.38-7.8v-9.81c0-5.91-2.25-7.8-6.38-7.8h-6.15v25.42h6.15Z"/>
    <path class="cls-4" d="m878.46,48.49h13v70.93h21.4v11.82h-34.4V48.49Z"/>
    <path class="cls-4" d="m918.65,111.62v-63.12h13v64.07c0,5.91,2.48,8.04,6.62,8.04s6.62-2.13,6.62-8.04V48.49h12.53v63.12c0,13.24-6.62,20.8-19.39,20.8s-19.39-7.57-19.39-20.8Z"/>
    <path class="cls-4" d="m964.4,111.62v-4.73h12.29v5.67c0,5.91,2.6,8.04,6.74,8.04s6.74-2.13,6.74-8.27c0-6.86-2.6-11.23-11.11-18.68-10.88-9.57-14.42-16.31-14.42-25.77,0-13,6.74-20.57,19.39-20.57s18.91,7.57,18.91,20.81v3.43h-12.29v-4.26c0-5.91-2.36-8.16-6.5-8.16s-6.5,2.25-6.5,7.92c0,6.03,2.72,10.4,11.23,17.85,10.88,9.57,14.3,16.19,14.3,26.48,0,13.48-6.86,21.04-19.62,21.04s-19.15-7.57-19.15-20.8Z"/>
  </g>
  <path class="cls-3" d="m185.65,185.65H34.96c-13.65-13.65-21.31-21.31-34.96-34.96V0h185.65v185.65Z"/>
  <g>
    <path class="cls-1" d="m79.93,68.89c-4.47-8.75-8.88-17.39-13.29-26.03-1.52-2.97-3.03-5.94-4.54-8.91-.89-1.77-.14-3.08,1.85-3.09,7.36-.03,14.72,0,22.08-.02,1.22,0,1.97.52,2.44,1.67,1.34,3.28,2.74,6.53,4.22,10.02.26-.48.44-.78.58-1.1,1.33-3.01,2.68-6.01,3.95-9.04.44-1.05,1.07-1.55,2.21-1.55,7.4.02,14.8,0,22.2.02,2.08,0,2.66,1.11,1.65,3.08-5.69,11.16-11.38,22.31-17.07,33.46-.21.41-.4.83-.64,1.32.51.17.95.29,1.38.47,3.26,1.31,5.24,3.69,5.57,7.2.21,2.25.14,4.53.11,6.8-.01.87.28,1.38,1,1.87,9.2,6.25,14.9,14.82,16.77,25.81,3.18,18.67-8.95,37.49-27.34,42.54-21.17,5.82-42.49-6.92-47.4-28.32-3.41-14.9,2.99-31.06,15.72-39.52,1.09-.72,1.56-1.46,1.48-2.78-.11-1.92-.09-3.86.04-5.77.26-3.9,2.56-6.69,6.3-7.86.2-.06.39-.14.74-.27Zm12.85,13.41c-18.95-.02-34.39,15.38-34.42,34.33-.04,18.92,15.39,34.4,34.33,34.45,18.9.05,34.39-15.42,34.42-34.35.03-18.94-15.39-34.41-34.33-34.43Zm25.99-47.74c-5.89,0-11.54.03-17.18-.03-1.01,0-1.49.29-1.89,1.22-4.47,10.54-8.99,21.06-13.49,31.59-.17.41-.32.83-.54,1.41h1.49c4.32,0,8.64-.03,12.96.02.95.01,1.43-.29,1.85-1.14,5.36-10.56,10.75-21.09,16.13-31.64.21-.41.38-.83.67-1.45Zm-52.15,0c5.44,10.63,10.74,20.98,16.08,31.42.17-.21.23-.26.26-.33,2.49-5.85,4.98-11.7,7.44-17.56.15-.37.09-.92-.07-1.31-1.55-3.75-3.16-7.46-4.68-11.22-.34-.84-.79-1.03-1.62-1.02-3.97.04-7.95.02-11.92.02-1.74,0-3.48,0-5.49,0Zm9.96,47.91c5.28-2.33,10.6-3.55,16.19-3.54,5.58,0,10.89,1.24,16.1,3.52,0-1.87.08-3.54-.02-5.2-.16-2.64-2.24-4.68-4.88-4.7-7.49-.05-14.98-.05-22.46,0-2.7.02-4.79,2.1-4.92,4.79-.08,1.62-.01,3.25-.01,5.13Z"/>
    <path class="cls-1" d="m92.8,144.87c-15.48.08-28.17-12.54-28.24-28.09-.07-15.52,12.51-28.21,28.04-28.29,15.51-.08,28.31,12.65,28.33,28.17.02,15.53-12.55,28.13-28.13,28.21Zm-1.94-52.23c-10.38-1.05-22.11,10.97-22.5,22.93-.48,14.51,10.87,26.19,24.99,25.72,14.13-.47,25.08-12.8,23.72-26.75-.69-7.08-3.82-12.89-9.44-17.28-3.78-2.96-8.09-4.62-13.03-4.97,0,2.85-.01,5.54.01,8.23,0,.32.16.66.31.96,1.19,2.37,2.37,4.74,3.64,7.06.24.43.84.84,1.34.92,2.69.48,5.4.88,8.11,1.28.92.14,1.83.32,2.15,1.33.33,1.06-.3,1.77-1.01,2.46-2,1.93-4.02,3.85-5.96,5.84-.34.34-.54,1.04-.46,1.52.47,2.87,1.03,5.72,1.57,8.58.16.88.22,1.74-.64,2.31-.82.54-1.65.51-2.53.03-2.44-1.32-4.9-2.61-7.4-3.83-.44-.21-1.16-.21-1.59,0-2.49,1.22-4.94,2.53-7.4,3.83-.87.46-1.71.55-2.53-.03-.83-.58-.82-1.41-.65-2.31.5-2.78,1.01-5.55,1.41-8.34.07-.52-.19-1.25-.55-1.63-1.97-2.02-4.01-3.98-6.06-5.92-.68-.64-1.11-1.29-.84-2.25.28-1,1.1-1.21,1.98-1.34,2.66-.41,5.32-.83,7.98-1.22.79-.12,1.41-.31,1.77-1.18.58-1.42,1.33-2.77,1.99-4.16.55-1.15,1.46-2.29,1.56-3.48.23-2.75.07-5.54.07-8.29Zm1.88,13.16c-1.04,2.08-1.96,3.89-2.86,5.72-.47.95-1.15,1.52-2.26,1.64-2.06.23-4.12.57-6.42.89.45.47.72.78,1.01,1.06,1.2,1.16,2.39,2.33,3.6,3.48.74.7,1.05,1.45.84,2.52-.41,2.06-.67,4.15-1.02,6.44,2.1-1.08,3.98-2,5.81-3,.84-.47,1.56-.46,2.4,0,1.87,1.02,3.78,1.96,5.82,3.01-.3-1.94-.48-3.73-.89-5.46-.37-1.61.02-2.76,1.23-3.88,1.4-1.28,2.6-2.78,3.91-4.21-2.03-.28-4.17-.62-6.32-.86-.91-.1-1.46-.49-1.85-1.32-.91-1.93-1.9-3.82-3.01-6.02Z"/>
  </g>
</svg>