<?xml version="1.0" encoding="UTF-8"?>
<svg id="Camada_1" data-name="Camada 1" xmlns="http://www.w3.org/2000/svg" viewBox="0 0 987.09 516.72">
  <defs>
    <style>
      .cls-1, .cls-2 {
        stroke-width: 0px;
      }

      .cls-2 {
        fill: #c75c02;
      }

      .cls-3 {
        fill: none;
        stroke: #c75c02;
        stroke-miterlimit: 10;
        stroke-width: 5px;
      }
    </style>
  </defs>
  <g>
    <path class="cls-1" d="m267.65,101.52c-.06-.02-.13-.05-.22-.07-10.55-3.01-20.98-5.25-31.01-6.66-10.51-1.48-20.83-2.23-30.7-2.23-3.68,0-7.38.1-11,.31-6.99.4-12.81.76-18.71,1.52-26.03,3.35-48.43,9.6-68.47,19.11-2.16,1.03-4.26,2.07-6.32,3.13l1.32,185.17c.02,1.86,1.04,3.57,2.69,4.45l15.9,8.55c.76.4,1.6.61,2.45.6l128.33-.85c1.89,0,3.63-1.08,4.5-2.77l8.87-17.26c.4-.77.59-1.63.56-2.49l-1.29-41.17c-.08-2.61-2.12-4.74-4.73-4.92l-45.47-3.18c-2.64-.18-4.99,1.68-5.39,4.3l-3.56,22.8c-.41,2.63-2.77,4.5-5.42,4.3l-29.81-2.24c-2.63-.2-4.67-2.36-4.72-4.99l-2.46-135.9c-.06-2.94,2.38-5.31,5.31-5.19l31.59,1.36c2.44.1,4.46,1.92,4.82,4.33l3.73,24.76c.37,2.49,2.51,4.34,5.04,4.34h46.45c2.69,0,4.91-2.09,5.08-4.77l.11-1.67c-.89-.08-1.83-.26-2.86-.56-1.44-.4-3.14-.93-4.83-1.71-2.91-1.33-4.84-3.74-5.3-6.6-.47-2.9.63-5.84,3.01-8.08,5.29-4.94,9.01-11.42,12.05-21.01.17-.52.33-1.05.49-1.59l.71-10.92c-.36-.72-.61-1.47-.74-2.2Z"/>
    <path class="cls-1" d="m442.34,309.7l-5.54-45.76c-.31-2.54-2.45-4.46-5.01-4.49l-71.32-.77c-2.83-.04-5.09-2.36-5.04-5.19l3.05-165.66c.05-2.73-2.06-5.02-4.78-5.18l-52.74-3.21c-2.91-.17-5.38,2.13-5.41,5.04l-.11,12.18c1.73.48,3.36.95,4.84,1.39,1.82.54,3.5.81,5,.81,3.77,0,6.81-1.69,9.85-5.46.33-.41.64-.82.95-1.24.36-.47.71-.95,1.08-1.41,1.91-2.4,4.47-3.72,7.19-3.72,3.47,0,6.48,2.12,8.05,5.68.65,1.48,1.09,2.95,1.46,4.22.56,1.97.96,5.85-2.75,9.7-6.96,7.27-15.09,10.95-24.14,10.95-2.07,0-4.2-.2-6.33-.59-1.86-.33-3.63-.82-5.36-1.38l-.03,3.87c1.7,5.76,4.22,10.65,7.62,14.81,1.1,1.35,2.65,2.6,4.3,3.92.75.6,1.52,1.22,2.29,1.88,3.81,2.45,5.69,5.34,5.6,8.59-.1,3.26-2.18,6.06-6.19,8.31-.62.34-1.21.64-1.79.93l-.13.07c-1.56.78-3.13,1.18-4.69,1.18-1.72,0-4.3-.5-6.8-2.88-.18-.17-.35-.34-.53-.52l-1.34,154.5c-.03,2.83,2.26,5.14,5.09,5.14h138.6c3.05,0,5.42-2.67,5.06-5.71Z"/>
    <path class="cls-1" d="m583.14,81.11l43.49-1.26c2.9-.08,5.28,2.26,5.24,5.16l-2.85,206.81c-.01.8-.21,1.58-.58,2.28l-8.91,17.1c-.87,1.67-2.6,2.73-4.48,2.74l-125.91.85c-.9,0-1.79-.23-2.58-.68l-15.72-9.05c-1.55-.9-2.52-2.54-2.55-4.34l-3.4-216.75c-.04-2.85,2.25-5.18,5.1-5.18h43.45c1.28,0,2.51.48,3.45,1.35l8.12,7.48c1.02.94,1.61,2.26,1.64,3.64l3.39,162.96c.05,2.64,2.11,4.8,4.75,4.98l28.51,1.96c2.92.2,5.41-2.1,5.44-5.03l1.69-161.8c.01-1.29.51-2.52,1.4-3.45l7.77-8.2c.93-.98,2.2-1.55,3.55-1.59Z"/>
    <path class="cls-1" d="m807.96,201.81l10.91,11.75c.9.97,1.38,2.24,1.36,3.56l-1.39,76.14c-.03,1.54-.75,2.98-1.97,3.93l-17.94,13.95c-.86.67-1.91,1.04-3,1.07l-134.01,3.36c-2.88.07-5.25-2.26-5.22-5.14l1.97-224.24c.03-2.9,2.46-5.19,5.35-5.04l126.26,6.38c1.47.07,2.84.78,3.75,1.95l14.63,18.66c.65.84,1.03,1.85,1.08,2.92l3.37,75.32c.06,1.23-.34,2.45-1.11,3.41l-4.3,5.37c-1.58,1.97-1.47,4.8.24,6.65Zm-51.5-32.01l-1.35-33.24c-.1-2.43-1.9-4.45-4.31-4.83l-29.59-4.6c-3.13-.49-5.94,1.97-5.88,5.14l.67,33.45c.05,2.49,1.9,4.58,4.36,4.94l30.26,4.39c3.16.46,5.95-2.06,5.82-5.25Zm2.23,49.24l-36.11-5.94c-3.09-.51-5.91,1.87-5.92,5l-.23,43.65c-.02,3.14,2.79,5.55,5.89,5.06l34.72-5.48c2.38-.38,4.17-2.37,4.29-4.78l1.62-32.23c.13-2.59-1.7-4.86-4.26-5.28Z"/>
    <path class="cls-1" d="m984.45,266.38l2.63,42.74c.18,2.93-2.15,5.41-5.09,5.41h-131.91c-2.81,0-5.1-2.28-5.1-5.1V84.38c0-2.88,2.38-5.19,5.26-5.09l127.36,4.08c2.81.09,5.02,2.45,4.93,5.26l-1.44,43.77c-.09,2.77-2.38,4.96-5.15,4.93l-65.48-.76c-2.84-.03-5.16,2.26-5.16,5.1v19.47c0,2.7,2.1,4.92,4.79,5.09l39.27,2.37c2.69.16,4.79,2.39,4.79,5.09v40.99c0,2.93-2.47,5.26-5.4,5.09l-38.38-2.3c-2.91-.17-5.38,2.13-5.4,5.05l-.22,30.09c-.02,2.72,2.1,4.97,4.81,5.13l70.08,3.89c2.58.14,4.65,2.2,4.8,4.78Z"/>
  </g>
  <g>
    <path class="cls-3" d="m402.05,359.23l.21,98.45c0,.73-.26,1.44-.74,2l-7.38,8.61c-.56.65-1.37,1.04-2.22,1.07l-62.21,2.01c-1.59.05-2.88,1.32-2.96,2.91l-1.66,33.91c-.07,1.53-1.27,2.77-2.8,2.9l-37.48,3.14c-1.78.15-3.31-1.26-3.31-3.05v-164.73c0-1.76,1.48-3.15,3.23-3.05l107.8,6.17c.75.04,1.46.36,1.99.89l6.63,6.63c.57.57.89,1.35.9,2.16Zm-47.52,23.94l-22.2-2.19c-1.77-.17-3.32,1.2-3.36,2.98l-.93,45.58c-.04,1.8,1.48,3.24,3.28,3.11l22.95-1.69c1.59-.12,2.83-1.44,2.83-3.04l.19-41.71c0-1.58-1.19-2.9-2.76-3.06Z"/>
    <path class="cls-3" d="m524.41,476.04l4.19,34.59c.22,1.82-1.2,3.43-3.04,3.43h-102.23c-1.7,0-3.07-1.39-3.06-3.08l1.44-165.63c.02-1.75,1.5-3.13,3.24-3.03l39.68,2.41c1.64.1,2.9,1.47,2.87,3.11l-2.24,121.81c-.03,1.7,1.33,3.1,3.02,3.11l53.12.58c1.53.02,2.82,1.17,3,2.69Z"/>
    <path class="cls-3" d="m630.7,343.59l32.59-.94c1.74-.05,3.17,1.36,3.15,3.1l-2.09,151.31c0,.48-.13.95-.35,1.37l-6.74,12.93c-.52,1-1.56,1.64-2.69,1.64l-92.18.62c-.54,0-1.08-.14-1.55-.41l-11.91-6.86c-.93-.54-1.51-1.53-1.53-2.6l-2.49-158.74c-.03-1.71,1.35-3.11,3.06-3.11h32.53c.77,0,1.51.29,2.07.81l6.3,5.8c.61.56.97,1.35.99,2.19l2.48,119.44c.03,1.58,1.27,2.88,2.85,2.99l22.03,1.51c1.75.12,3.25-1.26,3.27-3.02l1.24-118.67c0-.77.31-1.51.84-2.07l6.01-6.35c.56-.59,1.32-.93,2.13-.95Z"/>
    <path class="cls-3" d="m793.76,416.52l9.44,20.23c.2.43.3.89.29,1.37l-1.45,61.54c-.02.85-.39,1.65-1.03,2.21l-11.64,10.34c-.55.49-1.27.77-2,.77l-94.97.83c-1.18.01-2.27-.66-2.78-1.73l-6.92-14.39c-.24-.5-.34-1.07-.29-1.62l3.71-37.91c.15-1.57,1.48-2.77,3.06-2.76l31.44.18c1.5,0,2.77,1.1,3,2.58l2.18,13.85c.24,1.51,1.55,2.61,3.08,2.58l27.21-.53c1.62-.03,2.93-1.32,3-2.94l.84-21.26c.06-1.6-1.12-2.98-2.71-3.16l-62.17-7.04c-.75-.09-1.45-.45-1.95-1.02l-8.07-9.15c-.5-.57-.78-1.31-.76-2.07l1.04-69.47c.01-.7.26-1.37.7-1.91l6.81-8.2c.55-.66,1.34-1.06,2.2-1.1l76.73-3.97c.34-.02.68.02,1,.11l25.02,7.18c1.26.36,2.15,1.48,2.21,2.79l1.75,36.79c.04.94-.34,1.84-1.05,2.46l-6,5.19c-.52.45-1.17.71-1.85.74l-26.55,1.33c-1.4.07-2.66-.82-3.07-2.15l-3.93-12.72c-.42-1.37-1.74-2.26-3.17-2.15l-23.48,1.94c-1.48.12-2.65,1.28-2.79,2.76l-1.82,19.01c-.16,1.69,1.08,3.19,2.77,3.34l60.48,5.35c1.09.1,2.04.76,2.5,1.75Z"/>
  </g>
  <g>
    <path class="cls-2" d="m281.21,112.64c-.17.61-.36,1.21-.5,1.83-2.51,10.54-6.12,20.72-9.98,30.82-1.42,3.71-3.32,4.62-7.11,3.54-1.39-.39-2.79-.84-4.1-1.44-2.93-1.35-3.31-4.28-.96-6.49,6.8-6.36,10.63-14.44,13.39-23.16,1.09-3.45,2.04-6.95,3.12-10.4.54-1.74.34-3.14-1.11-4.36-.62-.52-1.27-1.58-1.39-2.39-.33-2.24-1.66-3.35-3.76-3.95-10.41-2.97-20.96-5.29-31.69-6.8-14.16-2-28.39-2.77-42.67-1.96-6.37.36-12.75.74-19.07,1.55-24.26,3.12-47.78,9.02-69.97,19.55-16.47,7.81-31.77,17.41-44.74,30.38-2.79,2.79-5.42,5.76-7.87,8.84-.86,1.08-1.14,2.72-1.38,4.16-.23,1.37,0,2.8-.07,4.2-.09,1.91-.81,3.58-2.23,4.89-.94.86-1.01,1.67-.16,2.65,6.77,7.77,8.93,17.07,8.95,27.08,0,1.62-.14,3.24-.06,4.86.2,4.08-5.14,8.04-9.69,7.12-2.11-.43-3.31-2.52-2.59-4.56.45-1.28,1.01-2.52,1.54-3.77,4.32-10.14,2.48-19.42-3.94-28.05-.15-.2-.38-.34-.72-.64-.37,2.9-.61,5.64-1.07,8.34-1.7,9.89-4.42,19.47-8.58,28.63-.31.69-.69,1.35-1.07,2-2.45,4.22-5.92,4.43-10.01,2.28-1.32-.7-1.69-1.95-.84-3.16,7.92-11.29,11.07-24.41,14.45-37.44.22-.87.46-1.73.69-2.59-.14-.09-.27-.19-.41-.28-.98,1.01-2.11,1.91-2.92,3.04-3.07,4.32-6.03,8.72-9.03,13.09-3.77,5.51-8.47,9.82-15.06,11.68-.99.28-2.03.43-3.05.54-2.01.21-3.88-1.1-4.37-3.06-.52-2.07-.86-4.19-1.13-6.3-.21-1.66.57-2.57,2.21-2.8,1.44-.21,2.91-.39,4.36-.37,4.53.07,8.21-1.62,11.09-5.08,3.22-3.87,6.3-7.86,9.68-11.58,1.68-1.85,3.81-3.31,5.87-4.77.95-.67,1.47-1.8,1.33-2.95-.4-3.4.84-5.99,3.94-7.68,1.18-.64,1.27-1.76,1.31-2.93.34-10.74.52-21.49,2.3-32.12,4.04-24.14,12.29-46.59,27.16-66.27,11.71-15.5,25.92-28.12,43.6-36.51,9.83-4.67,20.22-7.6,31.07-8.96,18.64-2.35,37.66.09,55.1,7.09,13.95,5.6,26.48,13.63,37.92,23.43,13.7,11.73,24.75,25.65,33.63,41.3,2.48,4.36,4.69,8.88,6.96,13.36,1.03,2.03,2.37,3.48,4.69,4.09,2.69.71,4.37,3.35,4.57,6.61.17,2.76.28,2.83,3.01,3.55,3.03.8,6.04,1.66,9.04,2.55,8.33,2.45,14.68.48,20.16-6.31.7-.87,1.34-1.79,2.04-2.67,2.21-2.77,5.33-2.38,6.76.86.51,1.15.88,2.37,1.23,3.58.55,1.91-.24,3.5-1.54,4.86-7.13,7.43-15.76,10.76-25.98,8.9-3.78-.69-7.43-2.19-11.09-3.47-1.83-.64-2.44-.42-2.2,1.45,1.26,10.04,4.28,19.45,10.75,27.39,2.08,2.55,4.95,4.46,7.46,6.66.08.07.18.12.27.17,4.54,2.9,4.44,5.68-.31,8.34-.57.32-1.15.61-1.73.9-2.13,1.07-4.03.81-5.79-.86-6.34-6.04-11.28-13.04-13.66-21.5-1.4-4.97-1.98-10.16-2.92-15.26-.2-1.09-.39-2.18-.58-3.27-.18,0-.36,0-.53,0Zm-8.82-20.42c-.31-.83-.44-1.23-.61-1.62-3.8-8.75-8.61-16.94-13.94-24.82-15.56-23.04-35.71-40.58-61.61-51.16-11.98-4.9-24.44-7.6-37.41-7.68-10.3-.06-20.35,1.53-30.18,4.62-14.19,4.45-26.91,11.52-37.91,21.53-15.78,14.35-26.69,31.97-34.15,51.81-6.35,16.89-9.16,34.49-9.94,52.45-.08,1.71-.05,3.43-.04,5.14l1.09.45c.5-.51,1.01-1.02,1.47-1.56,9.55-11.23,20.74-20.54,33.34-28.1,29.34-17.6,61.19-27.61,95.16-31.12,11.69-1.21,23.39-1.65,35.13-1.29,19.57.6,38.68,3.68,57.1,10.51.7.26,1.41.49,2.5.86Z"/>
    <path class="cls-2" d="m37.63,81.22c-1.13-2.67-.72-5.38-.11-8.08,1.65-7.25,4.81-13.86,8.5-20.25,6.8-11.82,14.85-22.71,24.59-32.27,1.93-1.9,4.42-3.24,6.67-4.81.37-.26.85-.37,1.54-.23-1,1.15-1.98,2.31-2.99,3.44-10.45,11.67-19.07,24.6-26.36,38.42-2.49,4.71-4.3,9.78-6.54,14.63-1.47,3.17-3.15,6.24-4.74,9.35-.19-.06-.37-.13-.56-.19Z"/>
    <path class="cls-2" d="m928.56,324.9c1.79-.65,3.53-1.64,5.37-1.9,14.17-1.98,28.24-1.3,42.16,2.02,2.61.62,5.13,1.61,7.65,2.55.54.2.9.91,1.34,1.39-.64.12-1.32.44-1.91.31-10.56-2.27-21.27-3.25-32.05-3.34-5.4-.04-10.79.38-16.19.43-2.08.02-4.16-.41-6.24-.63-.05-.28-.09-.55-.14-.83Z"/>
    <path class="cls-2" d="m34.25,97.18c-.18,1.76-.23,3.56-.59,5.28-.14.67-.97,1.2-1.49,1.8-.37-.68-1.12-1.41-1.04-2.03.25-2.01.75-3.99,1.29-5.95.12-.44.8-.73,1.22-1.09.14.5.3.99.42,1.49.04.15.01.32.02.48.06,0,.11.01.17.02Z"/>
    <path class="cls-2" d="m921.52,328.38c-.43.01-.93.17-1.26,0-.5-.27-1.11-.71-1.23-1.19-.08-.34.47-1.07.9-1.26.66-.28,1.51-.45,2.18-.28.6.15,1.07.82,1.6,1.26-.47.44-.91.91-1.42,1.3-.18.14-.52.08-.78.12,0,.02,0,.03,0,.05Z"/>
    <path class="cls-2" d="m133.82,67.9c.21-2.98.49-7.6.86-12.22.2-2.46-.26-3.22-2.63-3.84-2.67-.7-5.35-1.35-7.99-2.15-1.42-.43-3.13-.89-3.24-2.73-.11-1.87,1.54-2.54,2.95-3.01,2.82-.94,5.69-1.71,8.56-2.47,3.95-1.06,4.54-1.8,5.23-5.74.4-2.27,1.05-4.53,1.82-6.71.86-2.44,2.6-2.85,4.48-1.06,1.8,1.71,3.45,3.58,5.07,5.46,1.34,1.55,2.79,2.14,4.87,1.53,3.05-.9,6.18-1.55,9.27-2.3.42-.1.85-.14,1.29-.18,1.34-.11,2.58-.06,3.35,1.35.71,1.3.1,2.32-.59,3.29-1.63,2.29-3.29,4.57-5.01,6.79-1.77,2.29-1.89,3.3-.1,5.61,2.57,3.31,4.78,6.81,6.06,10.83.53,1.66,1.03,3.41-.47,4.86-1.53,1.47-3.41,1.41-5.15.58-3.22-1.53-6.36-3.23-9.53-4.89-1.95-1.02-2.45-.95-3.82.83-1.92,2.48-3.78,5.02-5.74,7.46-.91,1.13-1.89,2.26-3.03,3.13-3.18,2.45-5.86,1.24-6.53-4.42Z"/>
    <path class="cls-2" d="m223.96,43.46c7.67-1.54,16.03,3.3,17.39,13.35,1.31,9.66-6.05,16.72-12.96,17.87-8.33,1.39-16.41-4.37-17.83-13.57-1.37-8.87,4.45-16.4,13.39-17.66Zm12.44,13.47c-.46-1.31-.79-2.69-1.41-3.92-2.7-5.38-8.97-7.63-13.63-4.98-5.64,3.22-7.72,10.69-4.56,16.36,2.32,4.17,7.28,6.29,11.59,4.97,5.56-1.71,8.53-6.42,8.01-12.43Z"/>
    <path class="cls-2" d="m66.17,86.55c-1.25-7.14,4.91-15,11.82-16.17,7.39-1.25,14.99,3.69,16.67,11.13,1.45,6.4.09,12.13-5.12,16.33-7.47,6.02-17.9,2.96-21.79-6.23-.69-1.62-1.06-3.38-1.57-5.07Zm24.89-2c-.04-.32-.08-.64-.12-.97-.85-6.34-7.26-10.45-13.31-8.44-4.74,1.57-6.94,5.17-7.62,9.93-1.25,8.78,8.04,14.06,14.32,11.39,4.56-1.94,7.37-6.67,6.73-11.91Z"/>
    <path class="cls-2" d="m202.26,27.86c.48-1.79.81-3.3,1.32-4.76.12-.35.8-.67,1.24-.69.23,0,.68.67.69,1.05.06,1.44.03,2.9-.08,4.34-.07.88-.41,1.91-1.51,1.64-.64-.16-1.1-1.02-1.66-1.59Z"/>
    <path class="cls-2" d="m92.25,55.67c.06-.14.12-.67.39-.82.3-.17.95-.16,1.18.05,1.14,1.11,2.29,2.24,3.22,3.52.26.36,0,1.4-.37,1.82-.24.27-1.23.17-1.69-.1-1.57-.92-2.37-2.42-2.73-4.47Z"/>
    <path class="cls-2" d="m107.66,76.13c1.86-.23,4.4,2.59,4.02,4.11-.28,1.12-.99,1.49-2.07,1.09-1.45-.52-2.83-2.81-2.55-4.32.07-.38.47-.7.6-.88Z"/>
    <path class="cls-2" d="m102.89,71.19c-1.08-1.07-1.95-1.63-2.36-2.43-.48-.92-.57-2.05-.73-3.11,0-.05,1.15-.49,1.3-.33,1.04,1.15,2.04,2.37,2.85,3.69.17.28-.51,1.09-1.06,2.17Z"/>
    <path class="cls-2" d="m203.43,35.78c-.04,1.42.08,2.48-.17,3.45-.15.59-.86,1.03-1.32,1.54-.45-.58-1.18-1.12-1.28-1.75-.15-.92,0-1.97.31-2.86.24-.71.9-1.28,1.38-1.92.41.59.82,1.18,1.08,1.54Z"/>
    <path class="cls-2" d="m200.05,58.94c-.4,1-.7,2.04-1.25,2.92-.16.26-1.48.19-1.52.06-.3-1.03-.43-2.12-.57-3.19-.03-.25.03-.63.2-.75.56-.43,1.35-1.21,1.74-1.05.55.21.83,1.14,1.39,2.02Z"/>
    <path class="cls-2" d="m90.86,50.04c.05.82-.32,1.34-1.44,1.09-1.37-.3-3.22-2.71-3.06-4.17.03-.29.7-.75,1.02-.72,1.16.13,3.3,2.47,3.48,3.8Z"/>
    <path class="cls-2" d="m201.65,47.58c-.01.49.16,1.12-.08,1.43-.41.53-1.05,1.11-1.65,1.18-.37.04-.92-.77-1.24-1.3-.17-.27-.04-.74-.02-1.12.07-1.16.4-2.36,1.74-2.25.55.04,1,1.21,1.5,1.86-.08.07-.17.13-.25.2Z"/>
    <path class="cls-2" d="m197.57,69.05c.22,2.09-.5,3.45-1.55,3.57-.99.11-1.53-.37-1.62-1.36-.14-1.57.64-3.08,1.73-3.01.6.04,1.17.63,1.45.8Z"/>
    <path class="cls-2" d="m112.87,86.7c.17-.2.5-.98,1.02-1.14,1.04-.32,2.26.97,2.39,2.31.09.86-.15,1.49-1.13,1.61-1.17.14-2.06-.74-2.27-2.78Z"/>
    <path class="cls-2" d="m220.42,56.09c2.38-.25,4.03-1.28,4.39-3.97,1.43,2.49,3.47,1.8,5.36,1.41.07.26.15.41.11.46-1.43,1.66-1.45,3.3-.02,4.99.22.26.15.78.21,1.18-.45.02-.9.1-1.34.04-.31-.04-.62-.22-.88-.4-1.06-.77-1.79-.48-2.56.53-.5.65-1.33,1.05-2.02,1.56-.1-.82-.34-1.65-.26-2.45.14-1.37-.26-2.18-1.69-2.4-.4-.06-.77-.3-1.15-.46-.05-.16-.1-.33-.16-.49Z"/>
    <path class="cls-2" d="m75.23,84.91c2.36-.26,4.08-1.2,4.33-3.98,1.5,2.25,3.48,1.81,5.36,1.37.11.25.21.39.18.43-1.32,1.68-1.44,3.31.02,5.01.22.26.02.88.01,1.34-.41-.03-.92.09-1.2-.12-1.79-1.34-3-.74-4.03,1.01-.23.39-.85.54-1.29.8-.14-.48-.29-.96-.41-1.45-.05-.21-.09-.45-.03-.64.52-1.85-.31-2.74-2.08-2.99-.24-.04-.46-.23-.69-.35-.06-.14-.11-.29-.17-.43Z"/>
  </g>
</svg>