<?xml version="1.0" encoding="UTF-8"?>
<svg id="Camada_1" data-name="Camada 1" xmlns="http://www.w3.org/2000/svg" viewBox="0 0 907.2 438.17">
  <defs>
    <style>
      .cls-1 {
        fill: none;
        stroke: #ffc91f;
        stroke-width: 12px;
      }

      .cls-1, .cls-2 {
        stroke-linecap: round;
        stroke-linejoin: round;
      }

      .cls-2 {
        fill: #ffde25;
        stroke: #ffde25;
        stroke-width: 3px;
      }

      .cls-3 {
        fill: #12408f;
        stroke-width: 0px;
      }
    </style>
  </defs>
  <g>
    <path class="cls-3" d="m402.23,21.85c0,2.25-.8,4.45-2.41,6.59-1.71,2.25-3.91,3.37-6.59,3.37-1.82,0-3.64-.48-5.46-1.45-5.25-2.46-10.93-3.7-17.03-3.7-7.5,0-14.03,1.58-19.6,4.74-5.57,3.16-9.86,7.61-12.85,13.34-3,5.73-4.5,12.29-4.5,19.68,0,12.64,3.4,22.23,10.2,28.76,6.8,6.53,15.72,9.8,26.75,9.8,6.53,0,12.21-1.23,17.03-3.7,1.93-.86,3.64-1.29,5.14-1.29,2.78,0,5.14,1.18,7.07,3.53,1.61,2.04,2.41,4.23,2.41,6.59,0,1.71-.43,3.27-1.29,4.66-.86,1.39-2.09,2.46-3.7,3.21-8.35,4.18-17.25,6.27-26.67,6.27-10.5,0-20.14-2.22-28.92-6.67-8.78-4.44-15.8-11.01-21.05-19.68-5.25-8.68-7.87-19.17-7.87-31.49,0-10.93,2.49-20.73,7.47-29.4,4.98-8.68,11.86-15.45,20.65-20.32,8.78-4.87,18.69-7.31,29.72-7.31,9.53,0,18.37,2.09,26.51,6.27,3.32,1.71,4.98,4.45,4.98,8.19Z"/>
    <path class="cls-3" d="m494.45,100.82c-3.86,6.8-9.13,12.08-15.83,15.83-6.7,3.75-14.06,5.62-22.09,5.62s-15.53-1.87-22.17-5.62c-6.64-3.75-11.89-9.02-15.75-15.83-3.86-6.8-5.78-14.49-5.78-23.06s1.93-16.25,5.78-23.06c3.86-6.8,9.1-12.1,15.75-15.91,6.64-3.8,14.03-5.7,22.17-5.7s15.4,1.9,22.09,5.7c6.69,3.8,11.97,9.11,15.83,15.91,3.86,6.8,5.78,14.49,5.78,23.06s-1.93,16.26-5.78,23.06Zm-16.79-37.11c-2.2-4.12-5.14-7.31-8.84-9.56-3.7-2.25-7.79-3.37-12.29-3.37s-8.6,1.12-12.29,3.37c-3.7,2.25-6.64,5.44-8.84,9.56-2.2,4.12-3.29,8.81-3.29,14.06s1.1,9.91,3.29,13.98c2.19,4.07,5.14,7.23,8.84,9.48,3.7,2.25,7.79,3.37,12.29,3.37s8.6-1.12,12.29-3.37c3.7-2.25,6.64-5.41,8.84-9.48,2.19-4.07,3.29-8.73,3.29-13.98s-1.1-9.93-3.29-14.06Z"/>
    <path class="cls-3" d="m569.08,35.83c2.19,1.82,3.29,3.96,3.29,6.43,0,3.32-.86,5.81-2.57,7.47-1.71,1.66-3.75,2.49-6.1,2.49-1.61,0-3.43-.37-5.46-1.12-.32-.1-1.04-.32-2.17-.64-1.12-.32-2.33-.48-3.62-.48-2.79,0-5.46.86-8.03,2.57-2.57,1.71-4.69,4.31-6.35,7.79-1.66,3.48-2.49,7.63-2.49,12.45v38.08c0,2.79-.91,5.12-2.73,6.99-1.82,1.88-4.12,2.81-6.91,2.81s-5.09-.94-6.91-2.81c-1.82-1.87-2.73-4.2-2.73-6.99V44.51c0-2.78.91-5.11,2.73-6.99,1.82-1.87,4.12-2.81,6.91-2.81s5.09.94,6.91,2.81c1.82,1.88,2.73,4.21,2.73,6.99v2.09c2.46-4.39,6-7.74,10.6-10.04,4.6-2.3,9.53-3.45,14.78-3.45,3.21,0,5.92.91,8.11,2.73Z"/>
    <path class="cls-3" d="m656.72,37.52c1.82,1.88,2.73,4.21,2.73,6.99v40.81c0,11.57-3.19,20.62-9.56,27.15-6.37,6.53-15.45,9.8-27.23,9.8s-20.83-3.27-27.15-9.8c-6.32-6.53-9.48-15.58-9.48-27.15v-40.81c0-2.78.91-5.11,2.73-6.99,1.82-1.87,4.12-2.81,6.91-2.81s5.09.94,6.91,2.81c1.82,1.88,2.73,4.21,2.73,6.99v40.81c0,6.53,1.45,11.38,4.34,14.54,2.89,3.16,7.23,4.74,13.01,4.74s10.28-1.58,13.17-4.74c2.89-3.16,4.34-8.01,4.34-14.54v-40.81c0-2.78.91-5.11,2.73-6.99,1.82-1.87,4.12-2.81,6.91-2.81s5.09.94,6.91,2.81Z"/>
    <path class="cls-3" d="m669.26,149.58c-1.71-1.71-2.57-3.86-2.57-6.43v-1.77c0-4.29,2.73-7.23,8.19-8.84,3.43-1.07,5.6-2.87,6.51-5.38.91-2.52,1.37-6.02,1.37-10.52V44.51c0-2.78.91-5.11,2.73-6.99,1.82-1.87,4.12-2.81,6.91-2.81s5.09.94,6.91,2.81c1.82,1.88,2.73,4.21,2.73,6.99v77.76c0,6-1.15,11.25-3.46,15.75-2.3,4.5-5.46,7.98-9.48,10.44-4.02,2.46-8.49,3.7-13.42,3.7-2.57,0-4.71-.86-6.43-2.57Z"/>
    <path class="cls-3" d="m801,35.83c1.82,1.82,2.73,4.18,2.73,7.07v67.96c0,2.79-.91,5.12-2.73,6.99-1.82,1.88-4.12,2.81-6.91,2.81s-5.06-.91-6.83-2.73c-1.77-1.82-2.71-4.12-2.81-6.91-2.68,3.11-6.29,5.76-10.84,7.95-4.55,2.19-9.35,3.29-14.38,3.29-7.39,0-14.09-1.9-20.08-5.7-6-3.8-10.74-9.08-14.22-15.83-3.48-6.75-5.22-14.4-5.22-22.98s1.71-16.25,5.14-23.06c3.43-6.8,8.11-12.1,14.06-15.91,5.94-3.8,12.5-5.7,19.68-5.7,5.14,0,9.96.94,14.46,2.81,4.5,1.88,8.3,4.26,11.41,7.15v-.16c0-2.78.91-5.11,2.73-6.99,1.82-1.87,4.12-2.81,6.91-2.81s5.09.91,6.91,2.73Zm-66.19-12.93c-1.71-1.98-2.57-4.63-2.57-7.95,0-3.75,1.71-7.04,5.14-9.88,3.43-2.84,8.3-4.26,14.62-4.26,2.78,0,5.33.56,7.63,1.69,2.3,1.12,4.95,2.71,7.95,4.74,1.82,1.39,3.35,2.41,4.58,3.05,1.23.64,2.38.96,3.46.96,1.18,0,2.09-.32,2.73-.96.64-.64.8-1.45.48-2.41-.22-.53-.32-1.29-.32-2.25,0-1.71.56-3.08,1.69-4.1,1.12-1.02,2.54-1.53,4.26-1.53,2.46,0,4.55.96,6.27,2.89,1.71,1.93,2.57,4.5,2.57,7.71,0,2.04-.64,4.18-1.93,6.43-1.29,2.25-3.29,4.15-6.03,5.7-2.73,1.55-6.19,2.33-10.36,2.33-2.14,0-4.39-.53-6.75-1.61-2.36-1.07-5.14-2.57-8.35-4.5-2.57-1.5-4.58-2.6-6.02-3.29-1.45-.7-2.76-1.04-3.94-1.04s-2.09.32-2.73.96-.8,1.45-.48,2.41c.21.54.32,1.29.32,2.25,0,1.71-.56,3.08-1.69,4.1-1.12,1.02-2.55,1.53-4.26,1.53-2.46,0-4.55-.99-6.27-2.97Zm43.86,74.07c4.39-5.09,6.59-11.49,6.59-19.2s-2.2-14.14-6.59-19.28c-4.39-5.14-10.07-7.71-17.03-7.71s-12.48,2.57-16.87,7.71c-4.39,5.14-6.59,11.57-6.59,19.28s2.17,14.11,6.51,19.2c4.34,5.09,9.99,7.63,16.95,7.63s12.64-2.54,17.03-7.63Z"/>
    <path class="cls-3" d="m901.42,100.82c-3.86,6.8-9.13,12.08-15.83,15.83-6.7,3.75-14.06,5.62-22.09,5.62s-15.53-1.87-22.17-5.62c-6.64-3.75-11.89-9.02-15.75-15.83-3.86-6.8-5.78-14.49-5.78-23.06s1.93-16.25,5.78-23.06c3.86-6.8,9.1-12.1,15.75-15.91,6.64-3.8,14.03-5.7,22.17-5.7s15.4,1.9,22.09,5.7c6.69,3.8,11.97,9.11,15.83,15.91,3.86,6.8,5.78,14.49,5.78,23.06s-1.93,16.26-5.78,23.06Zm-16.79-37.11c-2.2-4.12-5.14-7.31-8.84-9.56-3.7-2.25-7.79-3.37-12.29-3.37s-8.6,1.12-12.29,3.37c-3.7,2.25-6.64,5.44-8.84,9.56-2.2,4.12-3.29,8.81-3.29,14.06s1.1,9.91,3.29,13.98c2.19,4.07,5.14,7.23,8.84,9.48,3.7,2.25,7.79,3.37,12.29,3.37s8.6-1.12,12.29-3.37c3.7-2.25,6.64-5.41,8.84-9.48,2.19-4.07,3.29-8.73,3.29-13.98s-1.1-9.93-3.29-14.06Z"/>
  </g>
  <g>
    <path class="cls-3" d="m362.08,162.14c1.1,1.1,1.65,2.52,1.65,4.27v59.97c0,1.68-.55,3.09-1.65,4.22-1.1,1.13-2.49,1.7-4.17,1.7s-3.06-.55-4.12-1.65c-1.07-1.1-1.63-2.49-1.7-4.17-1.62,1.88-3.8,3.48-6.55,4.8-2.75,1.33-5.64,1.99-8.68,1.99-4.46,0-8.51-1.15-12.13-3.44-3.62-2.3-6.49-5.48-8.59-9.56-2.1-4.08-3.15-8.7-3.15-13.88s1.03-9.82,3.1-13.92c2.07-4.11,4.9-7.31,8.49-9.61,3.59-2.3,7.55-3.44,11.89-3.44,3.1,0,6.02.57,8.73,1.7,2.72,1.13,5.01,2.57,6.89,4.32v-19.02c0-1.68.55-3.09,1.65-4.22,1.1-1.13,2.49-1.7,4.17-1.7s3.07.55,4.17,1.65Zm-13.49,55.84c2.65-3.07,3.98-6.94,3.98-11.6s-1.33-8.54-3.98-11.64c-2.65-3.11-6.08-4.66-10.29-4.66s-7.54,1.55-10.19,4.66c-2.65,3.1-3.98,6.99-3.98,11.64s1.31,8.52,3.93,11.6c2.62,3.07,6.03,4.61,10.24,4.61s7.63-1.54,10.29-4.61Z"/>
    <path class="cls-3" d="m422.53,181.07c1.1,1.1,1.65,2.52,1.65,4.27v41.05c0,1.68-.55,3.09-1.65,4.22-1.1,1.13-2.49,1.7-4.17,1.7s-3.06-.55-4.12-1.65c-1.07-1.1-1.63-2.49-1.7-4.17-1.62,1.88-3.8,3.48-6.55,4.8-2.75,1.33-5.64,1.99-8.68,1.99-4.46,0-8.51-1.15-12.13-3.44-3.62-2.3-6.49-5.48-8.59-9.56-2.1-4.08-3.15-8.7-3.15-13.88s1.03-9.82,3.1-13.92c2.07-4.11,4.9-7.31,8.49-9.61,3.59-2.3,7.55-3.44,11.89-3.44,3.1,0,6.02.57,8.73,1.7,2.72,1.13,5.01,2.57,6.89,4.32v-.1c0-1.68.55-3.09,1.65-4.22,1.1-1.13,2.49-1.7,4.17-1.7s3.07.55,4.17,1.65Zm-13.49,36.92c2.65-3.07,3.98-6.94,3.98-11.6s-1.33-8.54-3.98-11.64c-2.65-3.11-6.08-4.66-10.29-4.66s-7.54,1.55-10.19,4.66c-2.65,3.1-3.98,6.99-3.98,11.64s1.31,8.52,3.93,11.6c2.62,3.07,6.03,4.61,10.24,4.61s7.63-1.54,10.29-4.61Z"/>
  </g>
  <g>
    <path class="cls-3" d="m540.69,168.61c7.75,5.14,13.98,12.05,18.7,20.72,4.71,8.68,7.08,18.16,7.08,28.43s-2.36,19.55-7.08,28.3c-4.72,8.76-10.95,15.71-18.7,20.85-7.75,5.14-15.92,7.71-24.51,7.71h-43.97v47.76c0,4.55-1.35,8.26-4.04,11.12-2.7,2.87-6.24,4.3-10.61,4.3s-7.67-1.47-10.36-4.42c-2.7-2.95-4.04-6.61-4.04-10.99v-146.07c0-4.38,1.47-8.04,4.42-10.99s6.61-4.42,10.99-4.42h57.62c8.59,0,16.76,2.57,24.51,7.71Zm-15.04,73.16c3.12-2.69,5.64-6.19,7.58-10.49,1.93-4.3,2.91-8.8,2.91-13.52s-.97-9.22-2.91-13.52c-1.94-4.3-4.47-7.75-7.58-10.36-3.12-2.61-6.28-3.92-9.48-3.92h-43.97v55.85h43.97c3.2,0,6.36-1.35,9.48-4.04Z"/>
    <path class="cls-3" d="m621.43,333.38c-2.95,2.95-6.61,4.42-10.99,4.42s-7.75-1.47-10.61-4.42c-2.87-2.95-4.3-6.61-4.3-10.99v-156.18c0-4.38,1.47-8.04,4.42-10.99,2.95-2.95,6.61-4.42,10.99-4.42s7.75,1.48,10.61,4.42c2.86,2.95,4.3,6.61,4.3,10.99v156.18c0,4.38-1.48,8.05-4.42,10.99Z"/>
    <path class="cls-3" d="m771.17,207.02c2.86,2.95,4.3,6.61,4.3,10.99v64.19c0,18.2-5.01,32.44-15.04,42.71-10.03,10.28-24.3,15.42-42.84,15.42s-32.77-5.14-42.71-15.42c-9.94-10.27-14.91-24.51-14.91-42.71v-64.19c0-4.38,1.43-8.04,4.3-10.99,2.86-2.95,6.48-4.42,10.87-4.42s8,1.48,10.87,4.42c2.86,2.95,4.3,6.61,4.3,10.99v64.19c0,10.28,2.27,17.9,6.82,22.87,4.55,4.97,11.37,7.46,20.47,7.46s16.17-2.48,20.72-7.46c4.55-4.97,6.82-12.59,6.82-22.87v-64.19c0-4.38,1.43-8.04,4.3-10.99,2.86-2.95,6.48-4.42,10.87-4.42s8,1.48,10.87,4.42Z"/>
    <path class="cls-3" d="m798.21,309.25c0-4.38,2.19-8.09,6.57-11.12,2.36-1.52,4.8-2.27,7.33-2.27,3.54,0,6.91,1.6,10.11,4.8,5.05,5.22,10.32,9.1,15.8,11.63,5.47,2.53,12.09,3.79,19.84,3.79,13.14-.5,19.71-5.47,19.71-14.91,0-4.88-2.24-8.59-6.7-11.12-4.47-2.53-11.42-5.05-20.85-7.58-9.77-2.69-17.73-5.39-23.88-8.09-6.15-2.69-11.46-6.78-15.92-12.26-4.47-5.47-6.7-12.84-6.7-22.11,0-8.09,2.31-15.12,6.95-21.1,4.63-5.98,10.7-10.61,18.2-13.9,7.49-3.29,15.46-4.93,23.88-4.93s17.18,1.6,25.78,4.8c8.59,3.2,15.33,7.92,20.22,14.15,2.19,2.7,3.29,5.73,3.29,9.1,0,3.88-1.6,7.08-4.8,9.6-2.36,1.86-5.05,2.78-8.09,2.78-3.71,0-6.74-1.18-9.1-3.54-3.03-3.7-6.95-6.65-11.75-8.84-4.8-2.19-10.24-3.29-16.3-3.29-12.81,0-19.21,4.64-19.21,13.9,0,3.71,1.18,6.7,3.54,8.97,2.36,2.27,5.35,4.04,8.97,5.31,3.62,1.26,8.72,2.82,15.29,4.67,9.1,2.53,16.68,5.14,22.75,7.83,6.07,2.7,11.2,6.82,15.42,12.38,4.21,5.56,6.32,12.89,6.32,21.99,0,8.26-2.44,15.46-7.33,21.61-4.89,6.15-11.16,10.83-18.83,14.03-7.67,3.2-15.54,4.8-23.63,4.8-11.12,0-21.48-1.86-31.08-5.56-9.6-3.7-17.44-9.69-23.5-17.94-1.52-2.02-2.27-4.55-2.27-7.58Z"/>
  </g>
  <path class="cls-1" d="m138.26,78.41c-24.46,28.82-39.42,66.19-39.94,107.1-1.19,92.37,73.85,169.71,164.79,169.77,70.36.05,130.44-44.65,154.18-107.63-13.92,118.48-125.13,206.62-250.19,179.63-69.8-15.06-140.36-85.89-155.84-156.65C-18.65,133.91,82.96,12.88,212.38,12.88c18.84,0,37.09,2.56,54.43,7.37-1.2-.03-2.39-.04-3.58-.04-37.66,0-72.37,12.82-100.13,34.4"/>
  <g>
    <path class="cls-2" d="m133.81,146.97c3.07.77,6.21,1.54,8.52,3.81,1.79,1.76,3.3,3.83,4.74,5.9.57.82,1.03,1.23,2.05,1.23,19.28-.03,38.56-.01,57.83-.06.63,0,1.57-.41,1.82-.9,2.71-5.38,6.99-8.61,12.88-9.73.21-.04.41-.16.61-.25h2.99c1.58.92,1.93,2.36,1.93,4.09-.03,19.21-.02,38.42-.02,57.64,0,2.76-.94,4.15-2.77,4.13-1.83-.02-2.72-1.37-2.72-4.18,0-10.77,0-21.54,0-32.32v-1.99c-.45,0-.66-.02-.88,0-13.71,1.26-25.05,7.1-33.62,17.9-2.56,3.22-4.38,7.03-6.47,10.61-1.03,1.76-2.71,2.52-4.06,1.46-.7-.54-1.2-1.43-1.59-2.26-5.09-10.83-13.07-18.74-23.94-23.7-5.23-2.38-10.74-3.71-16.61-4.04-.03.64-.07,1.18-.08,1.72,0,15.16-.17,30.32.08,45.48.1,6.13.59,12.34,1.76,18.35,6.75,34.85,34.66,63.03,69.42,70.24,5.17,1.07,10.47,1.52,15.99,2.3,0-2.78-.07-5.04.03-7.3.05-1.15-.37-1.61-1.42-2.01-15.77-5.92-27.22-16.56-34.1-31.95-4.14-9.27-6.05-19.03-4.52-29.2,2.77-18.38,22.84-30.27,40.36-24,12.96,4.64,20.93,15.77,21.03,29.9.13,18.38.04,36.76.03,55.14,0,2.8-.93,3.78-3.71,3.6-4.02-.25-8.02-.69-12.21-1.06,0,2.59-.04,5.35.02,8.11.04,1.68-.41,3.05-1.92,3.92h-6.32c-1.75-.21-3.49-.44-5.24-.64-18.88-2.17-35.75-9.23-50.22-21.53-22.76-19.35-34.28-44.16-34.5-74.08-.17-23.47-.03-46.95-.05-70.42,0-1.66.37-3.05,1.88-3.94h2.99Zm103.8,153.16c0-17.98.1-35.97-.07-53.95-.12-12.6-10.82-23.52-23.36-24.3-13.97-.87-25.62,8.47-27.36,22.32-.88,7.03.3,13.98,2.7,20.62,5.83,16.13,16.78,27.3,32.87,33.23,4.81,1.77,9.82,2.94,15.16,2.98.03-.35.07-.62.07-.9Zm-103.08-131.37c19.05,1.63,33.5,10.6,43.52,27.02,9.97-16.38,24.41-25.35,43.49-27.02v-15.88c-2.72.53-4.78,2.03-6.41,4.11-.71.9-1.28,1.96-1.7,3.03-1.27,3.17-1.37,3.29-4.68,3.29-20.55,0-41.1,0-61.65,0-2.96,0-3.3-.28-4.34-3.06-1.43-3.84-4.13-6.29-8.23-7.44v15.96Z"/>
    <path class="cls-2" d="m192.67,199.83c.04-6.45,5.43-11.78,11.81-11.71,6.46.08,11.78,5.45,11.7,11.83-.08,6.48-5.38,11.72-11.83,11.69-6.46-.03-11.73-5.36-11.69-11.82Zm11.66-6.24c-3.42.03-6.23,2.85-6.26,6.27-.03,3.43,2.92,6.39,6.35,6.39,3.48,0,6.3-2.88,6.28-6.4-.02-3.55-2.82-6.29-6.37-6.26Z"/>
    <path class="cls-2" d="m139.94,199.9c0-6.43,5.31-11.76,11.75-11.78,6.44-.01,11.74,5.29,11.75,11.75,0,6.48-5.26,11.76-11.73,11.77-6.44,0-11.77-5.31-11.77-11.75Zm5.47-.04c-.01,3.51,2.83,6.4,6.3,6.39,3.44,0,6.37-2.97,6.34-6.4-.03-3.43-2.84-6.23-6.27-6.26-3.55-.03-6.35,2.73-6.37,6.27Z"/>
    <path class="cls-2" d="m215.96,247.83c.15,4.15,3.88,7.68,8.11,7.67,4.27,0,8.08-3.67,8.14-7.85.02-1.55-.92-2.76-2.33-2.99-1.38-.22-2.57.69-3,2.23-.2.73-.37,1.55-.81,2.13-1.2,1.58-3.7,1.16-4.47-.69-.15-.35-.21-.75-.29-1.12-.39-1.73-1.49-2.71-2.9-2.58-1.55.15-2.51,1.4-2.45,3.19Z"/>
    <path class="cls-2" d="m210.56,264.17c.16,4.2,3.82,7.68,8.07,7.68,4.31,0,8.01-3.57,8.1-7.84.04-1.61-.84-2.76-2.28-3-1.39-.23-2.59.66-3.02,2.22-.18.63-.19,1.49-.61,1.84-.7.58-1.71,1.22-2.5,1.13-.8-.1-1.53-1.02-2.2-1.67-.23-.22-.15-.74-.24-1.12-.39-1.66-1.63-2.63-3.06-2.39-1.5.24-2.33,1.4-2.26,3.16Z"/>
  </g>
  <path class="cls-3" d="m691.67,5.57c-1.25,4.1-4.48,7.33-8.58,8.58-.57.17-.57.94,0,1.12,4.1,1.25,7.33,4.48,8.58,8.58.17.57.94.57,1.12,0,1.25-4.1,4.48-7.33,8.58-8.58.57-.17.57-.94,0-1.12-4.1-1.25-7.33-4.48-8.58-8.58-.17-.57-.94-.57-1.12,0Z"/>
</svg>