<?xml version="1.0" encoding="UTF-8"?>
<svg id="Camada_1" data-name="Camada 1" xmlns="http://www.w3.org/2000/svg" viewBox="0 0 1001.36 340.07">
  <defs>
    <style>
      .cls-1, .cls-2 {
        fill: none;
        stroke: #ff6514;
        stroke-miterlimit: 10;
        stroke-width: 12px;
      }

      .cls-3 {
        fill: #520cb4;
      }

      .cls-3, .cls-4 {
        stroke-width: 0px;
      }

      .cls-2 {
        stroke-linecap: round;
      }

      .cls-4 {
        fill: #ff6514;
      }
    </style>
  </defs>
  <g>
    <path class="cls-3" d="m0,207.61v-122.87h48.97c37.74,0,64.07,24.75,64.07,61.43s-26.33,61.43-64.07,61.43H0Zm33-30.72h14.39c19.31,0,31.77-11.93,31.77-30.72s-12.46-30.72-31.77-30.72h-14.39v61.43Z"/>
    <path class="cls-3" d="m251.26,124.14c-.82,1.1-1.85,2.07-3.07,2.85-2.01,1.3-4.27,1.92-6.49,1.92-2.64,0-5.24-.88-7.36-2.51l-.1.07c1.32,4.75-.38,9.99-4.63,12.99-2.1,1.48-4.52,2.2-6.91,2.2-2.16,0-4.3-.58-6.17-1.71,2.77,4.8,4.28,10.41,4.07,16.38-.53,15.63-13.07,28.57-28.68,29.56-17.83,1.14-32.72-13.04-32.72-30.64,0-5.45,1.43-10.57,3.94-15.01-3.87,2.06-8.74,1.91-12.57-.79-4.28-3.03-5.98-8.35-4.61-13.13l-.11-.07c-3.91,3.06-9.49,3.46-13.89.6-1.31-.85-2.4-1.92-3.26-3.12-2.38,6.89-3.65,14.43-3.65,22.45,0,37.04,27.03,63.72,64.95,63.72s64.76-26.68,64.76-63.72c0-7.87-1.22-15.27-3.51-22.04Z"/>
    <path class="cls-3" d="m371.59,84.75h26.68v122.87h-33v-35.46l.35-28.96-22.64,33h-15.62l-22.82-33.17.53,29.14v35.46h-33v-122.87h26.85l36.51,53.01,36.16-53.01Z"/>
    <path class="cls-3" d="m468.13,178.65h17.9v28.96h-68.98v-28.96h17.9v-65.47h-17.55v-28.43h68.28v28.43h-17.55v65.47Z"/>
    <path class="cls-3" d="m574.32,84.75h32.65v122.87h-25.28l-44.76-61.43.53,31.59v29.84h-32.65v-122.87h24.92l45.11,61.78-.53-27.73v-34.05Z"/>
    <path class="cls-3" d="m751.78,139.51c1.93,41.95-24.4,70.38-63.19,70.38s-63.89-26.5-63.89-63.71,26.33-63.71,63.19-63.71c31.77,0,56.17,18.43,62.31,47.04h-33.52c-5.44-10.36-14.74-15.62-27.03-15.62-18.43,0-31.24,13.16-31.24,32.47s12.29,32.3,31.77,32.3c12.11,0,21.41-4.92,26.15-15.09h-33.17v-24.05h68.63Z"/>
    <path class="cls-3" d="m826.38,84.75l44.76,119.18v3.69h-34.23l-5.79-18.96h-39.67l-6.14,18.96h-33.88v-3.69l44.58-119.18h30.37Zm-29.84-10.53h-19.31c0-17.55,7.2-26.5,20.19-26.5,6.14,0,10.36,2.11,14.22,4.39,3.16,1.75,5.97,3.51,9.3,3.51,3.86,0,5.27-2.28,5.27-7.55h19.31c0,17.55-6.67,26.68-18.96,26.68-5.79,0-10-1.76-14.04-3.86-3.86-1.93-7.2-4.04-10.36-4.04-3.86,0-5.62,2.28-5.62,7.37Zm26.85,88.29l-12.11-34.75-12.11,34.75h24.22Z"/>
    <path class="cls-3" d="m871.15,146.18c0-37.04,27.03-63.71,64.94-63.71s64.77,26.68,64.77,63.71-27.03,63.71-64.77,63.71-64.94-26.68-64.94-63.71Zm95.83,0c0-18.78-12.99-32.12-30.89-32.12s-31.07,13.34-31.07,32.12,13.16,32.12,31.07,32.12,30.89-13.34,30.89-32.12Z"/>
  </g>
  <g>
    <path class="cls-4" d="m544.1,340.07c-22.41,0-39.71-18.4-39.71-39.02,0-25.59,15.77-41.5,35.97-41.5,9.68,0,16.88,4.29,19.65,10.24v-34.31h9.41c10.51,0,16.19,5.53,16.19,18.4v44.13c0,27.53-11.21,42.06-41.5,42.06Zm-.55-60.18c-7.06,0-13,7.33-13,18.96,0,14.94,6.92,21.03,16.46,21.03,8.16,0,12.45-6.36,12.45-18.26,0-17.02-6.5-21.72-15.91-21.72Z"/>
    <path class="cls-4" d="m630.84,339.93c-14.67,0-32.51-6.92-32.51-24.21s12.17-25.46,39.84-25.46h3.74v-3.18c0-6.23-4.84-7.75-15.22-7.75-14.25,0-19.51,3.32-24.9,8.3h-.69v-9.27c0-9.41,9.82-18.82,31.54-18.82s34.73,10.65,34.73,33.07v11.76c0,27.67-8.85,35.56-36.52,35.56Zm11.62-33.34h-5.26c-9.96,0-13.97,2.49-13.97,7.61,0,4.84,3.04,7.33,10.38,7.33,4.7,0,8.85-2.35,8.85-9.27v-5.67Z"/>
    <path class="cls-4" d="m752.46,306.17c-4.7,0-8.99-.28-12.45-1.38v33.07h-11.76c-6.92,0-14.53-4.84-14.53-16.33v-76.51c7.19-1.66,19.37-4.01,28.5-4.01h10.65c19.79,0,35.14,11.07,35.14,30.99s-15.77,34.17-35.56,34.17Zm-1.94-44.41h-5.26c-1.25,0-4.01.42-5.26.69v21.31c2.91.97,6.23,1.25,9.96,1.25,8.3,0,11.76-3.87,11.76-10.79,0-9.96-4.43-12.45-11.21-12.45Z"/>
    <path class="cls-4" d="m823.3,338.96c-13.97,0-26.01-8.3-26.01-26.29v-77.2h9.27c11.48,0,17.02,5.26,17.02,18.12v55.2c0,6.78,3.74,8.85,11.07,8.85h5.81v9.13c0,9.27-8.85,12.17-17.16,12.17Z"/>
    <path class="cls-4" d="m886.11,340.07c-24.63,0-38.05-12.04-38.05-36.39v-41.92h10.24c11.48,0,16.46,3.87,16.46,15.5v27.12c0,11.21,5.26,14.67,12.45,14.67,6.23,0,11.21-3.6,11.21-15.63v-41.64h10.24c10.51,0,16.33,4.43,16.33,15.5v27.12c0,24.35-15.5,35.7-38.88,35.7Z"/>
    <path class="cls-4" d="m967.74,340.07c-20.75,0-28.22-7.61-28.22-18.68v-7.61h.69c4.98,3.74,12.59,6.64,23.38,6.64,9.55,0,12.59-2.21,12.59-5.95,0-3.46-1.8-4.84-17.57-7.06-13.7-1.94-20.89-8.16-20.89-20.34,0-18.26,17.29-27.53,34.73-27.53s27.12,6.78,27.12,18.12v7.89h-.69c-5.12-3.74-13.14-6.36-23.38-6.36s-13,2.63-13,5.81c0,2.91,1.66,3.87,17.57,6.5,12.73,2.08,21.31,8.99,21.31,21.86,0,16.33-12.73,26.7-33.62,26.7Z"/>
  </g>
  <g>
    <path class="cls-4" d="m151.88,22.64c1.68-5.31,8.26-7.42,12.71-4.07.08.06.17.13.26.2.23.17.56.01.56-.28v-.23c0-5.48,0-10.95,0-16.43,0-.05,0-.1,0-.16,0-.45.14-.89.41-1.25.14-.19.3-.34.48-.4.21-.07.47-.02.73.07.39.13.72.4.94.74h0c1.59,2.53,3.8,4.27,6.65,5.2.26.08.54.18.74.34.5.42.6.96.31,1.55-.29.59-.88.81-1.6.6-2.07-.6-3.91-1.64-5.52-3.06h0c-.22-.2-.58-.04-.58.26,0,.08,0,.15,0,.23,0,6.25.01,12.5-.02,18.75-.01,2.59-.85,4.87-2.87,6.59-2.38,2.03-5.11,2.6-8.05,1.57-2.95-1.03-4.74-3.16-5.39-6.23,0-.02,0-.03-.01-.05-.01-.06-.17-.84-.13-1.72.05-.95.3-2,.38-2.24Z"/>
    <path class="cls-4" d="m184.95,51.51c0-.27,0-.54,0-.81,0-9.53,0-19.06,0-28.59,0-3.18,1.58-5.09,4.69-5.58,7.75-1.21,15.51-2.39,23.26-3.59,3.65-.56,7.31-1.13,10.96-1.69,2.28-.35,4.31,1.26,4.47,3.56.02.22.01.45.01.68,0,12.26,0,24.51,0,36.77,0,5.72-3.94,10.32-9.58,11.23-5.95.95-11.94-3.71-12.49-9.71-.55-6.11,3.31-11.24,9.35-12.21,3.66-.58,6.86.55,9.52,3.16.16.16.32.32.48.47.01.01.04,0,.17.03,0-.25,0-.48,0-.72,0-5.7,0-11.41,0-17.11,0-1.51-.5-1.94-1.97-1.72-9.73,1.5-19.46,3-29.19,4.49-1.85.28-3.71.55-5.56.84-1.29.2-1.56.54-1.56,1.83,0,8.58.01,17.16,0,25.74-.01,5.4-3.62,9.88-8.83,11.04-6.38,1.42-12.89-3.5-13.23-9.97-.25-4.85,2.29-9.08,6.59-10.97,4.31-1.89,9.1-.89,12.51,2.62.08.09.12.22.18.33.08-.05.15-.09.23-.14Z"/>
  </g>
  <circle class="cls-1" cx="189.92" cy="155.24" r="18.71"/>
  <path class="cls-2" d="m157.32,129.65c7.31-10.35,19.18-17.08,32.59-17.08s25.29,6.73,32.59,17.08"/>
  <path class="cls-2" d="m138.33,116.77c.5-.77,1.84-2.55,3.2-4.31s2.74-3.48,3.33-4.11c11.28-12.27,27.28-19.94,45.02-19.94,19.58,0,37.04,9.33,48.37,23.9,1.15,1.48,2.24,3.01,3.26,4.6"/>
</svg>