<svg width="368" height="154" viewBox="0 0 368 154" fill="none" xmlns="http://www.w3.org/2000/svg">
    <path
        d="M48.384 38.4C54.6133 38.4 60.0747 39.5947 64.768 41.984C69.5467 44.288 73.5147 47.5307 76.672 51.712C79.8293 55.8933 82.176 60.7147 83.712 66.176C85.3333 71.552 86.144 77.2267 86.144 83.2C86.144 91.392 84.736 98.9013 81.92 105.728C79.104 112.469 74.9227 117.888 69.376 121.984C63.8293 125.995 56.832 128 48.384 128H16.384C14.9333 128 13.696 127.488 12.672 126.464C11.7333 125.44 11.264 124.203 11.264 122.752V43.52C11.264 42.0693 11.7333 40.8747 12.672 39.936C13.696 38.912 14.9333 38.4 16.384 38.4H48.384ZM47.104 118.016C53.6747 118.016 59.008 116.437 63.104 113.28C67.2853 110.123 70.3147 105.899 72.192 100.608C74.1547 95.3173 75.136 89.5147 75.136 83.2C75.136 78.592 74.5813 74.1973 73.472 70.016C72.448 65.7493 70.784 61.9947 68.48 58.752C66.2613 55.5093 63.36 52.9493 59.776 51.072C56.2773 49.1947 52.0533 48.256 47.104 48.256H20.864L21.888 47.232V119.296L21.12 118.016H47.104ZM106.467 128C105.016 128 103.779 127.488 102.755 126.464C101.816 125.44 101.347 124.203 101.347 122.752V66.944C101.347 65.4933 101.816 64.2987 102.755 63.36C103.779 62.336 105.016 61.824 106.467 61.824C108.003 61.824 109.24 62.336 110.179 63.36C111.118 64.2987 111.587 65.4933 111.587 66.944V83.84L110.051 81.152C110.563 78.5067 111.459 75.9467 112.739 73.472C114.104 70.912 115.811 68.6507 117.859 66.688C119.907 64.64 122.254 63.0613 124.899 61.952C127.544 60.7573 130.446 60.16 133.603 60.16C135.48 60.16 137.187 60.6293 138.723 61.568C140.344 62.4213 141.155 63.6587 141.155 65.28C141.155 67.072 140.686 68.3947 139.747 69.248C138.808 70.1013 137.742 70.528 136.547 70.528C135.438 70.528 134.371 70.3147 133.347 69.888C132.323 69.376 131.043 69.12 129.507 69.12C127.374 69.12 125.24 69.7173 123.107 70.912C121.059 72.0213 119.139 73.6427 117.347 75.776C115.64 77.9093 114.232 80.3413 113.123 83.072C112.099 85.7173 111.587 88.576 111.587 91.648V122.752C111.587 124.203 111.075 125.44 110.051 126.464C109.112 127.488 107.918 128 106.467 128ZM212.695 94.72C212.695 101.376 211.202 107.307 208.215 112.512C205.314 117.717 201.346 121.813 196.311 124.8C191.362 127.787 185.772 129.28 179.543 129.28C173.314 129.28 167.682 127.787 162.647 124.8C157.612 121.813 153.602 117.717 150.615 112.512C147.714 107.307 146.263 101.376 146.263 94.72C146.263 88.064 147.714 82.1333 150.615 76.928C153.602 71.7227 157.612 67.6267 162.647 64.64C167.682 61.6533 173.314 60.16 179.543 60.16C185.772 60.16 191.362 61.6533 196.311 64.64C201.346 67.6267 205.314 71.7227 208.215 76.928C211.202 82.1333 212.695 88.064 212.695 94.72ZM202.455 94.72C202.455 89.7707 201.431 85.4187 199.383 81.664C197.42 77.9093 194.69 74.9653 191.191 72.832C187.778 70.6987 183.895 69.632 179.543 69.632C175.191 69.632 171.266 70.6987 167.767 72.832C164.354 74.9653 161.623 77.9093 159.575 81.664C157.527 85.4187 156.503 89.7707 156.503 94.72C156.503 99.584 157.527 103.893 159.575 107.648C161.623 111.403 164.354 114.389 167.767 116.608C171.266 118.741 175.191 119.808 179.543 119.808C183.895 119.808 187.778 118.741 191.191 116.608C194.69 114.389 197.42 111.403 199.383 107.648C201.431 103.893 202.455 99.584 202.455 94.72ZM260.737 60.8C266.54 60.8 271.745 62.2507 276.353 65.152C280.961 68.0533 284.588 72.064 287.233 77.184C289.964 82.304 291.329 88.192 291.329 94.848C291.329 101.419 289.964 107.307 287.233 112.512C284.588 117.632 280.961 121.685 276.353 124.672C271.83 127.573 266.71 129.024 260.993 129.024C257.836 129.024 254.849 128.555 252.033 127.616C249.302 126.592 246.785 125.312 244.481 123.776C242.262 122.155 240.385 120.363 238.849 118.4C237.313 116.352 236.204 114.347 235.521 112.384L238.337 110.592V148.352C238.337 149.803 237.868 151.04 236.929 152.064C235.99 153.088 234.753 153.6 233.217 153.6C231.766 153.6 230.529 153.088 229.505 152.064C228.566 151.125 228.097 149.888 228.097 148.352V66.56C228.097 65.1093 228.566 63.9147 229.505 62.976C230.529 61.952 231.766 61.44 233.217 61.44C234.753 61.44 235.99 61.952 236.929 62.976C237.868 63.9147 238.337 65.1093 238.337 66.56V77.952L236.417 76.928C237.014 74.7947 238.038 72.7467 239.489 70.784C241.025 68.8213 242.86 67.1147 244.993 65.664C247.212 64.128 249.644 62.9333 252.289 62.08C255.02 61.2267 257.836 60.8 260.737 60.8ZM259.585 70.272C255.318 70.272 251.521 71.3387 248.193 73.472C244.95 75.6053 242.39 78.5067 240.513 82.176C238.721 85.8453 237.825 90.0693 237.825 94.848C237.825 99.5413 238.721 103.765 240.513 107.52C242.39 111.275 244.95 114.219 248.193 116.352C251.521 118.485 255.318 119.552 259.585 119.552C263.852 119.552 267.606 118.485 270.849 116.352C274.092 114.219 276.652 111.275 278.529 107.52C280.406 103.765 281.345 99.5413 281.345 94.848C281.345 90.0693 280.406 85.8453 278.529 82.176C276.652 78.5067 274.092 75.6053 270.849 73.472C267.606 71.3387 263.852 70.272 259.585 70.272ZM303.01 117.504C302.242 116.395 301.901 115.243 301.986 114.048C302.071 112.768 302.797 111.659 304.162 110.72C305.015 110.123 305.997 109.867 307.106 109.952C308.301 110.037 309.367 110.592 310.306 111.616C312.695 114.432 315.426 116.693 318.498 118.4C321.57 120.021 325.325 120.832 329.762 120.832C331.81 120.747 333.858 120.405 335.906 119.808C337.954 119.211 339.661 118.187 341.026 116.736C342.477 115.2 343.202 113.195 343.202 110.72C343.202 108.331 342.477 106.453 341.026 105.088C339.575 103.637 337.698 102.485 335.394 101.632C333.09 100.693 330.573 99.8827 327.842 99.2C325.026 98.432 322.253 97.5787 319.522 96.64C316.791 95.616 314.317 94.3787 312.098 92.928C309.965 91.392 308.215 89.5147 306.85 87.296C305.57 84.992 304.93 82.2187 304.93 78.976C304.93 75.136 305.954 71.808 308.002 68.992C310.135 66.176 312.951 64 316.45 62.464C320.034 60.928 323.917 60.16 328.098 60.16C330.487 60.16 332.962 60.4587 335.522 61.056C338.167 61.568 340.727 62.5067 343.202 63.872C345.677 65.152 347.853 66.944 349.73 69.248C350.498 70.1013 350.925 71.168 351.01 72.448C351.095 73.728 350.541 74.88 349.346 75.904C348.407 76.5867 347.341 76.8853 346.146 76.8C345.037 76.7147 344.098 76.288 343.33 75.52C341.538 73.3867 339.277 71.7653 336.546 70.656C333.901 69.4613 330.957 68.864 327.714 68.864C325.666 68.864 323.661 69.1627 321.698 69.76C319.735 70.3573 318.071 71.3813 316.706 72.832C315.426 74.1973 314.786 76.1173 314.786 78.592C314.871 80.896 315.639 82.7733 317.09 84.224C318.541 85.6747 320.503 86.8693 322.978 87.808C325.453 88.6613 328.183 89.5147 331.17 90.368C333.901 91.0507 336.503 91.8613 338.978 92.8C341.538 93.6533 343.842 94.8053 345.89 96.256C347.938 97.7067 349.559 99.584 350.754 101.888C351.949 104.107 352.546 106.923 352.546 110.336C352.546 114.261 351.437 117.675 349.218 120.576C346.999 123.392 344.055 125.568 340.386 127.104C336.802 128.555 332.919 129.28 328.738 129.28C324.045 129.28 319.394 128.384 314.786 126.592C310.263 124.8 306.338 121.771 303.01 117.504Z"
        fill="#541084" fill-opacity="0.2" />
    <path
        d="M31.125 81.1C34.341 81.1 37.1997 81.703 39.701 82.909C42.2023 84.115 44.3017 85.8123 45.999 88.001C47.741 90.145 49.0363 92.6463 49.885 95.505C50.7783 98.319 51.225 101.334 51.225 104.55C51.225 108.883 50.4433 112.836 48.88 116.409C47.3167 119.938 45.0387 122.752 42.046 124.851C39.098 126.95 35.4577 128 31.125 128H15.112C13.9507 128 12.968 127.62 12.164 126.861C11.4047 126.057 11.025 125.074 11.025 123.913V85.187C11.025 84.0257 11.4047 83.0653 12.164 82.306C12.968 81.502 13.9507 81.1 15.112 81.1H31.125ZM30.455 120.295C33.269 120.295 35.5693 119.58 37.356 118.151C39.1427 116.677 40.438 114.756 41.242 112.389C42.0907 109.977 42.515 107.364 42.515 104.55C42.515 102.451 42.2693 100.463 41.778 98.587C41.3313 96.6663 40.6167 94.9913 39.634 93.562C38.6513 92.088 37.4007 90.9267 35.882 90.078C34.3633 89.2293 32.5543 88.805 30.455 88.805H18.73L19.4 88.202V121.032L18.998 120.295H30.455ZM62.2695 128C61.1082 128 60.1479 127.62 59.3885 126.861C58.6292 126.057 58.2495 125.074 58.2495 123.913V96.242C58.2495 95.0807 58.6292 94.1203 59.3885 93.361C60.1479 92.557 61.1082 92.155 62.2695 92.155C63.4309 92.155 64.3912 92.557 65.1505 93.361C65.9099 94.1203 66.2895 95.0807 66.2895 96.242V102.54L65.8205 98.051C66.3119 96.979 66.9372 96.041 67.6965 95.237C68.5005 94.3883 69.3939 93.696 70.3765 93.16C71.3592 92.5793 72.4089 92.155 73.5255 91.887C74.6422 91.619 75.7589 91.485 76.8755 91.485C78.2155 91.485 79.3322 91.8647 80.2255 92.624C81.1635 93.3833 81.6325 94.2767 81.6325 95.304C81.6325 96.778 81.2529 97.85 80.4935 98.52C79.7342 99.1453 78.9079 99.458 78.0145 99.458C77.1659 99.458 76.3842 99.3017 75.6695 98.989C74.9995 98.6763 74.2179 98.52 73.3245 98.52C72.5205 98.52 71.6942 98.721 70.8455 99.123C70.0415 99.4803 69.2822 100.061 68.5675 100.865C67.8975 101.669 67.3392 102.674 66.8925 103.88C66.4905 105.041 66.2895 106.426 66.2895 108.034V123.913C66.2895 125.074 65.9099 126.057 65.1505 126.861C64.3912 127.62 63.4309 128 62.2695 128ZM120.568 110.111C120.568 113.774 119.742 117.012 118.089 119.826C116.481 122.595 114.293 124.762 111.523 126.325C108.799 127.888 105.739 128.67 102.344 128.67C98.9498 128.67 95.8678 127.888 93.0984 126.325C90.3738 124.762 88.1851 122.595 86.5324 119.826C84.9244 117.012 84.1204 113.774 84.1204 110.111C84.1204 106.448 84.9244 103.232 86.5324 100.463C88.1851 97.649 90.3738 95.4603 93.0984 93.897C95.8678 92.289 98.9498 91.485 102.344 91.485C105.739 91.485 108.799 92.289 111.523 93.897C114.293 95.4603 116.481 97.649 118.089 100.463C119.742 103.232 120.568 106.448 120.568 110.111ZM112.528 110.111C112.528 107.833 112.059 105.868 111.121 104.215C110.228 102.518 109 101.2 107.436 100.262C105.918 99.324 104.22 98.855 102.344 98.855C100.468 98.855 98.7488 99.324 97.1854 100.262C95.6668 101.2 94.4384 102.518 93.5004 104.215C92.6071 105.868 92.1604 107.833 92.1604 110.111C92.1604 112.344 92.6071 114.31 93.5004 116.007C94.4384 117.66 95.6668 118.955 97.1854 119.893C98.7488 120.831 100.468 121.3 102.344 121.3C104.22 121.3 105.918 120.831 107.436 119.893C109 118.955 110.228 117.66 111.121 116.007C112.059 114.31 112.528 112.344 112.528 110.111ZM146.164 91.485C149.291 91.485 152.082 92.289 154.539 93.897C157.04 95.4603 159.006 97.6267 160.435 100.396C161.909 103.165 162.646 106.381 162.646 110.044C162.646 113.707 161.909 116.945 160.435 119.759C159.006 122.528 157.063 124.717 154.606 126.325C152.194 127.888 149.469 128.67 146.432 128.67C144.645 128.67 142.97 128.38 141.407 127.799C139.844 127.218 138.459 126.481 137.253 125.588C136.092 124.695 135.176 123.801 134.506 122.908C133.881 121.97 133.568 121.188 133.568 120.563L135.645 119.692V137.313C135.645 138.474 135.265 139.435 134.506 140.194C133.747 140.998 132.786 141.4 131.625 141.4C130.464 141.4 129.503 141.02 128.744 140.261C127.985 139.502 127.605 138.519 127.605 137.313V96.242C127.605 95.0807 127.985 94.1203 128.744 93.361C129.503 92.557 130.464 92.155 131.625 92.155C132.786 92.155 133.747 92.557 134.506 93.361C135.265 94.1203 135.645 95.0807 135.645 96.242V99.525L134.506 98.922C134.506 98.3413 134.819 97.649 135.444 96.845C136.069 95.9963 136.918 95.17 137.99 94.366C139.062 93.5173 140.29 92.825 141.675 92.289C143.104 91.753 144.601 91.485 146.164 91.485ZM145.159 98.855C143.194 98.855 141.474 99.3463 140 100.329C138.526 101.312 137.365 102.652 136.516 104.349C135.712 106.002 135.31 107.9 135.31 110.044C135.31 112.143 135.712 114.064 136.516 115.806C137.365 117.503 138.526 118.843 140 119.826C141.474 120.809 143.194 121.3 145.159 121.3C147.124 121.3 148.822 120.809 150.251 119.826C151.725 118.843 152.864 117.503 153.668 115.806C154.517 114.064 154.941 112.143 154.941 110.044C154.941 107.9 154.517 106.002 153.668 104.349C152.864 102.652 151.725 101.312 150.251 100.329C148.822 99.3463 147.124 98.855 145.159 98.855ZM167.599 122.439C167.153 121.814 166.952 121.01 166.996 120.027C167.041 119.044 167.622 118.196 168.738 117.481C169.453 117.034 170.212 116.856 171.016 116.945C171.82 116.99 172.602 117.392 173.361 118.151C174.657 119.446 176.019 120.451 177.448 121.166C178.878 121.881 180.664 122.238 182.808 122.238C183.478 122.193 184.215 122.104 185.019 121.97C185.823 121.791 186.516 121.434 187.096 120.898C187.722 120.317 188.034 119.446 188.034 118.285C188.034 117.302 187.699 116.521 187.029 115.94C186.359 115.359 185.466 114.868 184.349 114.466C183.277 114.064 182.071 113.684 180.731 113.327C179.347 112.925 177.917 112.478 176.443 111.987C175.014 111.496 173.696 110.87 172.49 110.111C171.284 109.307 170.302 108.257 169.542 106.962C168.783 105.667 168.403 104.036 168.403 102.071C168.403 99.8377 169.029 97.9393 170.279 96.376C171.53 94.8127 173.138 93.6067 175.103 92.758C177.113 91.9093 179.213 91.485 181.401 91.485C182.786 91.485 184.238 91.6637 185.756 92.021C187.275 92.3337 188.727 92.8697 190.111 93.629C191.496 94.3437 192.657 95.304 193.595 96.51C194.087 97.18 194.377 97.984 194.466 98.922C194.556 99.86 194.131 100.709 193.193 101.468C192.523 102.004 191.742 102.25 190.848 102.205C189.955 102.116 189.218 101.803 188.637 101.267C187.878 100.284 186.851 99.5027 185.555 98.922C184.305 98.3413 182.853 98.051 181.2 98.051C180.53 98.051 179.793 98.1403 178.989 98.319C178.23 98.453 177.56 98.788 176.979 99.324C176.399 99.8153 176.108 100.619 176.108 101.736C176.108 102.763 176.443 103.59 177.113 104.215C177.783 104.796 178.677 105.287 179.793 105.689C180.955 106.046 182.183 106.404 183.478 106.761C184.818 107.118 186.181 107.543 187.565 108.034C188.95 108.525 190.223 109.173 191.384 109.977C192.546 110.781 193.484 111.831 194.198 113.126C194.913 114.377 195.27 115.985 195.27 117.95C195.27 120.228 194.6 122.171 193.26 123.779C191.92 125.387 190.245 126.615 188.235 127.464C186.225 128.268 184.171 128.67 182.071 128.67C179.436 128.67 176.801 128.223 174.165 127.33C171.53 126.392 169.341 124.762 167.599 122.439Z"
        fill="#541084" />
</svg>