<svg width="138" height="68" viewBox="0 0 138 68" fill="none" xmlns="http://www.w3.org/2000/svg">
<g id="plus 1">
<path id="Vector" d="M24.9626 20.57C25.0077 20.8104 25.0828 21.3814 25.0577 21.5967C24.6921 24.2913 25.3032 26.9107 27.8174 28.3832C30.0262 29.6754 33.3419 29.42 35.0999 27.4416C35.6007 26.8757 36.2468 26.3147 36.7226 25.8339C36.953 25.5985 37.3237 25.5735 37.3186 25.5735L36.3069 25.5634L36.9981 25.7588C38.2653 26.7655 40.6393 28.0827 42.4975 28.7588C44.1303 29.3549 45.758 29.465 46.7898 30.2764C48.8884 31.9292 50.9569 33.6722 52.9653 35.4301C56.5865 38.6055 58.8904 43.5939 63.8789 44.826C69.9894 46.3336 74.2266 41.5605 75.5989 36.1764L63.7938 34.5787C63.6986 36.8275 63.3931 39.0412 64.5701 41.1047C65.7471 43.1682 67.5101 44.0848 69.6838 44.3602C73.4703 44.841 77.397 45.0113 81.2085 44.8611C85.02 44.7108 88.8014 44.24 92.3575 43.038C93.8951 42.5221 95.3576 41.6156 96.9303 41.2299C98.503 40.8443 99.7952 41.27 101.323 41.6406C108.836 43.4687 112.046 31.8791 104.518 30.051C101.228 29.2497 97.8519 28.6587 94.4911 29.44C91.9268 30.036 89.6178 31.4234 87.0484 32.0694C84.4791 32.7155 82.0099 32.8708 79.4254 32.8858C77.9329 32.8958 76.4354 32.8458 74.9428 32.7656C74.3468 32.7356 73.7508 32.6955 73.1548 32.6554C72.709 32.6254 72.2632 32.5953 71.8175 32.5603C70.8558 32.4501 71.2014 32.6104 72.8643 33.0511L75.0229 35.2098L74.8827 34.8892L75.7041 37.9243C75.674 36.8175 75.7742 35.6956 75.8193 34.5887C76.1048 27.8022 65.682 26.4499 64.0142 32.991C63.919 33.3967 63.8088 33.7924 63.6836 34.188C63.934 33.7423 63.889 33.8274 63.5434 34.4535C64.3598 33.2815 65.5368 32.8858 67.0744 33.2665C67.2196 33.011 67.0594 32.7957 66.5986 32.6254C66.2179 30.9576 63.3981 28.6887 62.136 27.5368C60.5382 26.0793 58.8353 24.727 57.1675 23.3447C55.3243 21.8121 53.5062 20.0191 51.3526 18.9272C49.4593 17.9706 47.0703 17.8504 45.4776 16.9489C43.7296 15.9622 42.1619 14.7552 40.1935 14.1742C34.9446 12.6316 30.0713 15.0507 26.6004 18.9473C29.9511 20.8955 33.2968 22.8438 36.6475 24.7971C37.0081 22.1226 37.0382 20.0441 36.5523 17.3796C35.9764 14.1842 32.0847 12.3761 29.1597 13.1825C25.794 14.1091 24.3816 17.3696 24.9626 20.575V20.57Z" fill="white"/>
<path id="Vector_2" d="M119.934 51.2968C127.818 51.2968 134.209 44.9061 134.209 37.0227C134.209 29.1393 127.818 22.7485 119.934 22.7485C112.051 22.7485 105.66 29.1393 105.66 37.0227C105.66 44.9061 112.051 51.2968 119.934 51.2968Z" fill="white"/>
<g id="Group">
<path id="Vector_3" d="M117.365 33.672C117.32 33.7622 117.23 33.8373 117.155 33.9074C117.05 34.0076 116.92 34.0627 116.784 34.0978C116.694 34.1178 116.599 34.1278 116.504 34.1378C116.364 34.1428 116.223 34.1428 116.083 34.1428H116.073C115.928 34.1428 115.783 34.1378 115.637 34.1378H115.297C115.162 34.1378 115.021 34.1428 114.881 34.1428C114.776 34.1428 114.671 34.1428 114.561 34.1529C114.335 34.1579 114.125 34.233 113.924 34.3432C113.764 34.4333 113.649 34.5686 113.539 34.7088C113.524 34.7338 113.504 34.7589 113.499 34.7839C113.439 34.9592 113.369 35.1245 113.338 35.2998C113.308 35.4501 113.323 35.6053 113.318 35.7556V35.8557C113.323 35.9158 113.353 35.9409 113.414 35.9409H113.939C114.075 35.9359 114.215 35.9359 114.35 35.9309H114.651C114.771 35.9309 114.896 35.9359 115.016 35.9359H115.036C115.152 35.9359 115.267 35.9309 115.387 35.9309H115.517C115.652 35.9359 115.793 35.9359 115.928 35.9409C116.023 35.9459 116.123 35.9459 116.223 35.9559C116.439 35.991 116.624 36.0861 116.774 36.2414C116.879 36.3516 116.955 36.4768 116.995 36.627C117.065 36.8875 117.065 37.1529 116.97 37.4034C116.879 37.6438 116.709 37.8191 116.464 37.9192C116.293 37.9893 116.113 38.0194 115.933 38.0194C115.898 38.0194 115.863 38.0194 115.828 38.0144H115.733C115.627 38.0144 115.527 38.0194 115.422 38.0194H115.412C115.277 38.0194 115.142 38.0194 115.006 38.0144H114.976C114.831 38.0144 114.691 38.0194 114.546 38.0194H113.689C113.654 38.0194 113.614 38.0144 113.579 38.0144C113.549 38.0144 113.514 38.0094 113.484 38.0094C113.469 38.0094 113.459 38.0094 113.449 38.0144C113.323 38.0244 113.298 38.0444 113.298 38.1747C113.308 38.4101 113.298 38.6405 113.288 38.8758C113.288 39.0161 113.293 39.1563 113.298 39.3016C113.298 39.3967 113.298 39.4919 113.298 39.5871C113.298 39.7273 113.293 39.8625 113.293 40.0028C113.288 40.153 113.293 40.3083 113.293 40.4635C113.288 40.744 113.273 41.0195 113.168 41.2799C113.113 41.4101 113.053 41.5303 112.958 41.6305C112.853 41.7357 112.737 41.8208 112.597 41.8709C112.452 41.921 112.302 41.946 112.156 41.946C112.031 41.946 111.906 41.926 111.781 41.8909C111.51 41.8108 111.325 41.6305 111.21 41.3801C111.135 41.2248 111.09 41.0595 111.08 40.8893C111.075 40.7089 111.07 40.5286 111.065 40.3533C111.065 40.2131 111.06 40.0729 111.06 39.9326V39.6522C111.065 39.5069 111.07 39.3667 111.07 39.2264C111.07 39.1213 111.075 39.0161 111.075 38.9059C111.075 38.7657 111.07 38.6254 111.07 38.4852C111.07 38.3449 111.075 38.2047 111.075 38.0695C111.08 37.9142 111.08 37.764 111.075 37.6087V37.5636C111.08 37.4234 111.085 37.2832 111.085 37.1379C111.09 37.0027 111.085 36.8624 111.085 36.7222C111.085 36.622 111.085 36.5219 111.085 36.4217C111.085 36.2815 111.09 36.1412 111.095 35.996C111.095 35.8557 111.095 35.7105 111.09 35.5703V35.5402C111.105 35.3699 111.115 35.1996 111.13 35.0293C111.145 34.8941 111.165 34.7589 111.19 34.6237C111.215 34.4984 111.255 34.3732 111.29 34.253C111.37 33.9726 111.515 33.7271 111.661 33.4817C111.731 33.3665 111.826 33.2664 111.911 33.1562C111.981 33.076 112.046 32.9959 112.126 32.9208C112.217 32.8306 112.312 32.7405 112.422 32.6704C112.597 32.5602 112.777 32.455 112.963 32.3598C113.073 32.3047 113.198 32.2647 113.318 32.2296C113.469 32.1895 113.624 32.1495 113.779 32.1194C113.884 32.1044 113.99 32.0994 114.095 32.0894C114.22 32.0844 114.34 32.0743 114.465 32.0693H115.362C115.502 32.0693 115.637 32.0794 115.778 32.0794H115.823C115.943 32.0794 116.068 32.0743 116.193 32.0743H116.293C116.569 32.0743 116.834 32.0994 117.08 32.2396C117.245 32.3348 117.36 32.475 117.43 32.6503C117.571 33.0009 117.541 33.3465 117.37 33.672H117.365Z" fill="#9248FF"/>
<path id="Vector_4" d="M128.81 33.5469C128.815 33.6371 128.81 33.7273 128.805 33.8124C128.805 33.9576 128.8 34.1029 128.8 34.2431C128.795 34.3784 128.795 34.5086 128.795 34.6438C128.795 34.779 128.8 34.9042 128.8 35.0345C128.8 35.2198 128.8 35.4101 128.795 35.5954C128.795 35.7306 128.785 35.8709 128.785 36.0061C128.785 36.1564 128.785 36.3066 128.79 36.4519V36.7674C128.785 36.9076 128.78 37.0479 128.775 37.1881C128.775 37.3334 128.78 37.4736 128.78 37.6188V37.9494C128.775 38.0946 128.77 38.2399 128.765 38.3851C128.765 38.5204 128.77 38.6606 128.77 38.8008C128.77 38.911 128.775 39.0162 128.77 39.1264C128.77 39.2666 128.765 39.4069 128.76 39.5471C128.755 39.6623 128.755 39.7775 128.755 39.8927C128.755 40.078 128.755 40.2633 128.75 40.4486C128.75 40.5688 128.74 40.689 128.745 40.8142C128.745 40.9595 128.709 41.0997 128.654 41.26C128.629 41.4102 128.529 41.5505 128.409 41.6757C128.284 41.8059 128.133 41.8961 127.953 41.9261C127.853 41.9462 127.753 41.9712 127.648 41.9712H127.643C127.472 41.9712 127.297 41.9411 127.137 41.866C127.007 41.8109 126.886 41.7308 126.806 41.6156C126.741 41.5254 126.686 41.4253 126.641 41.3201C126.561 41.1348 126.531 40.9394 126.531 40.7341C126.536 40.4887 126.531 40.2383 126.536 39.9878C126.536 39.7324 126.556 39.472 126.561 39.2115C126.566 39.0713 126.561 38.9311 126.561 38.7908C126.566 38.6406 126.576 38.4903 126.576 38.3401C126.581 38.1848 126.581 38.0295 126.586 37.8743C126.586 37.7591 126.586 37.6489 126.591 37.5387C126.596 37.3935 126.601 37.2532 126.606 37.113C126.611 36.9327 126.611 36.7524 126.611 36.5671C126.611 36.557 126.616 36.547 126.611 36.542C126.601 36.517 126.586 36.5019 126.576 36.4819C126.556 36.4969 126.536 36.507 126.526 36.522C126.436 36.6722 126.355 36.8225 126.265 36.9627C126.165 37.133 126.06 37.2983 125.955 37.4686C125.93 37.4986 125.91 37.5337 125.89 37.5637C125.774 37.7541 125.664 37.9394 125.549 38.1247C125.449 38.295 125.349 38.4603 125.244 38.6255C125.148 38.7858 125.048 38.9461 124.948 39.1063C124.933 39.1364 124.913 39.1614 124.893 39.1865C124.798 39.3468 124.713 39.512 124.607 39.6673C124.472 39.8726 124.297 40.0429 124.052 40.1181C123.956 40.1431 123.846 40.1481 123.746 40.1531H123.686C123.611 40.1531 123.536 40.1481 123.466 40.1381C123.335 40.1131 123.23 40.0479 123.125 39.9678C122.96 39.8326 122.854 39.6573 122.744 39.482C122.539 39.1364 122.329 38.7908 122.123 38.4502C121.923 38.1147 121.728 37.7741 121.522 37.4385C121.397 37.2282 121.267 37.0178 121.142 36.8025C121.096 36.7323 121.061 36.6572 121.016 36.5871C121.006 36.562 120.996 36.542 120.976 36.522C120.966 36.507 120.941 36.4969 120.926 36.4969H120.921C120.921 36.4969 120.891 36.527 120.886 36.542C120.881 36.5671 120.881 36.5921 120.881 36.6121C120.881 36.7474 120.891 36.8826 120.891 37.0178C120.896 37.118 120.896 37.2131 120.896 37.3083V38.1047C120.896 38.2499 120.901 38.4002 120.901 38.5504C120.901 38.6906 120.901 38.8309 120.911 38.9711C120.911 39.0913 120.916 39.2065 120.916 39.3267C120.916 39.497 120.921 39.6673 120.921 39.8426C120.921 39.9778 120.916 40.1131 120.916 40.2483C120.916 40.3685 120.921 40.4937 120.921 40.6189C120.916 40.9645 120.861 41.295 120.651 41.5805C120.526 41.7408 120.36 41.851 120.16 41.9061C120.045 41.9411 119.924 41.9562 119.809 41.9562C119.674 41.9562 119.539 41.9361 119.409 41.8961C119.223 41.841 119.058 41.7358 118.943 41.5655C118.833 41.4002 118.752 41.2249 118.732 41.0246C118.717 40.8693 118.702 40.7141 118.697 40.5588C118.692 40.3184 118.692 40.078 118.692 39.8376C118.692 39.6973 118.702 39.5521 118.702 39.4119V38.5905C118.702 38.4252 118.702 38.2599 118.707 38.0946V37.8092C118.707 37.6789 118.712 37.5487 118.712 37.4185V36.9227C118.712 36.8025 118.712 36.6822 118.712 36.557C118.712 36.3817 118.712 36.2064 118.717 36.0311C118.717 35.9009 118.722 35.7657 118.722 35.6355V34.8592C118.722 34.7189 118.727 34.5787 118.732 34.4385V34.0127C118.732 34.0127 118.727 33.9677 118.727 33.9426C118.732 33.7924 118.747 33.6371 118.742 33.4868C118.732 33.2815 118.778 33.0912 118.808 32.8908C118.838 32.7105 118.933 32.5503 119.043 32.41C119.148 32.2848 119.293 32.2047 119.454 32.1546C119.624 32.0995 119.794 32.0845 119.97 32.0845C120.095 32.0845 120.22 32.0945 120.35 32.1095C120.531 32.1296 120.696 32.1947 120.851 32.3048C121.071 32.4651 121.207 32.6905 121.342 32.9159C121.592 33.3466 121.843 33.7773 122.093 34.2081C122.228 34.4435 122.364 34.6839 122.499 34.9193C122.719 35.3049 122.945 35.6906 123.165 36.0762C123.285 36.2766 123.4 36.4769 123.516 36.6822C123.571 36.7774 123.621 36.8776 123.676 36.9777C123.696 37.0078 123.716 37.0228 123.741 37.0228C123.761 37.0228 123.781 37.0078 123.796 36.9828C123.861 36.8826 123.921 36.7824 123.981 36.6873C124.052 36.562 124.122 36.4318 124.197 36.3066C124.327 36.0963 124.452 35.8809 124.577 35.6655C124.678 35.4952 124.773 35.3199 124.873 35.1497C124.983 34.9643 125.093 34.784 125.203 34.5987C125.309 34.4184 125.414 34.2331 125.524 34.0478C125.639 33.8575 125.749 33.6671 125.865 33.4768C125.965 33.3015 126.07 33.1262 126.17 32.9509C126.255 32.8007 126.35 32.6604 126.471 32.5352C126.606 32.4 126.761 32.2998 126.936 32.2247C127.082 32.1596 127.232 32.1145 127.392 32.1095C127.487 32.1095 127.578 32.1045 127.668 32.1045C127.718 32.1045 127.768 32.1045 127.813 32.1095C128.028 32.1296 128.229 32.1897 128.399 32.3349C128.594 32.5052 128.694 32.7205 128.74 32.961C128.775 33.1563 128.785 33.3516 128.805 33.5469H128.81Z" fill="#9248FF"/>
</g>
<g id="Group_2">
<g id="Group_3">
<path id="Vector_5" d="M105.755 42.8722C105.735 42.5917 105.63 42.1259 105.63 42.1259C105.59 41.9156 105.54 41.7303 105.47 41.5499C105.29 41.0491 105.004 40.6084 104.614 40.2227C104.598 40.2077 104.583 40.1927 104.568 40.1776L104.558 40.1676L104.548 40.1576C104.458 40.0725 104.373 39.9923 104.283 39.9272C103.266 39.1158 102.049 38.5298 100.662 38.1893C99.8354 37.9839 98.9839 37.8086 98.1575 37.6383L97.4964 37.5031H97.4663C97.1208 37.423 96.7752 37.3478 96.4346 37.2777C96.2042 37.2276 95.9788 37.1675 95.7534 37.1074C95.5981 37.0674 95.4379 37.0173 95.2826 36.9672L95.0973 36.9121L94.917 36.857C94.8619 36.837 94.8018 36.822 94.7467 36.8019C94.6415 36.7669 94.5163 36.7218 94.4011 36.6717C93.8402 36.4664 93.3093 36.2009 92.8184 35.8904C92.2525 35.5448 91.9019 35.0139 91.8067 34.3628C91.6815 33.5514 91.8167 32.7601 92.2074 32.0088C93.0588 30.351 94.3761 29.0388 96.109 28.1122C96.3895 27.967 96.6449 27.8618 96.8904 27.8017C97.1508 27.7366 97.3712 27.7065 97.5765 27.7065C98.2627 27.7065 98.7986 28.0371 99.2093 28.7182C99.4998 29.1941 99.8003 29.7049 100.176 30.3811C100.186 30.4011 100.196 30.4161 100.201 30.4261C100.241 30.5013 100.291 30.5714 100.346 30.6315C100.401 30.6866 100.461 30.7317 100.532 30.7767C100.667 30.8519 100.832 30.8919 101.032 30.8919H101.098C102.435 30.8318 103.236 30.2158 103.557 29.0087C103.587 28.9086 103.617 28.8084 103.637 28.7082C103.937 27.5062 103.872 26.2591 103.427 24.7816C103.406 24.6964 103.381 24.6213 103.356 24.5462C103.306 24.3859 103.246 24.2257 103.176 24.0654C102.976 23.5846 102.705 23.1639 102.38 22.8083C102.335 22.7582 102.285 22.7031 102.239 22.658L102.129 22.5678C101.859 22.3274 101.568 22.1321 101.248 21.9718C101.052 21.8717 100.832 21.7915 100.592 21.7264H100.582L100.547 21.7164C100.461 21.6964 100.381 21.6763 100.301 21.6613H100.276C100.206 21.6363 100.136 21.6313 100.046 21.6212C99.9556 21.6062 99.8704 21.5962 99.7853 21.5912C99.6651 21.5812 99.5499 21.5762 99.4297 21.5762C99.1843 21.5762 98.9439 21.5912 98.7135 21.6263C97.3211 21.8066 96.0589 22.2122 94.9621 22.8333C91.411 24.8167 88.6964 27.7366 86.8883 31.513C85.9367 33.4863 85.536 35.1942 85.6312 36.8871C85.6412 37.0223 85.6512 37.1575 85.6662 37.2877C85.6812 37.413 85.7063 37.5382 85.7313 37.6584V37.6934C85.7614 37.8136 85.7914 37.9338 85.8265 38.049C85.8816 38.2293 85.9517 38.4046 86.0218 38.5649C86.107 38.7402 86.1971 38.8955 86.2923 39.0407C86.3273 39.0908 86.3524 39.1359 86.3874 39.1759L86.4025 39.191L86.4125 39.206C86.4425 39.2511 86.4726 39.2911 86.5077 39.3312C86.5527 39.3863 86.5978 39.4314 86.6379 39.4815C86.6829 39.5265 86.723 39.5716 86.7681 39.6217L86.8432 39.6918C86.9133 39.7669 86.9785 39.822 87.0386 39.8721C87.4593 40.2177 87.9 40.5032 88.3558 40.7336C88.6463 40.8938 88.9268 41.0191 89.2223 41.1292C89.658 41.2995 90.1138 41.4398 90.6147 41.5499C91.7366 41.8054 92.8935 42.0207 94.0104 42.2261C94.4863 42.3162 94.9571 42.4064 95.4279 42.4965C96.4797 42.7019 97.3261 43.0274 98.0273 43.5033C98.6534 43.929 98.9739 44.525 98.9589 45.2262C98.9539 45.3263 98.9439 45.4666 98.9138 45.6168C98.8938 45.722 98.8637 45.8372 98.8186 45.9624C98.8136 45.9975 98.8036 46.0275 98.7886 46.0626C98.7485 46.1778 98.6934 46.308 98.6484 46.4132C98.5332 46.6536 98.413 46.8689 98.2727 47.0693C98.2126 47.1544 98.1375 47.2546 98.0423 47.3648C97.9522 47.47 97.867 47.5601 97.7819 47.6352C97.7067 47.7204 97.6116 47.8055 97.5064 47.8857C97.3211 48.0409 97.1107 48.1862 96.8904 48.3114C96.5648 48.5017 96.2292 48.667 95.8636 48.8172C94.8369 49.248 93.77 49.4683 92.6982 49.4683C92.0271 49.4683 91.3709 49.3882 90.6898 49.2229C89.8884 49.0276 89.1121 48.7121 88.3608 48.4065C88.0252 48.2713 87.6947 48.1361 87.3591 48.0109C87.304 47.9908 87.2539 47.9708 87.2038 47.9508C87.1437 47.9257 87.0786 47.9007 87.0135 47.8756C86.9734 47.8656 86.9384 47.8556 86.8983 47.8506C86.7731 47.8256 86.6579 47.8055 86.5477 47.8005C86.4275 47.7855 86.3223 47.7805 86.1921 47.7805C86.0619 47.7805 85.9467 47.7855 85.8465 47.8005C85.7463 47.8055 85.6512 47.8206 85.531 47.8506C85.4258 47.8656 85.3306 47.8907 85.2154 47.9307C84.6345 48.111 84.0885 48.4817 83.5927 49.0226C83.1569 49.4934 82.9766 50.0493 83.0417 50.7205C83.0718 51.056 83.1419 51.3866 83.2521 51.7021C83.3322 51.9075 83.4174 52.0928 83.5226 52.2631C83.7429 52.6437 84.0384 52.9743 84.4041 53.2447C84.4191 53.2547 84.4291 53.2648 84.4441 53.2698C84.5343 53.3449 84.6244 53.4 84.7246 53.4551C84.925 53.5753 85.1303 53.6805 85.3306 53.7606C85.3907 53.7806 85.4508 53.8057 85.521 53.8307C85.7714 53.9259 86.0168 54.006 86.2071 54.0611C86.8983 54.2715 87.6195 54.4267 88.2406 54.5469C89.3775 54.7723 90.5145 54.8875 91.6164 54.8875C92.8234 54.8875 94.0255 54.7473 95.1824 54.4668C98.3879 53.6955 101.203 51.8874 103.557 49.0877C104.573 47.8756 105.21 46.6936 105.5 45.4766C105.58 45.1661 105.63 44.8355 105.68 44.52C105.685 44.4949 105.69 44.4649 105.695 44.4398C105.695 44.4298 105.695 44.4248 105.7 44.4148C105.796 43.6435 105.781 43.1026 105.755 42.8722Z" fill="white"/>
<path id="Vector_6" d="M99.4346 21.5764C99.5548 21.5764 99.67 21.5764 99.7902 21.5914C99.8753 21.5914 99.9605 21.6064 100.051 21.6214C100.141 21.6315 100.211 21.6365 100.281 21.6565H100.291H100.306C100.386 21.6715 100.466 21.6916 100.551 21.7116L100.587 21.7216H100.597C100.837 21.7867 101.057 21.8669 101.253 21.967C101.573 22.1273 101.864 22.3226 102.134 22.563L102.244 22.6532C102.289 22.6983 102.34 22.7534 102.385 22.8034C102.71 23.159 102.981 23.5798 103.181 24.0606C103.251 24.2208 103.311 24.3811 103.361 24.5414C103.386 24.6165 103.411 24.6916 103.431 24.7768C103.877 26.2543 103.942 27.5014 103.642 28.7034C103.622 28.8036 103.592 28.9038 103.562 29.0039C103.241 30.211 102.44 30.827 101.102 30.8821H101.077H101.037C100.837 30.8821 100.672 30.842 100.536 30.7669C100.466 30.7218 100.406 30.6768 100.351 30.6217C100.296 30.5616 100.246 30.4914 100.206 30.4163C100.201 30.4063 100.191 30.3913 100.181 30.3712C99.8052 29.6951 99.5047 29.1842 99.2142 28.7084C98.8035 28.0273 98.2676 27.6967 97.5814 27.6967C97.3761 27.6967 97.1557 27.7268 96.8952 27.7919C96.6498 27.852 96.3944 27.9572 96.1139 28.1024C94.3809 29.029 93.0637 30.3412 92.2122 31.999C91.8216 32.7503 91.6864 33.5416 91.8116 34.353C91.9067 35.0041 92.2573 35.535 92.8233 35.8806C93.3141 36.1911 93.845 36.4565 94.406 36.6619C94.5212 36.712 94.6464 36.757 94.7516 36.7921C94.8067 36.8121 94.8668 36.8272 94.9219 36.8472L95.1022 36.9023L95.2875 36.9574C95.4428 37.0075 95.603 37.0575 95.7583 37.0976C95.9837 37.1577 96.2091 37.2178 96.4395 37.2679C96.78 37.338 97.1256 37.4131 97.4712 37.4883H97.5013L98.1624 37.6285C98.9888 37.7988 99.8403 37.9741 100.667 38.1794C102.054 38.52 103.271 39.106 104.288 39.9174C104.378 39.9825 104.463 40.0626 104.553 40.1478L104.563 40.1578L104.573 40.1678C104.573 40.1678 104.603 40.1979 104.618 40.2129C105.009 40.5985 105.295 41.0393 105.475 41.5401C105.545 41.7204 105.595 41.9057 105.635 42.1161C105.635 42.1161 105.735 42.5819 105.76 42.8624C105.785 43.0928 105.8 43.6337 105.705 44.405C105.7 44.415 105.7 44.42 105.7 44.43C105.695 44.4551 105.69 44.4851 105.685 44.5102C105.635 44.8257 105.585 45.1562 105.505 45.4668C105.214 46.6838 104.578 47.8658 103.562 49.0779C101.208 51.8776 98.3928 53.6857 95.1873 54.457C94.0303 54.7374 92.8283 54.8777 91.6212 54.8777C90.5194 54.8777 89.3824 54.7625 88.2455 54.5371C87.6244 54.4169 86.9032 54.2616 86.212 54.0513C86.0217 53.9962 85.7763 53.9161 85.5258 53.8209C85.4557 53.7958 85.3956 53.7708 85.3355 53.7508C85.1352 53.6706 84.9298 53.5655 84.7295 53.4453C84.6293 53.3902 84.5392 53.3351 84.449 53.2599C84.434 53.2549 84.424 53.2449 84.4089 53.2349C84.0433 52.9644 83.7478 52.6339 83.5274 52.2532C83.4223 52.083 83.3371 51.8976 83.257 51.6923C83.1468 51.3768 83.0767 51.0462 83.0466 50.7106C82.9815 50.0395 83.1618 49.4836 83.5976 49.0128C84.0934 48.4718 84.6393 48.1012 85.2203 47.9209C85.3355 47.8808 85.4307 47.8558 85.5359 47.8408C85.6561 47.8107 85.7512 47.7957 85.8514 47.7907C85.9516 47.7757 86.0668 47.7707 86.197 47.7707C86.3272 47.7707 86.4324 47.7757 86.5526 47.7907C86.6628 47.7957 86.778 47.8157 86.9032 47.8408C86.9433 47.8408 86.9783 47.8558 87.0184 47.8658C87.0835 47.8909 87.1486 47.9159 87.2087 47.941C87.2588 47.961 87.3089 47.981 87.364 48.0011C87.6996 48.1263 88.0301 48.2615 88.3657 48.3967C89.117 48.7022 89.8933 49.0178 90.6947 49.2131C91.3758 49.3784 92.0319 49.4585 92.7031 49.4585C93.7749 49.4585 94.8417 49.2381 95.8685 48.8074C96.2341 48.6572 96.5697 48.4919 96.8952 48.3016C97.1156 48.1763 97.326 48.0311 97.5113 47.8758C97.6165 47.7957 97.7116 47.7106 97.7868 47.6254C97.8719 47.5503 97.957 47.4601 98.0472 47.355C98.1424 47.2448 98.2175 47.1446 98.2776 47.0595C98.4178 46.8591 98.538 46.6438 98.6532 46.4034C98.6983 46.2982 98.7534 46.168 98.7935 46.0528C98.8085 46.0177 98.8185 45.9876 98.8235 45.9526C98.8686 45.8274 98.8986 45.7122 98.9187 45.607C98.9487 45.4567 98.9587 45.3165 98.9638 45.2163C98.9788 44.5152 98.6582 43.9191 98.0322 43.4934C97.331 43.0176 96.4845 42.6921 95.4327 42.4867C94.9619 42.3966 94.4911 42.3064 94.0153 42.2163C92.8984 42.0109 91.7414 41.7956 90.6195 41.5401C90.1187 41.4299 89.6629 41.2897 89.2272 41.1194C88.9317 41.0092 88.6512 40.884 88.3607 40.7237C87.9049 40.4934 87.4641 40.2079 87.0434 39.8623C86.9833 39.8122 86.9182 39.7571 86.8481 39.687L86.773 39.6119C86.7279 39.5618 86.6878 39.5167 86.6428 39.4716C86.6027 39.4215 86.5576 39.3765 86.5125 39.3214C86.4775 39.2813 86.4474 39.2412 86.4174 39.1962L86.4074 39.1811L86.3923 39.1661C86.3573 39.126 86.3322 39.081 86.2972 39.0309C86.202 38.8856 86.1118 38.7304 86.0267 38.5551C85.9566 38.3948 85.8865 38.2195 85.8314 38.0392C85.7963 37.924 85.7663 37.8038 85.7412 37.6836V37.6485C85.7112 37.5283 85.6861 37.4031 85.6711 37.2779C85.6561 37.1477 85.6461 37.0125 85.636 36.8772C85.5409 35.1844 85.9416 33.4765 86.8932 31.5032C88.7013 27.7268 91.4159 24.8068 94.9669 22.8235C96.0638 22.2024 97.326 21.7967 98.7183 21.6164C98.9487 21.5814 99.1891 21.5663 99.4346 21.5663M99.4346 17.5596C98.9938 17.5596 98.5681 17.5896 98.1624 17.6497C96.2692 17.9001 94.5262 18.4661 92.9886 19.3376C88.7213 21.7216 85.4457 25.2325 83.277 29.7752C82.0399 32.3396 81.499 34.7436 81.6342 37.1026C81.6342 37.1277 81.6342 37.1477 81.6342 37.1727C81.6492 37.3631 81.6643 37.5534 81.6843 37.7387C81.7143 37.9791 81.7494 38.1794 81.7845 38.3597C81.7945 38.4048 81.7995 38.4549 81.8095 38.5C81.8596 38.7404 81.9197 38.9808 81.9898 39.2062C82.085 39.5167 82.2002 39.8272 82.3454 40.1628C82.3655 40.2129 82.3905 40.258 82.4105 40.308C82.5658 40.6286 82.7361 40.9291 82.9314 41.2296C82.9465 41.2496 82.9565 41.2697 82.9715 41.2897C83.0366 41.3899 83.1167 41.5051 83.2219 41.6353C83.292 41.7355 83.3672 41.8256 83.4423 41.9158C83.4824 41.9658 83.5274 42.0109 83.5675 42.056C83.6276 42.1261 83.6927 42.1962 83.7578 42.2664L83.7679 42.2814C83.828 42.3465 83.8931 42.4166 83.9582 42.4817C83.9732 42.4967 83.9882 42.5118 84.0033 42.5268C84.1836 42.7071 84.3388 42.8373 84.464 42.9475C84.469 42.9525 84.4791 42.9575 84.4841 42.9675C84.8497 43.268 85.2303 43.5435 85.626 43.7939C85.5609 43.7989 85.4958 43.804 85.4357 43.814C85.2003 43.834 84.9699 43.8691 84.7295 43.9242C84.469 43.9742 84.2136 44.0394 83.9532 44.1295C82.7161 44.5252 81.5941 45.2614 80.6275 46.3232C79.4405 47.6054 78.8695 49.3083 79.0398 51.1013C79.0999 51.7624 79.2401 52.4135 79.4555 53.0346C79.4705 53.0796 79.4906 53.1247 79.5056 53.1698C79.6759 53.6005 79.8562 53.9812 80.0665 54.3268C80.5624 55.1682 81.2135 55.8894 82.0048 56.4754C82.0249 56.4904 82.0399 56.5004 82.0599 56.5155C82.075 56.5255 82.085 56.5355 82.1 56.5455C82.3354 56.7208 82.5458 56.846 82.711 56.9412C83.0817 57.1615 83.4573 57.3469 83.828 57.4921C83.883 57.5121 83.9381 57.5372 83.9932 57.5522C84.0383 57.5672 84.0734 57.5823 84.1134 57.5973C84.4991 57.7425 84.8297 57.8477 85.05 57.9128C85.9666 58.1883 86.8681 58.3736 87.4642 58.4938C88.8415 58.7693 90.2389 58.9095 91.6012 58.9095C93.1338 58.9095 94.6514 58.7292 96.1089 58.3736C100.156 57.402 103.692 55.1481 106.607 51.6773C108.029 49.9844 108.931 48.2765 109.372 46.4534C109.487 45.9927 109.557 45.5669 109.612 45.2214C109.632 45.1162 109.647 45.016 109.662 44.9158C109.772 44.0293 109.797 43.1779 109.727 42.5118C109.687 42.056 109.592 41.5702 109.537 41.3298C109.457 40.9141 109.346 40.5284 109.206 40.1578C108.821 39.111 108.22 38.1794 107.413 37.3831L107.388 37.353C107.363 37.328 107.313 37.2829 107.288 37.2579C107.168 37.1427 106.972 36.9574 106.717 36.762C105.575 35.8605 104.278 35.1593 102.845 34.6685C105.099 34.0875 106.752 32.4648 107.403 30.1158C107.443 29.9856 107.488 29.8153 107.538 29.6099C107.989 27.7518 107.904 25.8235 107.288 23.72C107.243 23.5497 107.198 23.4095 107.168 23.3143C107.083 23.0388 106.977 22.7634 106.862 22.4979C106.492 21.6164 105.981 20.8151 105.35 20.1239C105.259 20.0237 105.164 19.9186 105.074 19.8334C104.979 19.7383 104.884 19.6481 104.779 19.568L104.719 19.5229C104.213 19.0872 103.657 18.7115 103.056 18.411C102.62 18.1906 102.159 18.0153 101.638 17.8751C101.573 17.8551 101.508 17.84 101.443 17.825H101.428C101.333 17.8 101.238 17.7749 101.142 17.7599C100.897 17.7048 100.692 17.6798 100.561 17.6647C100.396 17.6397 100.231 17.6247 100.071 17.6147C99.8553 17.5996 99.6399 17.5896 99.4245 17.5896L99.4346 17.5596ZM96.2591 33.0658C96.4144 32.8655 96.5897 32.6751 96.78 32.4948C96.9553 32.7903 97.1657 33.0708 97.3961 33.3262C97.4111 33.3463 97.4311 33.3663 97.4462 33.3813C97.3861 33.3713 97.326 33.3563 97.2659 33.3463C97.1006 33.3112 96.9453 33.2661 96.785 33.2261C96.775 33.2261 96.765 33.2211 96.755 33.216C96.6749 33.196 96.5947 33.166 96.5146 33.1409C96.4845 33.1309 96.4545 33.1209 96.4244 33.1159L96.2541 33.0658H96.2591Z" fill="white"/>
</g>
<g id="Group_4">
<path id="Vector_7" d="M82.205 43.5435C81.8043 42.3865 81.4087 41.1344 81.2083 39.8172C80.7626 36.9874 80.8277 34.1225 80.9579 31.448L81.048 29.685C81.0581 29.5047 81.0731 29.3294 81.0881 29.1541C81.1131 28.8536 81.1332 28.5681 81.1332 28.2776V28.1324C81.1332 28.0172 81.1182 27.902 81.1031 27.7918C81.0631 27.5414 80.9929 27.3361 80.8828 27.1608L80.8427 27.1007C80.7325 26.9404 80.5822 26.8202 80.3969 26.73C80.2717 26.6649 80.1365 26.6198 79.9762 26.5948C79.7608 26.5547 79.5555 26.5347 79.3401 26.5347C78.669 26.5347 78.0479 26.7551 77.492 27.1858C76.32 28.0923 75.6689 29.1391 75.4936 30.3812C75.4685 30.5615 75.4485 30.7518 75.4435 30.9672C75.4385 31.2477 75.4335 31.5231 75.4234 31.7986C75.4034 32.3996 75.3683 32.9405 75.3283 33.4564C75.2231 34.8638 75.0228 36.2561 74.7423 37.5984C74.5319 38.6051 74.2414 39.5868 73.8858 40.5183C73.6955 41.0042 73.4902 41.475 73.2748 41.9107C73.0394 42.3865 72.789 42.8373 72.5285 43.258C71.8123 44.4149 70.9658 45.2063 69.9441 45.6921C69.7438 45.7873 69.5334 45.8524 69.3331 45.8774C69.2078 45.8974 69.1027 45.9024 69.0025 45.9024C68.9875 45.9024 68.9574 45.9024 68.9274 45.8974C68.7621 45.8974 68.6018 45.8724 68.4315 45.8273C67.7704 45.657 67.2645 45.2363 66.924 44.5752C66.388 43.5184 66.1276 42.2863 66.1025 40.6936C66.0475 37.4031 66.5734 33.9623 67.7053 30.1759C68.0809 28.9287 68.5016 27.2759 68.4215 25.558C68.4215 25.4228 68.4065 25.2876 68.3915 25.1524C68.3714 24.957 68.3414 24.7667 68.2913 24.5914C68.2162 24.2759 68.096 24.0004 67.9357 23.77C67.9006 23.7149 67.8706 23.6698 67.8355 23.6348C67.7454 23.5246 67.6602 23.4395 67.5701 23.3643C67.54 23.3393 67.515 23.3142 67.4999 23.3092L67.4799 23.2992L67.4599 23.2842C67.4599 23.2842 67.4098 23.2491 67.3797 23.2391L67.3597 23.2291L67.3397 23.2191C67.3397 23.2191 67.2896 23.194 67.2645 23.184C67.1644 23.144 67.0842 23.1239 66.9991 23.1189C66.8288 23.0989 66.6635 23.0889 66.5032 23.0889C65.2761 23.0889 64.3446 23.5847 63.6534 24.5964C63.1976 25.2575 62.8119 25.9587 62.4914 26.6799C62.4263 26.8252 62.3662 26.9654 62.3111 27.1107C62.1909 27.3962 62.0857 27.6917 61.9855 27.9821C61.65 28.9588 61.3895 29.9855 61.1842 31.1275C60.9989 32.1241 60.8786 33.1308 60.7885 33.8971C60.523 36.4014 60.503 38.8405 60.7384 41.1444C60.9838 43.6336 61.4546 45.7973 62.1759 47.7506C62.4864 48.592 62.822 49.3182 63.2026 49.9743C63.408 50.3299 63.6283 50.6655 63.8637 50.981C64.0941 51.2916 64.3596 51.6021 64.6501 51.9026C64.7002 51.9527 64.7452 51.9978 64.8003 52.0478C65.2361 52.4686 65.6969 52.7741 66.1827 52.9694C66.3981 53.0545 66.6134 53.1197 66.8288 53.1597C67.0592 53.2048 67.2896 53.2248 67.525 53.2248H67.55C67.6302 53.2248 67.7053 53.2248 67.7804 53.2148C68.6769 53.1597 69.5484 52.8742 70.3899 52.3684C72.253 51.2515 73.7456 49.6638 74.9476 47.5052C75.1029 47.2297 75.2481 46.9442 75.3884 46.6637C75.5186 46.4033 75.6488 46.1479 75.7891 45.8924C75.8892 45.6971 76.0094 45.5268 76.1397 45.3816C76.2549 45.2564 76.4101 45.1161 76.6055 45.1161C76.926 45.1161 77.0262 45.4767 77.0662 45.612C77.2315 46.1729 77.4118 46.7739 77.6272 47.3699C77.8125 47.8708 78.1631 48.2164 78.709 48.4217C78.7541 48.4417 78.7942 48.4568 78.8393 48.4668C78.9995 48.5219 79.1498 48.5569 79.2951 48.582C79.4553 48.607 79.5956 48.617 79.7258 48.617C80.6774 48.617 81.5188 48.0811 81.9796 47.1796C82.5656 46.0327 82.6408 44.8006 82.2 43.5184L82.205 43.5435Z" fill="white"/>
<path id="Vector_8" d="M66.5082 23.0989C66.6685 23.0989 66.8287 23.1089 67.004 23.129C67.0892 23.134 67.1643 23.154 67.2695 23.1941C67.2945 23.2041 67.3196 23.2091 67.3446 23.2291L67.3647 23.2392L67.3847 23.2492C67.4147 23.2592 67.4398 23.2742 67.4648 23.2943L67.4849 23.3093L67.5049 23.3193C67.5049 23.3193 67.545 23.3493 67.575 23.3744C67.6702 23.4445 67.7553 23.5347 67.8405 23.6448C67.8755 23.6849 67.9056 23.73 67.9406 23.7801C68.1059 24.0105 68.2261 24.2859 68.2962 24.6015C68.3413 24.7768 68.3764 24.9621 68.3964 25.1624C68.4114 25.2976 68.4215 25.4329 68.4265 25.5681C68.5066 27.286 68.0859 28.9388 67.7102 30.1859C66.5733 33.9723 66.0524 37.4131 66.1075 40.7037C66.1326 42.2964 66.393 43.5285 66.9289 44.5853C67.2695 45.2464 67.7754 45.6671 68.4365 45.8374C68.6068 45.8825 68.767 45.9025 68.9323 45.9075C68.9624 45.9125 68.9924 45.9125 69.0075 45.9125C69.1076 45.9125 69.2128 45.9025 69.338 45.8875C69.5434 45.8574 69.7487 45.7973 69.9491 45.7021C70.9708 45.2213 71.8173 44.425 72.5335 43.268C72.7939 42.8473 73.0443 42.3966 73.2797 41.9207C73.4951 41.485 73.7005 41.0142 73.8908 40.5284C74.2514 39.6018 74.5369 38.6152 74.7472 37.6085C75.0277 36.2662 75.2231 34.8738 75.3332 33.4665C75.3783 32.9506 75.4084 32.4047 75.4284 31.8087C75.4384 31.5332 75.4434 31.2577 75.4484 30.9772C75.4534 30.7619 75.4685 30.5716 75.4985 30.3913C75.6738 29.1492 76.3249 28.1074 77.4969 27.1958C78.0529 26.7601 78.6739 26.5447 79.3451 26.5447C79.5604 26.5447 79.7658 26.5648 79.9812 26.6049C80.1414 26.6299 80.2717 26.675 80.4019 26.7401C80.5922 26.8302 80.7425 26.9554 80.8476 27.1107L80.8877 27.1708C80.9979 27.3461 81.068 27.5515 81.1081 27.8019C81.1231 27.9071 81.1331 28.0273 81.1381 28.1425V28.2877C81.1381 28.5782 81.1131 28.8637 81.0931 29.1642C81.078 29.3395 81.063 29.5198 81.053 29.6951L80.9628 31.4581C80.8276 34.1326 80.7675 36.9974 81.2133 39.8272C81.4136 41.1394 81.8143 42.3915 82.21 43.5535C82.6507 44.8357 82.5756 46.0678 81.9896 47.2147C81.5288 48.1162 80.6874 48.6521 79.7357 48.6521C79.6055 48.6521 79.4653 48.6421 79.305 48.6171C79.1598 48.592 79.0145 48.557 78.8492 48.5019C78.8042 48.4919 78.7641 48.4718 78.719 48.4568C78.1731 48.2464 77.8225 47.9059 77.6372 47.405C77.4218 46.809 77.2415 46.208 77.0762 45.6471C77.0361 45.5118 76.936 45.1512 76.6154 45.1512C76.4201 45.1512 76.2648 45.2915 76.1496 45.4167C76.0194 45.5619 75.8992 45.7322 75.799 45.9275C75.6588 46.183 75.5286 46.4384 75.3983 46.6988C75.2581 46.9743 75.1129 47.2648 74.9576 47.5403C73.7505 49.6989 72.263 51.2866 70.3998 52.4035C69.5584 52.9093 68.6819 53.1948 67.7904 53.2499C67.7102 53.2599 67.6351 53.2599 67.56 53.2599H67.5349C67.2995 53.2599 67.0691 53.2399 66.8388 53.1948C66.6234 53.1547 66.408 53.0896 66.1927 53.0045C65.7118 52.8142 65.246 52.5036 64.8103 52.0829C64.7602 52.0379 64.7101 51.9878 64.66 51.9377C64.3695 51.6372 64.1091 51.3267 63.8737 51.0161C63.6383 50.7006 63.4179 50.36 63.2126 50.0094C62.8319 49.3533 62.4913 48.6271 62.1858 47.7857C61.4646 45.8324 60.9938 43.6737 60.7484 41.1795C60.513 38.8706 60.533 36.4315 60.7985 33.9322C60.8836 33.1659 61.0088 32.1592 61.1941 31.1626C61.3995 30.0206 61.6649 28.9939 61.9955 28.0172C62.0957 27.7217 62.2008 27.4312 62.3211 27.1458C62.3812 27.0005 62.4362 26.8553 62.5014 26.715C62.8169 25.9938 63.2076 25.2926 63.6633 24.6315C64.3545 23.6148 65.2861 23.124 66.5132 23.124M66.5132 19.1172C63.9739 19.1172 61.7851 20.2741 60.3527 22.3777C59.7667 23.2342 59.2558 24.1507 58.8401 25.0923C58.76 25.2726 58.6848 25.4529 58.6097 25.6432C58.4595 26.0038 58.3242 26.3745 58.199 26.7451C57.8033 27.9071 57.4928 29.1241 57.2524 30.4564C57.0471 31.5632 56.9118 32.6601 56.8217 33.4915C56.8217 33.5015 56.8217 33.5065 56.8217 33.5165C56.5262 36.2962 56.5061 39.0108 56.7716 41.5952C57.0471 44.42 57.593 46.9042 58.4394 49.188C58.8251 50.2448 59.2608 51.1814 59.7667 52.0429C60.0372 52.5137 60.3427 52.9795 60.6682 53.4202C61.0038 53.871 61.3794 54.3167 61.7901 54.7374C61.8052 54.7525 61.8202 54.7725 61.8402 54.7875C61.9204 54.8676 61.9955 54.9428 62.0756 55.0179C62.872 55.7792 63.7585 56.3552 64.7051 56.7358C65.1609 56.9211 65.6317 57.0614 66.1075 57.1465C66.5733 57.2367 67.0491 57.2817 67.54 57.2817C67.7203 57.2817 67.9006 57.2817 68.1159 57.2617C69.6285 57.1565 71.096 56.6807 72.4734 55.8543C74.1412 54.8576 75.5787 53.5855 76.8108 52.0128C76.956 52.0829 77.1063 52.148 77.2615 52.2081C77.3717 52.2532 77.5019 52.2983 77.6522 52.3484C78.0028 52.4636 78.3434 52.5437 78.694 52.5988C79.0596 52.6539 79.4052 52.684 79.7458 52.684C82.1949 52.684 84.4237 51.2966 85.5657 49.0678C86.6525 46.9442 86.8078 44.6003 86.0114 42.2814C85.6709 41.2947 85.3353 40.2479 85.185 39.2462C84.7944 36.762 84.8545 34.1426 84.9797 31.6834L85.0698 29.9255C85.0749 29.7902 85.0899 29.65 85.0999 29.5098C85.1299 29.1592 85.16 28.7635 85.16 28.3127V28.1675C85.16 28.1124 85.16 28.0623 85.16 28.0072C85.15 27.7718 85.1299 27.5364 85.0999 27.311C85.0999 27.276 85.0899 27.2459 85.0849 27.2109C84.9647 26.4245 84.6992 25.7033 84.3035 25.0723L84.2685 25.0122C84.2384 24.9621 84.2084 24.917 84.1733 24.8669C83.6775 24.1457 82.9913 23.5597 82.1899 23.169C81.7342 22.9437 81.2383 22.7784 80.7174 22.6882C80.2667 22.6031 79.8209 22.563 79.3651 22.563C77.8025 22.563 76.3099 23.0839 75.0528 24.0656C73.9008 24.9571 73.0193 25.9888 72.4183 27.1357C72.4583 26.5848 72.4734 26.0189 72.4483 25.4329C72.4383 25.2175 72.4233 24.9971 72.4032 24.7868C72.3632 24.4061 72.2981 24.0255 72.2079 23.6699C72.0226 22.9036 71.7121 22.1974 71.2813 21.5713C71.1711 21.4061 71.061 21.2558 70.9408 21.1156C70.6903 20.805 70.4199 20.5396 70.1194 20.2992C69.9941 20.194 69.8439 20.0788 69.6586 19.9636C69.5033 19.8635 69.343 19.7683 69.1777 19.6882C68.9524 19.573 68.7721 19.5028 68.6869 19.4728C68.2662 19.3175 67.8555 19.2174 67.4348 19.1773C67.1293 19.1422 66.8237 19.1272 66.5332 19.1272L66.5132 19.1172ZM70.1394 39.1561C70.2446 36.8472 70.6703 34.4181 71.4316 31.7836C71.4116 32.2794 71.3865 32.7302 71.3515 33.1559C71.2563 34.4181 71.081 35.6351 70.8356 36.8071C70.6703 37.6085 70.4449 38.3748 70.1644 39.101C70.1594 39.121 70.1494 39.136 70.1444 39.1561H70.1394Z" fill="white"/>
</g>
<g id="Group_5">
<path id="Vector_9" d="M57.7282 53.956C57.6431 53.7907 57.558 53.6305 57.4728 53.4702C57.2224 52.9944 56.9619 52.4986 56.7416 51.9977C56.1355 50.6604 55.7148 49.1729 55.3792 47.1846C55.0487 45.1912 54.8333 43.1277 54.7181 40.8739C54.628 39.0558 54.5929 37.2377 54.6179 35.4698C54.658 32.2493 54.8634 28.8385 55.2841 24.4161C55.3392 23.8651 55.4143 23.1389 55.5045 22.4177C55.7048 20.81 55.9051 19.2022 56.1155 17.5945L56.1856 17.0736C56.3359 15.9568 56.4911 14.7998 56.6714 13.6679C56.8367 12.6662 57.022 11.6445 57.2024 10.6578C57.2925 10.172 57.3827 9.68115 57.4678 9.19533C57.4678 9.16027 57.4778 9.1202 57.4878 9.08013C57.5079 8.91986 57.5179 8.79465 57.5229 8.66944C57.5279 8.60933 57.5229 8.56927 57.5229 8.5292C57.5229 8.409 57.4928 8.29881 57.4428 8.21367C57.3977 8.12852 57.3326 8.06842 57.2524 8.01834L57.2224 8.00331L57.2124 7.99329C57.1773 7.97326 57.1422 7.95823 57.1072 7.94822L57.0421 7.93319L57.0321 7.92317C57.0321 7.92317 57.017 7.92317 57.012 7.91817H56.987L56.9569 7.90314C56.9419 7.89813 56.9269 7.89813 56.9119 7.89312L56.8618 7.88311C56.6013 7.83803 56.3309 7.81299 56.0604 7.81299C55.4544 7.81299 54.8584 7.9382 54.2924 8.17861C53.7815 8.39898 53.3558 8.67444 53.0252 9.005C52.92 9.10517 52.8249 9.22037 52.7548 9.30551C52.6897 9.39066 52.6195 9.48582 52.5594 9.58599C52.3791 9.88149 52.2439 10.212 52.1537 10.5777C52.1237 10.6929 52.0986 10.803 52.0736 10.9182L52.0085 11.1837C51.8933 11.7096 51.7781 12.2705 51.6429 13.0018C51.2572 15.0402 50.9066 17.2389 50.571 19.7231C50.5009 20.239 50.4358 20.7549 50.3707 21.2707C50.3206 21.6614 50.2755 22.0621 50.2305 22.4527L50.2154 22.578C50.1603 23.0287 50.1103 23.4795 50.0652 23.9252C50.0652 23.9553 50.0602 23.9903 50.0552 24.0204C50.0552 24.0504 50.0502 24.0755 50.0451 24.1055C50.0401 24.1656 50.0351 24.2257 50.0251 24.2909C50.0201 24.3459 50.0151 24.406 50.0101 24.4611C49.985 24.7015 49.96 24.9369 49.935 25.1673C49.9099 25.4027 49.8849 25.6381 49.8598 25.8735L49.8198 26.3193C49.7897 26.6198 49.7647 26.9203 49.7396 27.2158C49.6945 27.7066 49.6545 28.1824 49.6144 28.6683C49.5994 28.8335 49.5844 28.9988 49.5743 29.1591L49.5543 29.3945C49.5092 29.9755 49.4642 30.5665 49.4291 31.1525C49.4141 31.5431 49.399 31.9388 49.379 32.3345L49.359 32.7802C49.3139 33.7969 49.2688 34.8487 49.2538 35.8805C49.2438 36.5466 49.2388 37.2127 49.2388 37.8838C49.2388 39.0408 49.2588 40.1727 49.2738 41.0292C49.2738 41.3146 49.2838 41.5901 49.2939 41.8706C49.3239 42.682 49.369 43.5134 49.4391 44.4049C49.4642 44.7254 49.4942 45.0359 49.5243 45.3515C49.6094 46.228 49.7196 47.1595 49.8498 48.1913C49.8899 48.5168 49.935 48.8374 49.985 49.1629C50.1403 50.1796 50.3406 51.1463 50.5811 52.0428C50.9567 53.4652 51.4325 54.6823 52.0385 55.7541C52.0986 55.8542 52.1587 55.9594 52.2289 56.0546C52.299 56.1597 52.3691 56.2549 52.4442 56.3451C52.5144 56.4252 52.5845 56.5154 52.6596 56.6005L52.6846 56.6255C52.7397 56.6806 52.7948 56.7407 52.8549 56.7958L52.875 56.8159L52.9551 56.891C53.0102 56.9461 53.0703 56.9962 53.1304 57.0462C53.451 57.3067 53.7865 57.502 54.1371 57.6172C54.3224 57.6823 54.5078 57.7224 54.7081 57.7424C54.8133 57.7575 54.9084 57.7675 55.0387 57.7675C55.2039 57.7675 55.3742 57.7524 55.5545 57.7274C57.2775 57.462 58.1139 56.5504 58.0488 55.0228C58.0388 54.6823 57.9386 54.3467 57.7383 53.961L57.7282 53.956Z" fill="white"/>
<path id="Vector_10" d="M56.0656 7.81318C56.3361 7.81318 56.6066 7.83822 56.867 7.8833L56.9171 7.89332C56.9171 7.89332 56.9471 7.89331 56.9622 7.90333L56.9922 7.91335H57.0173C57.0173 7.91335 57.0323 7.92337 57.0373 7.92337L57.0473 7.93338L57.1124 7.94841C57.1525 7.95843 57.1876 7.97345 57.2176 7.99348L57.2276 8.0035L57.2577 8.01853C57.3428 8.0636 57.4029 8.12871 57.448 8.21386C57.4981 8.299 57.5231 8.40919 57.5281 8.52939C57.5281 8.56946 57.5281 8.61453 57.5281 8.66963C57.5281 8.78983 57.5131 8.92005 57.4931 9.07531C57.4831 9.12039 57.4781 9.16046 57.473 9.19051C57.3879 9.67633 57.2977 10.1672 57.2076 10.653C57.0273 11.6397 56.842 12.6564 56.6767 13.6631C56.4914 14.795 56.3411 15.9519 56.1909 17.0688L56.1207 17.5897C55.9104 19.1974 55.71 20.8051 55.5097 22.4129C55.4145 23.1341 55.3444 23.8603 55.2893 24.4113C54.8686 28.8387 54.6632 32.2445 54.6232 35.4649C54.5981 37.2329 54.6332 39.056 54.7234 40.8691C54.8335 43.1229 55.0539 45.1864 55.3845 47.1797C55.7201 49.1681 56.1408 50.6556 56.7468 51.9929C56.9722 52.4937 57.2276 52.9896 57.4781 53.4654C57.5632 53.6257 57.6483 53.7909 57.7335 53.9512C57.9338 54.3369 58.034 54.6724 58.044 55.013C58.1141 56.5406 57.2727 57.4521 55.5498 57.7176C55.3644 57.7476 55.1942 57.7576 55.0339 57.7576C54.9037 57.7576 54.8085 57.7526 54.7033 57.7326C54.508 57.7126 54.3227 57.6725 54.1323 57.6074C53.7868 57.4922 53.4462 57.3019 53.1256 57.0364C53.0655 56.9863 53.0054 56.9362 52.9503 56.8812L52.8702 56.806L52.8502 56.786C52.7951 56.7309 52.735 56.6758 52.6799 56.6157L52.6548 56.5907C52.5797 56.5055 52.5096 56.4204 52.4395 56.3352C52.3693 56.2451 52.2992 56.1499 52.2241 56.0447C52.154 55.9446 52.0939 55.8394 52.0338 55.7442C51.4277 54.6674 50.9519 53.4554 50.5763 52.033C50.3359 51.1364 50.1355 50.1698 49.9803 49.1531C49.9302 48.8275 49.8851 48.507 49.845 48.1814C49.7148 47.1447 49.6096 46.2131 49.5195 45.3416C49.4894 45.0261 49.4594 44.7156 49.4343 44.395C49.3642 43.5035 49.3191 42.6721 49.2891 41.8608C49.2791 41.5803 49.2741 41.3048 49.2691 41.0193C49.254 40.1629 49.234 39.031 49.234 37.874C49.234 37.2029 49.234 36.5317 49.249 35.8706C49.264 34.8389 49.3091 33.7871 49.3542 32.7704L49.3742 32.3246C49.3943 31.934 49.4093 31.5383 49.4243 31.1426C49.4594 30.5566 49.5045 29.9706 49.5495 29.3847L49.5696 29.1493C49.5796 28.984 49.5946 28.8237 49.6096 28.6584C49.6497 28.1726 49.6898 27.6918 49.7348 27.206C49.7599 26.9055 49.7849 26.605 49.815 26.3095L49.8551 25.8637C49.8801 25.6283 49.9051 25.3929 49.9302 25.1575C49.9552 24.9221 49.9753 24.6917 50.0053 24.4513C50.0053 24.3912 50.0153 24.3361 50.0203 24.281C50.0253 24.2209 50.0354 24.1608 50.0404 24.0957C50.0404 24.0707 50.0454 24.0406 50.0504 24.0106C50.0504 23.9755 50.0604 23.9405 50.0604 23.9154C50.1055 23.4646 50.1556 23.0189 50.2107 22.5681L50.2257 22.4429C50.2708 22.0473 50.3158 21.6516 50.3659 21.2609C50.431 20.7451 50.4961 20.2292 50.5663 19.7133C50.8968 17.2291 51.2474 15.0304 51.6381 12.9919C51.7733 12.2607 51.8885 11.6998 52.0037 11.1739L52.0688 10.9084C52.0939 10.7932 52.1239 10.683 52.149 10.5678C52.2391 10.2072 52.3743 9.87166 52.5547 9.57616C52.6148 9.47599 52.6849 9.38083 52.75 9.29569C52.8201 9.21054 52.9153 9.09535 53.0204 8.99518C53.351 8.66963 53.7817 8.38915 54.2876 8.16878C54.8586 7.92837 55.4546 7.80316 56.0556 7.80316M56.0556 3.79639C54.9087 3.79639 53.7817 4.02678 52.7149 4.48255C51.7433 4.89825 50.9119 5.44918 50.2257 6.12032C49.9702 6.36573 49.7749 6.60113 49.6447 6.75639C49.6096 6.80147 49.5696 6.84655 49.5345 6.89663C49.4393 7.02685 49.2941 7.22218 49.1438 7.46259C49.1388 7.4726 49.1338 7.47761 49.1288 7.48763C48.7381 8.13372 48.4426 8.84492 48.2573 9.6012C48.2273 9.72141 48.1972 9.85163 48.1672 9.98185L48.1071 10.2373C48.1071 10.2373 48.0971 10.2773 48.092 10.2924C47.9618 10.8683 47.8416 11.4694 47.6964 12.2457C47.2957 14.3442 46.9351 16.6181 46.5945 19.1774C46.5244 19.6983 46.4593 20.2242 46.3891 20.7551C46.3391 21.1608 46.289 21.5714 46.2439 21.9821L46.2289 22.0973C46.1688 22.5731 46.1187 23.0439 46.0686 23.5197C46.0686 23.5247 46.0686 23.5298 46.0686 23.5348C46.0586 23.6249 46.0486 23.695 46.0436 23.7652L46.0335 23.8603C46.0285 23.9304 46.0185 24.0006 46.0135 24.0707C45.9885 24.3061 45.9634 24.5315 45.9434 24.7618C45.9183 24.9922 45.8983 25.2176 45.8733 25.448C45.8733 25.468 45.8733 25.4881 45.8683 25.5081L45.8282 25.9539C45.7981 26.2594 45.7731 26.5649 45.748 26.8754C45.703 27.3562 45.6629 27.827 45.6228 28.3028C45.6028 28.4932 45.5878 28.6785 45.5778 28.8638L45.5627 29.0892C45.5177 29.7002 45.4676 30.3112 45.4325 30.9173C45.4325 30.9473 45.4325 30.9774 45.4325 31.0074C45.4175 31.383 45.4025 31.7587 45.3874 32.1343C45.3874 32.1443 45.3874 32.1594 45.3874 32.1694L45.3674 32.6151C45.3223 33.6619 45.2772 34.7387 45.2572 35.8155C45.2472 36.5067 45.2422 37.1979 45.2422 37.889C45.2422 39.0811 45.2622 40.238 45.2772 41.1095C45.2823 41.41 45.2873 41.7155 45.2973 42.021C45.3273 42.8875 45.3774 43.769 45.4525 44.7206C45.4776 45.0662 45.5126 45.4017 45.5427 45.7423C45.6379 46.6739 45.748 47.6355 45.8833 48.7073C45.9284 49.0579 45.9784 49.4235 46.0335 49.7842C46.2138 50.9411 46.4442 52.053 46.7197 53.0847C47.1805 54.8327 47.7815 56.3553 48.5578 57.7276C48.5729 57.7526 48.5879 57.7777 48.6029 57.8027C48.6831 57.9379 48.7932 58.1233 48.9435 58.3386C49.0537 58.5039 49.1739 58.6692 49.3091 58.8395C49.3342 58.8745 49.3642 58.9046 49.3893 58.9396C49.4844 59.0548 49.5746 59.16 49.6647 59.2602C49.6948 59.2952 49.7248 59.3253 49.7549 59.3603L49.7799 59.3854C49.8651 59.4755 49.9552 59.5657 50.0504 59.6558L50.0654 59.6659C50.1055 59.7059 50.1506 59.746 50.1906 59.7861C50.3359 59.9263 50.4611 60.0315 50.5362 60.0966C50.5512 60.1116 50.5763 60.1266 50.5913 60.1417C51.2825 60.7076 52.0388 61.1334 52.8452 61.4088C53.2859 61.5591 53.7417 61.6642 54.2075 61.7143C54.4779 61.7494 54.7434 61.7694 55.0439 61.7694C55.4145 61.7694 55.7852 61.7394 56.1708 61.6793C59.9022 61.0983 62.2111 58.4188 62.0559 54.8477C62.0208 53.9111 61.7704 53.0146 61.2946 52.1031C61.2144 51.9428 61.1243 51.7725 61.0341 51.6022C60.8037 51.1615 60.5833 50.7408 60.408 50.3551C59.9423 49.3284 59.6167 48.1464 59.3412 46.5086C59.0357 44.6805 58.8354 42.7623 58.7352 40.6637C58.65 38.9308 58.615 37.1979 58.64 35.515C58.6801 32.4048 58.8804 29.0942 59.2911 24.7869C59.3412 24.276 59.4113 23.5899 59.4965 22.9237C59.6968 21.306 59.8972 19.7083 60.1075 18.1106L60.1777 17.6047C60.3229 16.5079 60.4732 15.386 60.6485 14.3042C60.8087 13.3475 60.989 12.3458 61.1643 11.3792C61.2545 10.8834 61.3446 10.3925 61.4348 9.90171C61.4398 9.87166 61.4448 9.84161 61.4498 9.81657C61.4648 9.74645 61.4749 9.67633 61.4849 9.60621C61.5199 9.35078 61.54 9.1254 61.55 8.90503C61.56 8.73474 61.56 8.60452 61.56 8.53941C61.56 8.49934 61.56 8.44925 61.56 8.4142C61.535 7.6479 61.3296 6.90665 60.964 6.25555C60.5934 5.59443 60.0675 5.0435 59.4264 4.64282C59.3813 4.61277 59.3362 4.58272 59.2861 4.55767C59.0157 4.3974 58.7252 4.26217 58.4197 4.16201C58.4046 4.16201 58.3946 4.15199 58.3796 4.14698C58.2444 4.09689 58.1091 4.06184 57.9739 4.02678C57.8737 4.00173 57.7736 3.97669 57.6684 3.96167H57.6584C57.6283 3.95165 57.5932 3.94664 57.5632 3.94163C57.0724 3.85649 56.5715 3.81141 56.0706 3.81141L56.0556 3.79639Z" fill="white"/>
</g>
<g id="Group_6">
<path id="Vector_11" d="M44.6862 14.1938C43.8147 12.8415 42.6978 11.6595 41.3755 10.6878C40.0232 9.69616 38.5357 8.85975 36.8278 8.14354C33.6223 6.80127 30.0763 5.95484 25.9893 5.57419C25.0126 5.47903 23.9658 5.43896 22.7838 5.43896C22.4332 5.43896 22.0876 5.44397 21.737 5.44898C20.3897 5.47402 19.0575 5.61927 17.7853 5.8747C16.2727 6.18523 14.8252 6.78123 13.478 7.66273C12.8469 8.07342 12.2809 8.57928 11.8051 9.16527C11.4194 9.65109 10.9987 10.4825 10.9436 10.9282C10.9186 11.1236 10.8635 11.5243 10.9787 11.7446C11.2191 12.2054 11.5246 12.4608 11.9403 12.536C12.1407 12.571 12.3761 12.6111 12.7768 12.6161C13.2826 12.6161 13.8336 12.536 14.3945 12.3857C15.7618 12.0051 17.1242 11.8648 18.7519 11.7647C21.3213 11.6044 24.036 11.7096 26.7756 12.0752C28.5487 12.3106 30.1364 12.6462 31.6089 13.0969C33.2967 13.6078 34.8244 14.339 36.1516 15.2756C36.8328 15.7464 37.3537 16.2623 37.7493 16.8433C38.5758 18.0503 38.8813 19.3675 38.6659 20.7549V20.82C38.6409 20.9252 38.6258 21.0303 38.6208 21.1405C38.5758 21.8217 38.3954 22.4978 38.0599 23.2841C37.534 24.5062 36.8178 25.6582 35.9312 26.6999C35.2952 27.4462 34.5839 28.1524 33.7575 28.8636C32.841 29.6549 32.0296 30.2559 31.2132 30.7568C29.941 31.5331 28.5186 32.2293 26.8608 32.8804C26.7506 32.9204 26.6604 32.9605 26.4601 33.0056C26.1295 33.0807 25.809 32.9154 25.5986 32.635C25.4784 32.4697 25.3933 32.2643 25.3782 32.064C25.3532 31.8136 25.3332 31.5231 25.3482 31.2226C25.4283 29.8853 25.5235 28.3076 25.6687 26.735C25.7789 25.3977 25.8941 24.0554 26.0093 22.7182C26.0594 22.1372 26.0444 21.6313 25.9693 21.1606C25.8741 20.5796 25.7138 19.8233 25.3332 19.1772C24.9475 18.5211 24.4216 18.1404 23.7254 18.0052C23.6002 17.9802 23.455 17.9752 23.2897 17.9752C23.2346 17.9752 23.1795 17.9702 23.1244 17.9702C22.5084 17.9752 22.0576 18.1705 21.7521 18.3809C21.6319 18.461 21.5217 18.5561 21.4265 18.6613C21.3714 18.7264 21.3213 18.7765 21.2863 18.8266L21.1961 18.9618C21.116 19.087 21.0559 19.2273 21.0008 19.3775C20.9807 19.4477 20.9557 19.5078 20.9257 19.5779C20.9056 19.628 20.8856 19.6881 20.8605 19.7381C20.6903 20.239 20.55 20.7949 20.4248 21.5162C20.2495 22.5229 20.0792 23.5296 19.9139 24.5413L19.8188 25.1323C19.7086 25.7984 19.5934 26.4946 19.5183 27.1707C19.2428 29.5247 19.0575 31.4379 18.9473 33.1809C18.9323 33.4313 18.9122 33.6817 18.8922 33.9372L18.8521 34.4931C18.8221 34.9389 18.5917 35.2995 18.206 35.5148C17.8604 35.7051 17.4848 35.8855 17.034 35.9305C16.7636 35.9606 16.4981 35.9956 16.2276 36.0257C15.872 36.0658 15.5164 36.1108 15.1608 36.1459C13.9087 36.2711 12.6666 36.3913 11.4194 36.5115C10.3526 36.6117 9.29081 36.7169 8.22399 36.812L6.77152 36.9472C6.3508 36.9873 6.09036 37.0374 5.73475 37.1175C5.59451 37.1476 5.43924 37.2427 5.31904 37.383C4.84323 37.9139 4.62786 38.4398 4.58779 38.9607C4.55273 39.5066 4.58278 40.0475 4.68296 40.6034C4.83321 41.4348 5.21386 42.0909 5.83993 42.6068C5.97516 42.722 6.10538 42.7721 6.26065 42.7771H6.51608C6.77653 42.7921 7.03697 42.7971 7.29741 42.7921L8.45439 42.7521C9.73657 42.707 11.0238 42.6569 12.306 42.5968C13.4429 42.5417 14.5848 42.4666 15.7518 42.3915L17.3796 42.2863C18.1058 42.2863 18.3212 42.737 18.4164 43.0676C18.4915 43.298 18.5015 43.5384 18.5065 43.7487C18.5065 43.894 18.5015 44.0292 18.4965 44.1695C18.4965 44.3147 18.4915 44.4449 18.4965 44.5751C18.5466 46.9341 18.6368 48.8374 18.812 50.5753C18.9873 52.4034 19.2628 53.9861 19.6385 55.4185C19.949 56.5905 20.3096 57.492 20.7904 58.2683C21.0058 58.5989 21.1761 58.8343 21.3564 59.0196C21.7821 59.4804 22.318 59.6857 22.9641 59.6356C23.7905 59.5805 24.647 59.4353 25.4784 58.9745C25.8641 58.7591 26.2597 58.3635 26.3749 58.1631C26.6604 57.6673 26.7406 57.2315 26.7005 56.5554C26.6755 56.0395 26.5953 55.5036 26.5302 55.0529C26.385 54.0662 26.0744 53.1196 25.7489 52.153C25.5035 51.4317 25.3682 50.8007 25.2831 50.2748C25.1679 49.5736 25.0928 48.7322 25.0377 47.8757C25.0076 47.4049 24.9876 46.9291 24.9675 46.4533C24.9575 46.0426 24.9425 45.6269 24.9175 45.2162C24.8273 43.7487 24.9225 42.2713 25.0226 41.0041C25.0327 40.9039 25.0377 40.8238 25.0527 40.7387C25.1879 40.0224 25.6237 39.757 25.9642 39.6568C26.0143 39.6418 26.0694 39.6218 26.1195 39.6017L26.2197 39.5617C28.9594 38.4798 31.4185 37.2778 33.7325 35.8855C36.3169 34.3328 38.4906 32.7351 40.3688 30.9972C42.0517 29.4496 43.3489 27.8569 44.3506 26.129C45.5877 24.0004 46.1937 21.9018 46.2038 19.7181C46.2088 17.5995 45.7029 15.7865 44.6561 14.1687L44.6862 14.1938Z" fill="white"/>
<path id="Vector_12" d="M22.7837 5.44401C23.9657 5.44401 25.0125 5.48408 25.9891 5.57924C30.0761 5.95988 33.6221 6.80631 36.8276 8.14858C38.5355 8.8648 40.0231 9.70121 41.3754 10.6929C42.6976 11.6645 43.8145 12.8465 44.686 14.1988C45.7328 15.8166 46.2387 17.6296 46.2336 19.7482C46.2236 21.9319 45.6176 24.0304 44.3805 26.159C43.3788 27.887 42.0766 29.4797 40.3987 31.0273C38.5205 32.7652 36.3468 34.3629 33.7624 35.9155C31.4484 37.3079 28.9892 38.5099 26.2496 39.5918L26.1494 39.6318C26.0993 39.6519 26.0442 39.6719 25.9941 39.6869C25.6485 39.7871 25.2178 40.0525 25.0826 40.7688C25.0676 40.8539 25.0625 40.934 25.0525 41.0342C24.9524 42.3013 24.8572 43.7788 24.9473 45.2463C24.9724 45.657 24.9874 46.0727 24.9974 46.4834C25.0125 46.9592 25.0325 47.435 25.0676 47.9058C25.1226 48.7623 25.1978 49.5987 25.313 50.3049C25.3981 50.8358 25.5333 51.4618 25.7788 52.1831C26.1093 53.1497 26.4149 54.0963 26.5601 55.083C26.6302 55.5387 26.7053 56.0696 26.7304 56.5855C26.7654 57.2667 26.6903 57.6974 26.4048 58.1932C26.2896 58.3886 25.894 58.7892 25.5083 59.0046C24.6769 59.4654 23.8154 59.6106 22.994 59.6657C22.9289 59.6707 22.8638 59.6757 22.8037 59.6757C22.2427 59.6757 21.7719 59.4654 21.3863 59.0497C21.211 58.8593 21.0357 58.629 20.8203 58.2984C20.3395 57.5221 19.9739 56.6156 19.6683 55.4486C19.2927 54.0111 19.0222 52.4285 18.8419 50.6054C18.6716 48.8675 18.5815 46.9642 18.5264 44.6052C18.5214 44.475 18.5264 44.3448 18.5264 44.1996C18.5314 44.0593 18.5364 43.9241 18.5364 43.7788C18.5314 43.5685 18.5214 43.3281 18.4463 43.0977C18.3461 42.7621 18.1307 42.3164 17.4095 42.3164L15.7817 42.4215C14.6097 42.4967 13.4728 42.5668 12.3358 42.6269C11.0537 42.692 9.76646 42.7371 8.48428 42.7822L7.3273 42.8222C7.25718 42.8222 7.18706 42.8222 7.11694 42.8222C6.92662 42.8222 6.73629 42.8222 6.54597 42.8122H6.29053C6.13527 42.8022 6.00505 42.7471 5.86982 42.6369C5.24375 42.121 4.8631 41.4599 4.71284 40.6335C4.61267 40.0726 4.58262 39.5367 4.61768 38.9907C4.65274 38.4699 4.87312 37.944 5.34893 37.4131C5.46913 37.2778 5.6244 37.1827 5.76464 37.1476C6.12024 37.0675 6.38069 37.0224 6.80141 36.9773L8.25388 36.8421C9.3207 36.7419 10.3825 36.6368 11.4493 36.5416C12.6965 36.4214 13.9386 36.3012 15.1907 36.176C15.5463 36.1409 15.9019 36.0958 16.2575 36.0558C16.523 36.0257 16.7884 35.9907 17.0639 35.9606C17.5147 35.9155 17.8903 35.7302 18.2359 35.5449C18.6216 35.3245 18.852 34.9639 18.882 34.5232L18.9221 33.9673C18.9421 33.7118 18.9621 33.4614 18.9772 33.211C19.0874 31.468 19.2677 29.5548 19.5481 27.2008C19.6283 26.5297 19.7435 25.8335 19.8487 25.1624L19.9438 24.5714C20.1091 23.5647 20.2794 22.558 20.4547 21.5462C20.5799 20.82 20.7151 20.2691 20.8904 19.7682C20.9105 19.7182 20.9305 19.6581 20.9555 19.608C20.9806 19.5378 21.0056 19.4777 21.0307 19.4076C21.0808 19.2574 21.1459 19.1171 21.226 18.9919L21.3162 18.8567C21.3512 18.8066 21.4013 18.7515 21.4564 18.6914C21.5516 18.5862 21.6617 18.4861 21.782 18.4109C22.0925 18.1956 22.5382 18.0053 23.1543 18.0002C23.2094 18.0002 23.2645 18.0053 23.3196 18.0053C23.4798 18.0053 23.6301 18.0103 23.7553 18.0353C24.4515 18.1655 24.9774 18.5462 25.3631 19.2073C25.7437 19.8534 25.904 20.6097 25.9991 21.1906C26.0793 21.6614 26.0943 22.1673 26.0392 22.7483C25.924 24.0855 25.8088 25.4278 25.6986 26.7651C25.5584 28.3377 25.4582 29.9154 25.3781 31.2527C25.3631 31.5482 25.3831 31.8437 25.4081 32.0941C25.4232 32.2944 25.5083 32.4948 25.6285 32.665C25.8038 32.9004 26.0592 33.0557 26.3297 33.0557C26.3798 33.0557 26.4349 33.0507 26.49 33.0407C26.6953 32.9956 26.7805 32.9555 26.8907 32.9155C28.5535 32.2644 29.9709 31.5682 31.2431 30.7919C32.0595 30.291 32.8659 29.69 33.7874 28.8987C34.6138 28.1875 35.325 27.4813 35.9611 26.735C36.8476 25.6983 37.5639 24.5413 38.0898 23.3192C38.4253 22.5329 38.6006 21.8518 38.6507 21.1756C38.6557 21.0654 38.6707 20.9603 38.6908 20.8551V20.79C38.9112 19.4026 38.6006 18.0854 37.7792 16.8783C37.3836 16.2974 36.8627 15.7815 36.1815 15.3107C34.8542 14.3741 33.3266 13.6429 31.6388 13.132C30.1662 12.6762 28.5785 12.3457 26.8055 12.1103C24.9023 11.8549 23.009 11.7296 21.1659 11.7296C20.3595 11.7296 19.5632 11.7547 18.7818 11.8048C17.1541 11.9049 15.7917 12.0452 14.4244 12.4258C13.8584 12.5761 13.3125 12.6562 12.8066 12.6562C12.406 12.6512 12.1706 12.6161 11.9702 12.5761C11.5595 12.4959 11.249 12.2405 11.0086 11.7847C10.8934 11.5644 10.9485 11.1637 10.9735 10.9684C11.0286 10.5226 11.4493 9.69119 11.835 9.20537C12.3108 8.61938 12.8718 8.11353 13.5078 7.70283C14.8551 6.82635 16.3026 6.22533 17.8152 5.91481C19.0874 5.65938 20.4196 5.51413 21.7669 5.48909C22.1175 5.48408 22.4631 5.47907 22.8137 5.47907M22.8137 1.47229C22.4531 1.47229 22.0925 1.4773 21.7319 1.48231C21.7269 1.48231 21.6968 1.48231 21.6918 1.48231C20.1141 1.51236 18.5464 1.68265 17.0288 1.98817C15.0104 2.39886 13.0971 3.1902 11.3241 4.34215C10.3374 4.98824 9.46595 5.76956 8.72969 6.67609C8.71968 6.68611 8.71467 6.69613 8.70465 6.70615C8.03351 7.54757 7.18706 9.04009 7.00175 10.4575C6.93664 10.9684 6.76635 12.3056 7.46253 13.6379C8.26891 15.1805 9.60619 16.2022 11.2239 16.5077C11.6046 16.5778 12.0654 16.648 12.7566 16.658C12.7716 16.658 12.7916 16.658 12.8066 16.658C13.6631 16.658 14.5596 16.5328 15.4662 16.2924C15.4762 16.2924 15.4912 16.2873 15.5012 16.2823C16.4328 16.0219 17.4195 15.9067 18.6716 15.8216C18.6115 15.8817 18.5564 15.9418 18.4963 16.0069C18.3561 16.1621 18.2008 16.3374 18.0356 16.5728C18.0105 16.6079 17.9855 16.643 17.9654 16.678L17.8753 16.8132C17.8753 16.8132 17.8452 16.8583 17.8302 16.8834C17.5948 17.259 17.4045 17.6647 17.2492 18.1154C17.2492 18.1204 17.2492 18.1255 17.2442 18.1355L17.2242 18.1805L17.1891 18.2757L17.1791 18.3058C17.1541 18.3659 17.134 18.421 17.114 18.4861C16.8686 19.1973 16.6833 19.9586 16.523 20.8851C16.3477 21.8918 16.1774 22.9136 16.0071 23.9353C16.0071 23.9453 16.0071 23.9503 16.0071 23.9603L15.9119 24.5513V24.5914C15.7917 25.2876 15.6715 26.0088 15.5864 26.7551C15.341 28.8536 15.1657 30.6016 15.0505 32.1792C14.9653 32.1892 14.8852 32.1993 14.8 32.2043C13.5629 32.3295 12.3258 32.4497 11.0837 32.5649C10.5628 32.615 10.0269 32.665 9.49099 32.7151C8.96009 32.7652 8.42918 32.8153 7.89828 32.8654L6.4458 33.0006C5.79469 33.0657 5.37898 33.1409 4.90317 33.251C3.94654 33.4664 3.05001 33.9973 2.37886 34.7536C1.3421 35.9155 0.741072 37.2879 0.640901 38.7203C0.580798 39.6068 0.630884 40.4632 0.786149 41.3447C1.1067 43.1077 1.98319 44.6153 3.32548 45.7271C4.14187 46.4133 5.12855 46.7889 6.18035 46.824C6.19537 46.824 6.21541 46.824 6.23043 46.824H6.45081C6.6812 46.839 6.91159 46.844 7.14199 46.844C7.23715 46.844 7.33732 46.844 7.43248 46.844C7.45252 46.844 7.47756 46.844 7.49759 46.844L8.65457 46.804C9.93174 46.7589 11.249 46.7088 12.5612 46.6437C13.2474 46.6086 13.9185 46.5686 14.6047 46.5285C14.6648 48.2815 14.755 49.7139 14.8852 51.0211C15.0805 53.0395 15.386 54.8325 15.8218 56.4853C16.2325 58.053 16.7484 59.3051 17.4446 60.427C17.4596 60.452 17.4796 60.4821 17.4946 60.5071C17.7351 60.8778 18.0656 61.3586 18.4913 61.8143C19.6333 63.0314 21.1709 63.7075 22.8337 63.7075C22.994 63.7075 23.1593 63.7025 23.3196 63.6875C24.3513 63.6124 25.899 63.412 27.4867 62.5306C28.4583 61.9896 29.405 61.0881 29.9008 60.2267C30.7673 58.7341 30.8123 57.3969 30.7623 56.3952C30.7272 55.684 30.627 55.0078 30.5519 54.517C30.3566 53.2148 29.9909 52.0729 29.6003 50.9209C29.4651 50.5253 29.3699 50.1346 29.2998 49.6888C29.2246 49.218 29.1545 48.5569 29.0994 47.6654C29.0744 47.2948 29.0544 46.8791 29.0393 46.3983C29.0243 45.8924 29.0093 45.4417 28.9792 45.026C28.9392 44.3248 28.9492 43.5835 28.9792 42.8473C31.4534 41.8105 33.7173 40.6686 35.866 39.3764C38.6908 37.6835 41.0749 35.9206 43.1534 33.9973C45.1218 32.1892 46.6694 30.291 47.8815 28.2025C49.4792 25.4529 50.2605 22.7032 50.2755 19.7983C50.2805 16.9184 49.5493 14.314 48.0918 12.0552C46.9549 10.2972 45.5074 8.75962 43.7895 7.49748C42.1667 6.30547 40.4087 5.32381 38.4153 4.48739C34.8092 2.97984 30.8825 2.04326 26.3998 1.62255C25.333 1.52238 24.161 1.46729 22.8237 1.46729L22.8137 1.47229ZM29.7055 27.0205C29.8106 25.7183 29.9258 24.4111 30.036 23.1039C30.1162 22.2074 30.0911 21.3659 29.9559 20.5445C29.8207 19.7081 29.5502 18.431 28.819 17.1889C28.6587 16.9184 28.4834 16.658 28.2981 16.4176C29.0644 16.5728 29.7856 16.7531 30.4668 16.9635C31.769 17.3592 32.9109 17.9051 33.8826 18.5862C33.8926 18.5912 33.9026 18.6013 33.9126 18.6063C34.1731 18.7866 34.3634 18.9619 34.4836 19.1422C34.7691 19.5629 34.7991 19.8634 34.7491 20.1789C34.7441 20.219 34.739 20.2591 34.734 20.2991C34.699 20.5095 34.6789 20.7098 34.6639 20.9102C34.6539 21.0504 34.6088 21.2858 34.4185 21.7366C34.0429 22.598 33.542 23.4044 32.926 24.1256C32.4301 24.7116 31.8591 25.2725 31.188 25.8535C30.6521 26.3143 30.1713 26.6899 29.7105 27.0155L29.7055 27.0205Z" fill="white"/>
</g>
</g>
<g id="Group_7">
<path id="Vector_13" d="M105.755 42.8722C105.735 42.5917 105.63 42.1259 105.63 42.1259C105.59 41.9156 105.54 41.7303 105.47 41.5499C105.29 41.0491 105.004 40.6084 104.614 40.2227C104.598 40.2077 104.583 40.1927 104.568 40.1776L104.558 40.1676L104.548 40.1576C104.458 40.0725 104.373 39.9923 104.283 39.9272C103.266 39.1158 102.049 38.5298 100.662 38.1893C99.8354 37.9839 98.9839 37.8086 98.1575 37.6383L97.4964 37.5031H97.4663C97.1208 37.423 96.7752 37.3478 96.4346 37.2777C96.2042 37.2276 95.9788 37.1675 95.7534 37.1074C95.5981 37.0674 95.4379 37.0173 95.2826 36.9672L95.0973 36.9121L94.917 36.857C94.8619 36.837 94.8018 36.822 94.7467 36.8019C94.6415 36.7669 94.5163 36.7218 94.4011 36.6717C93.8402 36.4664 93.3093 36.2009 92.8184 35.8904C92.2525 35.5448 91.9019 35.0139 91.8067 34.3628C91.6815 33.5514 91.8167 32.7601 92.2074 32.0088C93.0588 30.351 94.3761 29.0388 96.109 28.1122C96.3895 27.967 96.6449 27.8618 96.8904 27.8017C97.1508 27.7366 97.3712 27.7065 97.5765 27.7065C98.2627 27.7065 98.7986 28.0371 99.2093 28.7182C99.4998 29.1941 99.8003 29.7049 100.176 30.3811C100.186 30.4011 100.196 30.4161 100.201 30.4261C100.241 30.5013 100.291 30.5714 100.346 30.6315C100.401 30.6866 100.461 30.7317 100.532 30.7767C100.667 30.8519 100.832 30.8919 101.032 30.8919H101.098C102.435 30.8318 103.236 30.2158 103.557 29.0087C103.587 28.9086 103.617 28.8084 103.637 28.7082C103.937 27.5062 103.872 26.2591 103.427 24.7816C103.406 24.6964 103.381 24.6213 103.356 24.5462C103.306 24.3859 103.246 24.2257 103.176 24.0654C102.976 23.5846 102.705 23.1639 102.38 22.8083C102.335 22.7582 102.285 22.7031 102.239 22.658L102.129 22.5678C101.859 22.3274 101.568 22.1321 101.248 21.9718C101.052 21.8717 100.832 21.7915 100.592 21.7264H100.582L100.547 21.7164C100.461 21.6964 100.381 21.6763 100.301 21.6613H100.276C100.206 21.6363 100.136 21.6313 100.046 21.6212C99.9556 21.6062 99.8704 21.5962 99.7853 21.5912C99.6651 21.5812 99.5499 21.5762 99.4297 21.5762C99.1843 21.5762 98.9439 21.5912 98.7135 21.6263C97.3211 21.8066 96.0589 22.2122 94.9621 22.8333C91.411 24.8167 88.6964 27.7366 86.8883 31.513C85.9367 33.4863 85.536 35.1942 85.6312 36.8871C85.6412 37.0223 85.6512 37.1575 85.6662 37.2877C85.6812 37.413 85.7063 37.5382 85.7313 37.6584V37.6934C85.7614 37.8136 85.7914 37.9338 85.8265 38.049C85.8816 38.2293 85.9517 38.4046 86.0218 38.5649C86.107 38.7402 86.1971 38.8955 86.2923 39.0407C86.3273 39.0908 86.3524 39.1359 86.3874 39.1759L86.4025 39.191L86.4125 39.206C86.4425 39.2511 86.4726 39.2911 86.5077 39.3312C86.5527 39.3863 86.5978 39.4314 86.6379 39.4815C86.6829 39.5265 86.723 39.5716 86.7681 39.6217L86.8432 39.6918C86.9133 39.7669 86.9785 39.822 87.0386 39.8721C87.4593 40.2177 87.9 40.5032 88.3558 40.7336C88.6463 40.8938 88.9268 41.0191 89.2223 41.1292C89.658 41.2995 90.1138 41.4398 90.6147 41.5499C91.7366 41.8054 92.8935 42.0207 94.0104 42.2261C94.4863 42.3162 94.9571 42.4064 95.4279 42.4965C96.4797 42.7019 97.3261 43.0274 98.0273 43.5033C98.6534 43.929 98.9739 44.525 98.9589 45.2262C98.9539 45.3263 98.9439 45.4666 98.9138 45.6168C98.8938 45.722 98.8637 45.8372 98.8186 45.9624C98.8136 45.9975 98.8036 46.0275 98.7886 46.0626C98.7485 46.1778 98.6934 46.308 98.6484 46.4132C98.5332 46.6536 98.413 46.8689 98.2727 47.0693C98.2126 47.1544 98.1375 47.2546 98.0423 47.3648C97.9522 47.47 97.867 47.5601 97.7819 47.6352C97.7067 47.7204 97.6116 47.8055 97.5064 47.8857C97.3211 48.0409 97.1107 48.1862 96.8904 48.3114C96.5648 48.5017 96.2292 48.667 95.8636 48.8172C94.8369 49.248 93.77 49.4683 92.6982 49.4683C92.0271 49.4683 91.3709 49.3882 90.6898 49.2229C89.8884 49.0276 89.1121 48.7121 88.3608 48.4065C88.0252 48.2713 87.6947 48.1361 87.3591 48.0109C87.304 47.9908 87.2539 47.9708 87.2038 47.9508C87.1437 47.9257 87.0786 47.9007 87.0135 47.8756C86.9734 47.8656 86.9384 47.8556 86.8983 47.8506C86.7731 47.8256 86.6579 47.8055 86.5477 47.8005C86.4275 47.7855 86.3223 47.7805 86.1921 47.7805C86.0619 47.7805 85.9467 47.7855 85.8465 47.8005C85.7463 47.8055 85.6512 47.8206 85.531 47.8506C85.4258 47.8656 85.3306 47.8907 85.2154 47.9307C84.6345 48.111 84.0885 48.4817 83.5927 49.0226C83.1569 49.4934 82.9766 50.0493 83.0417 50.7205C83.0718 51.056 83.1419 51.3866 83.2521 51.7021C83.3322 51.9075 83.4174 52.0928 83.5226 52.2631C83.7429 52.6437 84.0384 52.9743 84.4041 53.2447C84.4191 53.2547 84.4291 53.2648 84.4441 53.2698C84.5343 53.3449 84.6244 53.4 84.7246 53.4551C84.925 53.5753 85.1303 53.6805 85.3306 53.7606C85.3907 53.7806 85.4508 53.8057 85.521 53.8307C85.7714 53.9259 86.0168 54.006 86.2071 54.0611C86.8983 54.2715 87.6195 54.4267 88.2406 54.5469C89.3775 54.7723 90.5145 54.8875 91.6164 54.8875C92.8234 54.8875 94.0255 54.7473 95.1824 54.4668C98.3879 53.6955 101.203 51.8874 103.557 49.0877C104.573 47.8756 105.21 46.6936 105.5 45.4766C105.58 45.1661 105.63 44.8355 105.68 44.52C105.685 44.4949 105.69 44.4649 105.695 44.4398C105.695 44.4298 105.695 44.4248 105.7 44.4148C105.796 43.6435 105.781 43.1026 105.755 42.8722Z" fill="#9248FF"/>
<path id="Vector_14" d="M82.205 43.5435C81.8043 42.3865 81.4087 41.1344 81.2083 39.8172C80.7626 36.9874 80.8277 34.1225 80.9579 31.448L81.048 29.685C81.0581 29.5047 81.0731 29.3294 81.0881 29.1541C81.1131 28.8536 81.1332 28.5681 81.1332 28.2776V28.1324C81.1332 28.0172 81.1182 27.902 81.1031 27.7918C81.0631 27.5414 80.9929 27.3361 80.8828 27.1608L80.8427 27.1007C80.7325 26.9404 80.5822 26.8202 80.3969 26.73C80.2717 26.6649 80.1365 26.6198 79.9762 26.5948C79.7608 26.5547 79.5555 26.5347 79.3401 26.5347C78.669 26.5347 78.0479 26.7551 77.492 27.1858C76.32 28.0923 75.6689 29.1391 75.4936 30.3812C75.4685 30.5615 75.4485 30.7518 75.4435 30.9672C75.4385 31.2477 75.4335 31.5231 75.4234 31.7986C75.4034 32.3996 75.3683 32.9405 75.3283 33.4564C75.2231 34.8638 75.0228 36.2561 74.7423 37.5984C74.5319 38.6051 74.2414 39.5868 73.8858 40.5183C73.6955 41.0042 73.4902 41.475 73.2748 41.9107C73.0394 42.3865 72.789 42.8373 72.5285 43.258C71.8123 44.4149 70.9658 45.2063 69.9441 45.6921C69.7438 45.7873 69.5334 45.8524 69.3331 45.8774C69.2078 45.8974 69.1027 45.9024 69.0025 45.9024C68.9875 45.9024 68.9574 45.9024 68.9274 45.8974C68.7621 45.8974 68.6018 45.8724 68.4315 45.8273C67.7704 45.657 67.2645 45.2363 66.924 44.5752C66.388 43.5184 66.1276 42.2863 66.1025 40.6936C66.0475 37.4031 66.5734 33.9623 67.7053 30.1759C68.0809 28.9287 68.5016 27.2759 68.4215 25.558C68.4215 25.4228 68.4065 25.2876 68.3915 25.1524C68.3714 24.957 68.3414 24.7667 68.2913 24.5914C68.2162 24.2759 68.096 24.0004 67.9357 23.77C67.9006 23.7149 67.8706 23.6698 67.8355 23.6348C67.7454 23.5246 67.6602 23.4395 67.5701 23.3643C67.54 23.3393 67.515 23.3142 67.4999 23.3092L67.4799 23.2992L67.4599 23.2842C67.4599 23.2842 67.4098 23.2491 67.3797 23.2391L67.3597 23.2291L67.3397 23.2191C67.3397 23.2191 67.2896 23.194 67.2645 23.184C67.1644 23.144 67.0842 23.1239 66.9991 23.1189C66.8288 23.0989 66.6635 23.0889 66.5032 23.0889C65.2761 23.0889 64.3446 23.5847 63.6534 24.5964C63.1976 25.2575 62.8119 25.9587 62.4914 26.6799C62.4263 26.8252 62.3662 26.9654 62.3111 27.1107C62.1909 27.3962 62.0857 27.6917 61.9855 27.9821C61.65 28.9588 61.3895 29.9855 61.1842 31.1275C60.9989 32.1241 60.8786 33.1308 60.7885 33.8971C60.523 36.4014 60.503 38.8405 60.7384 41.1444C60.9838 43.6336 61.4546 45.7973 62.1759 47.7506C62.4864 48.592 62.822 49.3182 63.2026 49.9743C63.408 50.3299 63.6283 50.6655 63.8637 50.981C64.0941 51.2916 64.3596 51.6021 64.6501 51.9026C64.7002 51.9527 64.7452 51.9978 64.8003 52.0478C65.2361 52.4686 65.6969 52.7741 66.1827 52.9694C66.3981 53.0545 66.6134 53.1197 66.8288 53.1597C67.0592 53.2048 67.2896 53.2248 67.525 53.2248H67.55C67.6302 53.2248 67.7053 53.2248 67.7804 53.2148C68.6769 53.1597 69.5484 52.8742 70.3899 52.3684C72.253 51.2515 73.7456 49.6638 74.9476 47.5052C75.1029 47.2297 75.2481 46.9442 75.3884 46.6637C75.5186 46.4033 75.6488 46.1479 75.7891 45.8924C75.8892 45.6971 76.0094 45.5268 76.1397 45.3816C76.2549 45.2564 76.4101 45.1161 76.6055 45.1161C76.926 45.1161 77.0262 45.4767 77.0662 45.612C77.2315 46.1729 77.4118 46.7739 77.6272 47.3699C77.8125 47.8708 78.1631 48.2164 78.709 48.4217C78.7541 48.4417 78.7942 48.4568 78.8393 48.4668C78.9995 48.5219 79.1498 48.5569 79.2951 48.582C79.4553 48.607 79.5956 48.617 79.7258 48.617C80.6774 48.617 81.5188 48.0811 81.9796 47.1796C82.5656 46.0327 82.6408 44.8006 82.2 43.5184L82.205 43.5435Z" fill="#9248FF"/>
<path id="Vector_15" d="M57.7282 53.956C57.6431 53.7907 57.558 53.6305 57.4728 53.4702C57.2224 52.9944 56.9619 52.4986 56.7416 51.9977C56.1355 50.6604 55.7148 49.1729 55.3792 47.1846C55.0487 45.1912 54.8333 43.1277 54.7181 40.8739C54.628 39.0558 54.5929 37.2377 54.6179 35.4698C54.658 32.2493 54.8634 28.8385 55.2841 24.4161C55.3392 23.8651 55.4143 23.1389 55.5045 22.4177C55.7048 20.81 55.9051 19.2022 56.1155 17.5945L56.1856 17.0736C56.3359 15.9568 56.4911 14.7998 56.6714 13.6679C56.8367 12.6662 57.022 11.6445 57.2024 10.6578C57.2925 10.172 57.3827 9.68115 57.4678 9.19533C57.4678 9.16027 57.4778 9.1202 57.4878 9.08013C57.5079 8.91986 57.5179 8.79465 57.5229 8.66944C57.5279 8.60933 57.5229 8.56927 57.5229 8.5292C57.5229 8.409 57.4928 8.29881 57.4428 8.21367C57.3977 8.12852 57.3326 8.06842 57.2524 8.01834L57.2224 8.00331L57.2124 7.99329C57.1773 7.97326 57.1422 7.95823 57.1072 7.94822L57.0421 7.93319L57.0321 7.92317C57.0321 7.92317 57.017 7.92317 57.012 7.91817H56.987L56.9569 7.90314C56.9419 7.89813 56.9269 7.89813 56.9119 7.89312L56.8618 7.88311C56.6013 7.83803 56.3309 7.81299 56.0604 7.81299C55.4544 7.81299 54.8584 7.9382 54.2924 8.17861C53.7815 8.39898 53.3558 8.67444 53.0252 9.005C52.92 9.10517 52.8249 9.22037 52.7548 9.30551C52.6897 9.39066 52.6195 9.48582 52.5594 9.58599C52.3791 9.88149 52.2439 10.212 52.1537 10.5777C52.1237 10.6929 52.0986 10.803 52.0736 10.9182L52.0085 11.1837C51.8933 11.7096 51.7781 12.2705 51.6429 13.0018C51.2572 15.0402 50.9066 17.2389 50.571 19.7231C50.5009 20.239 50.4358 20.7549 50.3707 21.2707C50.3206 21.6614 50.2755 22.0621 50.2305 22.4527L50.2154 22.578C50.1603 23.0287 50.1103 23.4795 50.0652 23.9252C50.0652 23.9553 50.0602 23.9903 50.0552 24.0204C50.0552 24.0504 50.0502 24.0755 50.0451 24.1055C50.0401 24.1656 50.0351 24.2257 50.0251 24.2909C50.0201 24.3459 50.0151 24.406 50.0101 24.4611C49.985 24.7015 49.96 24.9369 49.935 25.1673C49.9099 25.4027 49.8849 25.6381 49.8598 25.8735L49.8198 26.3193C49.7897 26.6198 49.7647 26.9203 49.7396 27.2158C49.6945 27.7066 49.6545 28.1824 49.6144 28.6683C49.5994 28.8335 49.5844 28.9988 49.5743 29.1591L49.5543 29.3945C49.5092 29.9755 49.4642 30.5665 49.4291 31.1525C49.4141 31.5431 49.399 31.9388 49.379 32.3345L49.359 32.7802C49.3139 33.7969 49.2688 34.8487 49.2538 35.8805C49.2438 36.5466 49.2388 37.2127 49.2388 37.8838C49.2388 39.0408 49.2588 40.1727 49.2738 41.0292C49.2738 41.3146 49.2838 41.5901 49.2939 41.8706C49.3239 42.682 49.369 43.5134 49.4391 44.4049C49.4642 44.7254 49.4942 45.0359 49.5243 45.3515C49.6094 46.228 49.7196 47.1595 49.8498 48.1913C49.8899 48.5168 49.935 48.8374 49.985 49.1629C50.1403 50.1796 50.3406 51.1463 50.5811 52.0428C50.9567 53.4652 51.4325 54.6823 52.0385 55.7541C52.0986 55.8542 52.1587 55.9594 52.2289 56.0546C52.299 56.1597 52.3691 56.2549 52.4442 56.3451C52.5144 56.4252 52.5845 56.5154 52.6596 56.6005L52.6846 56.6255C52.7397 56.6806 52.7948 56.7407 52.8549 56.7958L52.875 56.8159L52.9551 56.891C53.0102 56.9461 53.0703 56.9962 53.1304 57.0462C53.451 57.3067 53.7865 57.502 54.1371 57.6172C54.3224 57.6823 54.5078 57.7224 54.7081 57.7424C54.8133 57.7575 54.9084 57.7675 55.0387 57.7675C55.2039 57.7675 55.3742 57.7524 55.5545 57.7274C57.2775 57.462 58.1139 56.5504 58.0488 55.0228C58.0388 54.6823 57.9386 54.3467 57.7383 53.961L57.7282 53.956Z" fill="#9248FF"/>
<path id="Vector_16" d="M44.6862 14.1938C43.8147 12.8415 42.6978 11.6595 41.3755 10.6878C40.0232 9.69616 38.5357 8.85975 36.8278 8.14354C33.6223 6.80127 30.0763 5.95484 25.9893 5.57419C25.0126 5.47903 23.9658 5.43896 22.7838 5.43896C22.4332 5.43896 22.0876 5.44397 21.737 5.44898C20.3897 5.47402 19.0575 5.61927 17.7853 5.8747C16.2727 6.18523 14.8252 6.78123 13.478 7.66273C12.8469 8.07342 12.2809 8.57928 11.8051 9.16527C11.4194 9.65109 10.9987 10.4825 10.9436 10.9282C10.9186 11.1236 10.8635 11.5243 10.9787 11.7446C11.2191 12.2054 11.5246 12.4608 11.9403 12.536C12.1407 12.571 12.3761 12.6111 12.7768 12.6161C13.2826 12.6161 13.8336 12.536 14.3945 12.3857C15.7618 12.0051 17.1242 11.8648 18.7519 11.7647C21.3213 11.6044 24.036 11.7096 26.7756 12.0752C28.5487 12.3106 30.1364 12.6462 31.6089 13.0969C33.2967 13.6078 34.8244 14.339 36.1516 15.2756C36.8328 15.7464 37.3537 16.2623 37.7493 16.8433C38.5758 18.0503 38.8813 19.3675 38.6659 20.7549V20.82C38.6409 20.9252 38.6258 21.0303 38.6208 21.1405C38.5758 21.8217 38.3954 22.4978 38.0599 23.2841C37.534 24.5062 36.8178 25.6582 35.9312 26.6999C35.2952 27.4462 34.5839 28.1524 33.7575 28.8636C32.841 29.6549 32.0296 30.2559 31.2132 30.7568C29.941 31.5331 28.5186 32.2293 26.8608 32.8804C26.7506 32.9204 26.6604 32.9605 26.4601 33.0056C26.1295 33.0807 25.809 32.9154 25.5986 32.635C25.4784 32.4697 25.3933 32.2643 25.3782 32.064C25.3532 31.8136 25.3332 31.5231 25.3482 31.2226C25.4283 29.8853 25.5235 28.3076 25.6687 26.735C25.7789 25.3977 25.8941 24.0554 26.0093 22.7182C26.0594 22.1372 26.0444 21.6313 25.9693 21.1606C25.8741 20.5796 25.7138 19.8233 25.3332 19.1772C24.9475 18.5211 24.4216 18.1404 23.7254 18.0052C23.6002 17.9802 23.455 17.9752 23.2897 17.9752C23.2346 17.9752 23.1795 17.9702 23.1244 17.9702C22.5084 17.9752 22.0576 18.1705 21.7521 18.3809C21.6319 18.461 21.5217 18.5561 21.4265 18.6613C21.3714 18.7264 21.3213 18.7765 21.2863 18.8266L21.1961 18.9618C21.116 19.087 21.0559 19.2273 21.0008 19.3775C20.9807 19.4477 20.9557 19.5078 20.9257 19.5779C20.9056 19.628 20.8856 19.6881 20.8605 19.7381C20.6903 20.239 20.55 20.7949 20.4248 21.5162C20.2495 22.5229 20.0792 23.5296 19.9139 24.5413L19.8188 25.1323C19.7086 25.7984 19.5934 26.4946 19.5183 27.1707C19.2428 29.5247 19.0575 31.4379 18.9473 33.1809C18.9323 33.4313 18.9122 33.6817 18.8922 33.9372L18.8521 34.4931C18.8221 34.9389 18.5917 35.2995 18.206 35.5148C17.8604 35.7051 17.4848 35.8855 17.034 35.9305C16.7636 35.9606 16.4981 35.9956 16.2276 36.0257C15.872 36.0658 15.5164 36.1108 15.1608 36.1459C13.9087 36.2711 12.6666 36.3913 11.4194 36.5115C10.3526 36.6117 9.29081 36.7169 8.22399 36.812L6.77152 36.9472C6.3508 36.9873 6.09036 37.0374 5.73475 37.1175C5.59451 37.1476 5.43924 37.2427 5.31904 37.383C4.84323 37.9139 4.62786 38.4398 4.58779 38.9607C4.55273 39.5066 4.58278 40.0475 4.68296 40.6034C4.83321 41.4348 5.21386 42.0909 5.83993 42.6068C5.97516 42.722 6.10538 42.7721 6.26065 42.7771H6.51608C6.77653 42.7921 7.03697 42.7971 7.29741 42.7921L8.45439 42.7521C9.73657 42.707 11.0238 42.6569 12.306 42.5968C13.4429 42.5417 14.5848 42.4666 15.7518 42.3915L17.3796 42.2863C18.1058 42.2863 18.3212 42.737 18.4164 43.0676C18.4915 43.298 18.5015 43.5384 18.5065 43.7487C18.5065 43.894 18.5015 44.0292 18.4965 44.1695C18.4965 44.3147 18.4915 44.4449 18.4965 44.5751C18.5466 46.9341 18.6368 48.8374 18.812 50.5753C18.9873 52.4034 19.2628 53.9861 19.6385 55.4185C19.949 56.5905 20.3096 57.492 20.7904 58.2683C21.0058 58.5989 21.1761 58.8343 21.3564 59.0196C21.7821 59.4804 22.318 59.6857 22.9641 59.6356C23.7905 59.5805 24.647 59.4353 25.4784 58.9745C25.8641 58.7591 26.2597 58.3635 26.3749 58.1631C26.6604 57.6673 26.7406 57.2315 26.7005 56.5554C26.6755 56.0395 26.5953 55.5036 26.5302 55.0529C26.385 54.0662 26.0744 53.1196 25.7489 52.153C25.5035 51.4317 25.3682 50.8007 25.2831 50.2748C25.1679 49.5736 25.0928 48.7322 25.0377 47.8757C25.0076 47.4049 24.9876 46.9291 24.9675 46.4533C24.9575 46.0426 24.9425 45.6269 24.9175 45.2162C24.8273 43.7487 24.9225 42.2713 25.0226 41.0041C25.0327 40.9039 25.0377 40.8238 25.0527 40.7387C25.1879 40.0224 25.6237 39.757 25.9642 39.6568C26.0143 39.6418 26.0694 39.6218 26.1195 39.6017L26.2197 39.5617C28.9594 38.4798 31.4185 37.2778 33.7325 35.8855C36.3169 34.3328 38.4906 32.7351 40.3688 30.9972C42.0517 29.4496 43.3489 27.8569 44.3506 26.129C45.5877 24.0004 46.1937 21.9018 46.2038 19.7181C46.2088 17.5995 45.7029 15.7865 44.6561 14.1687L44.6862 14.1938Z" fill="#9248FF"/>
</g>
</g>
</svg>
