<?xml version="1.0" encoding="UTF-8"?>
<svg id="Camada_1" data-name="Camada 1" xmlns="http://www.w3.org/2000/svg" viewBox="0 0 819.25 772.94">
  <defs>
    <style>
      .cls-1 {
        fill: #cdb178;
      }

      .cls-1, .cls-2 {
        stroke-width: 0px;
      }

      .cls-2 {
        fill: #5a4d43;
      }
    </style>
  </defs>
  <g>
    <path class="cls-2" d="m471.85,697h-14.99c2.05,26.49,10.19,51.55,21.69,75.94-3.53-24.35-4.98-48.71-2.38-73.24.61-5.7,1.38-11.34,2.36-16.89h-4.95l-2.83,6.58c-.07.21-.1.35-.12.45.29.25.44.25.5.25h.72c1.66,0,3,1.35,3,3v.91c0,1.65-1.34,3-3,3Zm154.1-544.58c-.13-1.23-.66-2.41-1.28-4.55-13.84,28.3-38.91,27.49-63.09,25.59-60.39-4.76-117.25-24.22-173.54-45-31.4-11.59-62.3-24.63-93.02-37.97-13.98-6.07-26.81-14.59-35.98-27.49-12.85-18.09-8.19-34.26,13.49-38.86,17.1-3.62,35.15-4.8,52.65-4.1,63.71,2.51,125.11,16.99,184.97,38.48,19.74,7.1,39.48,14.23,59.23,21.32,1.71.61,3.48,1.04,6.13-.1-5.43-3.77-10.73-7.76-16.32-11.27-44.93-28.24-94.57-44.15-145.9-55.66C378.91,5.1,344.32-.89,308.89.11c-19.14.54-38.13,2.14-56.13,9.43-26.66,10.82-34.56,31.94-19.33,56.5,6.72,10.84,17.21,19.37,26.21,28.73,2.56,2.67,5.89,4.59,9.72,7.51-6.36,7.13-12.13,13.56-17.85,20.03-23.25,26.32-44.44,54.02-53.84,88.61-2.59,9.57-3.83,19.94-3.23,29.8.45,7.5,2.74,16.9,7.78,21.71,11.32,10.78,14.85,24.69,20.56,38.02,11.39,26.57,30.36,47.66,51.22,67.1,9.36,8.73,18.82,17.45,28.98,25.2,12.44,9.5,18.4,21.86,19.64,37.01.58,7.06,1.1,14.12,1.63,21.19.84,11.13,7.21,17.54,18.46,17.56,5.37.01,10.9-.84,16.1-2.24,5.75-1.55,9.47-.89,11.13,5.46,1.99,7.63,5.73,12.08,14.66,8.22,1.49-.64,5.99,1.79,6.54,3.59,2.15,6.93,6.08,7.54,12.47,6.15,10.95-2.39,15.07.33,19.35,10.96,8.48,21.06,22.28,26.48,42.11,15.7,7.82-4.25,14.88-10,22.05-15.38,4.52-3.39,8.6-7.36,13.96-12,1.58,3.82,3.05,6.33,3.68,9.03,3.28,13.92,6.47,27.87,9.7,41.8h11.05c-9.74-59.35-25.15-116.91-54.95-170.05-30.92-55.14-78.09-88.99-138-106.41-27.59-8.03-55.48-13.38-84.52-12.37-24.22.84-33.97-12.15-27.84-35.5,6-22.87,18.78-42.19,32.81-60.73,7.39-9.77,15.3-19.16,23.18-28.56,7.71-9.19,15.35-11.15,26.15-6.11,72.32,33.75,149.83,49.54,227.29,65.27,22.45,4.55,45.47,5.78,68.26.91,17.98-3.85,29.73-18.22,28.06-33.83Zm-386.97,118.49c42.34-4.39,82.69.92,119.39,24.23,1.9,1.21,3.51,2.88,5.32,4.39-13.06,4.74-25.61,8.39-37.34,13.81-12.24,5.65-21.54,14.77-25.61,30.85,4.35-3.44,6.87-5.42,9.37-7.42,31.71-25.28,77.66-38.05,119.9,6.43,32.71,34.45,51.26,76,63.81,120.86.67,2.38-.23,6.18-1.86,8.05-7.68,8.82-15.3,17.84-24.01,25.6-16.77,14.92-24.68,12.49-31.63-8.63-3.5-10.65-8.02-14.47-18.23-13.74-7.58.55-13.06-.53-12.89-10.43-4.75.67-8.41,2.07-11.64,1.4-3.16-.66-8.04-3.06-8.41-5.32-1.65-10-7.32-10.46-15.17-8.29-3.4.94-6.98,1.2-10.46,1.83-12.56,2.3-16.36-.28-18.18-12.88-1.35-9.44-2.18-18.95-3.56-28.38-1.33-9.04-6.19-15.59-13.4-21.51-16.6-13.65-33.19-27.49-48.3-42.72-19.36-19.5-34.94-41.81-42.14-69.02-1.31-4.96-1.46-8.44,5.04-9.11Zm269.57,326.09v-.91c0-1.65,1.34-3,3-3h1.18c.52,0,.89-.15,1.26-.52.39-.39.58-.8.61-1.35v-9.28c-7.18,5.97-14.03,12.35-21.11,18.46-23.84,20.57-36.04,46.61-37.06,78.04-.12,3.74-.12,7.44.01,11.12.13-.06.25-.13.38-.2.75-.43,1.43-1.29,2-2.56.06-.13.12-.25.2-.37l18.27-39.27c.12-.33.34-.91.86-2.05.41-.9.85-1.93,1.31-3.06.48-1.17.93-2.28,1.35-3.32.45-1.13.51-1.6.52-1.68.16-1.53,1.45-2.69,2.99-2.69h.72c.4,0,.78.07,1.14.22h.01c.09.04.18.09.27.13h0s0,.01.01.01c.5.27.93.69,1.22,1.23.02.04.04.09.06.13l3.18,6.67c5.48-11.4,12.77-22.03,22.45-31.61,4.14-4.08,8.76-7.72,13.56-11.14h-15.39c-1.66,0-3-1.35-3-3Zm68.76-106.16c-8.13,16.53-12.94,34.36-21.64,49.93.04.22.07.44.07.67v14.36c0,1.66-1.34,3-3,3h-.9c-.29,0-.58-.04-.85-.12.43.52.69,1.19.69,1.91v19.15c0,1.66-1.34,3-3,3h-.9c-1.66,0-3-1.34-3-3v-.72c0-1.23-.34-2.16-1.05-2.92-.43-.46-1.18-1.07-2.87-1.13h-7.25v15.41h7.47c4.41-3.11,8.58-6.39,12.45-9.91,1.13-1,2.23-2.04,3.31-3.1,11.83-11.62,20.45-25.58,23.92-43.29,2.73-13.93,2.24-27.87-3.45-43.24Z"/>
    <path class="cls-2" d="m335.88,356.75c3.24,7.87,6.38,15.78,9.86,23.55.47,1.05,2.63,1.88,4.02,1.9,12.16.17,28.9-14.22,30.28-25.92.18-1.49-.13-3.03-.23-4.96q-21.06,19.13-43.93,5.43Z"/>
  </g>
  <g>
    <path class="cls-1" d="m7.5,590.58v6.41H0v-.9h1.72c1.5,0,2.8-.54,3.88-1.63s1.63-2.38,1.63-3.88h.27Zm-.45-58.17l13.01,13.82.09,50.77H7.23v-53.3c0-3.37-.36-7.14-1.08-11.29h.9Zm0,0l57.63,54.92,1.08,10.93-57.63-54.83-1.08-11.02Zm13.1,58.17c0,1.51.54,2.8,1.63,3.88s2.38,1.63,3.88,1.63h1.72v.9h-7.5v-6.41h.27Zm25.2-56.82h7.5v6.41h-.18c-.06-1.56-.62-2.88-1.67-3.93-1.05-1.05-2.36-1.58-3.93-1.58h-1.72v-.9Zm20.14,0v52.93c0,2.23.09,4.23.27,6.01.18,1.78.45,3.63.81,5.56h-.81l-13.1-14.63v-49.86h12.83Zm7.23,0v.9h-1.63c-1.51,0-2.8.53-3.88,1.58s-1.66,2.36-1.72,3.93h-.27v-6.41h7.5Z"/>
    <path class="cls-1" d="m108.76,541.62c4.82,0,9.18.65,13.1,1.94,3.91,1.3,7.29,3.18,10.12,5.65,2.83,2.47,5.01,5.45,6.55,8.94,1.54,3.49,2.3,7.44,2.3,11.83s-.77,8.24-2.3,11.7c-1.54,3.46-3.72,6.43-6.55,8.9-2.83,2.47-6.2,4.35-10.12,5.65-3.92,1.29-8.28,1.94-13.1,1.94s-9.09-.65-13.01-1.94c-3.92-1.29-7.29-3.18-10.12-5.65-2.83-2.47-5-5.43-6.5-8.9-1.51-3.46-2.26-7.36-2.26-11.7s.75-8.34,2.26-11.83c1.5-3.49,3.67-6.47,6.5-8.94,2.83-2.47,6.2-4.35,10.12-5.65,3.91-1.29,8.25-1.94,13.01-1.94Zm0,53.03c3.67,0,6.88-1.01,9.62-3.03,2.74-2.02,4.85-4.86,6.32-8.54,1.47-3.67,2.21-8.04,2.21-13.1s-.74-9.53-2.21-13.23c-1.48-3.7-3.58-6.56-6.32-8.58-2.74-2.02-5.95-3.03-9.62-3.03s-6.77,1.01-9.48,3.03-4.82,4.88-6.32,8.58c-1.51,3.7-2.26,8.12-2.26,13.23s.75,9.43,2.26,13.1c1.5,3.67,3.61,6.52,6.32,8.54,2.71,2.02,5.87,3.03,9.48,3.03Z"/>
    <path class="cls-1" d="m223.75,574.32l.99,13.64c-1.14,1.93-2.74,3.66-4.79,5.19-2.05,1.54-4.55,2.75-7.5,3.66-2.95.9-6.38,1.36-10.3,1.36-6.75-.06-12.56-1.2-17.43-3.43-4.88-2.23-8.63-5.43-11.25-9.62-2.62-4.18-3.93-9.29-3.93-15.31s1.29-10.94,3.88-15.13c2.59-4.19,6.32-7.41,11.2-9.67,4.88-2.26,10.72-3.39,17.52-3.39,4.09,0,7.9.39,11.43,1.17,3.52.78,6.46,1.78,8.81,2.98l.09,14.36h-.72c-1.51-5.54-3.88-9.42-7.14-11.65-3.25-2.23-7.11-3.34-11.56-3.34s-8.06,1.02-10.98,3.07c-2.92,2.05-5.12,4.91-6.59,8.58-1.48,3.67-2.21,7.98-2.21,12.92s.74,9.33,2.21,13.01c1.47,3.67,3.63,6.54,6.46,8.58,2.83,2.05,6.23,3.13,10.21,3.25,4.28,0,7.81-.66,10.61-1.99,2.8-1.32,5.03-3.46,6.68-6.41,1.66-2.95,2.85-6.89,3.57-11.83h.72Z"/>
    <path class="cls-1" d="m264.67,541.62c4.82,0,9.18.65,13.1,1.94,3.91,1.3,7.29,3.18,10.12,5.65,2.83,2.47,5.01,5.45,6.55,8.94,1.54,3.49,2.3,7.44,2.3,11.83s-.77,8.24-2.3,11.7c-1.54,3.46-3.72,6.43-6.55,8.9-2.83,2.47-6.2,4.35-10.12,5.65-3.92,1.29-8.28,1.94-13.1,1.94s-9.09-.65-13.01-1.94c-3.92-1.29-7.29-3.18-10.12-5.65-2.83-2.47-5-5.43-6.5-8.9-1.51-3.46-2.26-7.36-2.26-11.7s.75-8.34,2.26-11.83c1.5-3.49,3.67-6.47,6.5-8.94,2.83-2.47,6.2-4.35,10.12-5.65,3.91-1.29,8.25-1.94,13.01-1.94Zm0,53.03c3.67,0,6.88-1.01,9.62-3.03,2.74-2.02,4.85-4.86,6.32-8.54,1.47-3.67,2.21-8.04,2.21-13.1s-.74-9.53-2.21-13.23c-1.48-3.7-3.58-6.56-6.32-8.58-2.74-2.02-5.95-3.03-9.62-3.03s-6.77,1.01-9.48,3.03-4.82,4.88-6.32,8.58c-1.51,3.7-2.26,8.12-2.26,13.23s.75,9.43,2.26,13.1c1.5,3.67,3.61,6.52,6.32,8.54,2.71,2.02,5.87,3.03,9.48,3.03Z"/>
    <path class="cls-1" d="m308.03,548.49h-.18c-.06-1.38-.57-2.53-1.54-3.43-.96-.9-2.11-1.35-3.43-1.35h-1.08v-.9h6.23v5.69Zm0,42.82l.45,5.69h-6.68v-.9h1.17c1.32,0,2.45-.47,3.39-1.4s1.43-2.06,1.49-3.39h.18Zm12.83-48.51v54.2h-13.01v-54.2h13.01Zm-.18,5.69v-5.69h6.23v.9h-1.08c-1.33,0-2.47.45-3.43,1.35-.96.9-1.48,2.05-1.54,3.43h-.18Zm21.23,44.9l2.17,3.61h-23.4v-3.61h21.23Zm5.96-13.01l-3.52,16.62h-15.63l2.8-3.61c2.59,0,4.89-.53,6.91-1.58,2.02-1.05,3.75-2.56,5.19-4.52,1.45-1.96,2.56-4.26,3.34-6.91h.9Z"/>
    <path class="cls-1" d="m384.27,541.62c4.82,0,9.18.65,13.1,1.94,3.91,1.3,7.29,3.18,10.12,5.65,2.83,2.47,5.01,5.45,6.55,8.94,1.54,3.49,2.3,7.44,2.3,11.83s-.77,8.24-2.3,11.7c-1.54,3.46-3.72,6.43-6.55,8.9-2.83,2.47-6.2,4.35-10.12,5.65-3.92,1.29-8.28,1.94-13.1,1.94s-9.09-.65-13.01-1.94c-3.92-1.29-7.29-3.18-10.12-5.65-2.83-2.47-5-5.43-6.5-8.9-1.51-3.46-2.26-7.36-2.26-11.7s.75-8.34,2.26-11.83c1.5-3.49,3.67-6.47,6.5-8.94,2.83-2.47,6.2-4.35,10.12-5.65,3.91-1.29,8.25-1.94,13.01-1.94Zm0,53.03c3.67,0,6.88-1.01,9.62-3.03,2.74-2.02,4.85-4.86,6.32-8.54,1.47-3.67,2.21-8.04,2.21-13.1s-.74-9.53-2.21-13.23c-1.48-3.7-3.58-6.56-6.32-8.58-2.74-2.02-5.95-3.03-9.62-3.03s-6.77,1.01-9.48,3.03-4.82,4.88-6.32,8.58c-1.51,3.7-2.26,8.12-2.26,13.23s.75,9.43,2.26,13.1c1.5,3.67,3.61,6.52,6.32,8.54,2.71,2.02,5.87,3.03,9.48,3.03Z"/>
    <path class="cls-1" d="m451.39,548.49h-.18c-.06-1.38-.59-2.53-1.58-3.43-.99-.9-2.18-1.35-3.57-1.35h-1.08v-.9h6.41v5.69Zm.09,42.73v5.78h-6.5v-.9h1.17c1.38,0,2.57-.48,3.57-1.45.99-.96,1.49-2.11,1.49-3.43h.27Zm12.74-48.42v54.2h-13.01v-54.2h13.01Zm11.29,0c6.44,0,11.98,1.07,16.62,3.21s8.19,5.24,10.66,9.3c2.47,4.07,3.7,8.93,3.7,14.59s-1.23,10.51-3.7,14.54c-2.47,4.04-6.02,7.14-10.66,9.3s-10.18,3.25-16.62,3.25h-20.05l-.18-3.61h19.15c5.66,0,10.12-2.08,13.37-6.23s4.88-9.91,4.88-17.25-1.63-13.11-4.88-17.3c-3.25-4.18-7.71-6.28-13.37-6.28h-20.05v-3.52h21.14Z"/>
    <path class="cls-1" d="m517.78,548.49h-.18c-.06-1.38-.56-2.53-1.49-3.43-.93-.9-2.06-1.35-3.39-1.35h-1.17v-.9h6.68l-.45,5.69Zm0,42.82l.45,5.69h-6.68v-.9h1.17c1.32,0,2.45-.47,3.39-1.4s1.43-2.06,1.49-3.39h.18Zm12.83-48.51v54.2h-13.01v-54.2h13.01Zm22.13,0v3.61h-22.31v-3.61h22.31Zm-4.07,25.56v3.61h-18.25v-3.61h18.25Zm3.07,25.02l2.08,3.61h-23.4v-3.61h21.32Zm5.78-13.01l-3.43,16.62h-15.63l2.8-3.61c2.59,0,4.89-.53,6.91-1.58,2.02-1.05,3.75-2.56,5.19-4.52,1.45-1.96,2.56-4.26,3.34-6.91h.81Zm-8.85-19.78v7.95h-7.77v-.18c2.11-.06,3.78-.77,5.01-2.12,1.23-1.36,1.85-3.03,1.85-5.01v-.63h.9Zm0,11.2v7.95h-.9v-.72c0-1.99-.62-3.64-1.85-4.97-1.24-1.32-2.91-2.02-5.01-2.08v-.18h7.77Zm4.07-30.35v2.17l-9.49-.81c1.75,0,3.58-.17,5.51-.5,1.93-.33,3.25-.62,3.97-.86Zm0,4.79v9.58h-.9v-.81c0-2.65-.71-4.73-2.12-6.23-1.42-1.5-3.45-2.29-6.1-2.35v-.18h9.12Z"/>
    <path class="cls-1" d="m606.58,533.76v60.52c0,3.31-.66,6.31-1.99,8.99-1.32,2.68-3.12,4.95-5.37,6.82-2.26,1.87-4.83,3.24-7.72,4.11-2.89.87-5.9,1.16-9.03.86v-.81c2.53-1.08,4.58-2.7,6.14-4.83,1.57-2.14,2.69-4.55,3.39-7.23.69-2.68,1.04-5.4,1.04-8.18v-60.25h13.55Zm-13.28,6.59h-.27c-.06-1.56-.65-2.9-1.76-4.02-1.12-1.11-2.45-1.67-4.02-1.67h-1.17v-.9h7.23v6.59Zm13.01,0v-6.59h7.23v.9h-1.17c-1.57,0-2.91.56-4.02,1.67s-1.7,2.46-1.76,4.02h-.27Z"/>
    <path class="cls-1" d="m625,548.49h-.18c-.06-1.38-.56-2.53-1.49-3.43s-2.06-1.35-3.39-1.35h-1.17v-.9h6.68l-.45,5.69Zm0,42.82l.45,5.69h-6.68v-.9h1.17c1.32,0,2.45-.47,3.39-1.4.93-.93,1.43-2.06,1.49-3.39h.18Zm12.83-48.51v54.2h-13.01v-54.2h13.01Zm22.13,0v3.61h-22.31v-3.61h22.31Zm-4.07,25.56v3.61h-18.25v-3.61h18.25Zm3.07,25.02l2.08,3.61h-23.4v-3.61h21.32Zm5.78-13.01l-3.43,16.62h-15.63l2.8-3.61c2.59,0,4.89-.53,6.91-1.58,2.02-1.05,3.75-2.56,5.19-4.52,1.45-1.96,2.56-4.26,3.34-6.91h.81Zm-8.85-19.78v7.95h-7.77v-.18c2.11-.06,3.78-.77,5.01-2.12,1.23-1.36,1.85-3.03,1.85-5.01v-.63h.9Zm0,11.2v7.95h-.9v-.72c0-1.99-.62-3.64-1.85-4.97-1.24-1.32-2.91-2.02-5.01-2.08v-.18h7.77Zm4.07-30.35v2.17l-9.49-.81c1.75,0,3.58-.17,5.51-.5,1.93-.33,3.25-.62,3.97-.86Zm0,4.79v9.58h-.9v-.81c0-2.65-.71-4.73-2.12-6.23-1.42-1.5-3.45-2.29-6.1-2.35v-.18h9.12Z"/>
    <path class="cls-1" d="m688.15,541.62c1.21,0,2.67.06,4.38.18,1.72.12,3.42.26,5.1.41,1.69.15,3.18.33,4.47.54,1.29.21,2.18.41,2.66.59l-1.17,11.02h-.81c0-2.77-.96-4.97-2.89-6.59-1.93-1.63-4.7-2.44-8.31-2.44-2.89,0-5.23.63-7,1.9-1.78,1.26-2.73,2.95-2.85,5.06-.12,1.08.08,2.06.59,2.94s1.23,1.64,2.17,2.3c.93.66,1.97,1.33,3.12,1.99l14.18,8.76c2.41,1.21,4.3,2.95,5.69,5.24,1.38,2.29,1.99,5.06,1.81,8.31-.18,3.37-1.16,6.29-2.94,8.76-1.78,2.47-4.22,4.35-7.32,5.65-3.1,1.29-6.76,1.94-10.98,1.94-2.59,0-5-.21-7.23-.63-2.23-.42-4.14-.99-5.74-1.72s-2.82-1.54-3.66-2.44c-.48-1.2-.69-2.67-.63-4.38.06-1.72.33-3.43.81-5.15.48-1.72,1.08-3.15,1.81-4.29h.72c-.18,2.71.32,5.21,1.49,7.5,1.17,2.29,2.9,4.11,5.19,5.46,2.29,1.36,5.03,2.03,8.22,2.03,3.49,0,6.11-.81,7.86-2.44,1.75-1.63,2.62-3.52,2.62-5.69,0-1.63-.53-3.08-1.58-4.38-1.05-1.29-2.79-2.57-5.19-3.84l-12.83-8.13c-3.01-1.57-5.19-3.64-6.55-6.23-1.35-2.59-1.85-5.42-1.49-8.49.3-2.89,1.16-5.36,2.58-7.41,1.41-2.05,3.3-3.61,5.65-4.7s5.03-1.63,8.04-1.63Zm16.62.81l-.09,1.63h-9.67v-1.63h9.76Z"/>
    <path class="cls-1" d="m720.94,542.8v4.7h-.18c-.06-1.14-.48-2.08-1.26-2.8-.78-.72-1.75-1.08-2.89-1.08h-1.26v-.81h5.6Zm12.83,0v34.05c0,5.54,1.28,9.88,3.84,13.01,2.56,3.13,6.13,4.7,10.7,4.7s8.45-1.47,11.07-4.43c2.62-2.95,3.96-7.05,4.02-12.29v-35.05h5.96v34.51c0,6.44-1.97,11.53-5.92,15.27-3.95,3.74-9.53,5.6-16.76,5.6-8.73,0-15.24-1.85-19.51-5.56-4.28-3.7-6.41-8.78-6.41-15.22v-34.6h13.01Zm5.33,0v.81h-1.36c-1.08,0-2.02.36-2.8,1.08s-1.17,1.66-1.17,2.8h-.18v-4.7h5.51Zm24.48,0v4.7h-.18c-.06-1.14-.48-2.08-1.26-2.8-.78-.72-1.72-1.08-2.8-1.08h-1.27v-.81h5.51Zm11.11,0v.81h-1.17c-1.14,0-2.12.36-2.94,1.08s-1.22,1.66-1.22,2.8h-.18v-4.7h5.51Z"/>
    <path class="cls-1" d="m798.08,541.62c1.2,0,2.67.06,4.38.18,1.72.12,3.42.26,5.1.41,1.68.15,3.18.33,4.47.54s2.18.41,2.66.59l-1.17,11.02h-.81c0-2.77-.96-4.97-2.89-6.59-1.93-1.63-4.7-2.44-8.31-2.44-2.89,0-5.22.63-7,1.9-1.78,1.26-2.73,2.95-2.85,5.06-.12,1.08.07,2.06.59,2.94.51.87,1.23,1.64,2.17,2.3.93.66,1.97,1.33,3.12,1.99l14.18,8.76c2.41,1.21,4.3,2.95,5.69,5.24,1.38,2.29,1.99,5.06,1.81,8.31-.18,3.37-1.16,6.29-2.94,8.76-1.78,2.47-4.22,4.35-7.32,5.65-3.1,1.29-6.76,1.94-10.97,1.94-2.59,0-5-.21-7.23-.63-2.23-.42-4.14-.99-5.74-1.72-1.6-.72-2.82-1.54-3.66-2.44-.48-1.2-.69-2.67-.63-4.38.06-1.72.33-3.43.81-5.15.48-1.72,1.08-3.15,1.81-4.29h.72c-.18,2.71.32,5.21,1.49,7.5,1.17,2.29,2.9,4.11,5.19,5.46,2.29,1.36,5.03,2.03,8.22,2.03,3.49,0,6.11-.81,7.86-2.44,1.74-1.63,2.62-3.52,2.62-5.69,0-1.63-.53-3.08-1.58-4.38-1.05-1.29-2.79-2.57-5.2-3.84l-12.83-8.13c-3.01-1.57-5.19-3.64-6.55-6.23-1.36-2.59-1.85-5.42-1.49-8.49.3-2.89,1.16-5.36,2.58-7.41,1.41-2.05,3.3-3.61,5.64-4.7,2.35-1.08,5.03-1.63,8.04-1.63Zm16.62.81l-.09,1.63h-9.67v-1.63h9.75Z"/>
    <path class="cls-1" d="m165.89,645.49h-.18c-.06-1.38-.56-2.53-1.49-3.43-.93-.9-2.06-1.35-3.39-1.35h-1.17v-.9h6.68l-.45,5.69Zm0,42.82l.45,5.69h-6.68v-.9h1.17c1.32,0,2.45-.47,3.39-1.4s1.43-2.06,1.49-3.39h.18Zm12.83-48.51v54.2h-13.01v-54.2h13.01Zm22.13,0v3.61h-22.31v-3.61h22.31Zm-4.06,25.56v3.61h-18.25v-3.61h18.25Zm3.07,25.02l2.08,3.61h-23.4v-3.61h21.32Zm5.78-13.01l-3.43,16.62h-15.63l2.8-3.61c2.59,0,4.89-.53,6.91-1.58,2.02-1.05,3.75-2.56,5.19-4.52,1.45-1.96,2.56-4.26,3.34-6.91h.81Zm-8.85-19.78v7.95h-7.77v-.18c2.11-.06,3.78-.77,5.01-2.12,1.23-1.36,1.85-3.03,1.85-5.01v-.63h.9Zm0,11.2v7.95h-.9v-.72c0-1.99-.62-3.64-1.85-4.97-1.24-1.32-2.91-2.02-5.01-2.08v-.18h7.77Zm4.06-30.35v2.17l-9.48-.81c1.75,0,3.58-.17,5.51-.5,1.93-.33,3.25-.62,3.97-.86Zm0,4.79v9.58h-.9v-.81c0-2.65-.71-4.73-2.12-6.23-1.42-1.5-3.45-2.29-6.1-2.35v-.18h9.12Z"/>
    <path class="cls-1" d="m239.51,645.49h-.18c-.06-1.38-.59-2.53-1.58-3.43s-2.18-1.35-3.57-1.35h-1.08v-.9h6.41v5.69Zm.09,42.73v5.78h-6.5v-.9h1.17c1.38,0,2.57-.48,3.57-1.45.99-.96,1.49-2.11,1.49-3.43h.27Zm12.74-48.42v54.2h-13.01v-54.2h13.01Zm11.29,0c6.44,0,11.98,1.07,16.62,3.21,4.64,2.14,8.19,5.24,10.66,9.3,2.47,4.07,3.7,8.93,3.7,14.59s-1.23,10.51-3.7,14.54c-2.47,4.04-6.02,7.14-10.66,9.3-4.64,2.17-10.18,3.25-16.62,3.25h-20.05l-.18-3.61h19.15c5.66,0,10.12-2.08,13.37-6.23s4.88-9.91,4.88-17.25-1.63-13.11-4.88-17.3c-3.25-4.18-7.71-6.28-13.37-6.28h-20.05v-3.52h21.14Z"/>
    <path class="cls-1" d="m305.91,645.49h-.18c-.06-1.38-.56-2.53-1.49-3.43-.93-.9-2.06-1.35-3.39-1.35h-1.17v-.9h6.68l-.45,5.69Zm0,42.82l.45,5.69h-6.68v-.9h1.17c1.32,0,2.45-.47,3.39-1.4s1.43-2.06,1.49-3.39h.18Zm12.83-48.51v54.2h-13.01v-54.2h13.01Zm22.13,0v3.61h-22.31v-3.61h22.31Zm-4.06,25.56v3.61h-18.25v-3.61h18.25Zm3.07,25.02l2.08,3.61h-23.4v-3.61h21.32Zm5.78-13.01l-3.43,16.62h-15.63l2.8-3.61c2.59,0,4.89-.53,6.91-1.58,2.02-1.05,3.75-2.56,5.19-4.52,1.45-1.96,2.56-4.26,3.34-6.91h.81Zm-8.85-19.78v7.95h-7.77v-.18c2.11-.06,3.78-.77,5.01-2.12,1.23-1.36,1.85-3.03,1.85-5.01v-.63h.9Zm0,11.2v7.95h-.9v-.72c0-1.99-.62-3.64-1.85-4.97-1.24-1.32-2.91-2.02-5.01-2.08v-.18h7.77Zm4.06-30.35v2.17l-9.48-.81c1.75,0,3.58-.17,5.51-.5,1.93-.33,3.25-.62,3.97-.86Zm0,4.79v9.58h-.9v-.81c0-2.65-.71-4.73-2.12-6.23-1.42-1.5-3.45-2.29-6.1-2.35v-.18h9.12Z"/>
    <path class="cls-1" d="m379.35,687.4v6.59h-10.03v-.9h1.45c1.63,0,3.07-.5,4.34-1.49,1.26-.99,2.02-2.39,2.26-4.2h1.99Zm5.51-57.9h.81l3.16,9.03-6.05,55.46h-6.32l8.4-64.5Zm-1.54,59.35v.45c0,.96.35,1.85,1.04,2.67.69.81,1.52,1.22,2.48,1.22h1.35v.81h-5.51v-5.15h.63Zm2.35-59.35l29.54,48.51-5.15,17.8-26.74-44.9,2.35-21.41Zm54.92,0l.72,9.85-26.83,46.52c-1.21,2.11-2.09,3.92-2.66,5.42-.57,1.51-.86,3.01-.86,4.52h-.9l-3.52-7.86,34.06-58.44Zm-5.69,59.35h.63v5.15h-5.51v-.81h1.36c1.02,0,1.87-.41,2.53-1.22.66-.81.99-1.7.99-2.67v-.45Zm6.5-59.35l8.58,64.5h-14.54l-4.52-41.55,9.67-22.94h.81Zm5.78,57.9h1.9c.3,1.81,1.08,3.21,2.35,4.2,1.26.99,2.68,1.49,4.25,1.49h1.45v.9h-9.94v-6.59Z"/>
    <path class="cls-1" d="m468.05,688.03c-.66,1.63-.57,2.88.27,3.75.84.87,1.78,1.31,2.8,1.31h.72v.9h-18.07v-.9h.72c1.21,0,2.47-.38,3.79-1.13,1.32-.75,2.41-2.06,3.25-3.93h6.5Zm16.98-50.68l.18,10.84-19.6,45.53h-6.68l21.14-45.44c.12-.36.39-1.01.81-1.94.42-.93.87-1.99,1.35-3.16.48-1.17.93-2.29,1.36-3.34.42-1.05.66-1.88.72-2.48h.72Zm7.86,38.93v3.52h-23.04v-3.52h23.04Zm-7.86-38.93l26.74,56.19h-15.27l-16.8-39.66,5.33-16.53Zm9.21,50.68h14.91c.9,1.87,2.02,3.18,3.34,3.93,1.32.75,2.59,1.13,3.79,1.13h.72v.9h-26.56v-.9h.72c1.02,0,1.96-.44,2.8-1.31.84-.87.93-2.12.27-3.75Z"/>
    <path class="cls-1" d="m524.24,645.4h-.18c-.06-1.38-.56-2.51-1.49-3.39-.93-.87-2.03-1.31-3.3-1.31h-1.17v-.9h6.5l-.36,5.6Zm0,42.91l.36,5.69h-6.5v-.9h1.08c1.32,0,2.45-.47,3.39-1.4s1.43-2.06,1.49-3.39h.18Zm12.83-48.51v54.2h-13.1v-54.2h13.1Zm8.85,0c2.47,0,4.88.26,7.23.77,2.35.51,4.46,1.33,6.32,2.44,1.87,1.11,3.36,2.62,4.47,4.52,1.11,1.9,1.67,4.26,1.67,7.09,0,2.11-.44,4.2-1.31,6.28-.87,2.08-2.23,3.87-4.07,5.37-1.84,1.51-4.23,2.5-7.18,2.98,1.75.54,3.42,1.6,5.01,3.16,1.6,1.57,2.85,3.04,3.75,4.43.24.48.66,1.25,1.26,2.3.6,1.05,1.37,2.26,2.3,3.61.93,1.35,1.91,2.75,2.94,4.2,1.2,1.63,2.26,2.88,3.16,3.75.9.87,1.84,1.49,2.8,1.85.96.36,2.08.54,3.34.54v.9h-7.59c-3.25,0-6.01-.24-8.26-.72-2.26-.48-4.22-1.37-5.87-2.67-1.66-1.29-3.18-3.06-4.56-5.28-.54-.78-1.11-1.73-1.72-2.85-.6-1.11-1.21-2.24-1.81-3.39-.6-1.14-1.13-2.26-1.58-3.34s-.77-1.99-.95-2.71c-.78-1.93-1.67-3.33-2.67-4.2s-1.91-1.31-2.75-1.31v-.81h2.26c1.26,0,2.51-.23,3.75-.68,1.23-.45,2.36-1.32,3.39-2.62,1.02-1.29,1.78-3.21,2.26-5.74.12-.36.23-.87.32-1.54.09-.66.1-1.41.04-2.26-.12-2.23-.53-4.02-1.22-5.38-.69-1.35-1.55-2.38-2.58-3.07-1.02-.69-2.06-1.17-3.12-1.45-1.05-.27-1.97-.41-2.76-.41-1.14-.06-2.18-.08-3.12-.04-.94.03-1.64.02-2.12-.05-.06,0-.15-.32-.27-.95-.12-.63-.3-1.55-.54-2.75h9.76Zm-9.03,48.51h.18c0,1.51.53,2.68,1.58,3.52,1.05.84,2.18,1.26,3.39,1.26h.9v.9h-6.5l.45-5.69Z"/>
    <path class="cls-1" d="m583.5,645.49h-.27c0-1.38-.51-2.53-1.54-3.43-1.03-.9-2.23-1.35-3.61-1.35h-1.17v-.9h6.59v5.69Zm0,42.82v5.69h-6.59v-.9h1.17c1.38,0,2.59-.47,3.61-1.4,1.02-.93,1.54-2.06,1.54-3.39h.27Zm12.74-48.51v54.2h-13.01v-54.2h13.01Zm-.18,5.69v-5.69h6.5l-.09.9h-.99c-1.45,0-2.67.45-3.66,1.35-.99.9-1.52,2.05-1.58,3.43h-.18Zm0,42.82h.18c.06,1.33.59,2.46,1.58,3.39.99.93,2.21,1.4,3.66,1.4h1.08v.9h-6.5v-5.69Z"/>
    <path class="cls-1" d="m617.46,688.03c-.66,1.63-.57,2.88.27,3.75.84.87,1.78,1.31,2.8,1.31h.72v.9h-18.07v-.9h.72c1.21,0,2.47-.38,3.79-1.13,1.32-.75,2.41-2.06,3.25-3.93h6.5Zm16.98-50.68l.18,10.84-19.6,45.53h-6.69l21.14-45.44c.12-.36.39-1.01.81-1.94.42-.93.87-1.99,1.36-3.16.48-1.17.93-2.29,1.35-3.34.42-1.05.66-1.88.72-2.48h.72Zm7.86,38.93v3.52h-23.03v-3.52h23.03Zm-7.86-38.93l26.74,56.19h-15.27l-16.8-39.66,5.33-16.53Zm9.21,50.68h14.9c.9,1.87,2.02,3.18,3.34,3.93,1.32.75,2.59,1.13,3.79,1.13h.72v.9h-26.56v-.9h.72c1.02,0,1.96-.44,2.8-1.31.84-.87.93-2.12.27-3.75Z"/>
  </g>
</svg>