<?xml version="1.0" encoding="UTF-8"?>
<svg id="Camada_1" data-name="Camada 1" xmlns="http://www.w3.org/2000/svg" xmlns:xlink="http://www.w3.org/1999/xlink" viewBox="0 0 997.71 537.89">
  <defs>
    <style>
      .cls-1 {
        fill: url(#Gradiente_sem_nome_18);
      }

      .cls-1, .cls-2, .cls-3, .cls-4 {
        stroke-width: 0px;
      }

      .cls-5 {
        fill: none;
        stroke: #27164b;
        stroke-miterlimit: 10;
        stroke-width: 5px;
      }

      .cls-2 {
        fill: url(#Gradiente_sem_nome_16);
      }

      .cls-3 {
        fill: url(#Gradiente_sem_nome_8);
      }

      .cls-4 {
        fill: url(#Gradiente_sem_nome_5);
      }
    </style>
    <linearGradient id="Gradiente_sem_nome_8" data-name="Gradiente sem nome 8" x1="-49.02" y1="245.51" x2="186.32" y2="10.17" gradientUnits="userSpaceOnUse">
      <stop offset="0" stop-color="#ff4b28"/>
      <stop offset="1" stop-color="#ff0d63"/>
    </linearGradient>
    <radialGradient id="Gradiente_sem_nome_16" data-name="Gradiente sem nome 16" cx="357.03" cy="152.76" fx="324.97" fy="288.62" r="180.04" gradientTransform="translate(0 -125.91) scale(1 1.82)" gradientUnits="userSpaceOnUse">
      <stop offset="0" stop-color="#ff482b"/>
      <stop offset=".28" stop-color="#ff333e"/>
      <stop offset=".74" stop-color="#ff1759"/>
      <stop offset="1" stop-color="#ff0d63"/>
    </radialGradient>
    <linearGradient id="Gradiente_sem_nome_18" data-name="Gradiente sem nome 18" x1="602.45" y1="303.85" x2="602.45" y2="4.62" gradientUnits="userSpaceOnUse">
      <stop offset="0" stop-color="#ff0d63"/>
      <stop offset=".31" stop-color="#ff1060"/>
      <stop offset=".54" stop-color="#ff1957"/>
      <stop offset=".74" stop-color="#ff2947"/>
      <stop offset=".93" stop-color="#ff4032"/>
      <stop offset="1" stop-color="#ff4b28"/>
    </linearGradient>
    <linearGradient id="Gradiente_sem_nome_5" data-name="Gradiente sem nome 5" x1="760.68" y1="221.77" x2="1001.81" y2="82.56" gradientUnits="userSpaceOnUse">
      <stop offset="0" stop-color="#ff0d63"/>
      <stop offset="1" stop-color="#ff4b28"/>
    </linearGradient>
  </defs>
  <g>
    <path class="cls-3" d="m224.01,52.11c-8.4-14.85-20.94-26.48-37.61-34.88-16.67-8.41-36.92-12.61-60.73-12.61H9.07c-3.61,0-6.53,2.93-6.53,6.54v283.21c0,3.61,2.92,6.54,6.53,6.54h69.3c3.61,0,6.54-2.93,6.54-6.54v-86.95c0-3.61,2.92-6.54,6.53-6.54h34.23c24.1,0,44.48-4.41,61.15-13.23,1.86-.99,3.67-2.01,5.43-3.07-18.7-14.08-31.03-26.48-35.61-31.31-.87.32-1.76.62-2.64.93-2.29.8-4.79.11-7.02-.88-4.72-2.11-7.77-5.69-8.39-10.89-1.13-9.56-2.17-19.12-3.02-28.71-.62-6.92,4.99-13.48,11.84-14.28.49-.06.99-.01,1.48.05.54.05,1.07.16,1.61.26,3.94.81,8.22.76,11.03,4.55-.58-19.15-8.1-34.35-25.36-43.13-17.85-9.08-35.3-7.18-50.8,5.51-14.93,12.23-19.04,28.63-15.44,47.49.79-1.09,1.52-2.22,2.38-3.24.44-.53,1.06-.98,1.68-1.27,1.73-.79,3.55-1.37,5.25-2.22,4.31-2.17,8.3-1.21,12.05,1.25,3.34,2.19,5.46,5.36,5.92,9.36,1.09,9.52,2.16,19.03,3.02,28.57.64,7.07-4.52,13.42-11.51,14.59-.52.08-1.08.06-1.61-.01-1.08-.14-2.13-.44-3.21-.52-3.88-.3-7.23-1.68-9.98-4.52-1.1-1.13-2.47-2-3.64-3.07-4.4-4.02-6.9-9.04-7.54-14.95-1.09-9.93-2.17-19.86-3.17-29.79-2.36-23.56,9.61-45.39,30.67-56.02,24.68-12.46,55.61-4.18,70.91,18.93,5.14,7.75,8.19,16.23,9.19,25.46,1.07,9.83,2.12,19.67,3.14,29.52.67,6.53-1.02,12.39-5.12,17.54-.51.64-1.14,1.22-1.51,1.93-.26.5-.54.97-.85,1.4,5.45,5.56,17.91,17.61,35.91,30.87,9.33-7.23,16.77-15.77,22.31-25.64,8.26-14.71,12.4-31.02,12.4-48.96,0-19.33-4.2-36.41-12.61-51.27Z"/>
    <path class="cls-2" d="m345.65,4.62h-69.3c-3.61,0-6.53,2.93-6.53,6.54v204.55c27.65,10.72,55.15,15.95,82.37,15.7V11.16c0-3.61-2.93-6.54-6.54-6.54Zm92.04,233.25h-44.15c-14.78,3.01-29.68,4.47-44.65,4.36-26.29-.18-52.8-5.14-79.07-14.79v66.93c0,3.61,2.92,6.54,6.53,6.54h161.34c3.61,0,6.54-2.93,6.54-6.54v-49.97c0-3.61-2.93-6.53-6.54-6.53Z"/>
    <path class="cls-1" d="m718.08,107.99c-23.86,1.15-47.24,5.5-70.45,12.34v56.18c0,15.69-3.85,27.95-11.56,36.77-7.71,8.83-19.12,13.24-34.25,13.24s-26.41-4.34-33.83-13.03c-7.42-8.68-11.14-21.01-11.14-36.98v-18.34c-26.18,13.56-52.69,29.06-79.99,45.5,2.45,15.98,7.19,30.18,14.22,42.6,10.79,19.06,25.64,33.41,44.55,43.08,18.91,9.66,40.41,14.5,64.51,14.5s46.02-4.84,65.77-14.5c19.76-9.67,35.37-24.09,46.86-43.29,11.49-19.19,17.23-42.37,17.23-69.55v-68.83c-3.97.01-7.94.12-11.92.31Zm5.39-103.37h-69.3c-3.61,0-6.54,2.93-6.54,6.54v97.71c22.97-6.55,46.17-10.71,69.92-11.86,4.16-.21,8.3-.31,12.45-.31V11.16c0-3.61-2.92-6.54-6.53-6.54Zm-173.15,0h-68.88c-3.61,0-6.54,2.93-6.54,6.54v165.35c0,5.21.19,10.26.58,15.16,27.72-16.64,54.68-32.28,81.37-45.87V11.16c0-3.61-2.92-6.54-6.53-6.54Z"/>
    <path class="cls-4" d="m769.38,110.54c2.09,9.82,5.85,18.29,11.26,25.41,8.83,11.63,19.19,20.46,31.1,26.48,11.9,6.03,27.53,12.26,46.86,18.7,18.21,5.89,31.37,11.21,39.5,15.97,8.13,4.77,12.19,11.49,12.19,20.17,0,6.73-2.45,11.98-7.35,15.76-4.91,3.79-11.14,5.68-18.71,5.68-8.4,0-15.27-2.38-20.59-7.15-4.36-3.9-7.22-9.68-8.57-17.34-.55-3.1-3.27-5.35-6.42-5.35h-74.98c-3.89,0-6.94,3.39-6.5,7.26,3.06,27.03,14.77,48.07,35.11,63.13,22.13,16.39,50.44,24.59,84.9,24.59,22.69,0,42.37-4.06,59.04-12.19,16.67-8.12,29.42-19.19,38.25-33.2,4.58-7.27,7.97-15.04,10.17-23.29-80.44-73.48-153.39-114.01-225.26-124.63Zm215.09,57.35c-8.83-11.34-19.33-20.17-31.52-26.47-12.19-6.31-27.67-12.68-46.44-19.12-12.61-4.48-22.14-8.2-28.58-11.14-6.45-2.94-11.84-6.44-16.18-10.51-4.35-4.06-6.51-8.89-6.51-14.5,0-6.72,1.95-11.9,5.88-15.55,3.92-3.63,8.96-5.46,15.13-5.46,8.12,0,14.77,2.24,19.96,6.72,4.07,3.53,6.63,8.44,7.68,14.73.52,3.14,3.25,5.45,6.44,5.45h76.53c3.87,0,6.92-3.36,6.51-7.21-2.77-25.69-13.58-45.91-32.44-60.67-20.59-16.1-48.12-24.16-82.58-24.16-21.29,0-40.34,3.51-57.15,10.51s-29.99,17.3-39.51,30.88c-9.53,13.6-14.29,29.92-14.29,48.97,0,3.04.12,5.98.34,8.83,73.63,9.96,147.92,50.05,229.31,123.31.44-3.75.66-7.6.66-11.53,0-17.37-4.42-31.73-13.24-43.08Z"/>
  </g>
  <g>
    <path class="cls-5" d="m241.21,342.9v186.39c0,3.37-2.73,6.1-6.1,6.1h-49.78c-3.37,0-6.1-2.73-6.1-6.1v-52.46c0-7-9.87-8.49-11.93-1.8l-17.31,56.06c-.79,2.56-3.15,4.3-5.83,4.3h-44.29c-2.68,0-5.04-1.74-5.83-4.3l-17.31-56.06c-2.07-6.69-11.93-5.2-11.93,1.8v52.46c0,3.37-2.73,6.1-6.1,6.1H8.6c-3.37,0-6.1-2.73-6.1-6.1v-186.39c0-3.37,2.73-6.1,6.1-6.1h65.93c2.56,0,4.85,1.6,5.73,4l36.49,99.4c1.97,5.36,9.55,5.33,11.48-.05l35.52-99.31c.87-2.43,3.17-4.05,5.75-4.05h65.61c3.37,0,6.1,2.73,6.1,6.1Z"/>
    <path class="cls-5" d="m392.18,505.38h-57.35c-2.64,0-4.98,1.7-5.8,4.21l-7.07,21.6c-.82,2.51-3.16,4.21-5.8,4.21h-52.2c-4.24,0-7.19-4.22-5.73-8.2l68.18-186.39c.88-2.41,3.17-4.01,5.73-4.01h63.27c2.56,0,4.86,1.6,5.73,4.01l67.92,186.39c1.45,3.98-1.5,8.19-5.73,8.19h-52.49c-2.64,0-4.98-1.7-5.8-4.21l-7.07-21.6c-.82-2.51-3.16-4.21-5.8-4.21Zm-13.32-54.83l-9.55-29.4c-1.83-5.62-9.78-5.62-11.61,0l-9.55,29.4c-1.28,3.94,1.66,7.99,5.8,7.99h19.1c4.15,0,7.09-4.05,5.8-7.99Z"/>
    <path class="cls-5" d="m670.44,535.39h-52.88c-2.05,0-3.96-1.03-5.09-2.74l-52.91-80.16c-3.33-5.05-11.2-2.69-11.2,3.36v73.43c0,3.37-2.73,6.1-6.1,6.1h-50.06c-3.37,0-6.1-2.73-6.1-6.1v-186.39c0-3.37,2.73-6.1,6.1-6.1h52.85c2.07,0,3.99,1.05,5.12,2.78l52.89,81.47c3.31,5.1,11.22,2.75,11.22-3.32v-74.83c0-3.37,2.73-6.1,6.1-6.1h50.07c3.37,0,6.1,2.73,6.1,6.1v186.39c0,3.37-2.73,6.1-6.1,6.1Z"/>
    <path class="cls-5" d="m766.86,342.9v186.39c0,3.37-2.73,6.1-6.1,6.1h-50.06c-3.37,0-6.1-2.73-6.1-6.1v-186.39c0-3.37,2.73-6.1,6.1-6.1h50.06c3.37,0,6.1,2.73,6.1,6.1Z"/>
    <path class="cls-5" d="m917.83,505.38h-57.35c-2.64,0-4.98,1.7-5.8,4.21l-7.07,21.6c-.82,2.51-3.16,4.21-5.8,4.21h-52.2c-4.24,0-7.19-4.22-5.73-8.2l68.18-186.39c.88-2.41,3.17-4.01,5.73-4.01h63.27c2.56,0,4.86,1.6,5.73,4.01l67.92,186.39c1.45,3.98-1.5,8.19-5.73,8.19h-52.49c-2.64,0-4.98-1.7-5.8-4.21l-7.07-21.6c-.82-2.51-3.16-4.21-5.8-4.21Zm-13.32-54.83l-9.55-29.4c-1.83-5.62-9.78-5.62-11.61,0l-9.55,29.4c-1.28,3.94,1.66,7.99,5.8,7.99h19.1c4.15,0,7.09-4.05,5.8-7.99Z"/>
  </g>
</svg>