<svg width="1360" height="1294" viewBox="0 0 1360 1294" fill="none" xmlns="http://www.w3.org/2000/svg">
    <path d="M1360 0H0V1294H1360V0Z" fill="url(#paint0_radial_368_25)" />
    <path
        d="M234.68 474.935C244.931 474.935 254.05 475.313 262.509 476.1C298.011 479.407 328.795 486.776 356.624 498.429C371.435 504.664 384.359 511.908 396.119 520.537C407.597 528.977 417.282 539.243 424.86 550.99C433.916 565.067 438.318 580.813 438.287 599.237C438.193 618.227 432.941 636.461 422.187 654.979C413.477 670.001 402.188 683.857 387.598 697.305C371.278 712.421 352.411 726.309 329.99 739.788C309.897 751.913 288.546 762.337 264.742 771.753L263.893 772.131C263.453 772.32 262.981 772.509 262.541 772.635C259.553 773.485 255.78 775.816 254.617 782.02C254.491 782.744 254.428 783.468 254.334 784.35C253.484 795.373 252.667 808.222 253.422 820.976C253.642 824.566 253.799 828.156 253.862 831.747C253.988 835.872 254.176 839.998 254.459 844.092C254.962 851.524 255.591 858.83 256.598 864.94C257.352 869.538 258.516 875.017 260.623 881.284C263.484 889.693 266.157 897.913 267.415 906.479C268.012 910.415 268.672 915.044 268.924 919.548C269.238 925.437 268.578 929.216 266.094 933.531C265.119 935.231 261.66 938.727 258.327 940.585C251.095 944.616 243.642 945.844 236.473 946.348C235.907 946.38 235.341 946.411 234.806 946.411C229.932 946.411 225.844 944.585 222.511 940.994C220.97 939.357 219.461 937.31 217.606 934.444C213.424 927.673 210.248 919.831 207.575 909.659C204.304 897.188 201.946 883.426 200.405 867.522C198.896 852.406 198.141 835.872 197.67 815.339C197.638 814.205 197.67 813.071 197.67 811.812C197.701 810.584 197.764 809.418 197.764 808.127C197.732 806.301 197.638 804.222 196.978 802.238C196.129 799.341 194.242 795.436 187.953 795.436L173.803 796.349C163.646 796.979 153.772 797.609 143.899 798.112C132.736 798.648 121.604 799.057 110.441 799.467L100.379 799.845C99.7812 799.845 99.1523 799.845 98.5548 799.845C96.8882 799.845 95.2217 799.813 93.5865 799.75H91.3539C90.0018 799.656 88.8698 799.215 87.6749 798.207C82.2349 793.703 78.9331 788.003 77.6124 780.76C76.7634 775.91 76.4804 771.218 76.7949 766.462C77.1093 761.927 78.996 757.361 83.1153 752.732C84.1845 751.535 85.5051 750.716 86.7315 750.433C89.8446 749.74 92.0772 749.33 95.7248 748.952L108.334 747.787C117.579 746.937 126.824 746.024 136.069 745.142C146.917 744.103 157.703 743.063 168.583 741.961C171.665 741.646 174.746 741.268 177.828 740.922C180.155 740.638 182.45 740.386 184.809 740.103C188.708 739.694 191.978 738.119 194.965 736.481C198.33 734.56 200.311 731.443 200.594 727.569L200.971 722.751C201.16 720.515 201.349 718.342 201.474 716.169C202.418 700.989 204.021 684.393 206.411 663.922C207.103 658.065 208.078 652.018 209.053 646.224L209.87 641.09C211.317 632.335 212.763 623.58 214.304 614.794C215.405 608.495 216.568 603.677 218.077 599.3C218.266 598.859 218.455 598.355 218.612 597.882C218.832 597.284 219.052 596.749 219.241 596.15C219.681 594.828 220.247 593.599 220.907 592.529L221.694 591.363C222.008 590.923 222.417 590.45 222.92 589.915C223.737 589.002 224.681 588.151 225.719 587.458C228.391 585.6 232.291 583.931 237.636 583.868C238.139 583.868 238.58 583.9 239.083 583.9C240.498 583.9 241.755 583.931 242.856 584.183C248.894 585.317 253.453 588.624 256.818 594.355C260.119 599.992 261.534 606.574 262.352 611.613C263.044 615.707 263.17 620.116 262.729 625.155C261.723 636.776 260.748 648.46 259.774 660.08C258.547 673.748 257.698 687.447 257.006 699.068C256.881 701.651 257.038 704.201 257.289 706.374C257.415 708.107 258.138 709.87 259.207 711.319C260.717 713.366 262.949 714.689 265.308 714.689C265.78 714.689 266.22 714.626 266.691 714.531C268.452 714.122 269.238 713.807 270.182 713.429C284.584 707.76 296.942 701.714 307.979 694.943C315.054 690.597 322.066 685.369 330.053 678.472C337.223 672.299 343.386 666.158 348.92 659.671C356.624 650.633 362.85 640.618 367.41 629.973C370.303 623.108 371.844 617.219 372.252 611.298C372.284 610.353 372.441 609.44 372.63 608.527V607.992C374.548 595.93 371.844 584.467 364.706 573.98C361.247 568.941 356.719 564.437 350.838 560.375C339.329 552.25 326.028 545.888 311.406 541.448C298.608 537.511 284.835 534.582 269.427 532.535C252.887 530.331 236.441 529.229 220.467 529.229C213.455 529.229 206.537 529.449 199.745 529.858C185.595 530.709 173.771 531.937 161.885 535.275C156.98 536.598 152.232 537.259 147.829 537.259C144.339 537.228 142.295 536.881 140.565 536.566C136.981 535.873 134.308 533.669 132.232 529.669C131.226 527.748 131.698 524.284 131.918 522.584C132.421 518.678 136.037 511.467 139.402 507.247C143.521 502.176 148.427 497.767 153.898 494.177C165.596 486.556 178.142 481.328 191.286 478.651C202.355 476.415 213.895 475.156 225.593 474.935C228.643 474.904 231.63 474.841 234.649 474.841M234.649 459.094C231.567 459.094 228.549 459.126 225.467 459.189H225.278C212.732 459.441 200.248 460.795 188.173 463.22C173.08 466.306 158.646 472.258 145.282 480.982C138.396 485.485 132.295 490.996 127.138 497.327C127.107 497.358 127.075 497.421 127.044 497.452C123.302 502.176 117.359 512.223 116.258 520.6C115.818 523.938 114.969 530.709 118.239 536.976C123.679 547.431 131.761 550.927 137.578 552.029C140.125 552.502 143.018 552.911 147.546 552.974C147.609 552.974 147.672 552.974 147.735 552.974C153.521 552.974 159.621 552.124 165.879 550.423C176.507 547.463 187.041 546.361 200.625 545.542C207.103 545.132 213.738 544.943 220.404 544.943C235.687 544.943 251.472 546.014 267.289 548.124C281.942 550.077 294.835 552.785 306.721 556.47C319.896 560.469 331.657 566.106 341.751 573.224C346.09 576.216 349.297 579.365 351.719 582.86C356.624 590.009 358.385 597.442 357.127 605.567C357.096 605.85 357.064 606.102 357.033 606.385C356.781 607.74 356.656 609.031 356.561 610.322C356.247 614.416 355.146 618.573 352.914 623.801C348.952 632.997 343.575 641.657 336.94 649.404C331.971 655.23 326.374 660.805 319.771 666.505C312.507 672.772 306.155 677.527 299.709 681.495C291.69 686.408 282.886 690.912 272.98 695.195C273.609 684.865 274.395 673.118 275.433 661.403C276.408 649.688 277.383 638.036 278.389 626.446C278.955 620.211 278.798 614.479 277.854 608.968C276.911 603.142 275.087 594.355 270.37 586.325C264.773 576.782 256.315 570.704 245.906 568.689C243.485 568.185 241.189 568.122 239.24 568.122H239.146C238.674 568.122 238.171 568.09 237.668 568.09C229.964 568.153 222.826 570.326 216.945 574.357C214.901 575.712 212.983 577.381 211.254 579.333C210.562 580.089 209.713 581.065 208.833 582.294C208.738 582.42 208.644 582.577 208.55 582.703L207.763 583.868C207.763 583.868 207.638 584.057 207.575 584.152C206.285 586.199 205.248 588.435 204.367 590.986C204.336 591.112 204.273 591.237 204.242 591.363L204.116 591.741L203.99 592.088C203.864 592.371 203.77 592.655 203.644 592.97L203.455 593.442C203.361 593.694 203.267 593.914 203.172 594.166C201.38 599.363 199.996 605.031 198.77 612.086C197.229 620.872 195.751 629.816 194.305 638.476L193.487 643.704L193.424 644.145C192.481 649.971 191.475 656.018 190.783 662.064C188.33 683.101 186.727 699.981 185.783 715.161C185.658 717.082 185.5 719.003 185.343 720.956V721.459L185.123 723.821C184.4 724.136 183.739 724.388 183.205 724.42C183.142 724.42 183.079 724.42 183.048 724.42C180.689 724.703 178.362 724.955 176.035 725.239C173.017 725.585 170.029 725.963 167.011 726.246C156.194 727.317 145.439 728.356 134.622 729.427C130.031 729.868 125.409 730.309 120.755 730.75C116.133 731.191 111.542 731.632 106.919 732.072L94.3098 733.269C89.7188 733.71 86.8258 734.277 83.3354 735.033C78.9017 736.04 74.6566 738.56 71.4492 742.182C65.1917 749.173 61.7327 756.952 61.1667 765.297C60.7579 771.375 61.1038 777.296 62.1729 783.437C64.154 794.365 69.3739 803.34 77.6439 810.206C81.5116 813.449 85.9454 815.181 90.8508 815.339C90.9137 815.339 90.9766 815.339 91.0395 815.339H93.1148C95.0959 815.465 96.8568 815.496 98.5548 815.496C99.2781 815.496 99.9699 815.496 100.693 815.496C100.787 815.496 100.85 815.496 100.945 815.496L111.007 815.118C122.013 814.709 133.396 814.3 144.653 813.733C153.552 813.292 162.231 812.725 171.413 812.158L174.809 811.938L181.947 811.465C181.947 811.654 181.947 811.875 181.947 812.032C181.947 812.41 181.947 812.756 181.947 813.103C181.947 813.985 181.947 814.835 181.947 815.685C182.45 837.982 183.299 854.421 184.746 868.939C186.349 885.504 188.834 900.086 192.355 913.501C195.437 925.217 199.21 934.475 204.21 942.569C204.273 942.664 204.336 942.789 204.399 942.884C206.914 946.758 208.895 949.371 211.034 951.639C217.323 958.378 225.561 962 234.775 962C235.718 962 236.661 961.968 237.605 961.874C245.34 961.339 255.528 959.953 265.937 954.158C271.377 951.135 277.037 945.813 279.678 941.246C284.647 932.68 284.961 924.965 284.615 918.54C284.332 913.218 283.546 907.896 282.98 903.991C281.533 894.196 278.609 885.19 275.527 876.057C274.018 871.616 272.949 867.239 272.131 862.263C271.345 857.508 270.748 851.335 270.182 842.895C269.962 839.431 269.773 835.557 269.616 831.085C269.521 826.991 269.364 823.275 269.144 819.842C268.484 808.82 269.144 797.357 269.962 786.523H270.025L270.716 786.24C295.369 776.509 317.412 765.675 338.135 753.172C361.53 739.095 381.246 724.577 398.32 708.736C414.011 694.313 426.275 679.259 435.834 662.757C447.972 641.815 453.947 620.998 454.041 599.174C454.104 577.601 448.884 559.021 438.098 542.298C429.514 528.945 418.508 517.293 405.458 507.688C392.597 498.24 378.636 490.398 362.725 483.753C333.229 471.408 300.966 463.724 263.987 460.26C255.277 459.409 245.686 459 234.68 459L234.649 459.094Z"
        fill="url(#paint1_linear_368_25)" />
    <path
        d="M1147.89 414.151C1150.63 414.151 1153.06 414.251 1155.31 414.46C1164.78 415.34 1172.98 417.3 1180.4 420.4C1184.35 422.059 1187.8 423.986 1190.93 426.281C1193.99 428.526 1196.57 431.257 1198.59 434.382C1201.01 438.127 1202.18 442.316 1202.17 447.216C1202.15 452.268 1200.75 457.119 1197.88 462.045C1195.56 466.041 1192.55 469.727 1188.66 473.304C1184.31 477.325 1179.28 481.02 1173.3 484.605C1167.94 487.831 1162.25 490.604 1155.91 493.108L1155.68 493.209C1155.56 493.259 1155.44 493.309 1155.32 493.343C1154.52 493.569 1153.52 494.189 1153.21 495.839C1153.17 496.032 1153.16 496.225 1153.13 496.459C1152.91 499.391 1152.69 502.81 1152.89 506.202C1152.95 507.157 1152.99 508.112 1153.01 509.067C1153.04 510.165 1153.09 511.262 1153.17 512.351C1153.3 514.329 1153.47 516.272 1153.74 517.897C1153.94 519.12 1154.25 520.578 1154.81 522.245C1155.57 524.482 1156.28 526.669 1156.62 528.947C1156.78 529.994 1156.96 531.226 1157.02 532.424C1157.11 533.991 1156.93 534.996 1156.27 536.144C1156.01 536.596 1155.09 537.526 1154.2 538.02C1152.27 539.092 1150.28 539.419 1148.37 539.553C1148.22 539.562 1148.07 539.57 1147.93 539.57C1146.63 539.57 1145.54 539.084 1144.65 538.129C1144.24 537.693 1143.84 537.149 1143.34 536.387C1142.23 534.585 1141.38 532.499 1140.67 529.793C1139.8 526.476 1139.17 522.815 1138.76 518.584C1138.35 514.563 1138.15 510.165 1138.03 504.703C1138.02 504.401 1138.03 504.1 1138.03 503.765C1138.04 503.438 1138.05 503.128 1138.05 502.784C1138.04 502.298 1138.02 501.746 1137.84 501.218C1137.62 500.447 1137.11 499.408 1135.44 499.408L1131.66 499.651C1128.96 499.819 1126.32 499.986 1123.69 500.12C1120.72 500.263 1117.75 500.372 1114.77 500.481L1112.09 500.581C1111.93 500.581 1111.76 500.581 1111.6 500.581C1111.16 500.581 1110.72 500.573 1110.28 500.556H1109.68C1109.32 500.531 1109.02 500.414 1108.7 500.145C1107.25 498.947 1106.37 497.431 1106.02 495.504C1105.8 494.214 1105.72 492.966 1105.8 491.701C1105.89 490.495 1106.39 489.28 1107.49 488.048C1107.77 487.73 1108.13 487.512 1108.45 487.437C1109.28 487.253 1109.88 487.144 1110.85 487.043L1114.21 486.733C1116.68 486.507 1119.14 486.264 1121.61 486.029C1124.5 485.753 1127.37 485.476 1130.27 485.183C1131.09 485.099 1131.92 484.999 1132.74 484.907C1133.36 484.831 1133.97 484.764 1134.6 484.689C1135.64 484.58 1136.51 484.161 1137.31 483.726C1138.2 483.215 1138.73 482.385 1138.81 481.355L1138.91 480.073C1138.96 479.478 1139.01 478.9 1139.04 478.322C1139.29 474.284 1139.72 469.869 1140.36 464.424C1140.54 462.866 1140.8 461.257 1141.06 459.716L1141.28 458.35C1141.66 456.021 1142.05 453.692 1142.46 451.355C1142.75 449.679 1143.06 448.398 1143.47 447.233C1143.52 447.116 1143.57 446.982 1143.61 446.856C1143.67 446.697 1143.73 446.555 1143.78 446.395C1143.89 446.044 1144.05 445.717 1144.22 445.432L1144.43 445.122C1144.52 445.005 1144.62 444.879 1144.76 444.737C1144.98 444.494 1145.23 444.268 1145.5 444.083C1146.22 443.589 1147.26 443.145 1148.68 443.128C1148.82 443.128 1148.93 443.137 1149.07 443.137C1149.44 443.137 1149.78 443.145 1150.07 443.212C1151.68 443.514 1152.9 444.393 1153.79 445.918C1154.68 447.418 1155.05 449.168 1155.27 450.509C1155.45 451.598 1155.49 452.771 1155.37 454.111C1155.1 457.202 1154.84 460.31 1154.58 463.402C1154.26 467.038 1154.03 470.682 1153.85 473.773C1153.81 474.46 1153.85 475.139 1153.92 475.717C1153.95 476.177 1154.15 476.647 1154.43 477.032C1154.83 477.577 1155.43 477.928 1156.06 477.928C1156.18 477.928 1156.3 477.912 1156.43 477.886C1156.9 477.778 1157.11 477.694 1157.36 477.593C1161.2 476.085 1164.49 474.477 1167.43 472.676C1169.32 471.52 1171.19 470.129 1173.32 468.294C1175.23 466.652 1176.87 465.019 1178.35 463.293C1180.4 460.889 1182.06 458.224 1183.28 455.393C1184.05 453.567 1184.46 452 1184.57 450.425C1184.58 450.174 1184.62 449.931 1184.67 449.688V449.545C1185.18 446.337 1184.46 443.287 1182.56 440.498C1181.63 439.157 1180.43 437.959 1178.86 436.879C1175.79 434.717 1172.25 433.025 1168.35 431.844C1164.94 430.797 1161.26 430.017 1157.16 429.473C1152.75 428.887 1148.36 428.593 1144.1 428.593C1142.24 428.593 1140.39 428.652 1138.58 428.761C1134.81 428.987 1131.66 429.314 1128.49 430.202C1127.18 430.554 1125.91 430.73 1124.74 430.73C1123.81 430.721 1123.26 430.629 1122.8 430.545C1121.85 430.361 1121.14 429.775 1120.58 428.711C1120.31 428.2 1120.44 427.278 1120.5 426.826C1120.63 425.787 1121.6 423.868 1122.49 422.746C1123.59 421.397 1124.9 420.224 1126.36 419.269C1129.48 417.242 1132.82 415.851 1136.33 415.139C1139.28 414.544 1142.35 414.209 1145.47 414.151C1146.28 414.142 1147.08 414.125 1147.89 414.125M1147.89 409.937C1147.06 409.937 1146.26 409.945 1145.44 409.962H1145.39C1142.04 410.029 1138.71 410.389 1135.5 411.034C1131.47 411.855 1127.62 413.438 1124.06 415.759C1122.23 416.957 1120.6 418.423 1119.22 420.107C1119.22 420.115 1119.21 420.132 1119.2 420.14C1118.2 421.397 1116.62 424.069 1116.32 426.298C1116.21 427.186 1115.98 428.987 1116.85 430.654C1118.3 433.435 1120.46 434.365 1122.01 434.659C1122.69 434.784 1123.46 434.893 1124.66 434.91C1124.68 434.91 1124.7 434.91 1124.72 434.91C1126.26 434.91 1127.88 434.684 1129.55 434.231C1132.39 433.444 1135.19 433.151 1138.81 432.933C1140.54 432.824 1142.31 432.774 1144.09 432.774C1148.16 432.774 1152.37 433.059 1156.59 433.62C1160.49 434.139 1163.93 434.86 1167.1 435.84C1170.61 436.904 1173.75 438.403 1176.44 440.297C1177.59 441.093 1178.45 441.93 1179.09 442.86C1180.4 444.762 1180.87 446.739 1180.54 448.9C1180.53 448.976 1180.52 449.043 1180.51 449.118C1180.44 449.478 1180.41 449.822 1180.38 450.165C1180.3 451.254 1180.01 452.36 1179.41 453.751C1178.36 456.197 1176.92 458.501 1175.15 460.562C1173.83 462.112 1172.34 463.594 1170.58 465.111C1168.64 466.778 1166.95 468.043 1165.23 469.098C1163.09 470.405 1160.74 471.603 1158.1 472.743C1158.27 469.995 1158.48 466.87 1158.76 463.754C1159.02 460.637 1159.28 457.538 1159.55 454.455C1159.7 452.796 1159.65 451.271 1159.4 449.805C1159.15 448.255 1158.67 445.918 1157.41 443.782C1155.92 441.243 1153.66 439.626 1150.89 439.09C1150.24 438.956 1149.63 438.94 1149.11 438.94H1149.08C1148.96 438.94 1148.82 438.931 1148.69 438.931C1146.64 438.948 1144.73 439.526 1143.17 440.598C1142.62 440.958 1142.11 441.402 1141.65 441.922C1141.46 442.123 1141.24 442.383 1141 442.709C1140.98 442.743 1140.95 442.785 1140.93 442.818L1140.72 443.128C1140.72 443.128 1140.68 443.179 1140.67 443.204C1140.32 443.748 1140.05 444.343 1139.81 445.022C1139.8 445.055 1139.79 445.089 1139.78 445.122L1139.75 445.223L1139.71 445.315C1139.68 445.39 1139.65 445.466 1139.62 445.549L1139.57 445.675C1139.54 445.742 1139.52 445.801 1139.49 445.868C1139.02 447.25 1138.65 448.758 1138.32 450.634C1137.91 452.972 1137.52 455.351 1137.13 457.655L1136.91 459.045L1136.9 459.163C1136.64 460.713 1136.38 462.321 1136.19 463.93C1135.54 469.526 1135.11 474.016 1134.86 478.054C1134.82 478.565 1134.78 479.076 1134.74 479.595V479.73L1134.68 480.358C1134.49 480.442 1134.31 480.509 1134.17 480.517C1134.15 480.517 1134.14 480.517 1134.13 480.517C1133.5 480.592 1132.88 480.659 1132.26 480.735C1131.45 480.827 1130.66 480.928 1129.85 481.003C1126.97 481.288 1124.1 481.564 1121.22 481.849C1120 481.966 1118.76 482.084 1117.52 482.201C1116.29 482.318 1115.07 482.435 1113.83 482.553L1110.47 482.871C1109.25 482.988 1108.48 483.139 1107.55 483.34C1106.37 483.608 1105.23 484.278 1104.38 485.242C1102.71 487.102 1101.79 489.171 1101.64 491.391C1101.53 493.008 1101.62 494.583 1101.91 496.216C1102.43 499.123 1103.83 501.511 1106.03 503.337C1107.06 504.2 1108.24 504.661 1109.55 504.703C1109.57 504.703 1109.58 504.703 1109.6 504.703H1110.15C1110.68 504.736 1111.15 504.745 1111.6 504.745C1111.8 504.745 1111.98 504.745 1112.17 504.745C1112.2 504.745 1112.22 504.745 1112.24 504.745L1114.92 504.644C1117.86 504.535 1120.89 504.426 1123.89 504.276C1126.27 504.158 1128.58 504.007 1131.03 503.857L1131.93 503.798L1133.84 503.672C1133.84 503.723 1133.84 503.781 1133.84 503.823C1133.84 503.924 1133.84 504.016 1133.84 504.108C1133.84 504.343 1133.84 504.569 1133.84 504.795C1133.97 510.726 1134.2 515.099 1134.58 518.961C1135.01 523.368 1135.67 527.247 1136.61 530.815C1137.43 533.932 1138.44 536.395 1139.77 538.548C1139.79 538.573 1139.8 538.607 1139.82 538.632C1140.49 539.662 1141.02 540.357 1141.59 540.961C1143.27 542.753 1145.46 543.717 1147.92 543.717C1148.17 543.717 1148.42 543.708 1148.67 543.683C1150.74 543.541 1153.45 543.172 1156.23 541.631C1157.68 540.827 1159.18 539.411 1159.89 538.196C1161.21 535.917 1161.3 533.865 1161.21 532.156C1161.13 530.74 1160.92 529.324 1160.77 528.285C1160.38 525.68 1159.6 523.284 1158.78 520.855C1158.38 519.673 1158.1 518.509 1157.88 517.185C1157.67 515.92 1157.51 514.278 1157.36 512.033C1157.3 511.112 1157.25 510.081 1157.21 508.892C1157.18 507.802 1157.14 506.814 1157.08 505.901C1156.9 502.969 1157.08 499.919 1157.3 497.037H1157.32L1157.5 496.962C1164.07 494.373 1169.95 491.492 1175.47 488.166C1181.71 484.421 1186.97 480.559 1191.52 476.345C1195.7 472.508 1198.97 468.504 1201.52 464.114C1204.75 458.543 1206.35 453.005 1206.37 447.2C1206.39 441.461 1205 436.518 1202.12 432.07C1199.83 428.518 1196.9 425.418 1193.42 422.863C1189.99 420.35 1186.27 418.264 1182.03 416.496C1174.16 413.212 1165.56 411.168 1155.71 410.247C1153.38 410.02 1150.83 409.911 1147.89 409.911L1147.89 409.937Z"
        fill="url(#paint2_linear_368_25)" />
    <path
        d="M1133.93 257.953C1135.46 257.953 1136.83 258.009 1138.09 258.126C1143.4 258.62 1148 259.719 1152.16 261.458C1154.38 262.388 1156.31 263.469 1158.07 264.756C1159.78 266.015 1161.23 267.547 1162.36 269.299C1163.72 271.4 1164.38 273.749 1164.37 276.498C1164.36 279.331 1163.57 282.051 1161.96 284.814C1160.66 287.055 1158.97 289.122 1156.79 291.129C1154.35 293.384 1151.53 295.456 1148.18 297.467C1145.18 299.276 1141.98 300.831 1138.42 302.236L1138.3 302.292C1138.23 302.32 1138.16 302.349 1138.1 302.367C1137.65 302.494 1137.08 302.842 1136.91 303.768C1136.89 303.876 1136.88 303.984 1136.87 304.115C1136.74 305.76 1136.62 307.677 1136.73 309.58C1136.77 310.115 1136.79 310.651 1136.8 311.187C1136.82 311.802 1136.85 312.418 1136.89 313.028C1136.96 314.137 1137.06 315.227 1137.21 316.139C1137.32 316.825 1137.49 317.642 1137.81 318.577C1138.24 319.832 1138.64 321.058 1138.82 322.336C1138.91 322.923 1139.01 323.614 1139.05 324.286C1139.1 325.164 1139 325.728 1138.63 326.372C1138.48 326.626 1137.96 327.147 1137.47 327.424C1136.38 328.026 1135.27 328.209 1134.2 328.284C1134.11 328.289 1134.03 328.294 1133.95 328.294C1133.22 328.294 1132.61 328.021 1132.11 327.486C1131.88 327.241 1131.66 326.936 1131.38 326.508C1130.75 325.498 1130.28 324.328 1129.88 322.811C1129.39 320.95 1129.04 318.897 1128.81 316.524C1128.58 314.269 1128.47 311.802 1128.4 308.739C1128.39 308.569 1128.4 308.4 1128.4 308.212C1128.4 308.029 1128.41 307.855 1128.41 307.663C1128.41 307.39 1128.39 307.08 1128.29 306.784C1128.17 306.352 1127.88 305.769 1126.94 305.769L1124.83 305.905C1123.31 305.999 1121.83 306.093 1120.36 306.169C1118.69 306.248 1117.03 306.309 1115.36 306.371L1113.85 306.427C1113.76 306.427 1113.67 306.427 1113.58 306.427C1113.33 306.427 1113.08 306.422 1112.84 306.413H1112.5C1112.3 306.399 1112.13 306.333 1111.95 306.183C1111.14 305.511 1110.65 304.66 1110.45 303.58C1110.32 302.856 1110.28 302.156 1110.33 301.447C1110.37 300.77 1110.66 300.089 1111.27 299.398C1111.43 299.219 1111.63 299.097 1111.81 299.055C1112.28 298.952 1112.61 298.891 1113.16 298.834L1115.04 298.66C1116.42 298.533 1117.81 298.397 1119.19 298.266C1120.81 298.111 1122.42 297.956 1124.05 297.791C1124.51 297.744 1124.97 297.688 1125.43 297.636C1125.78 297.594 1126.12 297.556 1126.47 297.514C1127.06 297.453 1127.55 297.218 1127.99 296.974C1128.5 296.687 1128.79 296.222 1128.83 295.644L1128.89 294.925C1128.92 294.591 1128.95 294.267 1128.97 293.943C1129.11 291.678 1129.35 289.202 1129.7 286.148C1129.81 285.274 1129.95 284.372 1130.1 283.508L1130.22 282.742C1130.44 281.436 1130.65 280.129 1130.88 278.819C1131.05 277.879 1131.22 277.16 1131.45 276.507C1131.48 276.441 1131.5 276.366 1131.53 276.296C1131.56 276.206 1131.59 276.126 1131.62 276.037C1131.69 275.84 1131.77 275.657 1131.87 275.497L1131.99 275.323C1132.04 275.257 1132.1 275.187 1132.17 275.107C1132.29 274.971 1132.44 274.844 1132.59 274.74C1132.99 274.463 1133.57 274.214 1134.37 274.205C1134.45 274.205 1134.51 274.209 1134.59 274.209C1134.8 274.209 1134.99 274.214 1135.15 274.252C1136.06 274.421 1136.74 274.914 1137.24 275.769C1137.73 276.61 1137.95 277.592 1138.07 278.344C1138.17 278.955 1138.19 279.613 1138.12 280.364C1137.97 282.098 1137.83 283.841 1137.68 285.575C1137.5 287.614 1137.37 289.658 1137.27 291.392C1137.25 291.777 1137.27 292.158 1137.31 292.482C1137.33 292.74 1137.44 293.003 1137.6 293.219C1137.82 293.525 1138.16 293.722 1138.51 293.722C1138.58 293.722 1138.65 293.713 1138.72 293.699C1138.98 293.638 1139.1 293.591 1139.24 293.534C1141.39 292.689 1143.24 291.786 1144.89 290.776C1145.95 290.128 1146.99 289.348 1148.19 288.319C1149.26 287.398 1150.18 286.482 1151.01 285.514C1152.16 284.165 1153.09 282.671 1153.77 281.083C1154.21 280.059 1154.44 279.18 1154.5 278.297C1154.5 278.156 1154.53 278.02 1154.55 277.884V277.804C1154.84 276.004 1154.44 274.294 1153.37 272.729C1152.85 271.978 1152.18 271.306 1151.3 270.7C1149.58 269.487 1147.59 268.538 1145.4 267.876C1143.49 267.289 1141.43 266.852 1139.13 266.546C1136.65 266.217 1134.19 266.053 1131.81 266.053C1130.76 266.053 1129.72 266.086 1128.71 266.147C1126.59 266.274 1124.82 266.457 1123.05 266.955C1122.31 267.152 1121.6 267.251 1120.95 267.251C1120.42 267.246 1120.12 267.195 1119.86 267.148C1119.32 267.044 1118.92 266.715 1118.61 266.119C1118.46 265.832 1118.53 265.315 1118.57 265.061C1118.64 264.479 1119.18 263.403 1119.69 262.773C1120.3 262.017 1121.04 261.359 1121.85 260.823C1123.6 259.686 1125.48 258.906 1127.44 258.507C1129.1 258.173 1130.82 257.986 1132.57 257.953C1133.03 257.948 1133.47 257.939 1133.93 257.939M1133.93 255.589C1133.47 255.589 1133.01 255.594 1132.55 255.603H1132.52C1130.65 255.641 1128.78 255.843 1126.98 256.205C1124.72 256.665 1122.56 257.553 1120.57 258.855C1119.54 259.527 1118.62 260.349 1117.85 261.293C1117.85 261.298 1117.84 261.307 1117.84 261.312C1117.28 262.017 1116.39 263.516 1116.23 264.765C1116.16 265.263 1116.03 266.274 1116.52 267.209C1117.34 268.769 1118.54 269.29 1119.41 269.455C1119.79 269.525 1120.23 269.586 1120.9 269.595C1120.91 269.595 1120.92 269.595 1120.93 269.595C1121.8 269.595 1122.71 269.469 1123.64 269.215C1125.23 268.773 1126.81 268.609 1128.84 268.487C1129.81 268.426 1130.8 268.397 1131.8 268.397C1134.08 268.397 1136.44 268.557 1138.81 268.872C1141 269.163 1142.92 269.567 1144.7 270.117C1146.67 270.714 1148.43 271.555 1149.94 272.617C1150.59 273.063 1151.07 273.533 1151.43 274.054C1152.16 275.121 1152.42 276.23 1152.24 277.442C1152.23 277.484 1152.23 277.522 1152.22 277.564C1152.18 277.766 1152.17 277.959 1152.15 278.151C1152.11 278.762 1151.94 279.382 1151.61 280.162C1151.01 281.534 1150.21 282.826 1149.22 283.982C1148.48 284.851 1147.64 285.683 1146.65 286.534C1145.57 287.469 1144.62 288.178 1143.65 288.77C1142.45 289.503 1141.14 290.175 1139.66 290.814C1139.75 289.273 1139.87 287.52 1140.02 285.772C1140.17 284.025 1140.31 282.286 1140.47 280.557C1140.55 279.627 1140.53 278.772 1140.39 277.949C1140.24 277.08 1139.97 275.769 1139.27 274.571C1138.43 273.148 1137.16 272.241 1135.61 271.94C1135.25 271.865 1134.9 271.855 1134.61 271.855H1134.6C1134.53 271.855 1134.45 271.851 1134.38 271.851C1133.23 271.86 1132.16 272.184 1131.28 272.786C1130.97 272.988 1130.69 273.237 1130.43 273.528C1130.32 273.641 1130.2 273.787 1130.07 273.97C1130.05 273.989 1130.04 274.012 1130.02 274.031L1129.91 274.205C1129.91 274.205 1129.89 274.233 1129.88 274.247C1129.69 274.552 1129.53 274.886 1129.4 275.267C1129.39 275.285 1129.38 275.304 1129.38 275.323L1129.36 275.379L1129.34 275.431C1129.32 275.473 1129.31 275.516 1129.29 275.563L1129.26 275.633C1129.25 275.671 1129.23 275.704 1129.22 275.741C1128.95 276.516 1128.75 277.362 1128.56 278.415C1128.33 279.725 1128.11 281.06 1127.89 282.352L1127.77 283.132L1127.76 283.198C1127.62 284.067 1127.47 284.969 1127.37 285.871C1127 289.01 1126.76 291.528 1126.62 293.793C1126.6 294.079 1126.58 294.366 1126.55 294.657V294.732L1126.52 295.085C1126.41 295.132 1126.31 295.169 1126.23 295.174C1126.23 295.174 1126.22 295.174 1126.21 295.174C1125.86 295.216 1125.51 295.254 1125.16 295.296C1124.71 295.348 1124.26 295.404 1123.81 295.447C1122.2 295.606 1120.59 295.761 1118.97 295.921C1118.29 295.987 1117.59 296.053 1116.9 296.118C1116.21 296.184 1115.52 296.25 1114.83 296.316L1112.94 296.494C1112.26 296.56 1111.83 296.645 1111.3 296.757C1110.64 296.908 1110.01 297.284 1109.53 297.824C1108.59 298.867 1108.07 300.028 1107.99 301.273C1107.93 302.179 1107.98 303.063 1108.14 303.979C1108.44 305.609 1109.22 306.948 1110.45 307.973C1111.03 308.457 1111.69 308.715 1112.43 308.739C1112.44 308.739 1112.45 308.739 1112.46 308.739H1112.77C1113.06 308.757 1113.33 308.762 1113.58 308.762C1113.69 308.762 1113.79 308.762 1113.9 308.762C1113.91 308.762 1113.92 308.762 1113.94 308.762L1115.44 308.706C1117.09 308.645 1118.79 308.584 1120.47 308.499C1121.8 308.433 1123.1 308.349 1124.47 308.264L1124.98 308.231L1126.05 308.161C1126.05 308.189 1126.05 308.222 1126.05 308.245C1126.05 308.302 1126.05 308.353 1126.05 308.405C1126.05 308.537 1126.05 308.663 1126.05 308.79C1126.12 312.117 1126.25 314.569 1126.47 316.735C1126.7 319.207 1127.08 321.382 1127.6 323.384C1128.06 325.132 1128.63 326.513 1129.38 327.72C1129.38 327.735 1129.39 327.753 1129.4 327.767C1129.78 328.345 1130.08 328.735 1130.4 329.074C1131.34 330.079 1132.57 330.619 1133.94 330.619C1134.09 330.619 1134.23 330.615 1134.37 330.601C1135.52 330.521 1137.05 330.314 1138.6 329.45C1139.42 328.998 1140.26 328.204 1140.66 327.523C1141.4 326.245 1141.45 325.094 1141.4 324.136C1141.35 323.341 1141.24 322.547 1141.15 321.965C1140.94 320.504 1140.5 319.16 1140.04 317.797C1139.81 317.135 1139.65 316.482 1139.53 315.739C1139.41 315.03 1139.32 314.109 1139.24 312.85C1139.21 312.333 1139.18 311.755 1139.15 311.088C1139.14 310.477 1139.12 309.923 1139.08 309.41C1138.98 307.766 1139.08 306.056 1139.21 304.439H1139.21L1139.32 304.397C1143 302.945 1146.3 301.329 1149.4 299.464C1152.89 297.364 1155.84 295.198 1158.4 292.834C1160.74 290.682 1162.57 288.436 1164 285.974C1165.82 282.85 1166.71 279.744 1166.73 276.488C1166.73 273.27 1165.95 270.498 1164.34 268.003C1163.06 266.011 1161.41 264.272 1159.46 262.839C1157.54 261.43 1155.45 260.26 1153.07 259.268C1148.66 257.426 1143.84 256.28 1138.31 255.763C1137.01 255.636 1135.58 255.575 1133.93 255.575L1133.93 255.589Z"
        fill="url(#paint3_linear_368_25)" />
    <path
        d="M958.853 75.4655C964.134 75.4655 968.832 75.6602 973.189 76.0658C991.478 77.7692 1007.34 81.5654 1021.67 87.5679C1029.3 90.7801 1035.96 94.5114 1042.02 98.9565C1047.93 103.304 1052.92 108.593 1056.83 114.644C1061.49 121.896 1063.76 130.008 1063.74 139.498C1063.69 149.281 1060.99 158.674 1055.45 168.213C1050.96 175.951 1045.15 183.089 1037.63 190.017C1029.22 197.804 1019.5 204.958 1007.95 211.902C997.601 218.147 986.602 223.517 974.34 228.368L973.902 228.563C973.675 228.66 973.432 228.757 973.206 228.822C971.667 229.26 969.723 230.461 969.123 233.657C969.059 234.03 969.026 234.403 968.978 234.857C968.54 240.535 968.119 247.154 968.508 253.725C968.621 255.574 968.702 257.424 968.735 259.273C968.799 261.398 968.897 263.523 969.042 265.632C969.302 269.461 969.626 273.225 970.144 276.372C970.533 278.741 971.132 281.564 972.217 284.792C973.692 289.123 975.069 293.358 975.716 297.77C976.024 299.798 976.364 302.183 976.494 304.503C976.656 307.537 976.316 309.483 975.036 311.706C974.534 312.582 972.752 314.383 971.035 315.34C967.309 317.417 963.47 318.049 959.777 318.309C959.485 318.325 959.193 318.341 958.918 318.341C956.407 318.341 954.301 317.4 952.584 315.551C951.79 314.707 951.013 313.653 950.057 312.176C947.903 308.689 946.266 304.649 944.89 299.409C943.205 292.985 941.99 285.895 941.196 277.702C940.419 269.915 940.03 261.398 939.787 250.821C939.771 250.237 939.787 249.653 939.787 249.004C939.803 248.371 939.835 247.771 939.835 247.106C939.819 246.165 939.771 245.094 939.43 244.072C938.993 242.579 938.021 240.568 934.781 240.568L927.492 241.038C922.259 241.363 917.173 241.687 912.086 241.947C906.336 242.223 900.601 242.433 894.85 242.644L889.667 242.839C889.359 242.839 889.035 242.839 888.727 242.839C887.869 242.839 887.01 242.823 886.168 242.79H885.018C884.321 242.742 883.738 242.515 883.122 241.995C880.32 239.676 878.619 236.739 877.939 233.008C877.501 230.509 877.355 228.092 877.517 225.643C877.679 223.306 878.651 220.954 880.773 218.569C881.324 217.953 882.005 217.531 882.636 217.385C884.24 217.028 885.39 216.817 887.269 216.623L893.765 216.022C898.528 215.584 903.29 215.114 908.053 214.66C913.641 214.124 919.198 213.589 924.803 213.021C926.39 212.859 927.978 212.664 929.565 212.486C930.764 212.34 931.946 212.21 933.161 212.064C935.17 211.853 936.855 211.042 938.394 210.198C940.127 209.209 941.148 207.602 941.293 205.607L941.488 203.125C941.585 201.973 941.682 200.854 941.747 199.734C942.233 191.915 943.059 183.365 944.29 172.82C944.647 169.803 945.149 166.688 945.651 163.703L946.072 161.058C946.817 156.548 947.562 152.038 948.356 147.512C948.923 144.268 949.522 141.785 950.3 139.53C950.397 139.303 950.494 139.044 950.575 138.8C950.689 138.492 950.802 138.216 950.899 137.908C951.126 137.227 951.418 136.594 951.758 136.042L952.163 135.442C952.325 135.215 952.536 134.972 952.795 134.696C953.216 134.226 953.702 133.787 954.236 133.431C955.613 132.473 957.622 131.614 960.376 131.581C960.635 131.581 960.862 131.597 961.121 131.597C961.85 131.597 962.498 131.614 963.065 131.743C966.175 132.327 968.524 134.031 970.257 136.983C971.958 139.887 972.687 143.278 973.108 145.874C973.465 147.983 973.53 150.254 973.303 152.85C972.784 158.836 972.282 164.855 971.78 170.841C971.148 177.882 970.711 184.939 970.355 190.925C970.29 192.255 970.371 193.57 970.5 194.689C970.565 195.581 970.938 196.49 971.488 197.236C972.266 198.29 973.416 198.972 974.631 198.972C974.874 198.972 975.101 198.939 975.344 198.891C976.251 198.68 976.656 198.518 977.142 198.323C984.561 195.403 990.927 192.288 996.613 188.8C1000.26 186.561 1003.87 183.868 1007.99 180.315C1011.68 177.136 1014.85 173.972 1017.7 170.63C1021.67 165.974 1024.88 160.815 1027.23 155.332C1028.72 151.795 1029.51 148.761 1029.72 145.711C1029.74 145.225 1029.82 144.754 1029.92 144.284V144.008C1030.91 137.795 1029.51 131.889 1025.84 126.487C1024.05 123.891 1021.72 121.572 1018.69 119.479C1012.76 115.293 1005.91 112.016 998.379 109.729C991.786 107.701 984.691 106.192 976.753 105.138C968.232 104.002 959.76 103.434 951.531 103.434C947.919 103.434 944.355 103.548 940.856 103.759C933.566 104.197 927.476 104.829 921.352 106.549C918.825 107.23 916.379 107.571 914.111 107.571C912.313 107.555 911.26 107.376 910.369 107.214C908.523 106.857 907.146 105.722 906.076 103.661C905.558 102.672 905.801 100.887 905.914 100.011C906.174 97.9994 908.037 94.2843 909.77 92.1104C911.892 89.4985 914.419 87.2272 917.238 85.3778C923.264 81.4518 929.727 78.7588 936.498 77.3798C942.2 76.228 948.146 75.5791 954.172 75.4655C955.743 75.4493 957.282 75.4168 958.837 75.4168M958.837 67.3053C957.249 67.3053 955.694 67.3215 954.107 67.354H954.01C947.546 67.4837 941.115 68.1813 934.895 69.4305C927.119 71.0204 919.684 74.0865 912.799 78.5803C909.252 80.9002 906.109 83.7393 903.452 87.0001C903.436 87.0163 903.42 87.0488 903.404 87.065C901.476 89.4985 898.414 94.6736 897.847 98.989C897.621 100.709 897.183 104.197 898.868 107.425C901.67 112.811 905.833 114.612 908.83 115.18C910.142 115.423 911.633 115.634 913.965 115.666C913.998 115.666 914.03 115.666 914.063 115.666C917.043 115.666 920.186 115.228 923.41 114.352C928.885 112.827 934.312 112.259 941.31 111.838C944.647 111.627 948.065 111.529 951.499 111.529C959.372 111.529 967.504 112.081 975.652 113.168C983.2 114.174 989.842 115.569 995.965 117.467C1002.75 119.527 1008.81 122.431 1014.01 126.098C1016.25 127.639 1017.9 129.261 1019.15 131.062C1021.67 134.745 1022.58 138.573 1021.93 142.759C1021.92 142.905 1021.9 143.035 1021.88 143.181C1021.75 143.878 1021.69 144.543 1021.64 145.209C1021.48 147.318 1020.91 149.459 1019.76 152.152C1017.72 156.889 1014.95 161.35 1011.53 165.341C1008.97 168.343 1006.09 171.214 1002.69 174.151C998.946 177.379 995.674 179.829 992.353 181.873C988.222 184.403 983.686 186.723 978.584 188.93C978.908 183.609 979.313 177.557 979.847 171.522C980.349 165.487 980.852 159.485 981.37 153.515C981.662 150.303 981.581 147.35 981.095 144.511C980.609 141.51 979.669 136.983 977.239 132.847C974.356 127.931 969.998 124.8 964.636 123.762C963.389 123.502 962.206 123.47 961.202 123.47H961.153C960.91 123.47 960.651 123.453 960.392 123.453C956.423 123.486 952.746 124.605 949.717 126.682C948.664 127.379 947.676 128.239 946.785 129.245C946.428 129.634 945.991 130.137 945.538 130.77C945.489 130.835 945.44 130.916 945.392 130.981L944.987 131.581C944.987 131.581 944.922 131.678 944.89 131.727C944.225 132.782 943.691 133.933 943.237 135.248C943.221 135.312 943.189 135.377 943.172 135.442L943.108 135.637L943.043 135.815C942.978 135.961 942.929 136.107 942.865 136.27L942.767 136.513C942.719 136.643 942.67 136.756 942.622 136.886C941.698 139.563 940.986 142.483 940.354 146.117C939.56 150.643 938.799 155.251 938.054 159.712L937.632 162.405L937.6 162.632C937.114 165.633 936.596 168.748 936.239 171.863C934.976 182.7 934.15 191.396 933.664 199.215C933.599 200.205 933.518 201.194 933.437 202.2V202.46L933.323 203.677C932.951 203.839 932.611 203.969 932.335 203.985C932.303 203.985 932.27 203.985 932.254 203.985C931.039 204.131 929.841 204.261 928.642 204.407C927.087 204.585 925.548 204.78 923.993 204.926C918.42 205.477 912.88 206.013 907.308 206.564C904.943 206.791 902.561 207.018 900.164 207.246C897.783 207.473 895.417 207.7 893.036 207.927L886.54 208.543C884.175 208.771 882.685 209.063 880.887 209.452C878.603 209.971 876.416 211.269 874.764 213.135C871.54 216.736 869.758 220.743 869.466 225.042C869.256 228.173 869.434 231.223 869.985 234.387C871.005 240.016 873.694 244.64 877.955 248.176C879.947 249.847 882.231 250.74 884.758 250.821C884.791 250.821 884.823 250.821 884.856 250.821H885.925C886.945 250.886 887.852 250.902 888.727 250.902C889.1 250.902 889.456 250.902 889.829 250.902C889.877 250.902 889.91 250.902 889.958 250.902L895.142 250.707C900.812 250.496 906.676 250.285 912.475 249.993C917.059 249.766 921.53 249.474 926.261 249.182L928.01 249.069L931.687 248.825C931.687 248.923 931.687 249.036 931.687 249.117C931.687 249.312 931.687 249.49 931.687 249.669C931.687 250.123 931.687 250.561 931.687 250.999C931.946 262.485 932.384 270.954 933.129 278.432C933.955 286.966 935.235 294.477 937.049 301.388C938.637 307.423 940.581 312.193 943.156 316.362C943.189 316.411 943.221 316.476 943.253 316.524C944.549 318.52 945.57 319.866 946.671 321.034C949.911 324.506 954.155 326.372 958.902 326.372C959.388 326.372 959.874 326.355 960.36 326.307C964.345 326.031 969.593 325.317 974.955 322.332C977.758 320.775 980.673 318.033 982.034 315.681C984.594 311.268 984.756 307.293 984.577 303.984C984.432 301.242 984.027 298.5 983.735 296.489C982.99 291.443 981.483 286.804 979.896 282.099C979.118 279.811 978.568 277.556 978.146 274.993C977.741 272.543 977.434 269.364 977.142 265.016C977.029 263.231 976.931 261.236 976.85 258.932C976.802 256.823 976.721 254.909 976.607 253.141C976.267 247.463 976.607 241.557 977.029 235.977H977.061L977.417 235.831C990.117 230.818 1001.47 225.237 1012.15 218.796C1024.2 211.545 1034.36 204.066 1043.15 195.906C1051.24 188.475 1057.55 180.721 1062.48 172.22C1068.73 161.432 1071.81 150.708 1071.86 139.466C1071.89 128.353 1069.2 118.781 1063.65 110.167C1059.22 103.288 1053.55 97.2855 1046.83 92.3375C1040.21 87.4706 1033.01 83.431 1024.82 80.008C1009.62 73.6485 993.001 69.6901 973.951 67.9055C969.464 67.4675 964.523 67.2566 958.853 67.2566L958.837 67.3053Z"
        fill="url(#paint4_linear_368_25)" />
    <path
        d="M657.588 444.251C661.928 444.251 665.788 444.41 669.368 444.743C684.396 446.139 697.427 449.251 709.206 454.171C715.476 456.804 720.946 459.862 725.924 463.506C730.783 467.069 734.882 471.404 738.09 476.364C741.924 482.308 743.787 488.957 743.774 496.736C743.734 504.755 741.511 512.454 736.959 520.273C733.272 526.616 728.493 532.467 722.317 538.145C715.409 544.528 707.423 550.392 697.932 556.084C689.427 561.203 680.389 565.605 670.313 569.581L669.954 569.74C669.768 569.82 669.568 569.9 669.382 569.953C668.117 570.312 666.52 571.296 666.027 573.916C665.974 574.221 665.947 574.527 665.908 574.9C665.548 579.554 665.202 584.979 665.522 590.365C665.615 591.881 665.681 593.397 665.708 594.913C665.761 596.655 665.841 598.397 665.961 600.125C666.174 603.263 666.44 606.349 666.866 608.928C667.185 610.87 667.678 613.183 668.57 615.83C669.781 619.38 670.912 622.851 671.445 626.468C671.698 628.13 671.977 630.085 672.084 631.986C672.217 634.473 671.937 636.069 670.886 637.89C670.473 638.608 669.009 640.085 667.598 640.869C664.537 642.571 661.382 643.09 658.347 643.303C658.108 643.316 657.868 643.329 657.642 643.329C655.579 643.329 653.848 642.558 652.437 641.042C651.785 640.35 651.146 639.486 650.361 638.276C648.591 635.417 647.246 632.106 646.115 627.811C644.731 622.545 643.732 616.734 643.08 610.019C642.441 603.636 642.122 596.655 641.922 587.985C641.909 587.506 641.922 587.027 641.922 586.495C641.935 585.977 641.962 585.485 641.962 584.939C641.949 584.168 641.909 583.29 641.629 582.453C641.27 581.229 640.471 579.58 637.809 579.58L631.819 579.966C627.52 580.232 623.341 580.498 619.161 580.711C614.436 580.937 609.724 581.11 604.999 581.283L600.74 581.442C600.487 581.442 600.22 581.442 599.967 581.442C599.262 581.442 598.557 581.429 597.864 581.402H596.919C596.347 581.362 595.868 581.176 595.362 580.751C593.059 578.849 591.662 576.442 591.103 573.384C590.743 571.336 590.624 569.355 590.757 567.347C590.89 565.432 591.688 563.504 593.432 561.549C593.885 561.044 594.444 560.698 594.963 560.578C596.281 560.286 597.226 560.113 598.77 559.953L604.107 559.461C608.02 559.102 611.934 558.716 615.847 558.344C620.439 557.905 625.004 557.467 629.61 557.001C630.914 556.868 632.219 556.709 633.523 556.562C634.508 556.443 635.48 556.336 636.478 556.217C638.129 556.044 639.513 555.379 640.777 554.687C642.202 553.876 643.04 552.56 643.16 550.924L643.32 548.89C643.4 547.945 643.479 547.028 643.533 546.11C643.932 539.701 644.611 532.693 645.622 524.05C645.915 521.576 646.328 519.023 646.74 516.576L647.087 514.409C647.699 510.712 648.311 507.015 648.963 503.305C649.429 500.646 649.922 498.611 650.561 496.763C650.64 496.577 650.72 496.364 650.787 496.165C650.88 495.912 650.973 495.686 651.053 495.433C651.239 494.875 651.479 494.356 651.758 493.904L652.091 493.412C652.224 493.226 652.397 493.026 652.61 492.8C652.956 492.415 653.356 492.056 653.795 491.763C654.926 490.978 656.577 490.274 658.84 490.247C659.053 490.247 659.239 490.26 659.452 490.26C660.051 490.26 660.583 490.274 661.049 490.38C663.605 490.859 665.535 492.255 666.959 494.675C668.357 497.055 668.956 499.835 669.302 501.962C669.595 503.691 669.648 505.553 669.461 507.68C669.035 512.587 668.623 517.52 668.21 522.427C667.691 528.198 667.332 533.983 667.039 538.89C666.986 539.98 667.052 541.057 667.159 541.975C667.212 542.706 667.518 543.451 667.971 544.063C668.61 544.927 669.555 545.485 670.553 545.485C670.753 545.485 670.939 545.459 671.139 545.419C671.884 545.246 672.217 545.113 672.616 544.953C678.712 542.56 683.943 540.007 688.615 537.148C691.61 535.313 694.578 533.105 697.959 530.193C700.994 527.587 703.603 524.994 705.945 522.254C709.206 518.438 711.842 514.209 713.772 509.715C714.996 506.816 715.649 504.329 715.822 501.829C715.835 501.43 715.902 501.045 715.981 500.659V500.433C716.793 495.34 715.649 490.5 712.627 486.072C711.163 483.944 709.246 482.042 706.757 480.327C701.886 476.896 696.255 474.21 690.066 472.335C684.649 470.673 678.819 469.436 672.297 468.572C665.295 467.641 658.334 467.176 651.572 467.176C648.604 467.176 645.676 467.269 642.801 467.442C636.811 467.801 631.806 468.319 626.775 469.729C624.698 470.287 622.688 470.567 620.825 470.567C619.348 470.553 618.482 470.407 617.75 470.274C616.233 469.982 615.101 469.051 614.223 467.362C613.797 466.551 613.997 465.088 614.09 464.37C614.303 462.721 615.834 459.676 617.258 457.894C619.001 455.753 621.078 453.891 623.394 452.376C628.345 449.158 633.656 446.95 639.22 445.82C643.905 444.876 648.79 444.344 653.742 444.251C655.033 444.237 656.297 444.211 657.575 444.211M657.575 437.562C656.271 437.562 654.993 437.575 653.689 437.602H653.609C648.298 437.708 643.014 438.28 637.902 439.304C631.513 440.607 625.404 443.12 619.747 446.804C616.832 448.705 614.25 451.032 612.067 453.705C612.053 453.719 612.04 453.745 612.027 453.758C610.443 455.753 607.927 459.995 607.461 463.532C607.275 464.942 606.916 467.801 608.3 470.447C610.603 474.862 614.023 476.338 616.486 476.803C617.564 477.003 618.788 477.176 620.705 477.202C620.732 477.202 620.758 477.202 620.785 477.202C623.234 477.202 625.816 476.843 628.465 476.125C632.964 474.875 637.423 474.41 643.173 474.064C645.915 473.891 648.724 473.811 651.546 473.811C658.014 473.811 664.696 474.263 671.391 475.154C677.594 475.979 683.051 477.122 688.083 478.678C693.66 480.367 698.638 482.747 702.911 485.753C704.747 487.016 706.105 488.346 707.13 489.822C709.206 492.84 709.952 495.978 709.419 499.409C709.406 499.529 709.393 499.635 709.379 499.755C709.273 500.327 709.22 500.872 709.18 501.417C709.047 503.146 708.581 504.901 707.636 507.108C705.959 510.991 703.683 514.648 700.874 517.919C698.771 520.379 696.402 522.733 693.607 525.14C690.532 527.786 687.843 529.794 685.115 531.47C681.72 533.544 677.993 535.446 673.801 537.254C674.067 532.893 674.4 527.933 674.839 522.986C675.251 518.039 675.664 513.119 676.09 508.225C676.33 505.593 676.263 503.172 675.864 500.845C675.464 498.385 674.692 494.675 672.696 491.284C670.327 487.255 666.746 484.689 662.34 483.838C661.315 483.625 660.344 483.598 659.518 483.598H659.479C659.279 483.598 659.066 483.585 658.853 483.585C655.592 483.612 652.57 484.529 650.081 486.231C649.216 486.803 648.404 487.508 647.672 488.332C647.379 488.651 647.02 489.064 646.647 489.582C646.607 489.635 646.567 489.702 646.527 489.755L646.195 490.247C646.195 490.247 646.141 490.327 646.115 490.367C645.569 491.231 645.13 492.175 644.757 493.252C644.744 493.306 644.717 493.359 644.704 493.412L644.651 493.572L644.597 493.718C644.544 493.837 644.504 493.957 644.451 494.09L644.371 494.29C644.331 494.396 644.291 494.489 644.251 494.595C643.493 496.79 642.907 499.183 642.388 502.162C641.736 505.872 641.11 509.648 640.498 513.305L640.152 515.513L640.125 515.699C639.726 518.159 639.3 520.712 639.007 523.265C637.969 532.148 637.29 539.275 636.891 545.685C636.837 546.496 636.771 547.307 636.704 548.132V548.344L636.611 549.342C636.305 549.475 636.026 549.581 635.799 549.594C635.773 549.594 635.746 549.594 635.733 549.594C634.734 549.714 633.749 549.82 632.764 549.94C631.487 550.086 630.222 550.246 628.944 550.366C624.366 550.818 619.813 551.257 615.235 551.709C613.291 551.895 611.335 552.081 609.365 552.267C607.408 552.453 605.465 552.639 603.508 552.826L598.171 553.331C596.227 553.517 595.003 553.756 593.525 554.076C591.648 554.501 589.852 555.565 588.494 557.094C585.845 560.046 584.381 563.331 584.141 566.855C583.968 569.421 584.115 571.921 584.567 574.514C585.406 579.128 587.615 582.918 591.116 585.817C592.753 587.187 594.63 587.918 596.706 587.985C596.733 587.985 596.76 587.985 596.786 587.985H597.665C598.503 588.038 599.249 588.051 599.967 588.051C600.274 588.051 600.566 588.051 600.873 588.051C600.913 588.051 600.939 588.051 600.979 588.051L605.238 587.891C609.897 587.719 614.715 587.546 619.481 587.306C623.247 587.12 626.921 586.881 630.808 586.641L632.245 586.548L635.267 586.349C635.267 586.429 635.267 586.522 635.267 586.588C635.267 586.748 635.267 586.894 635.267 587.04C635.267 587.413 635.267 587.772 635.267 588.131C635.48 597.545 635.839 604.487 636.451 610.617C637.13 617.612 638.182 623.768 639.673 629.433C640.977 634.38 642.574 638.289 644.691 641.707C644.717 641.747 644.744 641.8 644.771 641.84C645.835 643.475 646.674 644.579 647.579 645.537C650.241 648.382 653.728 649.911 657.628 649.911C658.028 649.911 658.427 649.898 658.826 649.858C662.101 649.632 666.413 649.047 670.819 646.6C673.122 645.324 675.518 643.077 676.636 641.148C678.739 637.531 678.872 634.273 678.725 631.561C678.606 629.313 678.273 627.066 678.033 625.417C677.421 621.282 676.183 617.479 674.879 613.622C674.24 611.747 673.787 609.899 673.441 607.798C673.108 605.79 672.856 603.184 672.616 599.62C672.523 598.157 672.443 596.522 672.376 594.633C672.336 592.905 672.27 591.336 672.177 589.886C671.897 585.232 672.177 580.392 672.523 575.817H672.549L672.842 575.698C683.278 571.589 692.608 567.014 701.38 561.735C711.283 555.791 719.629 549.661 726.856 542.972C733.498 536.882 738.689 530.526 742.735 523.558C747.873 514.715 750.402 505.925 750.442 496.71C750.469 487.601 748.259 479.755 743.694 472.694C740.06 467.056 735.401 462.136 729.878 458.08C724.434 454.091 718.524 450.78 711.789 447.974C699.303 442.761 685.647 439.517 669.994 438.054C666.307 437.695 662.247 437.522 657.588 437.522L657.575 437.562Z"
        fill="url(#paint5_linear_368_25)" />
    <path
        d="M601.706 267.57C603.959 267.57 605.963 267.653 607.822 267.826C615.623 268.552 622.388 270.17 628.504 272.728C631.758 274.097 634.599 275.688 637.183 277.582C639.705 279.435 641.833 281.69 643.499 284.269C645.489 287.36 646.456 290.817 646.449 294.862C646.429 299.032 645.275 303.035 642.911 307.101C640.997 310.4 638.517 313.442 635.31 316.395C631.724 319.714 627.578 322.763 622.651 325.723C618.235 328.385 613.543 330.674 608.312 332.741L608.126 332.824C608.029 332.866 607.926 332.907 607.829 332.935C607.172 333.122 606.343 333.633 606.087 334.995C606.06 335.154 606.046 335.314 606.025 335.507C605.839 337.927 605.659 340.749 605.825 343.549C605.873 344.337 605.908 345.126 605.922 345.914C605.949 346.82 605.991 347.726 606.053 348.624C606.163 350.256 606.302 351.861 606.523 353.202C606.689 354.212 606.944 355.415 607.407 356.791C608.036 358.637 608.623 360.442 608.9 362.323C609.031 363.187 609.176 364.203 609.232 365.192C609.301 366.485 609.156 367.315 608.61 368.262C608.395 368.636 607.635 369.403 606.903 369.811C605.313 370.696 603.676 370.966 602.1 371.077C601.976 371.084 601.852 371.09 601.734 371.09C600.663 371.09 599.765 370.689 599.032 369.901C598.694 369.542 598.362 369.092 597.954 368.463C597.035 366.976 596.337 365.254 595.75 363.021C595.031 360.283 594.513 357.261 594.174 353.769C593.843 350.45 593.677 346.82 593.573 342.311C593.566 342.062 593.573 341.813 593.573 341.537C593.58 341.267 593.594 341.011 593.594 340.728C593.587 340.327 593.566 339.87 593.421 339.435C593.235 338.799 592.82 337.941 591.438 337.941L588.328 338.142C586.096 338.28 583.927 338.418 581.757 338.529C579.304 338.646 576.858 338.736 574.405 338.826L572.193 338.909C572.062 338.909 571.924 338.909 571.793 338.909C571.426 338.909 571.06 338.902 570.701 338.888H570.21C569.913 338.868 569.664 338.771 569.402 338.55C568.206 337.561 567.481 336.309 567.19 334.719C567.004 333.654 566.942 332.624 567.011 331.58C567.08 330.584 567.494 329.581 568.4 328.565C568.635 328.302 568.925 328.122 569.194 328.06C569.878 327.908 570.369 327.818 571.171 327.735L573.942 327.479C575.973 327.292 578.005 327.092 580.036 326.898C582.42 326.67 584.79 326.442 587.181 326.2C587.859 326.131 588.536 326.048 589.213 325.972C589.724 325.909 590.229 325.854 590.747 325.792C591.604 325.702 592.322 325.356 592.979 324.997C593.718 324.575 594.154 323.89 594.216 323.04L594.299 321.982C594.34 321.491 594.382 321.014 594.409 320.537C594.617 317.204 594.969 313.56 595.494 309.065C595.646 307.779 595.86 306.451 596.075 305.179L596.254 304.052C596.572 302.13 596.89 300.207 597.229 298.278C597.471 296.895 597.726 295.837 598.058 294.876C598.099 294.779 598.141 294.669 598.175 294.565C598.224 294.433 598.272 294.316 598.314 294.185C598.41 293.894 598.535 293.624 598.68 293.389L598.853 293.134C598.922 293.037 599.011 292.933 599.122 292.815C599.302 292.615 599.509 292.428 599.737 292.276C600.324 291.868 601.181 291.502 602.356 291.488C602.467 291.488 602.563 291.495 602.674 291.495C602.985 291.495 603.261 291.502 603.503 291.557C604.83 291.806 605.832 292.532 606.571 293.79C607.297 295.028 607.608 296.473 607.787 297.58C607.939 298.479 607.967 299.447 607.87 300.553C607.649 303.105 607.435 305.67 607.221 308.222C606.951 311.223 606.765 314.23 606.613 316.782C606.585 317.349 606.62 317.909 606.675 318.386C606.702 318.767 606.861 319.154 607.096 319.472C607.428 319.921 607.919 320.212 608.437 320.212C608.541 320.212 608.637 320.198 608.741 320.177C609.128 320.087 609.301 320.018 609.508 319.935C612.673 318.69 615.388 317.363 617.814 315.876C619.369 314.922 620.91 313.774 622.665 312.26C624.24 310.904 625.595 309.556 626.811 308.132C628.504 306.147 629.872 303.948 630.874 301.611C631.51 300.104 631.848 298.811 631.938 297.511C631.945 297.303 631.98 297.103 632.021 296.902V296.785C632.443 294.136 631.848 291.619 630.28 289.317C629.52 288.21 628.525 287.221 627.232 286.329C624.703 284.545 621.78 283.149 618.567 282.174C615.755 281.309 612.728 280.666 609.342 280.217C605.707 279.733 602.093 279.491 598.583 279.491C597.042 279.491 595.522 279.539 594.029 279.629C590.92 279.816 588.322 280.085 585.71 280.818C584.632 281.109 583.588 281.254 582.621 281.254C581.854 281.247 581.405 281.171 581.024 281.102C580.237 280.95 579.649 280.466 579.193 279.588C578.972 279.166 579.076 278.405 579.124 278.032C579.235 277.174 580.029 275.591 580.769 274.664C581.674 273.551 582.752 272.583 583.954 271.795C586.525 270.121 589.282 268.973 592.17 268.386C594.603 267.895 597.139 267.618 599.709 267.57C600.38 267.563 601.036 267.549 601.7 267.549M601.7 264.092C601.022 264.092 600.359 264.098 599.682 264.112H599.64C596.883 264.168 594.14 264.465 591.486 264.997C588.17 265.675 584.998 266.982 582.061 268.897C580.548 269.886 579.207 271.096 578.074 272.486C578.067 272.493 578.06 272.507 578.053 272.514C577.231 273.551 575.925 275.757 575.683 277.596C575.586 278.329 575.4 279.816 576.118 281.192C577.314 283.487 579.09 284.255 580.368 284.497C580.928 284.601 581.563 284.691 582.559 284.704C582.572 284.704 582.586 284.704 582.6 284.704C583.871 284.704 585.212 284.518 586.587 284.144C588.923 283.494 591.238 283.252 594.223 283.073C595.646 282.983 597.104 282.941 598.569 282.941C601.928 282.941 605.396 283.176 608.872 283.64C612.092 284.068 614.925 284.663 617.537 285.472C620.433 286.35 623.017 287.588 625.235 289.151C626.189 289.808 626.894 290.499 627.426 291.267C628.504 292.836 628.891 294.468 628.614 296.252C628.607 296.314 628.601 296.37 628.594 296.432C628.538 296.729 628.511 297.013 628.49 297.296C628.421 298.195 628.179 299.108 627.688 300.256C626.818 302.275 625.636 304.176 624.178 305.877C623.086 307.157 621.856 308.381 620.405 309.632C618.809 311.008 617.413 312.052 615.997 312.924C614.234 314.002 612.3 314.991 610.123 315.931C610.261 313.663 610.434 311.084 610.662 308.512C610.876 305.94 611.09 303.381 611.311 300.837C611.436 299.467 611.401 298.209 611.194 296.999C610.987 295.72 610.586 293.79 609.549 292.027C608.319 289.932 606.461 288.597 604.173 288.155C603.641 288.044 603.137 288.03 602.708 288.03H602.688C602.584 288.03 602.473 288.024 602.363 288.024C600.67 288.037 599.101 288.514 597.809 289.4C597.36 289.697 596.938 290.063 596.558 290.492C596.406 290.658 596.22 290.872 596.026 291.142C596.006 291.17 595.985 291.204 595.964 291.232L595.791 291.488C595.791 291.488 595.764 291.529 595.75 291.55C595.467 292 595.239 292.49 595.045 293.051C595.038 293.078 595.024 293.106 595.017 293.134L594.99 293.216L594.962 293.293C594.935 293.355 594.914 293.417 594.886 293.486L594.845 293.59C594.824 293.645 594.803 293.694 594.782 293.749C594.389 294.89 594.085 296.135 593.815 297.683C593.476 299.613 593.152 301.576 592.834 303.478L592.654 304.626L592.64 304.723C592.433 306.002 592.212 307.33 592.06 308.657C591.521 313.276 591.168 316.983 590.961 320.315C590.934 320.737 590.899 321.159 590.864 321.588V321.698L590.816 322.217C590.657 322.286 590.512 322.341 590.395 322.348C590.381 322.348 590.367 322.348 590.36 322.348C589.842 322.411 589.33 322.466 588.819 322.528C588.156 322.604 587.499 322.687 586.836 322.749C584.459 322.985 582.096 323.213 579.718 323.448C578.71 323.545 577.694 323.641 576.671 323.738C575.655 323.835 574.646 323.932 573.631 324.029L570.86 324.291C569.851 324.388 569.215 324.513 568.448 324.679C567.474 324.9 566.541 325.453 565.836 326.248C564.461 327.783 563.701 329.491 563.576 331.324C563.487 332.658 563.563 333.958 563.798 335.307C564.233 337.706 565.38 339.677 567.197 341.184C568.047 341.896 569.022 342.277 570.1 342.311C570.113 342.311 570.127 342.311 570.141 342.311H570.597C571.032 342.339 571.419 342.346 571.793 342.346C571.951 342.346 572.104 342.346 572.262 342.346C572.283 342.346 572.297 342.346 572.318 342.346L574.529 342.263C576.947 342.173 579.449 342.083 581.923 341.959C583.878 341.862 585.786 341.737 587.803 341.613L588.55 341.564L590.118 341.461C590.118 341.502 590.118 341.551 590.118 341.585C590.118 341.668 590.118 341.744 590.118 341.82C590.118 342.014 590.118 342.201 590.118 342.387C590.229 347.283 590.415 350.892 590.733 354.08C591.086 357.717 591.631 360.919 592.405 363.865C593.083 366.437 593.912 368.47 595.011 370.247C595.024 370.268 595.038 370.295 595.052 370.316C595.605 371.167 596.04 371.74 596.51 372.238C597.892 373.718 599.702 374.513 601.727 374.513C601.934 374.513 602.142 374.506 602.349 374.486C604.049 374.368 606.288 374.064 608.575 372.792C609.771 372.128 611.014 370.959 611.595 369.956C612.687 368.076 612.756 366.382 612.68 364.971C612.617 363.802 612.445 362.634 612.32 361.776C612.002 359.626 611.36 357.648 610.683 355.643C610.351 354.668 610.116 353.707 609.936 352.614C609.764 351.57 609.632 350.215 609.508 348.362C609.46 347.601 609.418 346.751 609.384 345.769C609.363 344.87 609.328 344.054 609.28 343.3C609.135 340.88 609.28 338.363 609.46 335.984H609.473L609.625 335.922C615.043 333.785 619.887 331.407 624.441 328.662C629.582 325.571 633.914 322.383 637.667 318.905C641.115 315.738 643.81 312.433 645.91 308.809C648.578 304.211 649.891 299.64 649.911 294.848C649.925 290.112 648.778 286.032 646.408 282.36C644.521 279.428 642.103 276.87 639.235 274.761C636.409 272.687 633.341 270.965 629.844 269.506C623.363 266.795 616.273 265.108 608.147 264.347C606.233 264.161 604.125 264.071 601.706 264.071L601.7 264.092Z"
        fill="url(#paint6_linear_368_25)" />
    <path
        d="M723.294 358.935C724.199 358.935 725.003 358.969 725.75 359.038C728.883 359.332 731.601 359.985 734.057 361.018C735.364 361.571 736.505 362.213 737.543 362.979C738.556 363.727 739.41 364.637 740.079 365.679C740.879 366.927 741.267 368.323 741.264 369.957C741.256 371.641 740.793 373.258 739.843 374.9C739.075 376.232 738.078 377.461 736.79 378.653C735.35 379.993 733.685 381.225 731.706 382.42C729.933 383.495 728.048 384.419 725.947 385.254L725.872 385.288C725.833 385.305 725.792 385.321 725.753 385.333C725.489 385.408 725.156 385.615 725.053 386.165C725.042 386.229 725.037 386.293 725.028 386.371C724.953 387.349 724.881 388.488 724.948 389.619C724.967 389.937 724.981 390.256 724.987 390.574C724.998 390.94 725.015 391.306 725.04 391.669C725.084 392.328 725.139 392.976 725.228 393.517C725.295 393.925 725.398 394.411 725.583 394.967C725.836 395.712 726.072 396.441 726.183 397.201C726.236 397.55 726.294 397.96 726.316 398.36C726.344 398.882 726.286 399.217 726.066 399.599C725.98 399.75 725.675 400.06 725.381 400.225C724.743 400.582 724.085 400.691 723.452 400.736C723.402 400.739 723.352 400.742 723.305 400.742C722.875 400.742 722.514 400.58 722.22 400.261C722.084 400.116 721.951 399.935 721.787 399.68C721.418 399.08 721.137 398.385 720.901 397.483C720.613 396.377 720.405 395.157 720.269 393.746C720.135 392.406 720.069 390.94 720.027 389.119C720.024 389.019 720.027 388.918 720.027 388.806C720.03 388.698 720.036 388.594 720.036 388.48C720.033 388.318 720.024 388.133 719.966 387.958C719.891 387.701 719.725 387.354 719.17 387.354L717.921 387.435C717.024 387.491 716.153 387.547 715.281 387.592C714.296 387.639 713.314 387.675 712.328 387.712L711.44 387.745C711.387 387.745 711.332 387.745 711.279 387.745C711.132 387.745 710.985 387.742 710.841 387.737H710.644C710.524 387.729 710.424 387.689 710.319 387.6C709.839 387.201 709.547 386.695 709.431 386.053C709.356 385.623 709.331 385.207 709.359 384.785C709.386 384.383 709.553 383.978 709.917 383.568C710.011 383.462 710.127 383.389 710.236 383.364C710.51 383.302 710.708 383.266 711.029 383.233L712.142 383.129C712.958 383.054 713.774 382.973 714.59 382.895C715.548 382.803 716.5 382.71 717.46 382.613C717.732 382.585 718.004 382.551 718.276 382.521C718.481 382.495 718.684 382.473 718.892 382.448C719.236 382.412 719.525 382.272 719.789 382.127C720.085 381.956 720.26 381.68 720.285 381.337L720.319 380.909C720.335 380.711 720.352 380.518 720.363 380.326C720.446 378.98 720.588 377.508 720.799 375.693C720.86 375.173 720.946 374.637 721.032 374.123L721.104 373.668C721.232 372.892 721.359 372.116 721.495 371.337C721.593 370.778 721.695 370.351 721.828 369.963C721.845 369.924 721.862 369.879 721.876 369.837C721.895 369.784 721.914 369.736 721.931 369.683C721.97 369.566 722.02 369.457 722.078 369.362L722.148 369.259C722.175 369.22 722.211 369.178 722.256 369.131C722.328 369.05 722.411 368.974 722.503 368.913C722.739 368.748 723.083 368.6 723.555 368.594C723.599 368.594 723.638 368.597 723.682 368.597C723.807 368.597 723.918 368.6 724.015 368.622C724.548 368.723 724.951 369.016 725.248 369.524C725.539 370.024 725.664 370.608 725.736 371.055C725.797 371.418 725.808 371.809 725.769 372.255C725.681 373.286 725.595 374.322 725.509 375.352C725.4 376.564 725.325 377.779 725.264 378.809C725.253 379.038 725.267 379.264 725.289 379.457C725.3 379.611 725.364 379.767 725.459 379.896C725.592 380.077 725.789 380.194 725.997 380.194C726.039 380.194 726.078 380.189 726.119 380.18C726.275 380.144 726.344 380.116 726.427 380.083C727.698 379.58 728.789 379.044 729.763 378.443C730.388 378.058 731.007 377.595 731.712 376.983C732.344 376.436 732.888 375.891 733.377 375.316C734.057 374.514 734.606 373.626 735.009 372.683C735.264 372.074 735.4 371.552 735.436 371.027C735.439 370.943 735.453 370.862 735.469 370.781V370.733C735.639 369.664 735.4 368.647 734.77 367.718C734.465 367.271 734.065 366.871 733.546 366.511C732.53 365.791 731.356 365.227 730.066 364.833C728.936 364.484 727.721 364.224 726.361 364.043C724.901 363.847 723.449 363.749 722.039 363.749C721.42 363.749 720.81 363.769 720.21 363.805C718.961 363.881 717.918 363.99 716.869 364.286C716.436 364.403 716.017 364.461 715.628 364.461C715.32 364.459 715.14 364.428 714.987 364.4C714.671 364.339 714.435 364.143 714.252 363.788C714.163 363.618 714.204 363.311 714.224 363.16C714.268 362.814 714.587 362.174 714.884 361.8C715.248 361.351 715.681 360.96 716.164 360.641C717.196 359.966 718.304 359.502 719.464 359.265C720.441 359.066 721.459 358.955 722.492 358.935C722.761 358.932 723.025 358.927 723.291 358.927M723.291 357.53C723.019 357.53 722.753 357.533 722.481 357.539H722.464C721.357 357.561 720.255 357.681 719.189 357.896C717.857 358.17 716.583 358.698 715.403 359.471C714.796 359.871 714.257 360.359 713.802 360.921C713.799 360.923 713.796 360.929 713.794 360.932C713.463 361.351 712.939 362.241 712.842 362.984C712.803 363.28 712.728 363.881 713.017 364.436C713.497 365.363 714.21 365.673 714.723 365.771C714.948 365.813 715.204 365.849 715.603 365.855C715.609 365.855 715.614 365.855 715.62 365.855C716.131 365.855 716.669 365.78 717.221 365.629C718.159 365.366 719.089 365.268 720.288 365.196C720.86 365.16 721.445 365.143 722.034 365.143C723.383 365.143 724.776 365.238 726.172 365.425C727.465 365.598 728.603 365.838 729.652 366.165C730.815 366.52 731.853 367.019 732.744 367.65C733.127 367.916 733.41 368.195 733.624 368.505C734.057 369.139 734.212 369.798 734.101 370.518C734.098 370.544 734.096 370.566 734.093 370.591C734.071 370.711 734.059 370.826 734.051 370.94C734.023 371.303 733.926 371.672 733.729 372.135C733.38 372.951 732.905 373.719 732.319 374.406C731.881 374.922 731.387 375.416 730.804 375.922C730.163 376.478 729.602 376.899 729.033 377.251C728.326 377.687 727.548 378.086 726.674 378.466C726.73 377.55 726.799 376.508 726.891 375.469C726.977 374.431 727.063 373.397 727.152 372.37C727.202 371.817 727.188 371.309 727.104 370.82C727.021 370.303 726.86 369.524 726.444 368.812C725.95 367.966 725.203 367.427 724.285 367.248C724.071 367.204 723.868 367.198 723.696 367.198H723.688C723.646 367.198 723.602 367.195 723.557 367.195C722.878 367.201 722.248 367.394 721.729 367.751C721.548 367.871 721.379 368.019 721.226 368.192C721.165 368.259 721.09 368.346 721.012 368.455C721.004 368.466 720.996 368.48 720.987 368.491L720.918 368.594C720.918 368.594 720.907 368.611 720.901 368.619C720.788 368.801 720.696 368.999 720.618 369.225C720.616 369.237 720.61 369.248 720.607 369.259L720.596 369.292L720.585 369.323C720.574 369.348 720.566 369.373 720.555 369.401L720.538 369.443C720.53 369.466 720.521 369.485 720.513 369.507C720.355 369.968 720.233 370.471 720.124 371.096C719.988 371.876 719.858 372.669 719.73 373.437L719.658 373.9L719.653 373.939C719.569 374.456 719.48 374.992 719.419 375.528C719.203 377.394 719.061 378.89 718.978 380.236C718.967 380.407 718.953 380.577 718.939 380.75V380.795L718.92 381.004C718.856 381.032 718.798 381.054 718.751 381.057C718.745 381.057 718.739 381.057 718.737 381.057C718.529 381.082 718.323 381.105 718.118 381.13C717.851 381.161 717.588 381.194 717.321 381.219C716.366 381.314 715.417 381.406 714.463 381.501C714.057 381.54 713.649 381.579 713.239 381.619C712.831 381.658 712.425 381.697 712.017 381.736L710.905 381.842C710.499 381.881 710.244 381.931 709.936 381.998C709.545 382.088 709.17 382.311 708.887 382.632C708.335 383.252 708.029 383.942 707.979 384.682C707.943 385.221 707.974 385.746 708.068 386.29C708.243 387.259 708.704 388.055 709.434 388.664C709.775 388.952 710.166 389.105 710.599 389.119C710.605 389.119 710.61 389.119 710.616 389.119H710.799C710.974 389.13 711.129 389.133 711.279 389.133C711.343 389.133 711.404 389.133 711.468 389.133C711.476 389.133 711.482 389.133 711.49 389.133L712.378 389.1C713.35 389.063 714.354 389.027 715.348 388.977C716.133 388.938 716.899 388.887 717.71 388.837L718.01 388.818L718.64 388.776C718.64 388.792 718.64 388.812 718.64 388.826C718.64 388.859 718.64 388.89 718.64 388.921C718.64 388.999 718.64 389.075 718.64 389.15C718.684 391.127 718.759 392.585 718.887 393.872C719.028 395.341 719.247 396.634 719.558 397.823C719.83 398.862 720.163 399.683 720.604 400.401C720.61 400.409 720.616 400.42 720.621 400.429C720.843 400.772 721.018 401.004 721.207 401.205C721.762 401.803 722.489 402.124 723.302 402.124C723.385 402.124 723.469 402.121 723.552 402.113C724.235 402.065 725.134 401.942 726.053 401.429C726.533 401.16 727.032 400.689 727.265 400.284C727.704 399.524 727.732 398.84 727.701 398.27C727.676 397.798 727.607 397.326 727.557 396.98C727.429 396.112 727.171 395.313 726.899 394.503C726.766 394.109 726.671 393.721 726.599 393.28C726.53 392.858 726.477 392.311 726.427 391.563C726.408 391.255 726.391 390.912 726.377 390.515C726.369 390.152 726.355 389.823 726.336 389.519C726.277 388.541 726.336 387.525 726.408 386.564H726.413L726.474 386.539C728.65 385.676 730.596 384.715 732.425 383.607C734.49 382.359 736.23 381.071 737.737 379.667C739.122 378.388 740.204 377.053 741.048 375.59C742.119 373.733 742.646 371.887 742.655 369.952C742.66 368.039 742.2 366.391 741.248 364.908C740.49 363.724 739.519 362.691 738.367 361.839C737.232 361.002 735.999 360.306 734.595 359.717C731.992 358.622 729.144 357.941 725.88 357.634C725.112 357.558 724.265 357.522 723.294 357.522L723.291 357.53Z"
        fill="url(#paint7_linear_368_25)" />
    <path
        d="M373.559 291.678C374.464 291.678 375.269 291.712 376.016 291.782C379.149 292.075 381.866 292.728 384.322 293.762C385.629 294.315 386.77 294.957 387.808 295.722C388.821 296.47 389.676 297.381 390.345 298.422C391.144 299.671 391.533 301.067 391.53 302.7C391.522 304.384 391.058 306.001 390.109 307.643C389.34 308.975 388.344 310.204 387.056 311.396C385.616 312.737 383.95 313.968 381.971 315.163C380.198 316.238 378.314 317.163 376.213 317.998L376.138 318.031C376.099 318.048 376.057 318.065 376.018 318.076C375.755 318.151 375.422 318.358 375.319 318.908C375.308 318.972 375.302 319.037 375.294 319.115C375.219 320.092 375.147 321.231 375.213 322.362C375.233 322.681 375.247 322.999 375.252 323.317C375.263 323.683 375.28 324.049 375.305 324.412C375.349 325.071 375.405 325.719 375.494 326.261C375.56 326.668 375.663 327.154 375.849 327.71C376.102 328.456 376.337 329.185 376.448 329.944C376.501 330.293 376.559 330.704 376.582 331.103C376.609 331.625 376.551 331.96 376.332 332.343C376.246 332.494 375.941 332.804 375.646 332.968C375.008 333.326 374.35 333.435 373.718 333.479C373.668 333.482 373.618 333.485 373.57 333.485C373.14 333.485 372.779 333.323 372.485 333.005C372.349 332.859 372.216 332.678 372.052 332.424C371.683 331.823 371.403 331.128 371.167 330.226C370.878 329.12 370.67 327.9 370.534 326.49C370.401 325.149 370.334 323.683 370.293 321.863C370.29 321.762 370.293 321.662 370.293 321.55C370.295 321.441 370.301 321.338 370.301 321.223C370.298 321.061 370.29 320.877 370.232 320.701C370.157 320.444 369.99 320.098 369.435 320.098L368.186 320.179C367.29 320.235 366.418 320.29 365.547 320.335C364.562 320.383 363.579 320.419 362.594 320.455L361.706 320.489C361.653 320.489 361.597 320.489 361.545 320.489C361.398 320.489 361.251 320.486 361.106 320.48H360.909C360.79 320.472 360.69 320.433 360.584 320.343C360.104 319.944 359.813 319.439 359.696 318.796C359.621 318.366 359.596 317.95 359.624 317.529C359.652 317.127 359.818 316.722 360.182 316.311C360.276 316.205 360.393 316.132 360.501 316.107C360.776 316.046 360.973 316.01 361.295 315.976L362.408 315.873C363.224 315.797 364.04 315.716 364.856 315.638C365.813 315.546 366.765 315.454 367.725 315.356C367.997 315.328 368.269 315.295 368.541 315.264C368.747 315.239 368.949 315.216 369.158 315.191C369.502 315.155 369.79 315.015 370.054 314.87C370.351 314.7 370.526 314.423 370.551 314.08L370.584 313.653C370.601 313.454 370.617 313.262 370.629 313.069C370.712 311.723 370.853 310.251 371.064 308.436C371.125 307.917 371.211 307.381 371.297 306.867L371.37 306.412C371.497 305.635 371.625 304.859 371.761 304.08C371.858 303.521 371.961 303.094 372.094 302.706C372.111 302.667 372.127 302.622 372.141 302.58C372.161 302.527 372.18 302.48 372.197 302.427C372.235 302.31 372.285 302.201 372.344 302.106L372.413 302.002C372.441 301.963 372.477 301.921 372.521 301.874C372.593 301.793 372.677 301.718 372.768 301.656C373.004 301.491 373.348 301.343 373.82 301.338C373.865 301.338 373.903 301.341 373.948 301.341C374.073 301.341 374.184 301.343 374.281 301.366C374.814 301.466 375.216 301.759 375.513 302.268C375.805 302.767 375.929 303.351 376.002 303.798C376.063 304.161 376.074 304.552 376.035 304.999C375.946 306.029 375.86 307.065 375.774 308.096C375.666 309.308 375.591 310.522 375.53 311.553C375.519 311.782 375.533 312.008 375.555 312.201C375.566 312.354 375.63 312.511 375.724 312.639C375.857 312.82 376.054 312.938 376.263 312.938C376.304 312.938 376.343 312.932 376.385 312.924C376.54 312.887 376.609 312.86 376.693 312.826C377.964 312.323 379.055 311.787 380.029 311.187C380.653 310.801 381.272 310.338 381.977 309.726C382.61 309.179 383.154 308.635 383.642 308.059C384.322 307.258 384.872 306.37 385.274 305.426C385.529 304.817 385.665 304.295 385.702 303.77C385.704 303.686 385.718 303.605 385.735 303.524V303.477C385.904 302.407 385.665 301.391 385.035 300.461C384.73 300.014 384.331 299.615 383.812 299.255C382.796 298.534 381.622 297.97 380.331 297.576C379.202 297.227 377.986 296.967 376.626 296.786C375.166 296.59 373.715 296.493 372.305 296.493C371.686 296.493 371.075 296.512 370.476 296.549C369.227 296.624 368.183 296.733 367.134 297.029C366.701 297.146 366.282 297.205 365.894 297.205C365.586 297.202 365.405 297.171 365.253 297.143C364.936 297.082 364.7 296.886 364.517 296.532C364.428 296.361 364.47 296.054 364.489 295.904C364.534 295.557 364.853 294.918 365.15 294.544C365.514 294.094 365.946 293.703 366.429 293.385C367.462 292.709 368.569 292.245 369.729 292.008C370.706 291.81 371.725 291.698 372.757 291.678C373.026 291.676 373.29 291.67 373.557 291.67M373.557 290.274C373.285 290.274 373.018 290.277 372.746 290.282H372.729C371.622 290.305 370.52 290.425 369.455 290.64C368.122 290.913 366.848 291.441 365.669 292.215C365.061 292.614 364.523 293.103 364.068 293.664C364.065 293.667 364.062 293.672 364.059 293.675C363.729 294.094 363.204 294.985 363.107 295.728C363.068 296.024 362.993 296.624 363.282 297.18C363.762 298.107 364.476 298.417 364.989 298.515C365.214 298.556 365.469 298.593 365.869 298.598C365.874 298.598 365.88 298.598 365.885 298.598C366.396 298.598 366.935 298.523 367.487 298.372C368.425 298.11 369.355 298.012 370.554 297.939C371.125 297.903 371.711 297.886 372.299 297.886C373.648 297.886 375.041 297.981 376.437 298.168C377.731 298.341 378.869 298.582 379.918 298.908C381.081 299.263 382.119 299.763 383.009 300.394C383.392 300.659 383.676 300.938 383.889 301.248C384.322 301.882 384.478 302.541 384.367 303.262C384.364 303.287 384.361 303.309 384.358 303.334C384.336 303.454 384.325 303.569 384.317 303.683C384.289 304.046 384.192 304.415 383.995 304.879C383.645 305.694 383.17 306.462 382.585 307.149C382.146 307.666 381.652 308.16 381.069 308.665C380.428 309.221 379.868 309.643 379.299 309.994C378.591 310.43 377.814 310.829 376.94 311.209C376.995 310.293 377.065 309.252 377.156 308.213C377.242 307.174 377.328 306.141 377.417 305.113C377.467 304.56 377.453 304.052 377.37 303.563C377.287 303.047 377.126 302.268 376.709 301.556C376.215 300.709 375.469 300.17 374.55 299.992C374.336 299.947 374.134 299.941 373.962 299.941H373.953C373.912 299.941 373.867 299.939 373.823 299.939C373.143 299.944 372.513 300.137 371.994 300.494C371.814 300.614 371.644 300.762 371.492 300.936C371.431 301.003 371.356 301.089 371.278 301.198C371.27 301.209 371.261 301.223 371.253 301.234L371.184 301.338C371.184 301.338 371.172 301.354 371.167 301.363C371.053 301.544 370.962 301.743 370.884 301.969C370.881 301.98 370.876 301.991 370.873 302.002L370.862 302.036L370.851 302.067C370.839 302.092 370.831 302.117 370.82 302.145L370.803 302.187C370.795 302.209 370.787 302.229 370.778 302.251C370.62 302.712 370.498 303.214 370.39 303.84C370.254 304.619 370.123 305.412 369.996 306.18L369.924 306.643L369.918 306.683C369.835 307.199 369.746 307.735 369.685 308.271C369.468 310.137 369.327 311.634 369.244 312.98C369.233 313.15 369.219 313.32 369.205 313.493V313.538L369.185 313.748C369.121 313.776 369.063 313.798 369.016 313.801C369.01 313.801 369.005 313.801 369.002 313.801C368.794 313.826 368.589 313.848 368.383 313.873C368.117 313.904 367.853 313.937 367.587 313.963C366.632 314.058 365.683 314.15 364.728 314.245C364.323 314.284 363.915 314.323 363.504 314.362C363.096 314.401 362.691 314.44 362.283 314.479L361.17 314.585C360.765 314.624 360.51 314.675 360.201 314.742C359.81 314.831 359.435 315.054 359.152 315.376C358.6 315.996 358.295 316.685 358.245 317.425C358.209 317.964 358.239 318.489 358.334 319.034C358.508 320.003 358.969 320.799 359.699 321.407C360.04 321.695 360.432 321.849 360.865 321.863C360.87 321.863 360.876 321.863 360.881 321.863H361.065C361.239 321.874 361.395 321.877 361.545 321.877C361.609 321.877 361.67 321.877 361.733 321.877C361.742 321.877 361.747 321.877 361.756 321.877L362.644 321.843C363.615 321.807 364.62 321.77 365.613 321.72C366.399 321.681 367.165 321.631 367.975 321.581L368.275 321.561L368.905 321.519C368.905 321.536 368.905 321.555 368.905 321.569C368.905 321.603 368.905 321.634 368.905 321.664C368.905 321.743 368.905 321.818 368.905 321.893C368.949 323.87 369.024 325.328 369.152 326.615C369.294 328.084 369.513 329.377 369.824 330.567C370.096 331.606 370.429 332.427 370.87 333.144C370.876 333.153 370.881 333.164 370.887 333.172C371.109 333.516 371.284 333.747 371.472 333.949C372.027 334.546 372.754 334.867 373.568 334.867C373.651 334.867 373.734 334.864 373.817 334.856C374.5 334.809 375.399 334.686 376.318 334.172C376.798 333.904 377.298 333.432 377.531 333.027C377.969 332.267 377.997 331.583 377.967 331.014C377.942 330.542 377.872 330.07 377.822 329.723C377.695 328.855 377.437 328.056 377.165 327.247C377.031 326.853 376.937 326.465 376.865 326.023C376.795 325.602 376.743 325.054 376.693 324.306C376.673 323.999 376.657 323.655 376.643 323.259C376.634 322.896 376.621 322.566 376.601 322.262C376.543 321.285 376.601 320.268 376.673 319.307H376.679L376.74 319.282C378.916 318.419 380.861 317.459 382.69 316.35C384.755 315.102 386.495 313.815 388.002 312.41C389.387 311.131 390.47 309.796 391.313 308.333C392.385 306.476 392.912 304.63 392.92 302.695C392.926 300.782 392.465 299.134 391.513 297.652C390.756 296.468 389.784 295.434 388.632 294.583C387.497 293.745 386.265 293.05 384.861 292.46C382.257 291.366 379.41 290.684 376.146 290.377C375.377 290.302 374.531 290.265 373.559 290.265L373.557 290.274Z"
        fill="url(#paint8_linear_368_25)" />
    <path
        d="M234.472 126.4C237.906 126.4 240.961 126.527 243.795 126.79C255.689 127.898 266.003 130.367 275.327 134.27C280.289 136.359 284.619 138.785 288.559 141.676C292.404 144.503 295.649 147.942 298.188 151.877C301.222 156.592 302.697 161.867 302.686 168.039C302.655 174.4 300.895 180.508 297.292 186.711C294.374 191.743 290.592 196.385 285.704 200.889C280.236 205.953 273.915 210.606 266.404 215.121C259.672 219.182 252.518 222.674 244.543 225.828L244.259 225.955C244.111 226.018 243.953 226.082 243.806 226.124C242.805 226.409 241.541 227.189 241.151 229.267C241.109 229.51 241.088 229.753 241.056 230.048C240.772 233.74 240.498 238.045 240.751 242.317C240.824 243.52 240.877 244.722 240.898 245.925C240.94 247.307 241.003 248.689 241.098 250.06C241.267 252.55 241.477 254.998 241.815 257.044C242.067 258.584 242.457 260.42 243.163 262.519C244.122 265.336 245.017 268.089 245.439 270.959C245.639 272.278 245.86 273.828 245.944 275.337C246.05 277.31 245.828 278.576 244.996 280.021C244.67 280.59 243.511 281.761 242.394 282.384C239.971 283.734 237.474 284.146 235.072 284.314C234.883 284.325 234.693 284.336 234.514 284.336C232.881 284.336 231.511 283.724 230.395 282.521C229.878 281.972 229.373 281.287 228.751 280.327C227.35 278.059 226.286 275.432 225.39 272.024C224.295 267.847 223.505 263.237 222.988 257.909C222.483 252.845 222.23 247.307 222.072 240.429C222.061 240.049 222.072 239.669 222.072 239.247C222.082 238.836 222.103 238.445 222.103 238.013C222.093 237.401 222.061 236.705 221.84 236.04C221.556 235.07 220.924 233.762 218.817 233.762L214.076 234.067C210.673 234.278 207.365 234.489 204.057 234.658C200.317 234.838 196.587 234.975 192.848 235.112L189.476 235.238C189.276 235.238 189.065 235.238 188.865 235.238C188.307 235.238 187.749 235.228 187.201 235.207H186.453C186 235.175 185.62 235.027 185.22 234.69C183.398 233.181 182.291 231.272 181.849 228.845C181.564 227.221 181.47 225.649 181.575 224.056C181.68 222.537 182.312 221.007 183.693 219.456C184.051 219.056 184.493 218.781 184.904 218.686C185.947 218.454 186.695 218.317 187.917 218.191L192.142 217.8C195.239 217.515 198.336 217.209 201.434 216.914C205.068 216.566 208.682 216.218 212.327 215.849C213.359 215.743 214.392 215.616 215.424 215.5C216.204 215.406 216.973 215.321 217.763 215.226C219.069 215.089 220.165 214.562 221.166 214.013C222.293 213.369 222.957 212.325 223.052 211.027L223.178 209.413C223.241 208.664 223.304 207.937 223.347 207.209C223.663 202.124 224.2 196.564 225.001 189.707C225.232 187.745 225.559 185.719 225.886 183.778L226.159 182.059C226.644 179.126 227.129 176.193 227.645 173.25C228.014 171.14 228.403 169.526 228.909 168.06C228.972 167.912 229.036 167.743 229.088 167.585C229.162 167.384 229.236 167.205 229.299 167.005C229.446 166.562 229.636 166.15 229.857 165.792L230.121 165.401C230.226 165.254 230.363 165.095 230.532 164.916C230.805 164.61 231.121 164.325 231.469 164.093C232.365 163.471 233.671 162.912 235.462 162.89C235.631 162.89 235.778 162.901 235.947 162.901C236.421 162.901 236.842 162.912 237.211 162.996C239.234 163.376 240.761 164.483 241.888 166.403C242.995 168.292 243.469 170.497 243.743 172.184C243.974 173.556 244.016 175.033 243.869 176.721C243.532 180.613 243.205 184.527 242.879 188.42C242.468 192.999 242.183 197.588 241.952 201.48C241.909 202.345 241.962 203.2 242.046 203.928C242.089 204.508 242.331 205.099 242.689 205.584C243.195 206.27 243.943 206.713 244.733 206.713C244.891 206.713 245.038 206.692 245.196 206.66C245.786 206.523 246.05 206.417 246.366 206.291C251.191 204.392 255.331 202.366 259.029 200.098C261.399 198.642 263.749 196.891 266.425 194.581C268.827 192.513 270.891 190.456 272.746 188.283C275.327 185.255 277.413 181.901 278.94 178.335C279.909 176.035 280.426 174.062 280.563 172.079C280.573 171.763 280.626 171.457 280.689 171.151V170.971C281.332 166.931 280.426 163.091 278.034 159.578C276.875 157.89 275.358 156.381 273.388 155.021C269.532 152.299 265.076 150.168 260.177 148.68C255.889 147.362 251.275 146.381 246.113 145.695C240.571 144.956 235.062 144.587 229.71 144.587C227.36 144.587 225.043 144.661 222.767 144.798C218.026 145.083 214.065 145.494 210.083 146.613C208.439 147.056 206.849 147.277 205.374 147.277C204.204 147.267 203.52 147.151 202.94 147.045C201.739 146.813 200.844 146.075 200.148 144.735C199.811 144.091 199.969 142.931 200.043 142.361C200.212 141.053 201.423 138.637 202.55 137.224C203.93 135.525 205.574 134.048 207.407 132.846C211.326 130.293 215.53 128.541 219.933 127.645C223.642 126.896 227.508 126.474 231.427 126.4C232.449 126.389 233.45 126.368 234.461 126.368M234.461 121.094C233.429 121.094 232.417 121.104 231.385 121.125H231.322C227.118 121.21 222.936 121.663 218.89 122.476C213.833 123.509 208.998 125.503 204.52 128.425C202.213 129.934 200.169 131.78 198.442 133.901C198.431 133.911 198.421 133.932 198.41 133.943C197.156 135.525 195.165 138.89 194.797 141.697C194.649 142.815 194.365 145.083 195.46 147.182C197.283 150.685 199.99 151.856 201.939 152.225C202.793 152.383 203.762 152.52 205.279 152.541C205.3 152.541 205.321 152.541 205.342 152.541C207.281 152.541 209.324 152.257 211.421 151.687C214.982 150.695 218.511 150.326 223.062 150.052C225.232 149.915 227.455 149.851 229.689 149.851C234.809 149.851 240.097 150.21 245.397 150.917C250.306 151.571 254.625 152.478 258.608 153.712C263.022 155.052 266.962 156.941 270.344 159.325C271.797 160.327 272.872 161.382 273.683 162.553C275.327 164.948 275.917 167.437 275.495 170.159C275.485 170.254 275.474 170.338 275.464 170.433C275.379 170.887 275.337 171.319 275.306 171.752C275.2 173.123 274.832 174.516 274.084 176.267C272.756 179.348 270.955 182.249 268.732 184.844C267.067 186.795 265.192 188.663 262.98 190.572C260.546 192.671 258.418 194.264 256.258 195.594C253.572 197.239 250.622 198.748 247.303 200.183C247.514 196.722 247.777 192.788 248.125 188.863C248.452 184.939 248.778 181.035 249.115 177.153C249.305 175.064 249.252 173.144 248.936 171.298C248.62 169.347 248.009 166.403 246.429 163.713C244.554 160.517 241.72 158.481 238.233 157.806C237.421 157.637 236.652 157.616 235.999 157.616H235.968C235.81 157.616 235.641 157.605 235.472 157.605C232.891 157.626 230.5 158.354 228.53 159.704C227.845 160.158 227.202 160.717 226.623 161.371C226.391 161.624 226.107 161.952 225.812 162.363C225.78 162.405 225.749 162.458 225.717 162.5L225.454 162.89C225.454 162.89 225.411 162.954 225.39 162.985C224.958 163.671 224.611 164.42 224.316 165.275C224.305 165.317 224.284 165.359 224.274 165.401L224.232 165.528L224.189 165.644C224.147 165.739 224.116 165.834 224.074 165.939L224.01 166.097C223.979 166.182 223.947 166.256 223.916 166.34C223.315 168.081 222.851 169.98 222.441 172.343C221.924 175.286 221.429 178.282 220.945 181.183L220.671 182.934L220.65 183.082C220.334 185.034 219.996 187.059 219.765 189.085C218.943 196.132 218.406 201.786 218.09 206.871C218.047 207.515 217.995 208.158 217.942 208.812V208.981L217.868 209.772C217.626 209.878 217.405 209.962 217.226 209.973C217.205 209.973 217.184 209.973 217.173 209.973C216.383 210.067 215.603 210.152 214.824 210.247C213.812 210.363 212.812 210.489 211.8 210.584C208.176 210.943 204.573 211.291 200.949 211.65C199.411 211.798 197.862 211.945 196.303 212.093C194.754 212.241 193.216 212.388 191.668 212.536L187.443 212.937C185.905 213.085 184.936 213.275 183.766 213.528C182.281 213.865 180.859 214.709 179.784 215.922C177.688 218.264 176.529 220.87 176.339 223.666C176.202 225.702 176.318 227.685 176.676 229.742C177.34 233.403 179.089 236.409 181.859 238.709C183.155 239.796 184.641 240.376 186.284 240.429C186.305 240.429 186.326 240.429 186.347 240.429H187.043C187.706 240.471 188.296 240.482 188.865 240.482C189.108 240.482 189.339 240.482 189.582 240.482C189.613 240.482 189.634 240.482 189.666 240.482L193.037 240.355C196.724 240.218 200.538 240.081 204.31 239.891C207.291 239.743 210.199 239.553 213.275 239.363L214.413 239.289L216.804 239.131C216.804 239.194 216.804 239.268 216.804 239.321C216.804 239.448 216.804 239.564 216.804 239.68C216.804 239.975 216.804 240.26 216.804 240.545C216.973 248.014 217.257 253.521 217.742 258.384C218.279 263.933 219.112 268.817 220.291 273.311C221.324 277.236 222.588 280.337 224.263 283.048C224.284 283.08 224.305 283.122 224.326 283.154C225.169 284.452 225.833 285.327 226.549 286.087C228.656 288.344 231.416 289.557 234.503 289.557C234.819 289.557 235.135 289.547 235.451 289.515C238.043 289.336 241.456 288.872 244.944 286.931C246.766 285.918 248.662 284.135 249.547 282.605C251.212 279.736 251.317 277.151 251.201 274.999C251.107 273.216 250.843 271.434 250.654 270.125C250.169 266.845 249.189 263.827 248.157 260.768C247.651 259.281 247.293 257.814 247.019 256.147C246.756 254.554 246.555 252.487 246.366 249.66C246.292 248.499 246.229 247.202 246.176 245.703C246.145 244.332 246.092 243.087 246.018 241.937C245.797 238.245 246.018 234.405 246.292 230.776H246.313L246.545 230.681C254.804 227.421 262.189 223.792 269.132 219.604C276.97 214.889 283.576 210.025 289.296 204.719C294.553 199.887 298.662 194.845 301.865 189.317C305.931 182.301 307.933 175.328 307.964 168.017C307.985 160.791 306.237 154.567 302.623 148.965C299.747 144.492 296.06 140.589 291.688 137.371C287.379 134.207 282.701 131.58 277.371 129.354C267.489 125.218 256.68 122.644 244.29 121.484C241.372 121.199 238.159 121.062 234.472 121.062L234.461 121.094Z"
        fill="url(#paint9_linear_368_25)" />
    <defs>
        <radialGradient id="paint0_radial_368_25" cx="0" cy="0" r="1" gradientUnits="userSpaceOnUse"
            gradientTransform="translate(960 541) rotate(163.877) scale(932.683 1472.42)">
            <stop stop-color="#9248FF" />
            <stop offset="0.4" stop-color="#8539DF" />
            <stop offset="1" stop-color="#7425B2" />
        </radialGradient>
        <linearGradient id="paint1_linear_368_25" x1="453.978" y1="783.189" x2="60.978" y2="780.689"
            gradientUnits="userSpaceOnUse">
            <stop stop-color="#F7B854" />
            <stop offset="1" stop-color="#C91ABE" />
        </linearGradient>
        <linearGradient id="paint2_linear_368_25" x1="1206.35" y1="496.15" x2="1101.59" y2="495.483"
            gradientUnits="userSpaceOnUse">
            <stop stop-color="#F7B854" />
            <stop offset="1" stop-color="#C91ABE" />
        </linearGradient>
        <linearGradient id="paint3_linear_368_25" x1="1166.72" y1="303.942" x2="1107.96" y2="303.567"
            gradientUnits="userSpaceOnUse">
            <stop stop-color="#F7B854" />
            <stop offset="1" stop-color="#C91ABE" />
        </linearGradient>
        <linearGradient id="paint4_linear_368_25" x1="1071.83" y1="234.259" x2="869.369" y2="232.971"
            gradientUnits="userSpaceOnUse">
            <stop stop-color="#F7B854" />
            <stop offset="1" stop-color="#C91ABE" />
        </linearGradient>
        <linearGradient id="paint5_linear_368_25" x1="750.416" y1="574.409" x2="584.062" y2="573.348"
            gradientUnits="userSpaceOnUse">
            <stop stop-color="#F7B854" />
            <stop offset="1" stop-color="#C91ABE" />
        </linearGradient>
        <linearGradient id="paint6_linear_368_25" x1="649.898" y1="335.252" x2="563.535" y2="334.702"
            gradientUnits="userSpaceOnUse">
            <stop stop-color="#F7B854" />
            <stop offset="1" stop-color="#C91ABE" />
        </linearGradient>
        <linearGradient id="paint7_linear_368_25" x1="742.649" y1="386.268" x2="707.963" y2="386.049"
            gradientUnits="userSpaceOnUse">
            <stop stop-color="#F7B854" />
            <stop offset="1" stop-color="#C91ABE" />
        </linearGradient>
        <linearGradient id="paint8_linear_368_25" x1="392.915" y1="319.012" x2="358.228" y2="318.792"
            gradientUnits="userSpaceOnUse">
            <stop stop-color="#F7B854" />
            <stop offset="1" stop-color="#C91ABE" />
        </linearGradient>
        <linearGradient id="paint9_linear_368_25" x1="307.943" y1="229.659" x2="176.276" y2="228.821"
            gradientUnits="userSpaceOnUse">
            <stop stop-color="#F7B854" />
            <stop offset="1" stop-color="#C91ABE" />
        </linearGradient>
    </defs>
</svg>