<?xml version="1.0" encoding="UTF-8"?>
<svg id="Layer_1" data-name="Layer 1" xmlns="http://www.w3.org/2000/svg" viewBox="0 0 206.42 89.28">
  <defs>
    <style>
      .cls-1 {
        fill: #fff;
        stroke-width: 0px;
      }
    </style>
  </defs>
  <path class="cls-1" d="m97.53,36.13c-2.7-2.47-6.55-3.72-11.44-3.72h-10.82c-.57,0-1.03.46-1.03,1.03v26.46c0,.57.46,1.03,1.03,1.03h9.97c5.17,0,9.23-1.23,12.06-3.66,2.88-2.47,4.34-6.03,4.34-10.6s-1.38-8.05-4.12-10.54Zm-.5,10.54c0,3.35-.95,5.81-2.89,7.51-1.96,1.71-4.93,2.58-8.83,2.58h-6.57v-20.18h7.35c3.62,0,6.38.86,8.21,2.56,1.81,1.68,2.73,4.21,2.73,7.53Z"/>
  <path class="cls-1" d="m132.76,33.51c-2.31-1.17-5.01-1.76-8.02-1.76s-5.88.63-8.2,1.88c-2.34,1.26-4.16,3.05-5.4,5.3-1.23,2.23-1.85,4.84-1.85,7.74s.66,5.72,1.95,7.96c1.31,2.27,3.16,4.02,5.5,5.2,2.31,1.17,5.01,1.76,8.02,1.76s5.88-.63,8.2-1.88c2.34-1.26,4.16-3.05,5.4-5.3,1.23-2.23,1.85-4.84,1.85-7.74s-.66-5.71-1.95-7.96c-1.31-2.27-3.16-4.02-5.5-5.2Zm2.84,13.17c0,2.26-.45,4.22-1.34,5.84-.88,1.61-2.09,2.79-3.7,3.62-1.62.83-3.57,1.26-5.79,1.26-3.43,0-6.13-.95-8.02-2.83-1.92-1.9-2.85-4.48-2.85-7.89,0-2.26.45-4.23,1.34-5.84.88-1.61,2.09-2.79,3.7-3.62,1.62-.83,3.57-1.26,5.79-1.26,3.43,0,6.13.95,8.02,2.83,1.92,1.91,2.85,4.48,2.85,7.89Z"/>
  <path class="cls-1" d="m170.88,53.57l-17.3-20.79c-.2-.23-.49-.37-.79-.37h-2.45c-.57,0-1.03.46-1.03,1.03v26.46c0,.57.46,1.03,1.03,1.03h2.45c.57,0,1.03-.46,1.03-1.03v-20.13l17.3,20.79c.2.23.49.37.79.37h2.45c.57,0,1.03-.46,1.03-1.03v-26.46c0-.57-.46-1.03-1.03-1.03h-2.45c-.57,0-1.03.46-1.03,1.03v20.13Z"/>
  <path class="cls-1" d="m205.16,32.42h-20.74c-.7,0-1.27.57-1.27,1.27v1.67c0,.7.57,1.27,1.27,1.27h16.45c-4.73,7.14-8.57,14.96-11.43,23.25-.11.31-.06.64.13.9.19.27.49.42.81.42h3.35s.23-.68.23-.68c.19-.58.39-1.15.59-1.72s.41-1.14.63-1.71.43-1.13.66-1.7.46-1.13.69-1.68.48-1.12.72-1.67.5-1.11.75-1.66.52-1.1.79-1.64.54-1.09.82-1.63.56-1.08.85-1.62.58-1.07.88-1.6.6-1.06.91-1.59.62-1.05.94-1.57.64-1.04.97-1.56.66-1.03,1-1.54.68-1.02,1.03-1.52c.14-.2.22-.42.22-.67,0-.09,0-.18,0-.27v-1.49c0-.7-.57-1.27-1.27-1.27Z"/>
  <path class="cls-1" d="m78.53,72.99c0,.13,0,.23,0,.31,0,.08,0,.14,0,.19,0,.05,0,.09.01.11-.26,0-.46-.05-.6-.16-.14-.11-.21-.29-.21-.54l.04-2.97c-.12.34-.23.66-.34.96-.05.13-.1.26-.14.39-.05.13-.1.26-.14.38-.04.12-.09.23-.12.33-.04.1-.07.18-.1.25-.06.14-.14.24-.24.29-.1.05-.19.08-.28.09-.11,0-.21,0-.32-.05l-.98-2.64.03,3.06c0,.13,0,.23,0,.31,0,.08,0,.14,0,.19,0,.05,0,.09.01.11-.26,0-.46-.05-.6-.16-.14-.11-.21-.29-.21-.54v-3.66h.03s.06-.02.09-.03c.03,0,.06,0,.1-.01.04,0,.08,0,.12,0,.14,0,.26.02.38.05s.23.09.33.17c.1.08.2.18.29.32.09.13.17.3.25.5,0,.02.02.05.04.1.02.05.04.11.07.18.03.07.05.15.08.24.03.08.06.17.09.26.07.2.15.43.24.68l.5-1.46c.08-.2.16-.37.25-.5.09-.13.19-.24.29-.32.1-.08.22-.14.33-.17.12-.03.25-.05.38-.05.05,0,.09,0,.12,0,.04,0,.07,0,.1.01.03,0,.06.01.09.02h.03s-.01,3.76-.01,3.76Z"/>
  <path class="cls-1" d="m89.56,72.95v.04c0,.14-.03.26-.08.34-.04.08-.11.15-.2.19-.08.05-.17.07-.28.08-.1,0-.2.01-.28.02-.39.02-.72,0-1-.06-.28-.06-.51-.17-.69-.33-.18-.16-.31-.38-.4-.66-.09-.28-.13-.63-.13-1.05v-1.2c0-.29.04-.51.13-.68.05-.08.1-.15.16-.2.06-.05.14-.09.22-.13.05-.02.11-.04.17-.05.06-.01.12-.03.19-.04.09,0,.18-.01.28-.02.1,0,.2,0,.31,0h.56c.27,0,.47,0,.58-.01.12,0,.2-.01.23-.02h.05v.04c0,.14-.03.26-.08.34-.05.08-.11.15-.2.2-.08.04-.18.07-.27.08-.1,0-.19.01-.29.01h-1.08s-.05,0-.06.01c-.02,0-.03.01-.04.02-.03.01-.04.03-.06.05-.02.02-.03.05-.03.09,0,.04,0,.08,0,.12l.02.78h1.56c0,.19-.05.34-.16.46-.11.11-.26.17-.45.17h-.96c0,.28.01.52.06.71.05.19.12.34.23.45.1.11.24.19.41.23.17.05.37.07.6.07.28,0,.49,0,.64-.01.15,0,.24-.01.28-.02h.05Z"/>
  <path class="cls-1" d="m99.27,69.12c.28,0,.55.05.81.14.26.1.49.24.7.43.2.19.37.43.49.71.12.28.18.61.18.99s-.06.7-.18.99c-.12.28-.29.52-.49.71-.2.19-.44.33-.7.43-.26.1-.53.15-.81.15-.07,0-.16,0-.27,0s-.21,0-.3-.02c-.07,0-.13-.02-.19-.04-.06-.01-.12-.03-.17-.05-.17-.07-.3-.18-.38-.33-.05-.08-.08-.18-.1-.29-.02-.11-.04-.24-.04-.39v-2.3c.01-.29.06-.51.15-.68.08-.16.21-.27.39-.34.1-.04.22-.07.36-.08.09-.01.19-.02.3-.02.11,0,.2,0,.28,0m0,4c.17,0,.33-.03.49-.09.16-.06.3-.15.43-.29s.23-.31.31-.53c.08-.22.12-.5.12-.83s-.04-.61-.12-.83c-.08-.22-.18-.4-.31-.53-.12-.13-.27-.23-.43-.28-.16-.06-.32-.08-.49-.08h-.21c-.08,0-.15,0-.22.03-.07.02-.13.05-.17.09-.05.04-.07.11-.07.19v2.83c0,.08.02.15.07.19.05.04.1.07.17.09.07.02.14.03.22.03h.21Z"/>
  <path class="cls-1" d="m110.82,72.99v-3.1c0-.25.07-.44.21-.54.14-.11.34-.16.6-.16,0,.03,0,.06-.01.11,0,.05,0,.11,0,.19,0,.08,0,.18,0,.31v3.1c-.01.25-.08.44-.22.55-.14.11-.33.17-.59.17,0-.03,0-.06.01-.11,0-.05,0-.11,0-.19s0-.18,0-.31"/>
  <path class="cls-1" d="m124.83,73.27s.03.08.05.12c.02.04.03.07.05.11.02.04.03.08.04.11-.13.03-.25.04-.36.03-.1,0-.2-.04-.3-.09-.1-.05-.18-.14-.23-.28-.03-.06-.07-.18-.14-.35-.07-.17-.15-.38-.24-.61h-1.81c-.09.23-.17.44-.24.61-.07.17-.11.29-.14.35-.06.14-.14.23-.23.28-.1.05-.2.08-.29.09-.11.01-.23,0-.36-.03.01-.04.03-.08.04-.11.01-.03.03-.07.04-.11.01-.04.03-.08.05-.12.03-.08.08-.21.16-.39.07-.19.16-.4.26-.64s.2-.5.31-.76.21-.52.31-.76c.1-.24.18-.45.26-.64.08-.18.13-.31.16-.39.05-.12.1-.21.15-.28.05-.07.1-.12.16-.16.05-.04.1-.06.15-.07.05-.01.09-.02.14-.02s.09,0,.14.02c.05.01.1.03.15.07.05.04.1.09.16.16.05.07.1.16.15.28.03.08.08.21.16.39.07.18.16.4.26.64.1.24.2.5.31.76.11.27.21.52.31.76.1.24.18.46.26.64.07.19.13.32.16.39m-1.37-1.58c-.08-.21-.17-.42-.25-.62-.08-.2-.15-.38-.21-.54-.08-.19-.14-.36-.2-.53-.07.17-.14.35-.21.53-.06.16-.13.34-.21.54-.08.2-.16.41-.24.62h1.32Z"/>
  <path class="cls-1" d="m144.48,71.68c-.2,0-.35-.06-.45-.17-.11-.12-.16-.27-.16-.46h.88c.19,0,.35.03.48.09.13.05.23.13.3.24.07.11.12.23.15.36.03.14.04.28.04.44v.26c0,.18-.03.35-.1.5-.07.15-.17.28-.3.39-.13.11-.3.19-.5.25-.2.06-.43.09-.68.09-.28,0-.55-.05-.81-.15-.26-.1-.49-.24-.7-.43-.2-.19-.37-.43-.49-.71-.12-.28-.18-.61-.18-.99s.06-.7.18-.99c.12-.28.28-.52.49-.71.2-.19.44-.33.7-.43.26-.1.53-.14.81-.14.18,0,.34.02.47.06.14.04.26.09.35.14.1.06.18.11.24.17.06.06.1.1.12.14-.02.03-.03.05-.05.07-.02.02-.03.04-.05.06-.01.02-.03.03-.05.04-.05.03-.1.04-.17.04-.06,0-.11,0-.17-.03-.05-.02-.11-.04-.17-.06s-.13-.04-.22-.06c-.08-.02-.19-.03-.32-.03-.17,0-.33.03-.49.1-.16.07-.3.17-.43.31-.13.14-.23.32-.31.54-.08.22-.11.48-.11.77s.04.56.11.78c.08.22.18.4.31.54.13.14.27.25.43.31.16.07.32.1.49.1.17,0,.32-.02.42-.06.11-.04.19-.1.25-.17.06-.07.1-.16.12-.26.02-.1.03-.22.03-.35v-.31c0-.06,0-.12-.02-.17-.02-.04-.04-.07-.08-.09-.02-.01-.05-.02-.11-.03h-.29Z"/>
  <path class="cls-1" d="m157.44,73.01c0,.13,0,.24,0,.31s0,.14,0,.19c0,.05,0,.09.01.11-.26,0-.46-.05-.6-.16-.14-.11-.2-.29-.2-.54v-2.69c0-.2.04-.37.11-.51.07-.14.17-.24.3-.33.12-.08.27-.14.45-.18.17-.04.36-.06.57-.07.13,0,.27,0,.42.02.15.02.3.05.44.1.15.05.28.11.42.19.13.08.25.17.35.28.1.11.18.24.24.38.06.14.08.31.07.48,0,.25-.09.47-.24.67-.15.2-.37.33-.65.42.1.03.18.09.25.16.07.07.13.16.18.27.05.1.11.22.16.34.05.12.11.25.17.38.05.1.1.19.15.26.05.08.11.15.15.21.05.07.1.13.16.18-.04.04-.08.07-.13.09-.05.02-.1.04-.17.05-.06.01-.14.01-.23,0-.1-.01-.2-.04-.28-.09-.08-.05-.17-.12-.25-.22-.08-.1-.18-.23-.27-.39-.1-.16-.2-.36-.33-.6-.07-.14-.16-.24-.26-.31-.1-.07-.23-.13-.37-.17-.03,0-.05-.01-.07-.02-.02,0-.05-.01-.07-.02-.03,0-.07-.01-.12-.02-.05-.01-.11-.02-.16-.03-.06-.01-.13-.03-.2-.04v1.28Zm.64-3.24c-.13.01-.23.03-.31.07-.08.03-.15.07-.2.11-.05.04-.08.09-.1.15-.02.06-.03.11-.03.17v.22c0,.09,0,.18,0,.28,0,.09,0,.18,0,.26v.16c.1.02.2.04.3.06.08.01.18.02.28.04.1.01.2.02.3.02.27,0,.48-.05.63-.16.15-.11.24-.28.27-.52.02-.16,0-.29-.07-.4-.06-.11-.15-.2-.26-.27-.11-.07-.24-.11-.38-.14-.14-.03-.29-.03-.43-.02"/>
  <path class="cls-1" d="m173.17,69.12c.28,0,.55.05.81.15.26.1.49.24.7.43.2.19.37.43.49.71.12.28.18.61.18.98s-.06.7-.18.99-.28.52-.49.72c-.2.19-.44.34-.7.44-.26.1-.53.15-.81.15s-.55-.05-.81-.15c-.26-.1-.49-.24-.7-.44-.2-.19-.37-.43-.49-.72-.12-.28-.18-.61-.18-.99s.06-.7.18-.98c.12-.28.28-.52.49-.71.2-.19.44-.34.7-.43.26-.1.53-.15.81-.15m0,4.01c.17,0,.33-.03.49-.1.16-.07.3-.17.43-.32.13-.14.23-.32.31-.54.08-.22.11-.48.11-.78s-.04-.55-.11-.77c-.08-.22-.18-.39-.31-.53-.13-.14-.27-.24-.43-.31-.16-.07-.32-.1-.49-.1s-.33.03-.49.1c-.16.07-.3.17-.43.31-.13.14-.23.32-.31.53-.08.22-.11.47-.11.77s.04.56.11.78c.08.22.18.4.31.54.13.14.27.25.43.32.16.07.32.1.49.1"/>
  <path class="cls-1" d="m189.64,71.54c0,.38-.04.7-.13.96-.09.26-.21.48-.37.65-.16.17-.35.29-.58.37-.22.08-.47.12-.74.12s-.52-.04-.75-.12c-.22-.08-.41-.2-.57-.37-.16-.17-.28-.39-.37-.65-.09-.26-.13-.58-.13-.96l.02-1.69c0-.25.07-.44.2-.54.14-.11.33-.16.6-.16,0,.03,0,.06-.01.11,0,.05,0,.11,0,.19s0,.18,0,.31v1.77c0,.28,0,.52.05.71.04.19.11.34.2.45.09.11.2.19.33.24.13.05.28.07.44.07s.31-.02.44-.07c.13-.05.24-.12.33-.24.09-.11.15-.26.2-.45.04-.19.06-.42.06-.71l.02-1.69c0-.25.07-.44.2-.54.14-.11.33-.16.6-.16,0,.03,0,.06-.01.11,0,.05,0,.11,0,.19,0,.08,0,.18,0,.31v1.77Z"/>
  <path class="cls-1" d="m201.6,73.02c0,.13,0,.24,0,.31s0,.14,0,.19c0,.05,0,.09.01.11-.26,0-.46-.05-.6-.16-.14-.11-.21-.29-.21-.54v-2.69c.01-.2.05-.37.12-.51.07-.14.17-.25.3-.33.13-.08.28-.14.45-.18.17-.04.36-.06.56-.07.2-.01.41,0,.63.04.22.04.43.12.62.23.19.11.35.26.48.45.13.19.2.43.21.72,0,.18-.01.36-.07.55s-.14.36-.26.51c-.12.15-.29.28-.49.38-.2.1-.45.15-.74.15-.14,0-.28,0-.4-.03-.12-.02-.23-.04-.32-.06-.11-.03-.21-.06-.3-.09v.99Zm.88-1.44c.27,0,.49-.08.66-.24.17-.16.25-.4.24-.73,0-.17-.05-.31-.11-.43-.07-.11-.15-.2-.25-.27-.1-.06-.22-.11-.36-.13-.14-.02-.27-.03-.41-.01-.13.01-.23.03-.31.07-.08.03-.15.07-.19.11-.05.04-.08.09-.1.15-.02.06-.03.11-.03.17v1.12c.08.03.16.06.25.09.08.02.17.04.28.06.1.02.22.03.34.03"/>
  <path class="cls-1" d="m63.25,28.33c-.06-.15-.14-.33-.24-.44-.1-.1-.21-.23-.32-.29l-.32-.19-.3-.12c-.4-.14-.78-.21-1.15-.26-.74-.1-1.46-.11-2.17-.11-.28,0-.56.01-.85.02-.53-3.28-1.55-6.27-3.07-8.91-2.33-4.05-5.64-7.17-9.83-9.29-3.63-1.84-7.81-2.88-12.43-3.11-.08-.64-.19-1.29-.35-1.93-.19-.68-.42-1.36-.81-2.01-.38-.64-.98-1.28-1.81-1.56-.83-.25-1.68-.07-2.34.23-.67.31-1.24.72-1.77,1.17-1.03.91-1.9,1.94-2.7,3.01-.54.73-1.04,1.49-1.52,2.26-1.91.54-3.71,1.25-5.38,2.15-4.18,2.26-7.43,5.44-9.64,9.47-2.2,4-3.31,8.66-3.31,13.87,0,3.8.59,7.28,1.72,10.4-.55.32-1.1.65-1.65,1-.6.39-1.19.8-1.75,1.29-.28.25-.56.51-.81.85l-.19.27-.16.33c-.05.11-.08.28-.1.42-.02.15.01.34.05.5.07.15.15.32.25.43.1.1.21.21.32.28l.32.17.3.1c.4.12.77.17,1.14.2.74.06,1.44.04,2.15,0,1-.06,1.99-.18,2.97-.31.04.06.08.12.12.18-.01.23-.02.47-.03.7-.03,1.34.03,2.68.29,4.03.15.67.34,1.35.69,2.01.34.64.89,1.3,1.7,1.61.82.29,1.69.15,2.38-.13.7-.28,1.31-.67,1.87-1.1.16-.12.3-.25.45-.38.06.03.12.06.17.09.02.04.03.06.05.1.75,1.39,1.67,2.55,1.87,2.81.03.04.05.08.05.12.08.72.78,7.01,1.59,9.22,0,0,0,0,0,.01.06.13.93,2.11,1.08,2.4.15.3,1.69,3.38,4.13,5.63,0,0,0,0,.01.01.13.11,2.13,1.78,2.32,5.95.13,3.03.1,4.89.06,5.74-.6-.12-1.2-.26-1.79-.41-2.03-.55-4.03-1.28-6-2.2,1.62,1.47,3.57,2.55,5.62,3.34,2.06.8,4.27,1.24,6.51,1.31,1.12.02,2.24-.06,3.34-.24,1.1-.21,2.19-.48,3.22-.89,2.08-.8,3.97-2.01,5.52-3.53-1.93,1-3.88,1.84-5.9,2.39-.37.09-.75.17-1.12.25l.13-5.67s-.03-3.53,1.91-6.3c1.94-2.77,1.95-1.98,4.26-5.92,0,0,0-.01,0-.02.08-.16,1.17-2.47,1.52-5.5.33-2.81.65-5.31.72-5.81,0-.06.04-.11.08-.15.3-.26,1.54-1.34,1.88-2.32.06-.18.1-.35.15-.52,3.7-2.21,6.61-5.19,8.65-8.89,2.13-3.87,3.23-8.37,3.3-13.38.62-.31,1.24-.64,1.84-.99.61-.36,1.22-.73,1.8-1.18.29-.23.57-.48.84-.8l.19-.25.17-.32c.05-.11.08-.27.11-.41.02-.15,0-.34-.03-.5Zm-15.31-13.1c3.1,3.09,5.05,7.13,5.81,12.05-2.52.3-5.02.69-7.5,1.18-5.48,1.07-10.87,2.48-16.2,4.06-.78.24-1.56.49-2.34.74.24-.64.48-1.28.71-1.93,1.69-5.05,3.06-10.22,3.82-15.52.32-2.2.5-4.42.51-6.67,6.39.37,11.49,2.41,15.19,6.08ZM23.4,5.01c.83-1,1.73-1.94,2.72-2.72.97-.75,2.19-1.35,3.08-1.01.87.35,1.36,1.56,1.6,2.74.1.51.16,1.03.2,1.56-.13,0-.26,0-.4,0-3,0-5.8.33-8.4.98.39-.52.79-1.04,1.2-1.54ZM4.5,47.54c-.68,0-1.36-.01-2-.1-.32-.05-.63-.11-.89-.2-.29-.08-.42-.26-.39-.24,0,.03.04-.17.24-.38.17-.21.41-.41.66-.61.5-.39,1.08-.75,1.65-1.08.48-.27.97-.53,1.47-.78.36.83.75,1.65,1.2,2.42.17.3.35.58.53.87-.83.06-1.65.11-2.47.11Zm2.65-15.25c0-4.87.97-9.12,2.89-12.62,1.89-3.45,4.6-6.1,8.05-7.87.16-.08.33-.15.49-.23.17-.08.35-.17.52-.25,3.3-1.48,7.15-2.24,11.48-2.24.14,0,.27,0,.41,0-.13,2.13-.46,4.27-.85,6.39-.46,2.56-1.08,5.08-1.76,7.6-.67,2.52-1.45,5-2.3,7.47-.41,1.23-.85,2.45-1.3,3.66-.9.3-1.8.6-2.7.91-2.63.92-5.23,1.92-7.81,2.97-2.02.84-4.02,1.73-5.99,2.69-.76-2.54-1.16-5.37-1.16-8.49Zm8.95,19.33c-.99-.67-1.92-1.42-2.77-2.27-.59-.59-1.13-1.21-1.64-1.87-.14-.18-.28-.36-.41-.54-.97-1.36-1.77-2.86-2.4-4.49,2.03-.86,4.11-1.65,6.18-2.42,2.58-.96,5.19-1.84,7.8-2.7.27-.09.54-.17.8-.26-.11.26-.2.53-.31.78-1,2.41-2.05,4.79-3.25,7.09-1.19,2.3-2.46,4.57-3.98,6.64,0,.01-.02.02-.03.03Zm-2.49,2.79c-.91.79-2.03,1.45-2.94,1.19-.91-.28-1.51-1.5-1.82-2.69-.28-1.12-.42-2.29-.48-3.47,1.5,1.91,3.28,3.54,5.31,4.9-.03.02-.05.05-.08.07Zm26.45,12.56s-.03.07-.06.09c-.35.33-2.82,2.63-3.96,3.78-.03.03-.07.06-.12.06-.21.04-.85.18-1.34.41-.06.03-.14.03-.2,0-.28-.15-1.11-.56-1.83-.86-.07-.03-.13-.1-.14-.18-.04-.24-.11-.81-.07-1.51,0-.07.04-.13.09-.17.19-.16.7-.61.88-1.2,0-.02.01-.04.03-.06.09-.13.48-.8.04-1.21-.04-.04-.07-.09-.07-.15-.05-.52-.4-3.01-2.37-3.06,0,0-2.44-.13-2.47,3.09,0,.07-.03.13-.08.17-.17.15-.5.58.07,1.27.02.02.03.04.04.06.05.13.28.65.76,1.04.05.04.08.09.09.15.03.28.1,1.12-.04,1.69-.02.07-.06.12-.12.15-.25.12-.96.47-1.61.82-.06.03-.14.04-.2,0-.21-.09-.71-.29-1.42-.45-.04-.01-.09-.03-.12-.07-.31-.33-2.07-2.18-3.91-3.27-.05-.03-.09-.08-.1-.13-.22-.79-1.92-6.66-3.21-9.5-.02-.04-.02-.09-.02-.13.02-.11.04-.39-.02-.96,3.61,1.42,7.67,2.15,12.13,2.15s8.59-.75,12.18-2.2c-.14.14-.53.66-.52,1.95.01,1.49-2.04,7.57-2.26,8.21Zm14.02-32.98c-.01.24-.03.48-.05.72-.27,3.86-1.21,7.29-2.8,10.2-1.9,3.46-4.61,6.11-8.05,7.88-3.51,1.8-7.72,2.72-12.5,2.72-5.17,0-9.57-1.01-13.15-3,1.68-2.06,3.13-4.27,4.42-6.55,1.31-2.33,2.5-4.72,3.57-7.17.38-.88.73-1.77,1.09-2.65,1.38-.43,2.76-.86,4.14-1.26,5.27-1.6,10.59-3.06,15.94-4.34,2.42-.56,4.84-1.11,7.27-1.53.1,1.06.16,2.16.16,3.3,0,.57-.02,1.14-.04,1.69Zm7.8-4.89c-.16.22-.39.45-.63.66-.48.43-1.04.82-1.61,1.19-.43.28-.88.54-1.32.8-.02-1.14-.08-2.25-.2-3.33.23-.02.46-.04.68-.05.67-.04,1.34-.06,1.98,0,.31.03.63.07.88.15.29.06.42.22.41.18.01-.04,0,.19-.2.41Z"/>
</svg>