<svg width="372" height="117" viewBox="0 0 372 117" fill="none" xmlns="http://www.w3.org/2000/svg">
<g filter="url(#filter0_d_368_27)">
<rect x="2" y="2" width="360" height="67" rx="11" fill="#FFC007"/>
<path d="M30.264 46.32C28.3227 46.32 26.648 46 25.24 45.36C23.832 44.72 22.7333 43.76 21.944 42.48C21.1547 41.1787 20.728 39.5467 20.664 37.584C20.6427 36.6667 20.632 35.76 20.632 34.864C20.632 33.9467 20.6427 33.0187 20.664 32.08C20.728 30.16 21.1547 28.5493 21.944 27.248C22.7547 25.9253 23.864 24.9333 25.272 24.272C26.7013 23.6107 28.3653 23.28 30.264 23.28C32.1413 23.28 33.784 23.6107 35.192 24.272C36.6213 24.9333 37.7413 25.9253 38.552 27.248C39.3627 28.5493 39.7893 30.16 39.832 32.08C39.8747 33.0187 39.896 33.9467 39.896 34.864C39.896 35.76 39.8747 36.6667 39.832 37.584C39.768 39.5467 39.3413 41.1787 38.552 42.48C37.7627 43.76 36.664 44.72 35.256 45.36C33.848 46 32.184 46.32 30.264 46.32ZM30.264 42.192C31.5013 42.192 32.5147 41.8187 33.304 41.072C34.1147 40.304 34.5413 39.088 34.584 37.424C34.6267 36.4853 34.648 35.6107 34.648 34.8C34.648 33.968 34.6267 33.0933 34.584 32.176C34.5627 31.0667 34.36 30.16 33.976 29.456C33.592 28.752 33.08 28.24 32.44 27.92C31.8213 27.5787 31.096 27.408 30.264 27.408C29.432 27.408 28.696 27.5787 28.056 27.92C27.416 28.24 26.904 28.752 26.52 29.456C26.1573 30.16 25.9547 31.0667 25.912 32.176C25.8907 33.0933 25.88 33.968 25.88 34.8C25.88 35.6107 25.8907 36.4853 25.912 37.424C25.976 39.088 26.4027 40.304 27.192 41.072C27.9813 41.8187 29.0053 42.192 30.264 42.192ZM53.02 46.32C51.1427 46.32 49.5 46.0107 48.092 45.392C46.684 44.752 45.596 43.7813 44.828 42.48C44.06 41.1573 43.676 39.4827 43.676 37.456V24.4C43.676 24.1653 43.7507 23.9733 43.9 23.824C44.0493 23.6747 44.2413 23.6 44.476 23.6H47.964C48.1987 23.6 48.3907 23.6747 48.54 23.824C48.6893 23.9733 48.764 24.1653 48.764 24.4V37.424C48.764 39.0027 49.1373 40.176 49.884 40.944C50.6307 41.712 51.676 42.096 53.02 42.096C54.3427 42.096 55.3773 41.712 56.124 40.944C56.8707 40.176 57.244 39.0027 57.244 37.424V24.4C57.244 24.1653 57.3187 23.9733 57.468 23.824C57.6387 23.6747 57.8307 23.6 58.044 23.6H61.564C61.7773 23.6 61.9587 23.6747 62.108 23.824C62.2573 23.9733 62.332 24.1653 62.332 24.4V37.456C62.332 39.4827 61.948 41.1573 61.18 42.48C60.412 43.7813 59.3347 44.752 57.948 45.392C56.5613 46.0107 54.9187 46.32 53.02 46.32ZM75.604 53.04C75.0493 53.04 74.5373 52.944 74.068 52.752C73.5987 52.56 73.268 52.336 73.076 52.08C72.884 51.824 72.884 51.6 73.076 51.408L73.652 50.896C73.844 50.7253 74.004 50.672 74.132 50.736C74.2813 50.8213 74.4627 50.928 74.676 51.056C74.8893 51.184 75.1987 51.248 75.604 51.248C75.9453 51.248 76.2227 51.152 76.436 50.96C76.6493 50.768 76.756 50.5227 76.756 50.224C76.756 49.9467 76.6493 49.712 76.436 49.52C76.2227 49.328 75.9453 49.232 75.604 49.232C75.348 49.232 75.1133 49.264 74.9 49.328C74.6867 49.4133 74.484 49.4667 74.292 49.488C74.1213 49.5093 73.9613 49.4453 73.812 49.296L73.204 48.688C73.076 48.56 73.0227 48.4107 73.044 48.24C73.0653 48.0907 73.1293 47.8987 73.236 47.664L73.876 46.192C72.276 46 70.9107 45.552 69.78 44.848C68.6493 44.1227 67.7747 43.1627 67.156 41.968C66.5587 40.752 66.2173 39.312 66.132 37.648C66.1107 36.7733 66.1 35.8347 66.1 34.832C66.1 33.8293 66.1107 32.8693 66.132 31.952C66.2173 30.1173 66.644 28.56 67.412 27.28C68.2013 25.9787 69.3 24.9867 70.708 24.304C72.116 23.6213 73.8013 23.28 75.764 23.28C77.1933 23.28 78.4947 23.4613 79.668 23.824C80.8413 24.1867 81.8547 24.7093 82.708 25.392C83.5613 26.0747 84.2227 26.8747 84.692 27.792C85.1613 28.7093 85.4173 29.7333 85.46 30.864C85.46 31.056 85.3853 31.216 85.236 31.344C85.108 31.472 84.948 31.536 84.756 31.536H81.108C80.852 31.536 80.6493 31.472 80.5 31.344C80.3507 31.216 80.2333 31.0027 80.148 30.704C79.828 29.4453 79.2947 28.5813 78.548 28.112C77.8013 27.6427 76.8733 27.408 75.764 27.408C74.4413 27.408 73.396 27.7707 72.628 28.496C71.86 29.2213 71.444 30.4267 71.38 32.112C71.316 33.8613 71.316 35.6533 71.38 37.488C71.444 39.1733 71.86 40.3787 72.628 41.104C73.396 41.8293 74.4413 42.192 75.764 42.192C76.8733 42.192 77.8013 41.9573 78.548 41.488C79.316 40.9973 79.8493 40.1333 80.148 38.896C80.2333 38.576 80.3507 38.3627 80.5 38.256C80.6493 38.128 80.852 38.064 81.108 38.064H84.756C84.948 38.064 85.108 38.128 85.236 38.256C85.3853 38.384 85.46 38.544 85.46 38.736C85.4173 39.8667 85.1613 40.8907 84.692 41.808C84.2227 42.7253 83.5613 43.5253 82.708 44.208C81.8547 44.8907 80.8413 45.4133 79.668 45.776C78.4947 46.1387 77.1933 46.32 75.764 46.32L75.124 47.632C75.252 47.568 75.4227 47.5147 75.636 47.472C75.8707 47.4507 76.052 47.44 76.18 47.44C76.948 47.44 77.556 47.696 78.004 48.208C78.4733 48.72 78.708 49.3813 78.708 50.192C78.708 51.0027 78.4307 51.6747 77.876 52.208C77.3427 52.7627 76.5853 53.04 75.604 53.04ZM87.4622 46C87.2703 46 87.1103 45.936 86.9823 45.808C86.8543 45.6587 86.7903 45.4987 86.7903 45.328C86.7903 45.2213 86.8009 45.1253 86.8223 45.04L94.4383 24.464C94.5023 24.2293 94.6303 24.0267 94.8223 23.856C95.0143 23.6853 95.2809 23.6 95.6223 23.6H99.7183C100.06 23.6 100.326 23.6853 100.518 23.856C100.71 24.0267 100.838 24.2293 100.902 24.464L108.518 45.04C108.54 45.1253 108.55 45.2213 108.55 45.328C108.55 45.4987 108.486 45.6587 108.358 45.808C108.23 45.936 108.07 46 107.878 46H104.55C104.23 46 103.996 45.9253 103.846 45.776C103.697 45.6267 103.601 45.488 103.558 45.36L102.182 41.776H93.1583L91.7823 45.36C91.7396 45.488 91.6436 45.6267 91.4943 45.776C91.3449 45.9253 91.1103 46 90.7903 46H87.4622ZM94.3423 37.648H100.966L97.6703 28.432L94.3423 37.648ZM126.452 46.32C124.51 46.32 122.836 46 121.428 45.36C120.02 44.72 118.921 43.76 118.132 42.48C117.342 41.1787 116.916 39.5467 116.852 37.584C116.83 36.6667 116.82 35.76 116.82 34.864C116.82 33.9467 116.83 33.0187 116.852 32.08C116.916 30.16 117.342 28.5493 118.132 27.248C118.942 25.9253 120.052 24.9333 121.46 24.272C122.889 23.6107 124.553 23.28 126.452 23.28C128.329 23.28 129.972 23.6107 131.38 24.272C132.809 24.9333 133.929 25.9253 134.74 27.248C135.55 28.5493 135.977 30.16 136.02 32.08C136.062 33.0187 136.084 33.9467 136.084 34.864C136.084 35.76 136.062 36.6667 136.02 37.584C135.956 39.5467 135.529 41.1787 134.74 42.48C133.95 43.76 132.852 44.72 131.444 45.36C130.036 46 128.372 46.32 126.452 46.32ZM126.452 42.192C127.689 42.192 128.702 41.8187 129.492 41.072C130.302 40.304 130.729 39.088 130.772 37.424C130.814 36.4853 130.836 35.6107 130.836 34.8C130.836 33.968 130.814 33.0933 130.772 32.176C130.75 31.0667 130.548 30.16 130.164 29.456C129.78 28.752 129.268 28.24 128.628 27.92C128.009 27.5787 127.284 27.408 126.452 27.408C125.62 27.408 124.884 27.5787 124.244 27.92C123.604 28.24 123.092 28.752 122.708 29.456C122.345 30.16 122.142 31.0667 122.1 32.176C122.078 33.0933 122.068 33.968 122.068 34.8C122.068 35.6107 122.078 36.4853 122.1 37.424C122.164 39.088 122.59 40.304 123.38 41.072C124.169 41.8187 125.193 42.192 126.452 42.192ZM140.856 46C140.621 46 140.429 45.9253 140.28 45.776C140.13 45.6267 140.056 45.4347 140.056 45.2V24.4C140.056 24.1653 140.13 23.9733 140.28 23.824C140.429 23.6747 140.621 23.6 140.856 23.6H143.768C144.088 23.6 144.322 23.6747 144.472 23.824C144.621 23.9733 144.717 24.0907 144.76 24.176L153.304 37.52V24.4C153.304 24.1653 153.378 23.9733 153.528 23.824C153.677 23.6747 153.858 23.6 154.072 23.6H157.336C157.57 23.6 157.762 23.6747 157.912 23.824C158.061 23.9733 158.136 24.1653 158.136 24.4V45.2C158.136 45.4133 158.061 45.6053 157.912 45.776C157.762 45.9253 157.57 46 157.336 46H154.392C154.072 46 153.837 45.9253 153.688 45.776C153.56 45.6053 153.464 45.488 153.4 45.424L144.888 32.496V45.2C144.888 45.4347 144.813 45.6267 144.664 45.776C144.514 45.9253 144.322 46 144.088 46H140.856ZM163.668 46C163.433 46 163.241 45.9253 163.092 45.776C162.943 45.6267 162.868 45.4347 162.868 45.2V24.4C162.868 24.1653 162.943 23.9733 163.092 23.824C163.241 23.6747 163.433 23.6 163.668 23.6H171.7C173.833 23.6 175.615 23.9413 177.044 24.624C178.473 25.2853 179.561 26.2667 180.308 27.568C181.076 28.848 181.481 30.4373 181.524 32.336C181.545 33.2747 181.556 34.096 181.556 34.8C181.556 35.504 181.545 36.3147 181.524 37.232C181.46 39.216 181.065 40.8587 180.34 42.16C179.615 43.4613 178.548 44.432 177.14 45.072C175.732 45.6907 173.972 46 171.86 46H163.668ZM167.956 41.872H171.7C172.767 41.872 173.641 41.712 174.324 41.392C175.007 41.072 175.508 40.5707 175.828 39.888C176.169 39.184 176.351 38.2773 176.372 37.168C176.393 36.5493 176.404 35.9947 176.404 35.504C176.425 35.0133 176.425 34.5227 176.404 34.032C176.404 33.5413 176.393 32.9973 176.372 32.4C176.329 30.8 175.913 29.6267 175.124 28.88C174.356 28.112 173.161 27.728 171.54 27.728H167.956V41.872ZM186.356 46C186.121 46 185.929 45.9253 185.78 45.776C185.63 45.6267 185.556 45.4347 185.556 45.2V24.4C185.556 24.1653 185.63 23.9733 185.78 23.824C185.929 23.6747 186.121 23.6 186.356 23.6H200.852C201.086 23.6 201.278 23.6747 201.428 23.824C201.577 23.9733 201.652 24.1653 201.652 24.4V26.96C201.652 27.1733 201.577 27.3547 201.428 27.504C201.278 27.6533 201.086 27.728 200.852 27.728H190.484V32.752H200.148C200.382 32.752 200.574 32.8267 200.724 32.976C200.873 33.1253 200.948 33.3173 200.948 33.552V35.92C200.948 36.1333 200.873 36.3147 200.724 36.464C200.574 36.6133 200.382 36.688 200.148 36.688H190.484V41.872H201.108C201.342 41.872 201.534 41.9467 201.684 42.096C201.833 42.2453 201.908 42.4373 201.908 42.672V45.2C201.908 45.4347 201.833 45.6267 201.684 45.776C201.534 45.9253 201.342 46 201.108 46H186.356ZM213.574 46C213.34 46 213.148 45.9253 212.998 45.776C212.849 45.6267 212.774 45.4347 212.774 45.2V24.4C212.774 24.1653 212.849 23.9733 212.998 23.824C213.148 23.6747 213.34 23.6 213.574 23.6H228.07C228.305 23.6 228.497 23.6747 228.646 23.824C228.796 23.9733 228.87 24.1653 228.87 24.4V26.96C228.87 27.1733 228.796 27.3547 228.646 27.504C228.497 27.6533 228.305 27.728 228.07 27.728H217.702V32.752H227.366C227.601 32.752 227.793 32.8267 227.942 32.976C228.092 33.1253 228.166 33.3173 228.166 33.552V35.92C228.166 36.1333 228.092 36.3147 227.942 36.464C227.793 36.6133 227.601 36.688 227.366 36.688H217.702V41.872H228.326C228.561 41.872 228.753 41.9467 228.902 42.096C229.052 42.2453 229.126 42.4373 229.126 42.672V45.2C229.126 45.4347 229.052 45.6267 228.902 45.776C228.753 45.9253 228.561 46 228.326 46H213.574ZM240.995 46.32C238.947 46.32 237.229 46.0213 235.843 45.424C234.477 44.8267 233.443 44.048 232.739 43.088C232.035 42.128 231.661 41.104 231.618 40.016C231.618 39.8453 231.683 39.696 231.811 39.568C231.939 39.4187 232.099 39.344 232.291 39.344H235.715C235.992 39.344 236.205 39.408 236.355 39.536C236.504 39.6427 236.643 39.7813 236.771 39.952C236.92 40.3147 237.155 40.6667 237.475 41.008C237.816 41.3493 238.275 41.6373 238.851 41.872C239.427 42.0853 240.141 42.192 240.995 42.192C242.381 42.192 243.416 41.968 244.099 41.52C244.803 41.072 245.155 40.464 245.155 39.696C245.155 39.1413 244.963 38.6933 244.579 38.352C244.216 38.0107 243.629 37.7013 242.819 37.424C242.029 37.1467 240.973 36.848 239.651 36.528C238.051 36.1867 236.685 35.7493 235.555 35.216C234.445 34.6613 233.603 33.9573 233.027 33.104C232.472 32.2293 232.195 31.152 232.195 29.872C232.195 28.592 232.547 27.4613 233.251 26.48C233.955 25.4773 234.947 24.6987 236.227 24.144C237.507 23.568 239.032 23.28 240.803 23.28C242.232 23.28 243.491 23.472 244.579 23.856C245.688 24.24 246.605 24.7413 247.331 25.36C248.077 25.9787 248.643 26.64 249.027 27.344C249.411 28.048 249.613 28.7307 249.635 29.392C249.635 29.5627 249.571 29.7227 249.443 29.872C249.315 30 249.155 30.064 248.963 30.064H245.379C245.165 30.064 244.973 30.0213 244.803 29.936C244.632 29.8507 244.493 29.7013 244.387 29.488C244.259 28.9333 243.875 28.4533 243.235 28.048C242.616 27.6213 241.805 27.408 240.803 27.408C239.757 27.408 238.925 27.6 238.307 27.984C237.709 28.368 237.411 28.9547 237.411 29.744C237.411 30.256 237.56 30.6933 237.859 31.056C238.179 31.3973 238.701 31.7067 239.427 31.984C240.173 32.24 241.155 32.528 242.371 32.848C244.248 33.232 245.773 33.6907 246.947 34.224C248.12 34.7573 248.984 35.4507 249.539 36.304C250.093 37.136 250.371 38.192 250.371 39.472C250.371 40.9013 249.965 42.128 249.155 43.152C248.365 44.176 247.267 44.9653 245.859 45.52C244.472 46.0533 242.851 46.32 240.995 46.32ZM259.315 46C259.08 46 258.888 45.9253 258.739 45.776C258.589 45.6267 258.515 45.4347 258.515 45.2V28.048H252.691C252.477 28.048 252.296 27.9733 252.147 27.824C251.997 27.6747 251.923 27.4933 251.923 27.28V24.4C251.923 24.1653 251.997 23.9733 252.147 23.824C252.296 23.6747 252.477 23.6 252.691 23.6H269.459C269.693 23.6 269.885 23.6747 270.035 23.824C270.184 23.9733 270.259 24.1653 270.259 24.4V27.28C270.259 27.4933 270.184 27.6747 270.035 27.824C269.885 27.9733 269.693 28.048 269.459 28.048H263.667V45.2C263.667 45.4347 263.592 45.6267 263.443 45.776C263.293 45.9253 263.101 46 262.867 46H259.315ZM274.137 46C273.902 46 273.71 45.9253 273.561 45.776C273.411 45.6267 273.337 45.4347 273.337 45.2V24.4C273.337 24.1653 273.411 23.9733 273.561 23.824C273.71 23.6747 273.902 23.6 274.137 23.6H277.753C277.987 23.6 278.179 23.6747 278.329 23.824C278.478 23.9733 278.553 24.1653 278.553 24.4V45.2C278.553 45.4347 278.478 45.6267 278.329 45.776C278.179 45.9253 277.987 46 277.753 46H274.137ZM289.738 46C289.397 46 289.12 45.9147 288.906 45.744C288.714 45.552 288.576 45.328 288.49 45.072L281.77 24.56C281.749 24.4533 281.738 24.3573 281.738 24.272C281.738 24.1013 281.802 23.952 281.93 23.824C282.058 23.6747 282.218 23.6 282.41 23.6H285.77C286.09 23.6 286.336 23.696 286.506 23.888C286.698 24.0587 286.816 24.2187 286.858 24.368L291.85 40.016L296.81 24.368C296.874 24.2187 296.992 24.0587 297.162 23.888C297.333 23.696 297.578 23.6 297.898 23.6H301.258C301.45 23.6 301.61 23.6747 301.738 23.824C301.866 23.952 301.93 24.1013 301.93 24.272C301.93 24.3573 301.92 24.4533 301.898 24.56L295.178 45.072C295.114 45.328 294.976 45.552 294.762 45.744C294.57 45.9147 294.293 46 293.93 46H289.738ZM305.918 46C305.683 46 305.491 45.9253 305.342 45.776C305.193 45.6267 305.118 45.4347 305.118 45.2V24.4C305.118 24.1653 305.193 23.9733 305.342 23.824C305.491 23.6747 305.683 23.6 305.918 23.6H320.414C320.649 23.6 320.841 23.6747 320.99 23.824C321.139 23.9733 321.214 24.1653 321.214 24.4V26.96C321.214 27.1733 321.139 27.3547 320.99 27.504C320.841 27.6533 320.649 27.728 320.414 27.728H310.046V32.752H319.71C319.945 32.752 320.137 32.8267 320.286 32.976C320.435 33.1253 320.51 33.3173 320.51 33.552V35.92C320.51 36.1333 320.435 36.3147 320.286 36.464C320.137 36.6133 319.945 36.688 319.71 36.688H310.046V41.872H320.67C320.905 41.872 321.097 41.9467 321.246 42.096C321.395 42.2453 321.47 42.4373 321.47 42.672V45.2C321.47 45.4347 321.395 45.6267 321.246 45.776C321.097 45.9253 320.905 46 320.67 46H305.918ZM326.074 46C325.84 46 325.648 45.9253 325.498 45.776C325.349 45.6267 325.274 45.4347 325.274 45.2V24.4C325.274 24.1653 325.349 23.9733 325.498 23.824C325.648 23.6747 325.84 23.6 326.074 23.6H334.554C337.221 23.6 339.322 24.2187 340.858 25.456C342.394 26.672 343.162 28.432 343.162 30.736C343.162 32.2933 342.789 33.5947 342.042 34.64C341.296 35.6853 340.293 36.464 339.034 36.976L343.546 44.976C343.61 45.104 343.642 45.2213 343.642 45.328C343.642 45.4987 343.578 45.6587 343.45 45.808C343.322 45.936 343.162 46 342.97 46H339.418C339.034 46 338.746 45.904 338.554 45.712C338.362 45.4987 338.224 45.3067 338.138 45.136L334.234 37.808H330.362V45.2C330.362 45.4347 330.288 45.6267 330.138 45.776C329.989 45.9253 329.797 46 329.562 46H326.074ZM330.362 33.744H334.458C335.632 33.744 336.496 33.4773 337.05 32.944C337.626 32.4107 337.914 31.664 337.914 30.704C337.914 29.744 337.637 28.9867 337.082 28.432C336.528 27.8773 335.653 27.6 334.458 27.6H330.362V33.744Z" fill="#541084"/>
</g>
<g filter="url(#filter1_d_368_27)">
<rect x="76" y="62" width="199" height="46.1176" rx="11" fill="#FF0000"/>
<path d="M124.431 96C124.239 96 124.079 95.936 123.951 95.808C123.823 95.6587 123.759 95.4987 123.759 95.328C123.759 95.2213 123.77 95.1253 123.791 95.04L131.407 74.464C131.471 74.2293 131.599 74.0267 131.791 73.856C131.983 73.6853 132.25 73.6 132.591 73.6H136.687C137.028 73.6 137.295 73.6853 137.487 73.856C137.679 74.0267 137.807 74.2293 137.871 74.464L145.487 95.04C145.508 95.1253 145.519 95.2213 145.519 95.328C145.519 95.4987 145.455 95.6587 145.327 95.808C145.199 95.936 145.039 96 144.847 96H141.519C141.199 96 140.964 95.9253 140.815 95.776C140.666 95.6267 140.57 95.488 140.527 95.36L139.151 91.776H130.127L128.751 95.36C128.708 95.488 128.612 95.6267 128.463 95.776C128.314 95.9253 128.079 96 127.759 96H124.431ZM131.311 87.648H137.935L134.639 78.432L131.311 87.648ZM156.702 96.32C154.76 96.32 153.086 96 151.678 95.36C150.27 94.72 149.171 93.76 148.382 92.48C147.592 91.1787 147.166 89.5467 147.102 87.584C147.08 86.6667 147.07 85.76 147.07 84.864C147.07 83.9467 147.08 83.0187 147.102 82.08C147.166 80.16 147.592 78.5493 148.382 77.248C149.192 75.9253 150.302 74.9333 151.71 74.272C153.139 73.6107 154.803 73.28 156.702 73.28C158.579 73.28 160.222 73.6107 161.63 74.272C163.059 74.9333 164.179 75.9253 164.99 77.248C165.8 78.5493 166.227 80.16 166.27 82.08C166.312 83.0187 166.334 83.9467 166.334 84.864C166.334 85.76 166.312 86.6667 166.27 87.584C166.206 89.5467 165.779 91.1787 164.99 92.48C164.2 93.76 163.102 94.72 161.694 95.36C160.286 96 158.622 96.32 156.702 96.32ZM156.702 92.192C157.939 92.192 158.952 91.8187 159.742 91.072C160.552 90.304 160.979 89.088 161.022 87.424C161.064 86.4853 161.086 85.6107 161.086 84.8C161.086 83.968 161.064 83.0933 161.022 82.176C161 81.0667 160.798 80.16 160.414 79.456C160.03 78.752 159.518 78.24 158.878 77.92C158.259 77.5787 157.534 77.408 156.702 77.408C155.87 77.408 155.134 77.5787 154.494 77.92C153.854 78.24 153.342 78.752 152.958 79.456C152.595 80.16 152.392 81.0667 152.35 82.176C152.328 83.0933 152.318 83.968 152.318 84.8C152.318 85.6107 152.328 86.4853 152.35 87.424C152.414 89.088 152.84 90.304 153.63 91.072C154.419 91.8187 155.443 92.192 156.702 92.192ZM182.988 96C182.647 96 182.37 95.9147 182.156 95.744C181.964 95.552 181.826 95.328 181.74 95.072L175.02 74.56C174.999 74.4533 174.988 74.3573 174.988 74.272C174.988 74.1013 175.052 73.952 175.18 73.824C175.308 73.6747 175.468 73.6 175.66 73.6H179.02C179.34 73.6 179.586 73.696 179.756 73.888C179.948 74.0587 180.066 74.2187 180.108 74.368L185.1 90.016L190.06 74.368C190.124 74.2187 190.242 74.0587 190.412 73.888C190.583 73.696 190.828 73.6 191.148 73.6H194.508C194.7 73.6 194.86 73.6747 194.988 73.824C195.116 73.952 195.18 74.1013 195.18 74.272C195.18 74.3573 195.17 74.4533 195.148 74.56L188.428 95.072C188.364 95.328 188.226 95.552 188.012 95.744C187.82 95.9147 187.543 96 187.18 96H182.988ZM199.168 96C198.933 96 198.741 95.9253 198.592 95.776C198.443 95.6267 198.368 95.4347 198.368 95.2V74.4C198.368 74.1653 198.443 73.9733 198.592 73.824C198.741 73.6747 198.933 73.6 199.168 73.6H202.784C203.019 73.6 203.211 73.6747 203.36 73.824C203.509 73.9733 203.584 74.1653 203.584 74.4V95.2C203.584 95.4347 203.509 95.6267 203.36 95.776C203.211 95.9253 203.019 96 202.784 96H199.168ZM214.77 96C214.428 96 214.151 95.9147 213.938 95.744C213.746 95.552 213.607 95.328 213.522 95.072L206.802 74.56C206.78 74.4533 206.77 74.3573 206.77 74.272C206.77 74.1013 206.834 73.952 206.962 73.824C207.09 73.6747 207.25 73.6 207.442 73.6H210.802C211.122 73.6 211.367 73.696 211.538 73.888C211.73 74.0587 211.847 74.2187 211.89 74.368L216.882 90.016L221.842 74.368C221.906 74.2187 222.023 74.0587 222.194 73.888C222.364 73.696 222.61 73.6 222.93 73.6H226.29C226.482 73.6 226.642 73.6747 226.77 73.824C226.898 73.952 226.962 74.1013 226.962 74.272C226.962 74.3573 226.951 74.4533 226.93 74.56L220.21 95.072C220.146 95.328 220.007 95.552 219.794 95.744C219.602 95.9147 219.324 96 218.962 96H214.77ZM238.389 96.32C236.448 96.32 234.773 96 233.365 95.36C231.957 94.72 230.858 93.76 230.069 92.48C229.28 91.1787 228.853 89.5467 228.789 87.584C228.768 86.6667 228.757 85.76 228.757 84.864C228.757 83.9467 228.768 83.0187 228.789 82.08C228.853 80.16 229.28 78.5493 230.069 77.248C230.88 75.9253 231.989 74.9333 233.397 74.272C234.826 73.6107 236.49 73.28 238.389 73.28C240.266 73.28 241.909 73.6107 243.317 74.272C244.746 74.9333 245.866 75.9253 246.677 77.248C247.488 78.5493 247.914 80.16 247.957 82.08C248 83.0187 248.021 83.9467 248.021 84.864C248.021 85.76 248 86.6667 247.957 87.584C247.893 89.5467 247.466 91.1787 246.677 92.48C245.888 93.76 244.789 94.72 243.381 95.36C241.973 96 240.309 96.32 238.389 96.32ZM238.389 92.192C239.626 92.192 240.64 91.8187 241.429 91.072C242.24 90.304 242.666 89.088 242.709 87.424C242.752 86.4853 242.773 85.6107 242.773 84.8C242.773 83.968 242.752 83.0933 242.709 82.176C242.688 81.0667 242.485 80.16 242.101 79.456C241.717 78.752 241.205 78.24 240.565 77.92C239.946 77.5787 239.221 77.408 238.389 77.408C237.557 77.408 236.821 77.5787 236.181 77.92C235.541 78.24 235.029 78.752 234.645 79.456C234.282 80.16 234.08 81.0667 234.037 82.176C234.016 83.0933 234.005 83.968 234.005 84.8C234.005 85.6107 234.016 86.4853 234.037 87.424C234.101 89.088 234.528 90.304 235.317 91.072C236.106 91.8187 237.13 92.192 238.389 92.192Z" fill="white"/>
<circle cx="107" cy="85" r="7" fill="white"/>
</g>
<defs>
<filter id="filter0_d_368_27" x="0" y="0" width="372" height="79" filterUnits="userSpaceOnUse" color-interpolation-filters="sRGB">
<feFlood flood-opacity="0" result="BackgroundImageFix"/>
<feColorMatrix in="SourceAlpha" type="matrix" values="0 0 0 0 0 0 0 0 0 0 0 0 0 0 0 0 0 0 127 0" result="hardAlpha"/>
<feOffset dx="4" dy="4"/>
<feGaussianBlur stdDeviation="3"/>
<feComposite in2="hardAlpha" operator="out"/>
<feColorMatrix type="matrix" values="0 0 0 0 0 0 0 0 0 0 0 0 0 0 0 0 0 0 0.1 0"/>
<feBlend mode="normal" in2="BackgroundImageFix" result="effect1_dropShadow_368_27"/>
<feBlend mode="normal" in="SourceGraphic" in2="effect1_dropShadow_368_27" result="shape"/>
</filter>
<filter id="filter1_d_368_27" x="76" y="62" width="207" height="54.1176" filterUnits="userSpaceOnUse" color-interpolation-filters="sRGB">
<feFlood flood-opacity="0" result="BackgroundImageFix"/>
<feColorMatrix in="SourceAlpha" type="matrix" values="0 0 0 0 0 0 0 0 0 0 0 0 0 0 0 0 0 0 127 0" result="hardAlpha"/>
<feOffset dx="4" dy="4"/>
<feGaussianBlur stdDeviation="2"/>
<feComposite in2="hardAlpha" operator="out"/>
<feColorMatrix type="matrix" values="0 0 0 0 0 0 0 0 0 0 0 0 0 0 0 0 0 0 0.1 0"/>
<feBlend mode="normal" in2="BackgroundImageFix" result="effect1_dropShadow_368_27"/>
<feBlend mode="normal" in="SourceGraphic" in2="effect1_dropShadow_368_27" result="shape"/>
</filter>
</defs>
</svg>
