<svg width="294" height="117" viewBox="0 0 294 117" fill="none" xmlns="http://www.w3.org/2000/svg">
<g filter="url(#filter0_d_368_27)">
<rect x="2" y="2" width="282" height="67" rx="11" fill="#FFC007"/>
<path d="M48.6415 49.4C46.2148 49.4 44.1215 49 42.3615 48.2C40.6015 47.4 39.2281 46.2 38.2415 44.6C37.2548 42.9733 36.7215 40.9333 36.6415 38.48C36.6148 37.3333 36.6015 36.2 36.6015 35.08C36.6015 33.9333 36.6148 32.7733 36.6415 31.6C36.7215 29.2 37.2548 27.1867 38.2415 25.56C39.2548 23.9067 40.6415 22.6667 42.4015 21.84C44.1881 21.0133 46.2681 20.6 48.6415 20.6C50.9881 20.6 53.0415 21.0133 54.8015 21.84C56.5881 22.6667 57.9881 23.9067 59.0015 25.56C60.0148 27.1867 60.5481 29.2 60.6015 31.6C60.6548 32.7733 60.6815 33.9333 60.6815 35.08C60.6815 36.2 60.6548 37.3333 60.6015 38.48C60.5215 40.9333 59.9881 42.9733 59.0015 44.6C58.0148 46.2 56.6415 47.4 54.8815 48.2C53.1215 49 51.0415 49.4 48.6415 49.4ZM48.6415 44.24C50.1881 44.24 51.4548 43.7733 52.4415 42.84C53.4548 41.88 53.9881 40.36 54.0415 38.28C54.0948 37.1067 54.1215 36.0133 54.1215 35C54.1215 33.96 54.0948 32.8667 54.0415 31.72C54.0148 30.3333 53.7615 29.2 53.2815 28.32C52.8015 27.44 52.1615 26.8 51.3615 26.4C50.5881 25.9733 49.6815 25.76 48.6415 25.76C47.6015 25.76 46.6815 25.9733 45.8815 26.4C45.0815 26.8 44.4415 27.44 43.9615 28.32C43.5081 29.2 43.2548 30.3333 43.2015 31.72C43.1748 32.8667 43.1615 33.96 43.1615 35C43.1615 36.0133 43.1748 37.1067 43.2015 38.28C43.2815 40.36 43.8148 41.88 44.8015 42.84C45.7881 43.7733 47.0681 44.24 48.6415 44.24ZM77.0865 49.4C74.7398 49.4 72.6865 49.0133 70.9265 48.24C69.1665 47.44 67.8065 46.2267 66.8465 44.6C65.8865 42.9467 65.4065 40.8533 65.4065 38.32V22C65.4065 21.7067 65.4998 21.4667 65.6865 21.28C65.8731 21.0933 66.1131 21 66.4065 21H70.7665C71.0598 21 71.2998 21.0933 71.4865 21.28C71.6731 21.4667 71.7665 21.7067 71.7665 22V38.28C71.7665 40.2533 72.2331 41.72 73.1665 42.68C74.0998 43.64 75.4065 44.12 77.0865 44.12C78.7398 44.12 80.0331 43.64 80.9665 42.68C81.8998 41.72 82.3665 40.2533 82.3665 38.28V22C82.3665 21.7067 82.4598 21.4667 82.6465 21.28C82.8598 21.0933 83.0998 21 83.3665 21H87.7665C88.0331 21 88.2598 21.0933 88.4465 21.28C88.6331 21.4667 88.7265 21.7067 88.7265 22V38.32C88.7265 40.8533 88.2465 42.9467 87.2865 44.6C86.3265 46.2267 84.9798 47.44 83.2465 48.24C81.5131 49.0133 79.4598 49.4 77.0865 49.4ZM105.316 57.8C104.623 57.8 103.983 57.68 103.396 57.44C102.81 57.2 102.396 56.92 102.156 56.6C101.916 56.28 101.916 56 102.156 55.76L102.876 55.12C103.116 54.9067 103.316 54.84 103.476 54.92C103.663 55.0267 103.89 55.16 104.156 55.32C104.423 55.48 104.81 55.56 105.316 55.56C105.743 55.56 106.09 55.44 106.356 55.2C106.623 54.96 106.756 54.6533 106.756 54.28C106.756 53.9333 106.623 53.64 106.356 53.4C106.09 53.16 105.743 53.04 105.316 53.04C104.996 53.04 104.703 53.08 104.436 53.16C104.17 53.2667 103.916 53.3333 103.676 53.36C103.463 53.3867 103.263 53.3067 103.076 53.12L102.316 52.36C102.156 52.2 102.09 52.0133 102.116 51.8C102.143 51.6133 102.223 51.3733 102.356 51.08L103.156 49.24C101.156 49 99.4498 48.44 98.0365 47.56C96.6231 46.6533 95.5298 45.4533 94.7565 43.96C94.0098 42.44 93.5831 40.64 93.4765 38.56C93.4498 37.4667 93.4365 36.2933 93.4365 35.04C93.4365 33.7867 93.4498 32.5867 93.4765 31.44C93.5831 29.1467 94.1165 27.2 95.0765 25.6C96.0631 23.9733 97.4365 22.7333 99.1965 21.88C100.956 21.0267 103.063 20.6 105.516 20.6C107.303 20.6 108.93 20.8267 110.396 21.28C111.863 21.7333 113.13 22.3867 114.196 23.24C115.263 24.0933 116.09 25.0933 116.676 26.24C117.263 27.3867 117.583 28.6667 117.636 30.08C117.636 30.32 117.543 30.52 117.356 30.68C117.196 30.84 116.996 30.92 116.756 30.92H112.196C111.876 30.92 111.623 30.84 111.436 30.68C111.25 30.52 111.103 30.2533 110.996 29.88C110.596 28.3067 109.93 27.2267 108.996 26.64C108.063 26.0533 106.903 25.76 105.516 25.76C103.863 25.76 102.556 26.2133 101.596 27.12C100.636 28.0267 100.116 29.5333 100.036 31.64C99.9565 33.8267 99.9565 36.0667 100.036 38.36C100.116 40.4667 100.636 41.9733 101.596 42.88C102.556 43.7867 103.863 44.24 105.516 44.24C106.903 44.24 108.063 43.9467 108.996 43.36C109.956 42.7467 110.623 41.6667 110.996 40.12C111.103 39.72 111.25 39.4533 111.436 39.32C111.623 39.16 111.876 39.08 112.196 39.08H116.756C116.996 39.08 117.196 39.16 117.356 39.32C117.543 39.48 117.636 39.68 117.636 39.92C117.583 41.3333 117.263 42.6133 116.676 43.76C116.09 44.9067 115.263 45.9067 114.196 46.76C113.13 47.6133 111.863 48.2667 110.396 48.72C108.93 49.1733 107.303 49.4 105.516 49.4L104.716 51.04C104.876 50.96 105.09 50.8933 105.356 50.84C105.65 50.8133 105.876 50.8 106.036 50.8C106.996 50.8 107.756 51.12 108.316 51.76C108.903 52.4 109.196 53.2267 109.196 54.24C109.196 55.2533 108.85 56.0933 108.156 56.76C107.49 57.4533 106.543 57.8 105.316 57.8ZM120.139 49C119.899 49 119.699 48.92 119.539 48.76C119.379 48.5733 119.299 48.3733 119.299 48.16C119.299 48.0267 119.313 47.9067 119.339 47.8L128.859 22.08C128.939 21.7867 129.099 21.5333 129.339 21.32C129.579 21.1067 129.913 21 130.339 21H135.459C135.886 21 136.219 21.1067 136.459 21.32C136.699 21.5333 136.859 21.7867 136.939 22.08L146.459 47.8C146.486 47.9067 146.499 48.0267 146.499 48.16C146.499 48.3733 146.419 48.5733 146.259 48.76C146.099 48.92 145.899 49 145.659 49H141.499C141.099 49 140.806 48.9067 140.619 48.72C140.433 48.5333 140.313 48.36 140.259 48.2L138.539 43.72H127.259L125.539 48.2C125.486 48.36 125.366 48.5333 125.179 48.72C124.993 48.9067 124.699 49 124.299 49H120.139ZM128.739 38.56H137.019L132.899 27.04L128.739 38.56ZM155.1 49C154.86 49 154.66 48.92 154.5 48.76C154.34 48.5733 154.26 48.3733 154.26 48.16C154.26 48.0267 154.274 47.9067 154.3 47.8L163.82 22.08C163.9 21.7867 164.06 21.5333 164.3 21.32C164.54 21.1067 164.874 21 165.3 21H170.42C170.847 21 171.18 21.1067 171.42 21.32C171.66 21.5333 171.82 21.7867 171.9 22.08L181.42 47.8C181.447 47.9067 181.46 48.0267 181.46 48.16C181.46 48.3733 181.38 48.5733 181.22 48.76C181.06 48.92 180.86 49 180.62 49H176.46C176.06 49 175.767 48.9067 175.58 48.72C175.394 48.5333 175.274 48.36 175.22 48.2L173.5 43.72H162.22L160.5 48.2C160.447 48.36 160.327 48.5333 160.14 48.72C159.954 48.9067 159.66 49 159.26 49H155.1ZM163.7 38.56H171.98L167.86 27.04L163.7 38.56ZM202.238 51.6C201.838 51.6 201.518 51.48 201.278 51.24C201.065 51.0267 200.892 50.84 200.758 50.68L199.318 48.76C198.172 49.1867 196.865 49.4 195.398 49.4C192.972 49.4 190.878 49 189.118 48.2C187.358 47.4 185.985 46.2 184.998 44.6C184.038 42.9733 183.505 40.9333 183.398 38.48C183.372 37.3333 183.358 36.2 183.358 35.08C183.358 33.9333 183.372 32.7733 183.398 31.6C183.505 29.2 184.052 27.1867 185.038 25.56C186.052 23.9067 187.438 22.6667 189.198 21.84C190.985 21.0133 193.052 20.6 195.398 20.6C197.745 20.6 199.798 21.0133 201.558 21.84C203.345 22.6667 204.745 23.9067 205.758 25.56C206.772 27.1867 207.318 29.2 207.398 31.6C207.452 32.7733 207.478 33.9333 207.478 35.08C207.478 36.2 207.452 37.3333 207.398 38.48C207.238 41.8933 206.265 44.4933 204.478 46.28L207.358 50.36C207.385 50.3867 207.412 50.44 207.438 50.52C207.465 50.6 207.478 50.68 207.478 50.76C207.505 50.9733 207.438 51.16 207.278 51.32C207.118 51.5067 206.918 51.6 206.678 51.6H202.238ZM195.398 44.24C196.972 44.24 198.252 43.7733 199.238 42.84C200.225 41.88 200.758 40.36 200.838 38.28C200.892 37.1067 200.918 36.0133 200.918 35C200.918 33.96 200.892 32.8667 200.838 31.72C200.785 30.3333 200.518 29.2 200.038 28.32C199.585 27.44 198.958 26.8 198.158 26.4C197.358 25.9733 196.438 25.76 195.398 25.76C194.385 25.76 193.478 25.9733 192.678 26.4C191.878 26.8 191.238 27.44 190.758 28.32C190.278 29.2 190.012 30.3333 189.958 31.72C189.932 32.8667 189.918 33.96 189.918 35C189.918 36.0133 189.932 37.1067 189.958 38.28C190.038 40.36 190.572 41.88 191.558 42.84C192.572 43.7733 193.852 44.24 195.398 44.24ZM223.883 49.4C221.537 49.4 219.483 49.0133 217.723 48.24C215.963 47.44 214.603 46.2267 213.643 44.6C212.683 42.9467 212.203 40.8533 212.203 38.32V22C212.203 21.7067 212.297 21.4667 212.483 21.28C212.67 21.0933 212.91 21 213.203 21H217.563C217.857 21 218.097 21.0933 218.283 21.28C218.47 21.4667 218.563 21.7067 218.563 22V38.28C218.563 40.2533 219.03 41.72 219.963 42.68C220.897 43.64 222.203 44.12 223.883 44.12C225.537 44.12 226.83 43.64 227.763 42.68C228.697 41.72 229.163 40.2533 229.163 38.28V22C229.163 21.7067 229.257 21.4667 229.443 21.28C229.657 21.0933 229.897 21 230.163 21H234.563C234.83 21 235.057 21.0933 235.243 21.28C235.43 21.4667 235.523 21.7067 235.523 22V38.32C235.523 40.8533 235.043 42.9467 234.083 44.6C233.123 46.2267 231.777 47.44 230.043 48.24C228.31 49.0133 226.257 49.4 223.883 49.4ZM242.193 49C241.9 49 241.66 48.9067 241.473 48.72C241.287 48.5333 241.193 48.2933 241.193 48V22C241.193 21.7067 241.287 21.4667 241.473 21.28C241.66 21.0933 241.9 21 242.193 21H246.713C247.007 21 247.247 21.0933 247.433 21.28C247.62 21.4667 247.713 21.7067 247.713 22V48C247.713 48.2933 247.62 48.5333 247.433 48.72C247.247 48.9067 247.007 49 246.713 49H242.193Z" fill="#541084"/>
</g>
<g filter="url(#filter1_d_368_27)">
<rect x="43" y="62" width="199" height="46.1176" rx="11" fill="#FF0000"/>
<path d="M91.431 96C91.239 96 91.079 95.936 90.951 95.808C90.823 95.6587 90.759 95.4987 90.759 95.328C90.759 95.2213 90.7697 95.1253 90.791 95.04L98.407 74.464C98.471 74.2293 98.599 74.0267 98.791 73.856C98.983 73.6853 99.2497 73.6 99.591 73.6H103.687C104.028 73.6 104.295 73.6853 104.487 73.856C104.679 74.0267 104.807 74.2293 104.871 74.464L112.487 95.04C112.508 95.1253 112.519 95.2213 112.519 95.328C112.519 95.4987 112.455 95.6587 112.327 95.808C112.199 95.936 112.039 96 111.847 96H108.519C108.199 96 107.964 95.9253 107.815 95.776C107.666 95.6267 107.57 95.488 107.527 95.36L106.151 91.776H97.127L95.751 95.36C95.7083 95.488 95.6123 95.6267 95.463 95.776C95.3137 95.9253 95.079 96 94.759 96H91.431ZM98.311 87.648H104.935L101.639 78.432L98.311 87.648ZM123.702 96.32C121.76 96.32 120.086 96 118.678 95.36C117.27 94.72 116.171 93.76 115.382 92.48C114.592 91.1787 114.166 89.5467 114.102 87.584C114.08 86.6667 114.07 85.76 114.07 84.864C114.07 83.9467 114.08 83.0187 114.102 82.08C114.166 80.16 114.592 78.5493 115.382 77.248C116.192 75.9253 117.302 74.9333 118.71 74.272C120.139 73.6107 121.803 73.28 123.702 73.28C125.579 73.28 127.222 73.6107 128.63 74.272C130.059 74.9333 131.179 75.9253 131.99 77.248C132.8 78.5493 133.227 80.16 133.27 82.08C133.312 83.0187 133.334 83.9467 133.334 84.864C133.334 85.76 133.312 86.6667 133.27 87.584C133.206 89.5467 132.779 91.1787 131.99 92.48C131.2 93.76 130.102 94.72 128.694 95.36C127.286 96 125.622 96.32 123.702 96.32ZM123.702 92.192C124.939 92.192 125.952 91.8187 126.742 91.072C127.552 90.304 127.979 89.088 128.022 87.424C128.064 86.4853 128.086 85.6107 128.086 84.8C128.086 83.968 128.064 83.0933 128.022 82.176C128 81.0667 127.798 80.16 127.414 79.456C127.03 78.752 126.518 78.24 125.878 77.92C125.259 77.5787 124.534 77.408 123.702 77.408C122.87 77.408 122.134 77.5787 121.494 77.92C120.854 78.24 120.342 78.752 119.958 79.456C119.595 80.16 119.392 81.0667 119.35 82.176C119.328 83.0933 119.318 83.968 119.318 84.8C119.318 85.6107 119.328 86.4853 119.35 87.424C119.414 89.088 119.84 90.304 120.63 91.072C121.419 91.8187 122.443 92.192 123.702 92.192ZM149.988 96C149.647 96 149.37 95.9147 149.156 95.744C148.964 95.552 148.826 95.328 148.74 95.072L142.02 74.56C141.999 74.4533 141.988 74.3573 141.988 74.272C141.988 74.1013 142.052 73.952 142.18 73.824C142.308 73.6747 142.468 73.6 142.66 73.6H146.02C146.34 73.6 146.586 73.696 146.756 73.888C146.948 74.0587 147.066 74.2187 147.108 74.368L152.1 90.016L157.06 74.368C157.124 74.2187 157.242 74.0587 157.412 73.888C157.583 73.696 157.828 73.6 158.148 73.6H161.508C161.7 73.6 161.86 73.6747 161.988 73.824C162.116 73.952 162.18 74.1013 162.18 74.272C162.18 74.3573 162.17 74.4533 162.148 74.56L155.428 95.072C155.364 95.328 155.226 95.552 155.012 95.744C154.82 95.9147 154.543 96 154.18 96H149.988ZM166.168 96C165.933 96 165.741 95.9253 165.592 95.776C165.443 95.6267 165.368 95.4347 165.368 95.2V74.4C165.368 74.1653 165.443 73.9733 165.592 73.824C165.741 73.6747 165.933 73.6 166.168 73.6H169.784C170.019 73.6 170.211 73.6747 170.36 73.824C170.509 73.9733 170.584 74.1653 170.584 74.4V95.2C170.584 95.4347 170.509 95.6267 170.36 95.776C170.211 95.9253 170.019 96 169.784 96H166.168ZM181.77 96C181.428 96 181.151 95.9147 180.938 95.744C180.746 95.552 180.607 95.328 180.522 95.072L173.802 74.56C173.78 74.4533 173.77 74.3573 173.77 74.272C173.77 74.1013 173.834 73.952 173.962 73.824C174.09 73.6747 174.25 73.6 174.442 73.6H177.802C178.122 73.6 178.367 73.696 178.538 73.888C178.73 74.0587 178.847 74.2187 178.89 74.368L183.882 90.016L188.842 74.368C188.906 74.2187 189.023 74.0587 189.194 73.888C189.364 73.696 189.61 73.6 189.93 73.6H193.29C193.482 73.6 193.642 73.6747 193.77 73.824C193.898 73.952 193.962 74.1013 193.962 74.272C193.962 74.3573 193.951 74.4533 193.93 74.56L187.21 95.072C187.146 95.328 187.007 95.552 186.794 95.744C186.602 95.9147 186.324 96 185.962 96H181.77ZM205.389 96.32C203.448 96.32 201.773 96 200.365 95.36C198.957 94.72 197.858 93.76 197.069 92.48C196.28 91.1787 195.853 89.5467 195.789 87.584C195.768 86.6667 195.757 85.76 195.757 84.864C195.757 83.9467 195.768 83.0187 195.789 82.08C195.853 80.16 196.28 78.5493 197.069 77.248C197.88 75.9253 198.989 74.9333 200.397 74.272C201.826 73.6107 203.49 73.28 205.389 73.28C207.266 73.28 208.909 73.6107 210.317 74.272C211.746 74.9333 212.866 75.9253 213.677 77.248C214.488 78.5493 214.914 80.16 214.957 82.08C215 83.0187 215.021 83.9467 215.021 84.864C215.021 85.76 215 86.6667 214.957 87.584C214.893 89.5467 214.466 91.1787 213.677 92.48C212.888 93.76 211.789 94.72 210.381 95.36C208.973 96 207.309 96.32 205.389 96.32ZM205.389 92.192C206.626 92.192 207.64 91.8187 208.429 91.072C209.24 90.304 209.666 89.088 209.709 87.424C209.752 86.4853 209.773 85.6107 209.773 84.8C209.773 83.968 209.752 83.0933 209.709 82.176C209.688 81.0667 209.485 80.16 209.101 79.456C208.717 78.752 208.205 78.24 207.565 77.92C206.946 77.5787 206.221 77.408 205.389 77.408C204.557 77.408 203.821 77.5787 203.181 77.92C202.541 78.24 202.029 78.752 201.645 79.456C201.282 80.16 201.08 81.0667 201.037 82.176C201.016 83.0933 201.005 83.968 201.005 84.8C201.005 85.6107 201.016 86.4853 201.037 87.424C201.101 89.088 201.528 90.304 202.317 91.072C203.106 91.8187 204.13 92.192 205.389 92.192Z" fill="white"/>
<circle cx="74" cy="85" r="7" fill="white"/>
</g>
<defs>
<filter id="filter0_d_368_27" x="0" y="0" width="294" height="79" filterUnits="userSpaceOnUse" color-interpolation-filters="sRGB">
<feFlood flood-opacity="0" result="BackgroundImageFix"/>
<feColorMatrix in="SourceAlpha" type="matrix" values="0 0 0 0 0 0 0 0 0 0 0 0 0 0 0 0 0 0 127 0" result="hardAlpha"/>
<feOffset dx="4" dy="4"/>
<feGaussianBlur stdDeviation="3"/>
<feComposite in2="hardAlpha" operator="out"/>
<feColorMatrix type="matrix" values="0 0 0 0 0 0 0 0 0 0 0 0 0 0 0 0 0 0 0.1 0"/>
<feBlend mode="normal" in2="BackgroundImageFix" result="effect1_dropShadow_368_27"/>
<feBlend mode="normal" in="SourceGraphic" in2="effect1_dropShadow_368_27" result="shape"/>
</filter>
<filter id="filter1_d_368_27" x="43" y="62" width="207" height="54.1176" filterUnits="userSpaceOnUse" color-interpolation-filters="sRGB">
<feFlood flood-opacity="0" result="BackgroundImageFix"/>
<feColorMatrix in="SourceAlpha" type="matrix" values="0 0 0 0 0 0 0 0 0 0 0 0 0 0 0 0 0 0 127 0" result="hardAlpha"/>
<feOffset dx="4" dy="4"/>
<feGaussianBlur stdDeviation="2"/>
<feComposite in2="hardAlpha" operator="out"/>
<feColorMatrix type="matrix" values="0 0 0 0 0 0 0 0 0 0 0 0 0 0 0 0 0 0 0.1 0"/>
<feBlend mode="normal" in2="BackgroundImageFix" result="effect1_dropShadow_368_27"/>
<feBlend mode="normal" in="SourceGraphic" in2="effect1_dropShadow_368_27" result="shape"/>
</filter>
</defs>
</svg>
