<?xml version="1.0" encoding="UTF-8"?>
<svg id="Camada_1" data-name="Camada 1" xmlns="http://www.w3.org/2000/svg" xmlns:xlink="http://www.w3.org/1999/xlink" viewBox="0 0 625.07 768">
  <defs>
    <style>
      .cls-1 {
        fill: red;
      }

      .cls-1, .cls-2, .cls-3 {
        stroke-width: 0px;
      }

      .cls-2 {
        fill: none;
      }

      .cls-4 {
        clip-path: url(#clippath-1);
      }

      .cls-3 {
        fill: #fff;
      }

      .cls-5 {
        clip-path: url(#clippath);
      }
    </style>
    <clipPath id="clippath">
      <rect class="cls-2" width="625.07" height="768"/>
    </clipPath>
    <clipPath id="clippath-1">
      <rect class="cls-2" width="625.07" height="768"/>
    </clipPath>
  </defs>
  <g id="Artwork_25" data-name="Artwork 25">
    <g class="cls-5">
      <g class="cls-4">
        <path class="cls-1" d="m433.1,236.49c4.72,59.45-27.81,110.54-72.66,114.1-44.85,3.57-85.04-41.74-89.77-101.19-4.72-59.45,27.81-110.54,72.66-114.1,44.85-3.57,85.04,41.74,89.77,101.19"/>
        <path class="cls-3" d="m257.7,690.9c-11.36,0-21.52-4.45-29.36-12.86-2.6-2.76-5.11-6.06-8.3-10.96-.08-.12-.15-.24-.23-.37-6.37-10.32-11.18-22.09-15.11-37.04-4.52-17.26-7.72-36.03-9.8-57.41-1.86-18.73-2.97-39.99-3.61-68.88-.04-.79-.03-1.94,0-3.11,0-.47.02-.95.01-1.46,0-.37,0-.73,0-1.1.02-.6.04-1.19.07-1.78l-15.53.99c-11.83.74-23.39,1.47-34.96,2.05-14.56.71-29.08,1.24-43.61,1.78l-13.05.47c-1.21.02-2.11.03-3.02.03-2.39,0-4.79-.06-7.19-.15l-2.53-.05c-6.15-.2-11.53-2.31-16.21-6.27-10.24-8.44-16.77-19.69-19.25-33.28-1.4-7.87-1.82-15.37-1.32-23.01.73-10.39,5.04-20.04,12.83-28.76,3.91-4.37,9-7.43,14.34-8.63,4.46-1,8.15-1.69,13.89-2.25,0,0,46.38-4.38,52.38-4.94,13.96-1.34,27.92-2.69,42-4.1,3.72-.38,7.5-.83,11.27-1.27l9.49-1.11c1.32-.14,2.75-.68,4.42-1.5l.37-4.87c.21-2.53.41-5.02.57-7.51,1.23-19.59,3.29-41.39,6.5-68.62.9-7.75,2.18-15.52,3.41-23.04l1.16-7.25c1.91-11.54,3.8-22.92,5.81-34.31,1.54-8.93,3.32-16.2,5.59-22.81.1-.31,1.39-3.61,1.39-3.61.06-.2.08-.26.15-.46,1.08-3.15,2.38-5.9,3.94-8.43,0,0,1.43-2.19,1.55-2.36,1.04-1.49,2.1-2.66,3.09-3.74,2.02-2.25,4.38-4.31,6.89-5.97,7.3-5.01,16.12-7.69,25.55-7.77h.04c.77,0,1.36.02,1.95.05,2.57,0,5.56.1,8.68.75,12.62,2.37,23.18,9.94,30.15,21.82,5.95,10.11,8.25,21.21,9.46,28.68,1.14,6.85,1.35,14.1.63,22.09-1.28,14.93-2.58,30.01-3.81,45.02-1.48,16.52-2.54,32.97-3.39,47.21,14.21-5.97,26.68-12.27,38-19.18,8.38-5.15,16.72-11.38,26.18-19.56,8.64-7.44,15.99-14.74,22.47-22.34,8.72-10.21,15.81-21.57,21.08-33.78,2.94-6.93,4.44-12.56,4.83-18.14.06-1.36.25-3.01.57-4.8.03-.34.08-.68.13-1.01,1.7-11.04-.7-21.14-7.35-30.86-3.24-4.74-7.59-8.96-13.28-12.9-13.39-9.43-28.82-16.82-45.99-22.02-15.57-4.8-32.38-8.35-51.49-10.88-20.6-2.75-41.13-4.14-61.03-4.14-8.67,0-17.32.27-25.7.8-17.28,1.05-31.58,2.53-45.28,6.35-8.1,2.18-15.83,3.26-23.13,3.26-5.96-.08-9.61-.62-12.71-1.19-7.2-1.37-17.05-5.66-23.75-18.46-3.95-7.54-2.88-15.89-2.36-19.9,1.35-10.53,8.83-23.12,13.54-29.03,6.65-8.19,14.39-15.16,23.13-20.86,17.12-11.15,35.57-18.79,54.84-22.71,15.57-3.13,31.63-4.87,47.77-5.18h.61c3.85-.07,7.64-.12,11.5-.12,14.19,0,26.56.53,37.83,1.61,47.62,4.44,89.27,14.34,127.28,30.24,20.44,8.56,38.41,18.62,54.93,30.74,16.74,12.31,30.8,27.2,41.81,44.27,13.74,21.29,20.38,44.99,20.31,72.43-.13,27.92-7.76,54.5-23.33,81.31-12.27,21.14-28.06,40.46-48.27,59.04-21.98,20.33-47.4,39.06-77.64,57.21-26.71,16.1-55.19,30.04-87.05,42.62l-2.16.89c-1.12,14.44-2.04,29.83-1.14,44.7.28,4.38.48,9.03.62,14.57.17,5,.39,10.14.73,15.22.74,11,1.55,19.03,2.56,25.24,1.06,6.54,2.49,12.31,4.49,18.18,4,11.74,7.74,23.31,9.59,35.83.74,4.97,1.76,11.82,2.11,18.68.62,11.44-1.16,19.62-6.12,28.2-3.2,5.54-10.37,12.25-17.03,15.95-13.17,7.32-26.14,9.04-35.96,9.73-1.03.08-2.24.13-3.43.13"/>
        <path class="cls-1" d="m257.56,62.47c13.28,0,25.09.47,36.07,1.53,46,4.29,85.88,13.81,121.95,28.9,19.21,8.05,35.95,17.45,51.17,28.61,14.86,10.92,27.43,24.2,37.24,39.42,11.75,18.21,17.44,38.6,17.39,62.45-.12,24.56-6.93,48.17-20.86,72.14-11.28,19.45-25.91,37.36-44.82,54.75-21.14,19.56-45.59,37.54-74.66,54.99-26.02,15.68-53.69,29.2-84.53,41.36l-1.12.47c-.59.24-1.17.47-1.76.65-3.88,1.12-8.76,4.11-10.28,12.16-.18.94-.24,1.88-.35,3-1.12,14.27-2.17,30.9-1.17,47.41.29,4.64.47,9.28.59,13.92.18,5.35.41,10.69.76,15.98.65,9.64,1.48,19.07,2.76,26.96.97,5.95,2.47,13.04,5.23,21.15,3.7,10.87,7.17,21.5,8.81,32.6.77,5.11,1.65,11.1,1.94,16.92.41,7.64-.45,12.52-3.68,18.09-1.28,2.21-5.75,6.71-10.07,9.11-9.35,5.2-19.03,6.81-28.32,7.46-.73.06-1.45.09-2.15.09-6.32,0-11.61-2.37-15.94-7.02-2-2.11-3.94-4.76-6.34-8.46-5.4-8.75-9.52-18.92-12.98-32.07-4.23-16.16-7.29-33.96-9.28-54.52-1.94-19.56-2.94-40.96-3.53-67.51-.06-1.47.04-2.94,0-4.57.06-1.59.12-3.11.12-4.76-.06-2.35-.18-5.05-1-7.64-1.12-3.76-3.52-8.81-11.69-8.81l-18.33,1.17c-13.16.82-25.97,1.65-38.77,2.29-14.45.7-28.9,1.23-43.35,1.76l-13.04.47c-.79.02-1.58.02-2.36.02-2.15,0-4.3-.05-6.45-.14l-2.88-.06c-1.76-.06-3.23-.65-4.76-1.94-7.05-5.81-11.34-13.21-13.04-22.56-1.11-6.28-1.47-12.33-1.06-18.5.41-5.87,2.86-11.78,8.21-17.76,1.37-1.53,3.09-2.6,4.68-2.96,4.03-.9,6.91-1.43,11.67-1.89l16.33-1.53c11.98-1.12,23.97-2.29,35.95-3.41,14.04-1.35,28.02-2.7,42.12-4.11,4-.41,7.99-.88,11.98-1.35,3-.35,5.99-.7,9.05-1.06,5.05-.53,9.28-2.59,13.16-4.7,4.34-2.47,6.93-6.52,7.28-11.51l.47-6.23c.23-2.88.47-5.7.64-8.52,1.23-19.62,3.29-41.12,6.4-67.61.88-7.58,2.18-15.39,3.41-22.91l1.06-6.64c1.88-11.34,3.76-22.68,5.76-34.02,1.41-8.16,2.94-14.39,4.87-20.03.24-.59.47-1.23.7-1.82.3-.77.59-1.47.82-2.23.59-1.7,1.29-3.29,2.18-4.7l1-1.52c.41-.59.94-1.18,1.59-1.88,1.06-1.17,2.29-2.29,3.64-3.17,3.46-2.41,8.52-4.58,15.45-4.64.65,0,1.23.06,1.88.06,1.82,0,3.46.06,4.87.35,7.82,1.47,13.75,5.76,18.1,13.16,4.29,7.29,6.11,15.8,7.16,22.32.88,5.29,1.06,10.99.47,17.51-1.3,15.04-2.59,30.14-3.82,45.18-1.59,17.68-2.71,35.42-3.59,50.46-.18,3.35.06,6.64.35,9.46.18,2.23,1.12,4.52,2.47,6.41,1.97,2.66,4.85,4.37,7.91,4.37.59,0,1.19-.07,1.79-.2,2.29-.53,3.29-.94,4.52-1.41,18.68-7.34,34.66-15.15,48.99-23.91,9.16-5.64,18.27-12.4,28.61-21.32,9.28-7.99,17.27-15.92,24.44-24.32,9.99-11.69,18.04-24.67,23.97-38.42,3.76-8.87,5.76-16.51,6.29-24.14.06-1.23.23-2.41.47-3.59l.06-.7c2.41-15.62-1.06-30.43-10.34-44-4.47-6.52-10.34-12.34-17.97-17.62-14.92-10.52-32.13-18.74-51.11-24.5-16.56-5.11-34.42-8.87-54.4-11.52-21.44-2.86-42.74-4.29-63.44-4.29-9.08,0-18.04.28-26.85.83-18.33,1.12-33.66,2.7-49.05,6.99-6.34,1.7-12.51,2.59-18.21,2.59-4.52-.06-7.17-.47-9.4-.88-4.64-.88-8.1-3.76-10.81-8.93-1.29-2.47-.69-6.97-.41-9.16.64-5.03,5.35-14.39,9.69-19.86,5.35-6.58,11.69-12.28,18.8-16.91,15.15-9.87,31.43-16.63,48.46-20.09,14.34-2.88,29.31-4.52,44.47-4.82,3.94-.06,7.81-.12,11.75-.12m0-36.67c-4.07,0-8.09.06-12.16.12-.05,0-.24,0-.3,0-17.22.33-34.38,2.19-50.98,5.53-21.63,4.4-42.21,12.91-61.25,25.31-10.36,6.76-19.51,15.01-27.25,24.53-.08.1-.16.2-.24.29-5.53,6.96-15.42,22.79-17.37,38.04-.7,5.5-2.33,18.17,4.3,30.83,7.86,15.04,20.81,24.98,36.46,27.95,3.9.72,8.65,1.43,15.76,1.52.16,0,.32,0,.48,0,8.91,0,18.23-1.29,27.72-3.84.11-.03.22-.06.33-.09,12.2-3.4,24.9-4.71,41.44-5.71,8.07-.51,16.33-.76,24.62-.76,1.25,0,2.49,0,3.74.02-6.22,1.84-12.07,4.6-17.4,8.23-3.69,2.47-7.14,5.46-10.25,8.89-.99,1.08-2.74,3.01-4.51,5.54-.22.31-.43.63-.64.95l-1,1.53c-.14.21-.28.42-.41.64-2.31,3.71-4.19,7.69-5.74,12.18-.04.11-.07.22-.11.33h0s-.17.44-.17.44c-.16.42-.33.84-.49,1.27l-.14.37c-.23.57-.43,1.1-.63,1.68-2.6,7.55-4.6,15.72-6.33,25.71-2.01,11.4-3.93,23.02-5.8,34.25-.01.08-.02.15-.04.23l-1.06,6.64-.08.49c-1.27,7.74-2.58,15.74-3.54,23.95-3.13,26.62-5.19,48.19-6.45,67.64-3.3.39-6.59.77-9.87,1.1-13.95,1.39-27.88,2.74-41.88,4.09-5.91.55-11.94,1.13-17.96,1.7-5.96.57-11.92,1.14-17.88,1.7l-16.34,1.53c-6.84.68-11.28,1.5-16.28,2.63-9.05,2.03-17.57,7.11-24,14.3-10.56,11.82-16.43,25.15-17.44,39.64-.62,9.26-.11,18.21,1.53,27.48,3.3,18.07,11.92,32.93,25.68,44.33,7.75,6.48,17.09,10.08,27.01,10.41.15,0,.31,0,.47.01l2.53.05c2.71.1,5.18.15,7.54.15,1.03,0,2.07,0,3.1-.03.2,0,.39,0,.59-.02l13.04-.47c14.32-.53,29.12-1.06,43.82-1.78,10.56-.53,20.8-1.17,31.51-1.83.68,23.6,1.76,42.02,3.4,58.64,2.16,22.28,5.53,41.99,10.3,60.19,4.43,16.8,9.91,30.15,17.26,42.05.15.25.31.49.47.74,3.79,5.83,6.89,9.89,10.34,13.56,11.23,11.99,26.38,18.59,42.68,18.59,1.6,0,3.24-.07,4.86-.19,10.81-.76,27-2.85,43.43-11.98,9.68-5.38,19.09-14.33,24-22.8,8.61-14.89,9.1-28.36,8.55-38.43-.38-7.63-1.48-14.99-2.29-20.37-2.07-13.99-6.09-26.44-10.37-39-1.66-4.88-2.85-9.71-3.75-15.21-1.2-7.41-1.93-16.98-2.37-23.53-.28-4.26-.51-9.03-.7-14.58-.14-5.62-.35-10.59-.64-15.18-.6-9.98-.3-20.48.33-30.78,29.38-12.05,56.03-25.35,81.22-40.53,31.28-18.76,57.68-38.23,80.64-59.47,21.51-19.78,38.43-40.5,51.64-63.27,17.21-29.63,25.66-59.2,25.81-90.36.08-31.18-7.53-58.14-23.25-82.5-12.21-18.94-27.81-35.46-46.34-49.09-17.73-13.01-36.93-23.76-58.72-32.88-39.75-16.64-83.16-26.97-132.72-31.59-11.75-1.13-24.7-1.69-39.47-1.69m67.81,294.87c.38-5.06.8-10.19,1.26-15.3,0-.09.02-.19.02-.28,1.23-14.99,2.52-30.04,3.81-45.03.85-9.42.58-18.19-.84-26.67-1.42-8.77-4.22-22.13-11.74-34.9-6.98-11.89-16.61-20.7-28.27-26,2.69.31,5.4.65,8.09,1.01,18.1,2.4,33.94,5.73,48.43,10.21,15.46,4.69,29.14,11.21,40.79,19.43.09.06.17.12.25.18,3.81,2.64,6.63,5.32,8.59,8.19,3.99,5.84,5.34,11.3,4.35,17.69-.07.43-.12.85-.17,1.28-.36,2.14-.59,4.22-.71,6.28-.17,2.16-.74,5.73-3.4,12.04-4.54,10.48-10.64,20.25-18.13,29.02-5.88,6.89-12.58,13.54-20.48,20.34-8.74,7.55-16.32,13.22-23.91,17.89-2.58,1.57-5.23,3.12-7.96,4.63"/>
      </g>
    </g>
  </g>
</svg>