<svg width="756" height="822" viewBox="0 0 756 822" fill="none" xmlns="http://www.w3.org/2000/svg">
<g id="+">
<mask id="path-1-outside-1_162_25" maskUnits="userSpaceOnUse" x="41" y="127" width="674" height="670" fill="black">
<rect fill="white" x="41" y="127" width="674" height="670"/>
<path d="M343.045 782.4C335.045 782.4 328.245 779.6 322.645 774C317.045 768.4 314.245 761.6 314.245 753.6V519.6H83.8453C75.8453 519.6 69.0453 516.8 63.4453 511.2C57.8453 505.6 55.0453 498.8 55.0453 490.8V427.2C55.0453 418.4 57.8453 411.6 63.4453 406.8C69.0453 401.2 75.8453 398.4 83.8453 398.4H314.245V170.4C314.245 162.4 317.045 155.6 322.645 150C328.245 144.4 335.045 141.6 343.045 141.6H412.645C421.445 141.6 428.245 144.4 433.045 150C438.645 155.6 441.445 162.4 441.445 170.4V398.4H671.845C679.845 398.4 686.645 401.2 692.245 406.8C697.845 411.6 700.645 418.4 700.645 427.2V490.8C700.645 498.8 697.845 505.6 692.245 511.2C686.645 516.8 679.845 519.6 671.845 519.6H441.445V753.6C441.445 761.6 438.645 768.4 433.045 774C428.245 779.6 421.445 782.4 412.645 782.4H343.045Z"/>
</mask>
<path d="M322.645 774L332.545 764.101L332.545 764.101L322.645 774ZM314.245 519.6H328.245V505.6H314.245V519.6ZM63.4453 406.8L72.5564 417.43L72.9646 417.08L73.3448 416.699L63.4453 406.8ZM314.245 398.4V412.4H328.245V398.4H314.245ZM322.645 150L332.545 159.9L332.545 159.899L322.645 150ZM433.045 150L422.416 159.111L422.766 159.519L423.146 159.9L433.045 150ZM441.445 398.4H427.445V412.4H441.445V398.4ZM692.245 406.8L682.346 416.699L682.726 417.08L683.134 417.43L692.245 406.8ZM692.245 511.2L682.346 501.3L682.346 501.301L692.245 511.2ZM441.445 519.6V505.6H427.445V519.6H441.445ZM433.045 774L423.146 764.101L422.766 764.481L422.416 764.889L433.045 774ZM343.045 768.4C338.716 768.4 335.489 767.045 332.545 764.101L312.746 783.899C321.001 792.155 331.375 796.4 343.045 796.4V768.4ZM332.545 764.101C329.6 761.156 328.245 757.929 328.245 753.6H300.245C300.245 765.271 304.491 775.644 312.746 783.899L332.545 764.101ZM328.245 753.6V519.6H300.245V753.6H328.245ZM314.245 505.6H83.8453V533.6H314.245V505.6ZM83.8453 505.6C79.516 505.6 76.2895 504.245 73.3448 501.301L53.5458 521.099C61.8011 529.355 72.1747 533.6 83.8453 533.6V505.6ZM73.3448 501.301C70.4001 498.356 69.0453 495.129 69.0453 490.8H41.0453C41.0453 502.471 45.2905 512.844 53.5458 521.099L73.3448 501.301ZM69.0453 490.8V427.2H41.0453V490.8H69.0453ZM69.0453 427.2C69.0453 421.619 70.6629 419.053 72.5564 417.43L54.3342 396.17C45.0277 404.147 41.0453 415.181 41.0453 427.2H69.0453ZM73.3448 416.699C76.2895 413.755 79.516 412.4 83.8453 412.4V384.4C72.1747 384.4 61.8011 388.645 53.5458 396.9L73.3448 416.699ZM83.8453 412.4H314.245V384.4H83.8453V412.4ZM328.245 398.4V170.4H300.245V398.4H328.245ZM328.245 170.4C328.245 166.071 329.6 162.844 332.545 159.9L312.746 140.1C304.491 148.356 300.245 158.729 300.245 170.4H328.245ZM332.545 159.899C335.49 156.955 338.716 155.6 343.045 155.6V127.6C331.375 127.6 321.001 131.845 312.746 140.101L332.545 159.899ZM343.045 155.6H412.645V127.6H343.045V155.6ZM412.645 155.6C418.226 155.6 420.793 157.218 422.416 159.111L443.675 140.889C435.698 131.582 424.664 127.6 412.645 127.6V155.6ZM423.146 159.9C426.091 162.844 427.445 166.071 427.445 170.4H455.445C455.445 158.729 451.2 148.356 442.945 140.1L423.146 159.9ZM427.445 170.4V398.4H455.445V170.4H427.445ZM441.445 412.4H671.845V384.4H441.445V412.4ZM671.845 412.4C676.175 412.4 679.401 413.755 682.346 416.699L702.145 396.901C693.89 388.645 683.516 384.4 671.845 384.4V412.4ZM683.134 417.43C685.028 419.053 686.645 421.619 686.645 427.2H714.645C714.645 415.181 710.663 404.147 701.356 396.17L683.134 417.43ZM686.645 427.2V490.8H714.645V427.2H686.645ZM686.645 490.8C686.645 495.129 685.291 498.356 682.346 501.3L702.145 521.1C710.4 512.844 714.645 502.471 714.645 490.8H686.645ZM682.346 501.301C679.401 504.245 676.175 505.6 671.845 505.6V533.6C683.516 533.6 693.89 529.355 702.145 521.099L682.346 501.301ZM671.845 505.6H441.445V533.6H671.845V505.6ZM427.445 519.6V753.6H455.445V519.6H427.445ZM427.445 753.6C427.445 757.929 426.091 761.156 423.146 764.101L442.945 783.899C451.2 775.644 455.445 765.271 455.445 753.6H427.445ZM422.416 764.889C420.793 766.782 418.226 768.4 412.645 768.4V796.4C424.664 796.4 435.698 792.418 443.675 783.111L422.416 764.889ZM412.645 768.4H343.045V796.4H412.645V768.4Z" fill="url(#paint0_linear_162_25)" mask="url(#path-1-outside-1_162_25)"/>
</g>
<defs>
<linearGradient id="paint0_linear_162_25" x1="-57.8315" y1="464.987" x2="1460.15" y2="426.282" gradientUnits="userSpaceOnUse">
<stop stop-color="#51472B"/>
<stop offset="1" stop-color="#3A321C"/>
</linearGradient>
</defs>
</svg>
