<?xml version="1.0" encoding="UTF-8"?>
<svg id="Layer_1" data-name="Layer 1" xmlns="http://www.w3.org/2000/svg" viewBox="0 0 132.98 167.72">
  <defs>
    <style>
      .cls-1 {
        fill: red;
      }

      .cls-1, .cls-2 {
        stroke-width: 0px;
      }

      .cls-2 {
        fill: #fff;
      }
    </style>
  </defs>
  <ellipse class="cls-1" cx="82.39" cy="53.29" rx="19.99" ry="26.5" transform="translate(-3.96 6.69) rotate(-4.54)"/>
  <g>
    <path class="cls-2" d="m59.27,163.22c-2.79,0-5.28-1.09-7.2-3.15-.64-.68-1.25-1.49-2.04-2.69-.02-.03-.04-.06-.06-.09-1.56-2.53-2.74-5.42-3.71-9.09-1.11-4.24-1.9-8.84-2.41-14.09-.46-4.6-.73-9.81-.89-16.9,0-.2,0-.48,0-.76,0-.12,0-.23,0-.36,0-.09,0-.18,0-.27,0-.15.01-.29.02-.44l-3.81.24c-2.9.18-5.74.36-8.58.5-3.57.17-7.14.3-10.7.44l-3.2.12c-.3,0-.52,0-.74,0-.59,0-1.18-.01-1.76-.04h-.62c-1.51-.06-2.83-.58-3.98-1.55-2.51-2.07-4.11-4.83-4.72-8.17-.34-1.93-.45-3.77-.32-5.65.18-2.55,1.24-4.92,3.15-7.06.96-1.07,2.21-1.82,3.52-2.12,1.09-.25,2-.41,3.41-.55,0,0,11.38-1.08,12.85-1.21,3.43-.33,6.85-.66,10.31-1.01.91-.09,1.84-.2,2.77-.31l2.33-.27c.32-.03.68-.17,1.08-.37l.09-1.19c.05-.62.1-1.23.14-1.84.3-4.81.81-10.16,1.59-16.84.22-1.9.53-3.81.84-5.65l.28-1.78c.47-2.83.93-5.62,1.43-8.42.38-2.19.81-3.98,1.37-5.6.03-.07.34-.89.34-.89.02-.05.02-.06.04-.11.27-.77.58-1.45.97-2.07,0,0,.35-.54.38-.58.26-.37.52-.65.76-.92.5-.55,1.07-1.06,1.69-1.47,1.79-1.23,3.96-1.89,6.27-1.91h0c.19,0,.33,0,.48.01.63,0,1.36.02,2.13.18,3.1.58,5.69,2.44,7.4,5.35,1.46,2.48,2.02,5.2,2.32,7.04.28,1.68.33,3.46.16,5.42-.31,3.67-.63,7.36-.93,11.05-.36,4.06-.62,8.09-.83,11.59,3.49-1.46,6.55-3.01,9.33-4.71,2.06-1.27,4.1-2.79,6.43-4.8,2.12-1.83,3.92-3.62,5.51-5.48,2.14-2.5,3.88-5.29,5.17-8.29.72-1.7,1.09-3.08,1.19-4.45.02-.33.06-.74.14-1.18,0-.08.02-.17.03-.25.42-2.71-.17-5.19-1.8-7.57-.8-1.16-1.86-2.2-3.26-3.17-3.29-2.32-7.07-4.13-11.29-5.41-3.82-1.18-7.95-2.05-12.63-2.67-5.06-.67-10.09-1.02-14.98-1.02-2.13,0-4.25.07-6.31.2-4.24.26-7.75.62-11.11,1.56-1.99.53-3.88.8-5.68.8-1.46-.02-2.36-.15-3.12-.29-1.77-.33-4.18-1.39-5.83-4.53-.97-1.85-.71-3.9-.58-4.88.33-2.58,2.17-5.67,3.32-7.12,1.63-2.01,3.53-3.72,5.68-5.12,4.2-2.74,8.73-4.61,13.46-5.57,3.82-.77,7.76-1.19,11.72-1.27h.15c.94-.02,1.88-.03,2.82-.03,3.48,0,6.52.13,9.28.4,11.69,1.09,21.91,3.52,31.23,7.42,5.02,2.1,9.43,4.57,13.48,7.54,4.11,3.02,7.56,6.67,10.26,10.86,3.37,5.22,5,11.04,4.99,17.77-.03,6.85-1.91,13.38-5.73,19.95-3.01,5.19-6.89,9.93-11.85,14.49-5.39,4.99-11.63,9.58-19.05,14.04-6.55,3.95-13.55,7.37-21.36,10.46l-.53.22c-.28,3.54-.5,7.32-.28,10.97.07,1.08.12,2.22.15,3.58.04,1.23.1,2.49.18,3.74.18,2.7.38,4.67.63,6.19.26,1.6.61,3.02,1.1,4.46.98,2.88,1.9,5.72,2.35,8.79.18,1.22.43,2.9.52,4.58.15,2.81-.28,4.82-1.5,6.92-.79,1.36-2.54,3-4.18,3.91-3.23,1.8-6.41,2.22-8.82,2.39-.25.02-.55.03-.84.03Z"/>
    <path class="cls-1" d="m59.24,9c3.26,0,6.16.12,8.85.37,11.29,1.05,21.08,3.39,29.93,7.09,4.71,1.98,8.82,4.28,12.56,7.02,3.65,2.68,6.73,5.94,9.14,9.67,2.88,4.47,4.28,9.47,4.27,15.32-.03,6.03-1.7,11.82-5.12,17.7-2.77,4.77-6.36,9.17-11,13.44-5.19,4.8-11.19,9.21-18.32,13.49-6.39,3.85-13.18,7.16-20.75,10.15l-.27.12c-.14.06-.29.12-.43.16-.95.27-2.15,1.01-2.52,2.98-.04.23-.06.46-.09.74-.27,3.5-.53,7.58-.29,11.63.07,1.14.12,2.28.14,3.42.04,1.31.1,2.62.19,3.92.16,2.36.36,4.68.68,6.62.24,1.46.61,3.2,1.28,5.19.91,2.67,1.76,5.28,2.16,8,.19,1.25.4,2.72.48,4.15.1,1.87-.11,3.07-.9,4.44-.31.54-1.41,1.65-2.47,2.24-2.3,1.28-4.67,1.67-6.95,1.83-.18.01-.35.02-.53.02-1.55,0-2.85-.58-3.91-1.72-.49-.52-.97-1.17-1.56-2.08-1.33-2.15-2.34-4.64-3.19-7.87-1.04-3.96-1.79-8.33-2.28-13.38-.48-4.8-.72-10.05-.87-16.57-.01-.36,0-.72,0-1.12.01-.39.03-.76.03-1.17-.01-.58-.04-1.24-.25-1.87-.27-.92-.87-2.16-2.87-2.16l-4.5.29c-3.23.2-6.37.4-9.51.56-3.55.17-7.09.3-10.64.43l-3.2.12c-.19,0-.39,0-.58,0-.53,0-1.06-.01-1.58-.03h-.71c-.43-.03-.79-.17-1.17-.49-1.73-1.43-2.78-3.24-3.2-5.54-.27-1.54-.36-3.03-.26-4.54.1-1.44.7-2.89,2.01-4.36.34-.38.76-.64,1.15-.73.99-.22,1.7-.35,2.86-.47l4.01-.37c2.94-.27,5.88-.56,8.82-.84,3.45-.33,6.88-.66,10.34-1.01.98-.1,1.96-.22,2.94-.33.74-.09,1.47-.17,2.22-.26,1.24-.13,2.28-.63,3.23-1.15,1.07-.61,1.7-1.6,1.79-2.83l.12-1.53c.06-.71.12-1.4.16-2.09.3-4.82.81-10.09,1.57-16.59.22-1.86.53-3.78.84-5.62l.26-1.63c.46-2.78.92-5.56,1.41-8.35.35-2,.72-3.53,1.2-4.92.06-.14.12-.3.17-.45.07-.19.14-.36.2-.55.14-.42.32-.81.53-1.15l.25-.37c.1-.14.23-.29.39-.46.26-.29.56-.56.89-.78.85-.59,2.09-1.12,3.79-1.14.16,0,.3.01.46.01.45,0,.85.01,1.2.09,1.92.36,3.37,1.41,4.44,3.23,1.05,1.79,1.5,3.88,1.76,5.48.22,1.3.26,2.7.12,4.3-.32,3.69-.63,7.4-.94,11.09-.39,4.34-.66,8.69-.88,12.38-.04.82.01,1.63.09,2.32.04.55.27,1.11.61,1.57.48.65,1.19,1.07,1.94,1.07.15,0,.29-.02.44-.05.56-.13.81-.23,1.11-.35,4.58-1.8,8.51-3.72,12.02-5.87,2.25-1.38,4.48-3.04,7.02-5.23,2.28-1.96,4.24-3.91,6-5.97,2.45-2.87,4.43-6.05,5.88-9.43.92-2.18,1.41-4.05,1.54-5.93.01-.3.06-.59.12-.88v-.17c.61-3.83-.25-7.47-2.52-10.8-1.1-1.6-2.54-3.03-4.41-4.32-3.66-2.58-7.89-4.6-12.54-6.01-4.07-1.25-8.45-2.18-13.35-2.83-5.26-.7-10.49-1.05-15.57-1.05-2.23,0-4.43.07-6.59.2-4.5.27-8.26.66-12.04,1.72-1.56.42-3.07.63-4.47.63-1.11-.01-1.76-.12-2.31-.22-1.14-.22-1.99-.92-2.65-2.19-.32-.61-.17-1.71-.1-2.25.16-1.24,1.31-3.53,2.38-4.87,1.31-1.61,2.87-3.01,4.61-4.15,3.72-2.42,7.71-4.08,11.89-4.93,3.52-.71,7.19-1.11,10.91-1.18.97-.01,1.92-.03,2.88-.03m0-9c-1,0-1.98.01-2.98.03-.01,0-.06,0-.07,0-4.23.08-8.44.54-12.51,1.36-5.31,1.08-10.36,3.17-15.03,6.21-2.54,1.66-4.79,3.68-6.69,6.02-.02.02-.04.05-.06.07-1.36,1.71-3.78,5.59-4.26,9.33-.17,1.35-.57,4.46,1.06,7.57,1.93,3.69,5.11,6.13,8.95,6.86.96.18,2.12.35,3.87.37.04,0,.08,0,.12,0,2.19,0,4.47-.32,6.8-.94.03,0,.05-.01.08-.02,2.99-.83,6.11-1.15,10.17-1.4,1.98-.12,4.01-.19,6.04-.19.31,0,.61,0,.92,0-1.53.45-2.96,1.13-4.27,2.02-.91.61-1.75,1.34-2.52,2.18-.24.26-.67.74-1.11,1.36-.05.08-.11.15-.16.23l-.25.37c-.03.05-.07.1-.1.16-.57.91-1.03,1.89-1.41,2.99,0,.03-.02.05-.03.08h0s-.04.11-.04.11c-.04.1-.08.21-.12.31l-.04.09c-.06.14-.1.27-.15.41-.64,1.85-1.13,3.86-1.55,6.31-.49,2.8-.97,5.65-1.42,8.41,0,.02,0,.04,0,.06l-.26,1.63-.02.12c-.31,1.9-.63,3.86-.87,5.88-.77,6.53-1.27,11.83-1.58,16.6-.81.1-1.62.19-2.42.27-3.42.34-6.84.67-10.28,1-1.45.14-2.93.28-4.41.42-1.46.14-2.93.28-4.39.42l-4.01.38c-1.68.17-2.77.37-4,.64-2.22.5-4.31,1.74-5.89,3.51-2.59,2.9-4.03,6.17-4.28,9.73-.15,2.27-.03,4.47.38,6.74.81,4.44,2.93,8.08,6.3,10.88,1.9,1.59,4.19,2.47,6.63,2.56.04,0,.08,0,.12,0h.62c.67.04,1.27.05,1.85.05.25,0,.51,0,.76,0,.05,0,.1,0,.14,0l3.2-.12c3.52-.13,7.15-.26,10.75-.44,2.59-.13,5.11-.29,7.73-.45.17,5.79.43,10.31.84,14.39.53,5.47,1.36,10.31,2.53,14.77,1.09,4.12,2.43,7.4,4.23,10.32.04.06.08.12.11.18.93,1.43,1.69,2.43,2.54,3.33,2.75,2.94,6.47,4.56,10.47,4.56.39,0,.79-.02,1.19-.05,2.65-.19,6.63-.7,10.66-2.94,2.37-1.32,4.69-3.52,5.89-5.59,2.11-3.65,2.23-6.96,2.1-9.43-.09-1.87-.36-3.68-.56-5-.51-3.43-1.49-6.49-2.54-9.57-.41-1.2-.7-2.38-.92-3.73-.3-1.82-.47-4.17-.58-5.77-.07-1.04-.13-2.22-.17-3.58-.04-1.38-.09-2.6-.16-3.73-.15-2.45-.07-5.02.08-7.55,7.21-2.96,13.75-6.22,19.93-9.95,7.68-4.61,14.15-9.38,19.79-14.6,5.28-4.85,9.43-9.94,12.67-15.53,4.22-7.27,6.3-14.53,6.33-22.18.02-7.65-1.85-14.27-5.7-20.25-3-4.65-6.82-8.7-11.37-12.05-4.35-3.19-9.06-5.83-14.41-8.07-9.76-4.08-20.41-6.62-32.57-7.75-2.88-.28-6.06-.41-9.69-.41h0Zm16.64,72.36c.09-1.24.2-2.5.31-3.75,0-.02,0-.05,0-.07.3-3.68.62-7.37.93-11.05.21-2.31.14-4.46-.2-6.55-.35-2.15-1.04-5.43-2.88-8.56-1.71-2.92-4.08-5.08-6.94-6.38.66.08,1.32.16,1.99.25,4.44.59,8.33,1.41,11.89,2.5,3.79,1.15,7.15,2.75,10.01,4.77.02.01.04.03.06.04.94.65,1.63,1.31,2.11,2.01.98,1.43,1.31,2.77,1.07,4.34-.02.1-.03.21-.04.31-.09.53-.15,1.04-.17,1.54-.04.53-.18,1.41-.84,2.95-1.11,2.57-2.61,4.97-4.45,7.12-1.44,1.69-3.09,3.32-5.03,4.99-2.15,1.85-4.01,3.24-5.87,4.39-.63.39-1.28.77-1.95,1.14h0Z"/>
  </g>
</svg>